<svg width="701" height="500" viewBox="0 0 701 500" fill="none" xmlns="http://www.w3.org/2000/svg">
<rect width="700" height="500" transform="translate(0.460022)" fill="#ECECEC"/>
<path d="M471.598 76.68L548.393 57.5328C549.197 57.3324 549.848 57.8415 549.848 58.6699V117.771C549.848 118.599 549.197 119.433 548.393 119.633L471.598 138.781C470.794 138.981 470.142 138.472 470.142 137.643V78.5429C470.142 77.7144 470.794 76.8804 471.598 76.68Z" fill="#ABF6D6" stroke="#329168"/>
<path d="M501.118 103.755V102.809L501.801 102.638C502.399 102.489 502.847 101.937 502.847 101.222V95.6234L503.765 95.3945V101.214C503.765 102.402 502.9 103.31 501.844 103.574L501.118 103.755ZM507.985 102.163C506.513 102.53 505.424 101.537 505.424 99.8869C505.424 98.2479 506.513 96.7115 507.985 96.3442C509.458 95.977 510.558 96.9679 510.558 98.6069C510.558 100.257 509.458 101.796 507.985 102.163ZM507.985 101.283C508.957 101.041 509.65 99.9661 509.65 98.8441C509.65 97.7111 508.957 96.9821 507.985 97.2242C507.014 97.4664 506.331 98.5387 506.331 99.6717C506.331 100.794 507.014 101.525 507.985 101.283ZM514.355 94.756C515.391 94.4979 516.255 94.9643 516.255 96.3943V99.9803L515.369 100.201V96.7362C515.369 95.8562 514.836 95.5493 514.259 95.693C513.491 95.8846 512.989 96.5816 512.989 97.2966V100.795L512.103 101.016V93.3155L512.989 93.0946V95.8556C513.277 95.2888 513.715 94.9157 514.355 94.756ZM518.128 99.5134V93.9364L519.014 93.7155V94.3535C519.302 93.7867 519.74 93.4136 520.38 93.2539C521.415 92.9958 522.28 93.4622 522.28 94.8922V98.4782L521.394 98.6991V95.2341C521.394 94.3541 520.86 94.0472 520.284 94.1909C519.515 94.3825 519.014 95.0795 519.014 95.7945V99.2925L518.128 99.5134Z" fill="#329168"/>
<path d="M411.595 288.521L516.088 362.599" stroke="#FF2C2C" stroke-dasharray="2 2"/>
<rect x="0.485148" y="0.379039" width="257.937" height="201.084" rx="1.5" transform="matrix(0.970296 -0.241922 0 1 161.882 150.812)" fill="#FFC2C2" stroke="#FF2C2C"/>
<path d="M214.517 204.007L296.812 183.489C297.615 183.289 298.267 183.798 298.267 184.626V279.366C298.267 280.194 297.615 281.028 296.812 281.229L214.517 301.747C213.714 301.947 213.062 301.438 213.062 300.61V205.87C213.062 205.042 213.714 204.208 214.517 204.007Z" fill="#B5DDEA" stroke="#099FCE"/>
<path d="M235.524 220.143C233.486 220.651 232.183 219.194 232.183 216.994C232.183 214.794 233.486 212.687 235.524 212.179C236.666 211.894 237.467 212.223 237.99 212.906L237.232 213.667C236.89 213.18 236.282 212.936 235.513 213.128C234.137 213.471 233.123 215.088 233.123 216.76C233.123 218.432 234.137 219.543 235.513 219.2C236.282 219.008 236.89 218.471 237.232 217.825L238 218.173C237.477 219.128 236.666 219.858 235.524 220.143ZM241.521 218.626C240.048 218.993 238.96 217.999 238.96 216.349C238.96 214.71 240.048 213.174 241.521 212.807C242.994 212.44 244.094 213.43 244.094 215.069C244.094 216.719 242.994 218.259 241.521 218.626ZM241.521 217.746C242.493 217.504 243.186 216.429 243.186 215.307C243.186 214.174 242.493 213.445 241.521 213.687C240.55 213.929 239.867 215.001 239.867 216.134C239.867 217.256 240.55 217.988 241.521 217.746ZM245.639 217.478V209.778L246.525 209.557V217.257L245.639 217.478ZM248.443 216.779V209.079L249.329 208.858V216.558L248.443 216.779ZM253.542 215.618C252.058 215.988 250.873 215.172 250.873 213.357C250.873 211.652 252.037 210.185 253.339 209.86C254.918 209.466 255.783 210.549 255.783 211.946V212.364L251.781 213.362C251.802 214.457 252.677 214.953 253.51 214.746C254.129 214.591 254.577 214.227 254.854 213.783L255.506 214.204C255.068 214.885 254.395 215.405 253.542 215.618ZM254.886 211.795C254.79 211.06 254.321 210.495 253.328 210.743C252.602 210.924 251.93 211.653 251.77 212.573L254.886 211.795ZM259.618 214.103C258.113 214.478 256.96 213.533 256.96 211.861C256.96 210.189 258.124 208.667 259.618 208.295C260.515 208.071 261.144 208.299 261.55 208.77L260.867 209.479C260.589 209.175 260.152 209.053 259.607 209.188C258.636 209.431 257.868 210.436 257.868 211.635C257.868 212.823 258.636 213.468 259.607 213.225C260.152 213.09 260.579 212.741 260.867 212.306L261.539 212.689C261.102 213.381 260.504 213.882 259.618 214.103ZM264.935 212.667C264.284 212.829 263.665 212.709 263.665 211.785V208.287L262.459 208.587V207.707L263.665 207.407V205.68L264.551 205.063V207.186L265.992 206.827V207.707L264.551 208.066V211.256C264.551 211.729 264.828 211.803 265.148 211.723L265.767 211.569V212.46L264.935 212.667ZM268.069 205.033C267.685 205.128 267.376 204.887 267.376 204.491C267.376 204.073 267.685 203.687 268.069 203.592C268.475 203.49 268.784 203.721 268.784 204.139C268.784 204.535 268.475 204.931 268.069 205.033ZM267.642 211.992V206.415L268.528 206.194V211.771L267.642 211.992ZM272.634 210.868C271.161 211.236 270.073 210.242 270.073 208.592C270.073 206.953 271.161 205.417 272.634 205.049C274.107 204.682 275.206 205.673 275.206 207.312C275.206 208.962 274.107 210.501 272.634 210.868ZM272.634 209.988C273.606 209.746 274.299 208.671 274.299 207.549C274.299 206.416 273.606 205.687 272.634 205.929C271.663 206.172 270.98 207.244 270.98 208.377C270.98 209.499 271.663 210.231 272.634 209.988ZM276.752 209.721V204.144L277.638 203.923V204.561C277.926 203.994 278.364 203.621 279.004 203.461C280.04 203.203 280.904 203.67 280.904 205.1V208.686L280.018 208.906V205.441C280.018 204.561 279.485 204.254 278.908 204.398C278.14 204.59 277.638 205.287 277.638 206.002V209.5L276.752 209.721Z" fill="#099FCE"/>
<rect x="0.485148" y="0.379039" width="56.8936" height="42.6557" rx="1.5" transform="matrix(0.970296 -0.241922 0 1 229.969 238.003)" fill="#E0F397" stroke="#7A950E"/>
<path d="M243.244 257.349V249.649L244.396 249.362L247.726 254.769V248.532L248.644 248.303V256.003L247.481 256.293L244.161 250.895V257.121L243.244 257.349ZM252.962 255.047C251.49 255.414 250.401 254.421 250.401 252.771C250.401 251.132 251.49 249.595 252.962 249.228C254.435 248.861 255.535 249.852 255.535 251.491C255.535 253.141 254.435 254.68 252.962 255.047ZM252.962 254.167C253.934 253.925 254.628 252.85 254.628 251.728C254.628 250.595 253.934 249.866 252.962 250.108C251.991 250.35 251.308 251.423 251.308 252.556C251.308 253.678 251.991 254.409 252.962 254.167ZM259.258 253.478C257.881 253.821 256.707 252.97 256.707 251.221C256.707 249.406 258.062 247.968 259.3 247.659C259.909 247.507 260.378 247.544 260.635 247.777V245.313L261.521 245.092V252.792L260.635 253.013V252.529C260.411 252.948 259.888 253.321 259.258 253.478ZM259.3 252.587C259.866 252.446 260.389 252.062 260.635 251.506V248.866C260.4 248.518 259.962 248.374 259.311 248.536C258.553 248.725 257.614 249.652 257.614 250.994C257.614 252.182 258.372 252.818 259.3 252.587ZM265.733 251.852C264.25 252.222 263.065 251.406 263.065 249.591C263.065 247.886 264.228 246.419 265.53 246.095C267.11 245.701 267.975 246.783 267.975 248.18V248.598L263.972 249.596C263.994 250.691 264.869 251.188 265.701 250.98C266.32 250.826 266.769 250.461 267.046 250.018L267.697 250.438C267.26 251.12 266.587 251.639 265.733 251.852ZM267.078 248.03C266.982 247.295 266.512 246.73 265.52 246.977C264.794 247.158 264.122 247.887 263.962 248.807L267.078 248.03Z" fill="#7A950E"/>
<rect x="0.485148" y="0.379039" width="56.8936" height="42.6557" rx="1.5" transform="matrix(0.970296 -0.241922 0 1 238.144 244.815)" fill="#E0F397" stroke="#7A950E"/>
<path d="M255.679 265.85V258.15L256.832 257.863L260.162 263.27V257.033L261.08 256.804V264.504L259.917 264.794L256.597 259.396V265.622L255.679 265.85ZM265.398 263.548C263.925 263.915 262.837 262.922 262.837 261.272C262.837 259.633 263.925 258.096 265.398 257.729C266.871 257.362 267.971 258.353 267.971 259.992C267.971 261.642 266.871 263.181 265.398 263.548ZM265.398 262.668C266.37 262.426 267.063 261.351 267.063 260.229C267.063 259.096 266.37 258.367 265.398 258.609C264.427 258.851 263.744 259.924 263.744 261.057C263.744 262.179 264.427 262.91 265.398 262.668ZM271.694 261.979C270.317 262.322 269.143 261.471 269.143 259.722C269.143 257.907 270.498 256.469 271.736 256.16C272.345 256.008 272.814 256.045 273.071 256.278V253.814L273.956 253.593V261.293L273.071 261.514V261.03C272.846 261.449 272.323 261.822 271.694 261.979ZM271.736 261.088C272.302 260.947 272.825 260.564 273.071 260.007V257.367C272.836 257.019 272.398 256.875 271.747 257.037C270.989 257.226 270.05 258.153 270.05 259.495C270.05 260.683 270.808 261.32 271.736 261.088ZM278.169 260.353C276.686 260.723 275.501 259.907 275.501 258.092C275.501 256.387 276.664 254.92 277.966 254.596C279.546 254.202 280.411 255.284 280.411 256.681V257.099L276.408 258.097C276.429 259.192 277.305 259.689 278.137 259.481C278.756 259.327 279.205 258.962 279.482 258.519L280.133 258.939C279.695 259.621 279.023 260.14 278.169 260.353ZM279.514 256.531C279.418 255.796 278.948 255.231 277.956 255.478C277.23 255.659 276.558 256.388 276.397 257.308L279.514 256.531Z" fill="#7A950E"/>
<path d="M360.272 143.346L442.566 122.827C443.37 122.627 444.021 123.136 444.021 123.965V218.704C444.021 219.532 443.37 220.366 442.566 220.567L360.272 241.085C359.468 241.286 358.816 240.776 358.816 239.948V145.209C358.816 144.38 359.468 143.546 360.272 143.346Z" fill="#B5DDEA" stroke="#099FCE"/>
<path d="M381.279 159.481C379.24 159.989 377.938 158.532 377.938 156.332C377.938 154.132 379.24 152.025 381.279 151.517C382.421 151.232 383.221 151.561 383.744 152.244L382.986 153.005C382.645 152.519 382.036 152.274 381.268 152.466C379.891 152.809 378.877 154.426 378.877 156.098C378.877 157.77 379.891 158.881 381.268 158.538C382.036 158.346 382.645 157.81 382.986 157.163L383.755 157.511C383.232 158.466 382.421 159.196 381.279 159.481ZM387.276 157.964C385.803 158.331 384.714 157.338 384.714 155.688C384.714 154.049 385.803 152.512 387.276 152.145C388.749 151.778 389.848 152.769 389.848 154.408C389.848 156.058 388.749 157.597 387.276 157.964ZM387.276 157.084C388.247 156.842 388.941 155.767 388.941 154.645C388.941 153.512 388.247 152.783 387.276 153.025C386.304 153.267 385.621 154.339 385.621 155.472C385.621 156.594 386.304 157.326 387.276 157.084ZM391.394 156.816V149.116L392.279 148.895V156.595L391.394 156.816ZM394.197 156.117V148.417L395.083 148.196V155.896L394.197 156.117ZM399.296 154.956C397.812 155.326 396.628 154.51 396.628 152.695C396.628 150.99 397.791 149.523 399.093 149.198C400.673 148.805 401.537 149.887 401.537 151.284V151.702L397.535 152.7C397.556 153.795 398.431 154.291 399.264 154.084C399.883 153.93 400.331 153.565 400.609 153.122L401.26 153.542C400.822 154.223 400.15 154.743 399.296 154.956ZM400.641 151.134C400.545 150.399 400.075 149.834 399.082 150.081C398.357 150.262 397.684 150.991 397.524 151.911L400.641 151.134ZM405.372 153.441C403.867 153.816 402.715 152.871 402.715 151.199C402.715 149.527 403.878 148.005 405.372 147.633C406.269 147.409 406.899 147.637 407.304 148.108L406.621 148.818C406.344 148.513 405.906 148.391 405.362 148.527C404.39 148.769 403.622 149.774 403.622 150.973C403.622 152.161 404.39 152.806 405.362 152.564C405.906 152.428 406.333 152.079 406.621 151.645L407.294 152.027C406.856 152.719 406.258 153.22 405.372 153.441ZM410.689 152.005C410.038 152.168 409.419 152.047 409.419 151.123V147.625L408.213 147.926V147.046L409.419 146.745V145.018L410.305 144.401V146.524L411.746 146.165V147.045L410.305 147.404V150.594C410.305 151.067 410.583 151.141 410.903 151.061L411.522 150.907V151.798L410.689 152.005ZM413.824 144.371C413.439 144.467 413.13 144.225 413.13 143.829C413.13 143.411 413.439 143.026 413.824 142.93C414.229 142.829 414.539 143.059 414.539 143.477C414.539 143.873 414.229 144.27 413.824 144.371ZM413.397 151.33V145.753L414.283 145.532V151.109L413.397 151.33ZM418.389 150.207C416.916 150.574 415.827 149.58 415.827 147.93C415.827 146.291 416.916 144.755 418.389 144.388C419.861 144.02 420.961 145.011 420.961 146.65C420.961 148.3 419.861 149.839 418.389 150.207ZM418.389 149.327C419.36 149.084 420.054 148.009 420.054 146.887C420.054 145.754 419.36 145.025 418.389 145.268C417.417 145.51 416.734 146.582 416.734 147.715C416.734 148.837 417.417 149.569 418.389 149.327ZM422.507 149.059V143.482L423.392 143.261V143.899C423.681 143.332 424.118 142.959 424.759 142.799C425.794 142.541 426.658 143.008 426.658 144.438V148.024L425.773 148.245V144.78C425.773 143.9 425.239 143.593 424.663 143.736C423.894 143.928 423.392 144.625 423.392 145.34V148.838L422.507 149.059Z" fill="#099FCE"/>
<rect x="0.485148" y="0.379039" width="56.8936" height="42.6557" rx="1.5" transform="matrix(0.970296 -0.241922 0 1 375.724 177.341)" fill="#E0F397" stroke="#7A950E"/>
<path d="M388.998 196.688V188.988L390.151 188.7L393.481 194.107V187.87L394.399 187.641V195.341L393.235 195.631L389.916 190.233V196.459L388.998 196.688ZM398.717 194.386C397.244 194.753 396.155 193.759 396.155 192.109C396.155 190.47 397.244 188.934 398.717 188.567C400.19 188.199 401.289 189.19 401.289 190.829C401.289 192.479 400.19 194.018 398.717 194.386ZM398.717 193.506C399.688 193.263 400.382 192.188 400.382 191.066C400.382 189.933 399.688 189.204 398.717 189.447C397.746 189.689 397.062 190.761 397.062 191.894C397.062 193.016 397.746 193.748 398.717 193.506ZM405.012 192.816C403.635 193.159 402.461 192.308 402.461 190.559C402.461 188.744 403.817 187.306 405.055 186.997C405.663 186.846 406.133 186.883 406.389 187.116V184.652L407.275 184.431V192.131L406.389 192.352V191.868C406.165 192.287 405.642 192.659 405.012 192.816ZM405.055 191.925C405.621 191.784 406.143 191.401 406.389 190.845V188.205C406.154 187.856 405.717 187.712 405.065 187.875C404.308 188.064 403.368 188.991 403.368 190.333C403.368 191.521 404.126 192.157 405.055 191.925ZM411.488 191.19C410.004 191.56 408.819 190.745 408.819 188.93C408.819 187.225 409.983 185.758 411.285 185.433C412.864 185.039 413.729 186.122 413.729 187.519V187.937L409.727 188.935C409.748 190.029 410.623 190.526 411.456 190.318C412.075 190.164 412.523 189.799 412.8 189.356L413.451 189.777C413.014 190.458 412.341 190.978 411.488 191.19ZM412.832 187.368C412.736 186.633 412.267 186.068 411.274 186.316C410.548 186.497 409.876 187.225 409.716 188.145L412.832 187.368Z" fill="#7A950E"/>
<rect x="0.485148" y="0.379039" width="56.8936" height="42.6557" rx="1.5" transform="matrix(0.970296 -0.241922 0 1 383.899 184.154)" fill="#E0F397" stroke="#7A950E"/>
<path d="M401.434 205.189V197.489L402.587 197.201L405.917 202.608V196.371L406.834 196.142V203.842L405.671 204.132L402.352 198.734V204.96L401.434 205.189ZM411.153 202.886C409.68 203.254 408.591 202.26 408.591 200.61C408.591 198.971 409.68 197.435 411.153 197.067C412.626 196.7 413.725 197.691 413.725 199.33C413.725 200.98 412.626 202.519 411.153 202.886ZM411.153 202.006C412.124 201.764 412.818 200.689 412.818 199.567C412.818 198.434 412.124 197.705 411.153 197.947C410.181 198.19 409.498 199.262 409.498 200.395C409.498 201.517 410.181 202.249 411.153 202.006ZM417.448 201.317C416.071 201.66 414.897 200.809 414.897 199.06C414.897 197.245 416.253 195.807 417.491 195.498C418.099 195.346 418.569 195.383 418.825 195.616V193.152L419.711 192.932V200.632L418.825 200.852V200.368C418.601 200.787 418.078 201.16 417.448 201.317ZM417.491 200.426C418.056 200.285 418.579 199.902 418.825 199.345V196.705C418.59 196.357 418.152 196.213 417.501 196.375C416.744 196.564 415.804 197.492 415.804 198.834C415.804 200.022 416.562 200.658 417.491 200.426ZM423.924 199.691C422.44 200.061 421.255 199.246 421.255 197.431C421.255 195.726 422.419 194.258 423.721 193.934C425.3 193.54 426.165 194.622 426.165 196.019V196.437L422.162 197.435C422.184 198.53 423.059 199.027 423.892 198.819C424.511 198.665 424.959 198.3 425.236 197.857L425.887 198.278C425.45 198.959 424.777 199.478 423.924 199.691ZM425.268 195.869C425.172 195.134 424.703 194.569 423.71 194.816C422.984 194.997 422.312 195.726 422.152 196.646L425.268 195.869Z" fill="#7A950E"/>
<path d="M403.596 248.042L485.89 227.523C486.694 227.323 487.346 227.832 487.346 228.66V323.4C487.346 324.228 486.694 325.062 485.89 325.263L403.596 345.781C402.792 345.981 402.141 345.472 402.141 344.644V249.904C402.141 249.076 402.792 248.242 403.596 248.042Z" fill="#B5DDEA" stroke="#099FCE"/>
<path d="M424.603 264.177C422.564 264.685 421.262 263.228 421.262 261.028C421.262 258.828 422.564 256.721 424.603 256.213C425.745 255.928 426.545 256.257 427.068 256.94L426.311 257.701C425.969 257.215 425.361 256.97 424.592 257.162C423.215 257.505 422.201 259.122 422.201 260.794C422.201 262.466 423.215 263.577 424.592 263.234C425.361 263.042 425.969 262.506 426.311 261.859L427.079 262.207C426.556 263.162 425.745 263.892 424.603 264.177ZM430.6 262.66C429.127 263.027 428.039 262.034 428.039 260.384C428.039 258.745 429.127 257.208 430.6 256.841C432.073 256.474 433.172 257.465 433.172 259.104C433.172 260.754 432.073 262.293 430.6 262.66ZM430.6 261.78C431.571 261.538 432.265 260.463 432.265 259.341C432.265 258.208 431.571 257.479 430.6 257.721C429.629 257.963 428.946 259.035 428.946 260.168C428.946 261.29 429.629 262.022 430.6 261.78ZM434.718 261.512V253.812L435.604 253.591V261.291L434.718 261.512ZM437.522 260.813V253.113L438.408 252.892V260.592L437.522 260.813ZM442.62 259.652C441.137 260.022 439.952 259.206 439.952 257.391C439.952 255.686 441.115 254.219 442.418 253.894C443.997 253.501 444.862 254.583 444.862 255.98V256.398L440.859 257.396C440.881 258.491 441.756 258.987 442.588 258.78C443.207 258.626 443.656 258.261 443.933 257.818L444.584 258.238C444.147 258.919 443.474 259.439 442.62 259.652ZM443.965 255.83C443.869 255.095 443.4 254.53 442.407 254.777C441.681 254.958 441.009 255.687 440.849 256.607L443.965 255.83ZM448.697 258.137C447.192 258.512 446.039 257.568 446.039 255.896C446.039 254.224 447.203 252.701 448.697 252.329C449.593 252.105 450.223 252.333 450.629 252.804L449.946 253.514C449.668 253.209 449.23 253.087 448.686 253.223C447.715 253.465 446.946 254.47 446.946 255.669C446.946 256.857 447.715 257.502 448.686 257.26C449.23 257.124 449.657 256.775 449.946 256.341L450.618 256.723C450.18 257.415 449.583 257.916 448.697 258.137ZM454.014 256.701C453.363 256.864 452.744 256.743 452.744 255.819V252.321L451.538 252.622V251.742L452.744 251.441V249.714L453.63 249.097V251.22L455.07 250.861V251.741L453.63 252.1V255.29C453.63 255.763 453.907 255.837 454.227 255.757L454.846 255.603V256.494L454.014 256.701ZM457.148 249.067C456.764 249.163 456.454 248.921 456.454 248.525C456.454 248.107 456.764 247.722 457.148 247.626C457.554 247.525 457.863 247.755 457.863 248.173C457.863 248.569 457.554 248.966 457.148 249.067ZM456.721 256.026V250.449L457.607 250.228V255.805L456.721 256.026ZM461.713 254.903C460.24 255.27 459.151 254.276 459.151 252.626C459.151 250.987 460.24 249.451 461.713 249.084C463.186 248.716 464.285 249.707 464.285 251.346C464.285 252.996 463.186 254.535 461.713 254.903ZM461.713 254.023C462.684 253.78 463.378 252.705 463.378 251.583C463.378 250.45 462.684 249.721 461.713 249.964C460.742 250.206 460.059 251.278 460.059 252.411C460.059 253.533 460.742 254.265 461.713 254.023ZM465.831 253.755V248.178L466.717 247.957V248.595C467.005 248.028 467.443 247.655 468.083 247.495C469.118 247.237 469.983 247.704 469.983 249.134V252.72L469.097 252.941V249.476C469.097 248.596 468.563 248.289 467.987 248.432C467.219 248.624 466.717 249.321 466.717 250.036V253.534L465.831 253.755Z" fill="#099FCE"/>
<rect x="0.485148" y="0.379039" width="56.8936" height="42.6557" rx="1.5" transform="matrix(0.970296 -0.241922 0 1 419.048 282.037)" fill="#E0F397" stroke="#7A950E"/>
<path d="M432.322 301.384V293.684L433.475 293.396L436.805 298.803V292.566L437.723 292.337V300.037L436.56 300.327L433.24 294.929V301.155L432.322 301.384ZM442.041 299.081C440.568 299.449 439.48 298.455 439.48 296.805C439.48 295.166 440.568 293.63 442.041 293.262C443.514 292.895 444.614 293.886 444.614 295.525C444.614 297.175 443.514 298.714 442.041 299.081ZM442.041 298.201C443.013 297.959 443.706 296.884 443.706 295.762C443.706 294.629 443.013 293.9 442.041 294.142C441.07 294.385 440.387 295.457 440.387 296.59C440.387 297.712 441.07 298.444 442.041 298.201ZM448.337 297.512C446.96 297.855 445.786 297.004 445.786 295.255C445.786 293.44 447.141 292.002 448.379 291.693C448.988 291.541 449.457 291.578 449.713 291.811V289.347L450.599 289.127V296.827L449.713 297.047V296.563C449.489 296.982 448.966 297.355 448.337 297.512ZM448.379 296.621C448.945 296.48 449.468 296.097 449.713 295.54V292.9C449.479 292.552 449.041 292.408 448.39 292.57C447.632 292.759 446.693 293.687 446.693 295.029C446.693 296.217 447.451 296.853 448.379 296.621ZM454.812 295.886C453.329 296.256 452.144 295.441 452.144 293.626C452.144 291.921 453.307 290.453 454.609 290.129C456.189 289.735 457.053 290.817 457.053 292.214V292.632L453.051 293.63C453.072 294.725 453.948 295.222 454.78 295.014C455.399 294.86 455.847 294.495 456.125 294.052L456.776 294.473C456.338 295.154 455.666 295.673 454.812 295.886ZM456.157 292.064C456.061 291.329 455.591 290.764 454.599 291.011C453.873 291.192 453.2 291.921 453.04 292.841L456.157 292.064Z" fill="#7A950E"/>
<rect x="0.485148" y="0.379039" width="56.8936" height="42.6557" rx="1.5" transform="matrix(0.970296 -0.241922 0 1 427.223 288.85)" fill="#E0F397" stroke="#7A950E"/>
<path d="M444.758 309.885V302.185L445.911 301.897L449.241 307.304V301.067L450.159 300.838V308.538L448.996 308.828L445.676 303.43V309.656L444.758 309.885ZM454.477 307.582C453.004 307.95 451.916 306.956 451.916 305.306C451.916 303.667 453.004 302.131 454.477 301.763C455.95 301.396 457.049 302.387 457.049 304.026C457.049 305.676 455.95 307.215 454.477 307.582ZM454.477 306.702C455.448 306.46 456.142 305.385 456.142 304.263C456.142 303.13 455.448 302.401 454.477 302.643C453.506 302.886 452.823 303.958 452.823 305.091C452.823 306.213 453.506 306.945 454.477 306.702ZM460.773 306.013C459.396 306.356 458.222 305.505 458.222 303.756C458.222 301.941 459.577 300.503 460.815 300.194C461.424 300.043 461.893 300.079 462.149 300.313V297.849L463.035 297.628V305.328L462.149 305.549V305.065C461.925 305.483 461.402 305.856 460.773 306.013ZM460.815 305.122C461.381 304.981 461.904 304.598 462.149 304.042V301.402C461.915 301.053 461.477 300.909 460.826 301.072C460.068 301.26 459.129 302.188 459.129 303.53C459.129 304.718 459.887 305.354 460.815 305.122ZM467.248 304.387C465.764 304.757 464.58 303.942 464.58 302.127C464.58 300.422 465.743 298.955 467.045 298.63C468.625 298.236 469.489 299.318 469.489 300.715V301.133L465.487 302.131C465.508 303.226 466.383 303.723 467.216 303.515C467.835 303.361 468.283 302.996 468.561 302.553L469.212 302.974C468.774 303.655 468.102 304.174 467.248 304.387ZM468.593 300.565C468.497 299.83 468.027 299.265 467.035 299.513C466.309 299.693 465.636 300.422 465.476 301.342L468.593 300.565Z" fill="#7A950E"/>
<path d="M283.589 296.229L365.883 275.71C366.687 275.51 367.339 276.019 367.339 276.847V371.587C367.339 372.415 366.687 373.249 365.883 373.45L283.589 393.968C282.785 394.168 282.134 393.659 282.134 392.831V298.091C282.134 297.263 282.785 296.429 283.589 296.229Z" fill="#B5DDEA" stroke="#099FCE"/>
<path d="M304.596 312.364C302.557 312.872 301.255 311.415 301.255 309.215C301.255 307.015 302.557 304.908 304.596 304.4C305.738 304.115 306.538 304.444 307.061 305.127L306.304 305.888C305.962 305.402 305.354 305.157 304.585 305.349C303.208 305.692 302.194 307.309 302.194 308.981C302.194 310.653 303.208 311.764 304.585 311.421C305.354 311.229 305.962 310.693 306.304 310.046L307.072 310.394C306.549 311.349 305.738 312.079 304.596 312.364ZM310.593 310.847C309.12 311.214 308.031 310.221 308.031 308.571C308.031 306.932 309.12 305.395 310.593 305.028C312.066 304.661 313.165 305.652 313.165 307.291C313.165 308.941 312.066 310.48 310.593 310.847ZM310.593 309.967C311.564 309.725 312.258 308.65 312.258 307.528C312.258 306.395 311.564 305.666 310.593 305.908C309.622 306.15 308.939 307.222 308.939 308.355C308.939 309.477 309.622 310.209 310.593 309.967ZM314.711 309.699V301.999L315.597 301.778V309.478L314.711 309.699ZM317.515 309V301.3L318.401 301.079V308.779L317.515 309ZM322.613 307.839C321.13 308.209 319.945 307.393 319.945 305.578C319.945 303.873 321.108 302.406 322.41 302.082C323.99 301.688 324.855 302.77 324.855 304.167V304.585L320.852 305.583C320.874 306.678 321.749 307.174 322.581 306.967C323.2 306.813 323.649 306.448 323.926 306.005L324.577 306.425C324.14 307.106 323.467 307.626 322.613 307.839ZM323.958 304.017C323.862 303.282 323.392 302.717 322.4 302.964C321.674 303.145 321.002 303.874 320.842 304.794L323.958 304.017ZM328.69 306.324C327.185 306.699 326.032 305.755 326.032 304.083C326.032 302.411 327.195 300.888 328.69 300.516C329.586 300.292 330.216 300.52 330.622 300.991L329.938 301.701C329.661 301.396 329.223 301.274 328.679 301.41C327.708 301.652 326.939 302.657 326.939 303.856C326.939 305.044 327.708 305.689 328.679 305.447C329.223 305.311 329.65 304.962 329.938 304.528L330.611 304.91C330.173 305.602 329.576 306.103 328.69 306.324ZM334.007 304.888C333.356 305.051 332.737 304.93 332.737 304.006V300.508L331.53 300.809V299.929L332.737 299.628V297.901L333.622 297.284V299.407L335.063 299.048V299.928L333.622 300.287V303.477C333.622 303.95 333.9 304.024 334.22 303.944L334.839 303.79V304.681L334.007 304.888ZM337.141 297.254C336.757 297.35 336.447 297.108 336.447 296.712C336.447 296.294 336.757 295.909 337.141 295.813C337.547 295.712 337.856 295.942 337.856 296.36C337.856 296.756 337.547 297.153 337.141 297.254ZM336.714 304.213V298.636L337.6 298.415V303.992L336.714 304.213ZM341.706 303.09C340.233 303.457 339.144 302.463 339.144 300.813C339.144 299.174 340.233 297.638 341.706 297.271C343.179 296.903 344.278 297.894 344.278 299.533C344.278 301.183 343.179 302.722 341.706 303.09ZM341.706 302.21C342.677 301.967 343.371 300.892 343.371 299.77C343.371 298.637 342.677 297.908 341.706 298.151C340.735 298.393 340.052 299.465 340.052 300.598C340.052 301.72 340.735 302.452 341.706 302.21ZM345.824 301.942V296.365L346.71 296.144V296.782C346.998 296.215 347.436 295.842 348.076 295.682C349.111 295.424 349.976 295.891 349.976 297.321V300.907L349.09 301.128V297.663C349.09 296.783 348.556 296.476 347.98 296.619C347.211 296.811 346.71 297.508 346.71 298.223V301.721L345.824 301.942Z" fill="#099FCE"/>
<rect x="0.485148" y="0.379039" width="56.8936" height="42.6557" rx="1.5" transform="matrix(0.970296 -0.241922 0 1 299.041 330.224)" fill="#E0F397" stroke="#7A950E"/>
<path d="M312.315 349.571V341.871L313.468 341.583L316.798 346.99V340.753L317.716 340.524V348.224L316.553 348.514L313.233 343.116V349.342L312.315 349.571ZM322.034 347.268C320.561 347.636 319.473 346.642 319.473 344.992C319.473 343.353 320.561 341.817 322.034 341.449C323.507 341.082 324.606 342.073 324.606 343.712C324.606 345.362 323.507 346.901 322.034 347.268ZM322.034 346.388C323.005 346.146 323.699 345.071 323.699 343.949C323.699 342.816 323.005 342.087 322.034 342.329C321.063 342.572 320.38 343.644 320.38 344.777C320.38 345.899 321.063 346.631 322.034 346.388ZM328.329 345.699C326.953 346.042 325.779 345.191 325.779 343.442C325.779 341.627 327.134 340.189 328.372 339.88C328.981 339.728 329.45 339.765 329.706 339.998V337.534L330.592 337.314V345.014L329.706 345.234V344.75C329.482 345.169 328.959 345.542 328.329 345.699ZM328.372 344.808C328.938 344.667 329.461 344.284 329.706 343.727V341.087C329.471 340.739 329.034 340.595 328.383 340.757C327.625 340.946 326.686 341.874 326.686 343.216C326.686 344.404 327.444 345.04 328.372 344.808ZM334.805 344.073C333.321 344.443 332.137 343.628 332.137 341.813C332.137 340.108 333.3 338.64 334.602 338.316C336.182 337.922 337.046 339.004 337.046 340.401V340.819L333.044 341.817C333.065 342.912 333.94 343.409 334.773 343.201C335.392 343.047 335.84 342.682 336.118 342.239L336.769 342.66C336.331 343.341 335.659 343.86 334.805 344.073ZM336.15 340.251C336.054 339.516 335.584 338.951 334.591 339.198C333.866 339.379 333.193 340.108 333.033 341.028L336.15 340.251Z" fill="#7A950E"/>
<rect x="0.485148" y="0.379039" width="56.8936" height="42.6557" rx="1.5" transform="matrix(0.970296 -0.241922 0 1 307.216 337.036)" fill="#E0F397" stroke="#7A950E"/>
<path d="M324.751 358.071V350.371L325.904 350.084L329.234 355.491V349.254L330.152 349.025V356.725L328.988 357.015L325.669 351.617V357.843L324.751 358.071ZM334.47 355.769C332.997 356.136 331.908 355.143 331.908 353.493C331.908 351.854 332.997 350.317 334.47 349.95C335.943 349.583 337.042 350.574 337.042 352.213C337.042 353.863 335.943 355.402 334.47 355.769ZM334.47 354.889C335.441 354.647 336.135 353.572 336.135 352.45C336.135 351.317 335.441 350.588 334.47 350.83C333.499 351.072 332.816 352.145 332.816 353.278C332.816 354.4 333.499 355.131 334.47 354.889ZM340.765 354.2C339.389 354.543 338.214 353.692 338.214 351.943C338.214 350.128 339.57 348.69 340.808 348.381C341.416 348.229 341.886 348.266 342.142 348.499V346.035L343.028 345.814V353.514L342.142 353.735V353.251C341.918 353.67 341.395 354.043 340.765 354.2ZM340.808 353.309C341.374 353.168 341.897 352.785 342.142 352.228V349.588C341.907 349.24 341.47 349.096 340.819 349.258C340.061 349.447 339.122 350.374 339.122 351.716C339.122 352.904 339.879 353.54 340.808 353.309ZM347.241 352.574C345.757 352.944 344.573 352.128 344.573 350.313C344.573 348.608 345.736 347.141 347.038 346.817C348.618 346.423 349.482 347.505 349.482 348.902V349.32L345.48 350.318C345.501 351.413 346.376 351.91 347.209 351.702C347.828 351.548 348.276 351.183 348.554 350.74L349.205 351.16C348.767 351.842 348.095 352.361 347.241 352.574ZM348.586 348.752C348.49 348.017 348.02 347.452 347.027 347.699C346.302 347.88 345.629 348.609 345.469 349.529L348.586 348.752Z" fill="#7A950E"/>
<path d="M266.734 150.268V142.568L267.865 142.286L269.819 144.956L271.772 141.312L272.861 141.041V148.741L271.943 148.97V142.755L269.851 146.565L269.755 146.589L267.652 143.77V150.04L266.734 150.268ZM275.422 141.249C275.037 141.345 274.728 141.103 274.728 140.707C274.728 140.289 275.037 139.904 275.422 139.808C275.827 139.707 276.137 139.938 276.137 140.356C276.137 140.752 275.827 141.148 275.422 141.249ZM274.995 148.209V142.632L275.881 142.411V147.988L274.995 148.209ZM280.083 147.05C278.578 147.426 277.425 146.481 277.425 144.809C277.425 143.137 278.588 141.615 280.083 141.242C280.979 141.019 281.609 141.247 282.014 141.718L281.331 142.427C281.054 142.122 280.616 142 280.072 142.136C279.101 142.378 278.332 143.384 278.332 144.583C278.332 145.771 279.101 146.415 280.072 146.173C280.616 146.037 281.043 145.689 281.331 145.254L282.004 145.636C281.566 146.328 280.968 146.829 280.083 147.05ZM283.51 146.086V140.509L284.396 140.288V141.124C284.588 140.603 285.165 140.052 285.912 139.866C286.339 139.759 286.627 139.754 286.926 139.888L286.499 140.875C286.339 140.793 286.115 140.794 285.837 140.864C285.175 141.029 284.556 141.579 284.396 142.587V145.865L283.51 146.086ZM290.18 144.544C288.707 144.911 287.619 143.917 287.619 142.267C287.619 140.628 288.707 139.092 290.18 138.725C291.653 138.357 292.753 139.348 292.753 140.987C292.753 142.637 291.653 144.176 290.18 144.544ZM290.18 143.664C291.152 143.421 291.845 142.347 291.845 141.225C291.845 140.092 291.152 139.362 290.18 139.605C289.209 139.847 288.526 140.919 288.526 142.052C288.526 143.174 289.209 143.906 290.18 143.664ZM296.582 142.936C295.077 143.312 293.925 142.367 293.925 140.695C293.925 139.023 295.088 137.501 296.582 137.128C297.479 136.905 298.109 137.133 298.514 137.604L297.831 138.313C297.554 138.008 297.116 137.886 296.572 138.022C295.6 138.264 294.832 139.27 294.832 140.469C294.832 141.657 295.6 142.301 296.572 142.059C297.116 141.923 297.543 141.575 297.831 141.14L298.503 141.522C298.066 142.215 297.468 142.716 296.582 142.936ZM302.094 141.573C300.621 141.94 299.532 140.947 299.532 139.297C299.532 137.658 300.621 136.121 302.094 135.754C303.567 135.387 304.666 136.378 304.666 138.017C304.666 139.667 303.567 141.206 302.094 141.573ZM302.094 140.693C303.065 140.451 303.759 139.376 303.759 138.254C303.759 137.121 303.065 136.392 302.094 136.634C301.123 136.876 300.439 137.949 300.439 139.082C300.439 140.204 301.123 140.935 302.094 140.693ZM307.92 140.121C307.076 140.331 306.201 140.208 305.678 139.69L306.265 138.894C306.617 139.246 307.279 139.433 307.984 139.258C308.645 139.093 309.072 138.722 309.072 138.249C309.072 137.897 308.848 137.744 308.539 137.711L307.012 137.553C306.319 137.484 305.902 137.093 305.902 136.444C305.902 135.454 306.842 134.582 307.909 134.315C308.635 134.134 309.382 134.19 309.947 134.698L309.339 135.455C309.008 135.119 308.453 135.027 307.855 135.176C307.322 135.309 306.777 135.675 306.777 136.159C306.777 136.489 307.002 136.61 307.322 136.64L308.72 136.786C309.467 136.864 309.947 137.173 309.947 137.965C309.947 138.933 309.211 139.799 307.92 140.121ZM311.496 139.108V133.531L312.382 133.31V133.838C312.638 133.345 313.023 133.029 313.567 132.894C314.122 132.755 314.56 132.899 314.848 133.333C315.168 132.704 315.712 132.359 316.203 132.236C317.313 131.96 318.018 132.576 318.018 133.621V137.482L317.132 137.703V133.919C317.132 133.259 316.726 133.008 316.193 133.141C315.691 133.266 315.2 133.741 315.2 134.401V138.185L314.314 138.405V134.621C314.314 133.961 313.855 133.724 313.343 133.852C312.82 133.982 312.382 134.443 312.382 135.103V138.887L311.496 139.108Z" fill="#FF2C2C"/>
<path d="M163.208 151.208L267.701 225.285" stroke="#FF2C2C" stroke-dasharray="2 2"/>
<path d="M163.208 352.677L267.701 426.755" stroke="#FF2C2C" stroke-dasharray="2 2"/>
<path d="M411.595 88.0522L516.088 162.13" stroke="#FF2C2C" stroke-dasharray="2 2"/>
<path d="M268.799 425.791C268.607 425.839 268.434 425.844 268.284 425.819L268.204 426.313C267.709 426.233 267.315 425.924 267.118 425.462L267.579 425.267C267.519 425.127 267.482 424.957 267.482 424.759V423.769H266.982V421.788H267.482V419.807H266.982V417.826H267.482V415.846H266.982V413.865H267.482V411.884H266.982V409.903H267.482V407.922H266.982V405.941H267.482V403.96H266.982V401.98H267.482V399.999H266.982V398.018H267.482V396.037H266.982V394.056H267.482V392.075H266.982V390.095H267.482V388.114H266.982V386.133H267.482V384.152H266.982V382.171H267.482V380.19H266.982V378.21H267.482V376.229H266.982V374.248H267.482V372.267H266.982V370.286H267.482V368.305H266.982V366.325H267.482V364.344H266.982V362.363H267.482V360.382H266.982V358.401H267.482V356.42H266.982V354.44H267.482V352.459H266.982V350.478H267.482V348.497H266.982V346.516H267.482V344.535H266.982V342.555H267.482V340.574H266.982V338.593H267.482V336.612H266.982V334.631H267.482V332.65H266.982V330.67H267.482V328.689H266.982V326.708H267.482V324.727H266.982V322.746H267.482V320.765H266.982V318.785H267.482V316.804H266.982V314.823H267.482V312.842H266.982V310.861H267.482V308.88H266.982V306.9H267.482V304.919H266.982V302.938H267.482V300.957H266.982V298.976H267.482V296.995H266.982V295.015H267.482V293.034H266.982V291.053H267.482V289.072H266.982V287.091H267.482V285.11H266.982V283.13H267.482V281.149H266.982V279.168H267.482V277.187H266.982V275.206H267.482V273.225H266.982V271.245H267.482V269.264H266.982V267.283H267.482V265.302H266.982V263.321H267.482V261.34H266.982V259.36H267.482V257.379H266.982V255.398H267.482V253.417H266.982V251.436H267.482V249.455H266.982V247.475H267.482V245.494H266.982V243.513H267.482V241.532H266.982V239.551H267.482V237.57H266.982V235.59H267.482V233.609H266.982V231.628H267.482V229.647H266.982V227.666H267.482V226.676C267.482 226.462 267.525 226.242 267.606 226.026L267.138 225.85C267.335 225.328 267.704 224.857 268.163 224.54L268.447 224.952C268.637 224.821 268.84 224.727 269.047 224.676L270.014 224.437L269.894 223.952L271.827 223.474L271.947 223.959L273.88 223.482L273.76 222.996L275.694 222.518L275.814 223.004L277.747 222.526L277.627 222.041L279.56 221.563L279.68 222.048L281.613 221.57L281.493 221.085L283.427 220.607L283.547 221.092L285.48 220.615L285.36 220.129L287.293 219.651L287.413 220.137L289.347 219.659L289.227 219.174L291.16 218.696L291.28 219.181L293.213 218.703L293.093 218.218L295.026 217.74L295.146 218.225L297.08 217.748L296.96 217.262L298.893 216.784L299.013 217.27L300.946 216.792L300.826 216.307L302.759 215.829L302.879 216.314L304.813 215.836L304.693 215.351L306.626 214.873L306.746 215.358L308.679 214.881L308.559 214.395L310.493 213.917L310.613 214.403L312.546 213.925L312.426 213.44L314.359 212.962L314.479 213.447L316.412 212.969L316.292 212.484L318.226 212.006L318.346 212.492L320.279 212.014L320.159 211.528L322.092 211.05L322.212 211.536L324.145 211.058L324.025 210.573L325.959 210.095L326.079 210.58L328.012 210.102L327.892 209.617L329.825 209.139L329.945 209.625L331.879 209.147L331.759 208.661L333.692 208.183L333.812 208.669L335.745 208.191L335.625 207.706L337.558 207.228L337.678 207.713L339.612 207.235L339.492 206.75L341.425 206.272L341.545 206.758L343.478 206.28L343.358 205.794L345.292 205.317L345.411 205.802L347.345 205.324L347.225 204.839L349.158 204.361L349.278 204.846L351.211 204.368L351.091 203.883L353.025 203.405L353.145 203.891L355.078 203.413L354.958 202.927L356.891 202.45L357.011 202.935L358.944 202.457L358.824 201.972L360.758 201.494L360.878 201.979L362.811 201.501L362.691 201.016L364.624 200.538L364.744 201.024L366.677 200.546L366.558 200.06L368.491 199.583L368.611 200.068L370.544 199.59L370.424 199.105L372.357 198.627L372.477 199.112L374.411 198.634L374.291 198.149L376.224 197.671L376.344 198.157L378.277 197.679L378.157 197.193L380.09 196.716L380.21 197.201L382.144 196.723L382.024 196.238L383.957 195.76L384.077 196.245L386.01 195.767L385.89 195.282L387.824 194.804L387.943 195.29L389.877 194.812L389.757 194.326L391.69 193.849L391.81 194.334L393.743 193.856L393.623 193.371L395.557 192.893L395.677 193.378L397.61 192.901L397.49 192.415L399.423 191.937L399.543 192.423L401.476 191.945L401.356 191.459L403.29 190.982L403.41 191.467L405.343 190.989L405.223 190.504L407.156 190.026L407.276 190.511L409.21 190.034L409.09 189.548L411.023 189.07L411.143 189.556L413.076 189.078L412.956 188.592L414.889 188.115L415.009 188.6L416.943 188.122L416.823 187.637L418.756 187.159L418.876 187.644L420.809 187.167L420.689 186.681L422.623 186.203L422.742 186.689L424.676 186.211L424.556 185.725L426.489 185.248L426.609 185.733L428.542 185.255L428.422 184.77L430.356 184.292L430.476 184.777L432.409 184.3L432.289 183.814L434.222 183.336L434.342 183.822L436.275 183.344L436.155 182.859L438.089 182.381L438.209 182.866L440.142 182.388L440.022 181.903L441.955 181.425L442.075 181.91L444.009 181.433L443.889 180.947L445.822 180.469L445.942 180.955L447.875 180.477L447.755 179.992L449.688 179.514L449.808 179.999L451.742 179.521L451.622 179.036L453.555 178.558L453.675 179.043L455.608 178.566L455.488 178.08L457.422 177.602L457.542 178.088L459.475 177.61L459.355 177.125L461.288 176.647L461.408 177.132L463.341 176.654L463.221 176.169L465.155 175.691L465.275 176.176L467.208 175.699L467.088 175.213L469.021 174.735L469.141 175.221L471.074 174.743L470.955 174.258L472.888 173.78L473.008 174.265L474.941 173.787L474.821 173.302L476.754 172.824L476.874 173.309L478.808 172.832L478.688 172.346L480.621 171.868L480.741 172.354L482.674 171.876L482.554 171.391L484.487 170.913L484.607 171.398L486.541 170.92L486.421 170.435L488.354 169.957L488.474 170.442L490.407 169.965L490.287 169.479L492.221 169.001L492.341 169.487L494.274 169.009L494.154 168.524L496.087 168.046L496.207 168.531L498.14 168.053L498.02 167.568L499.954 167.09L500.074 167.575L502.007 167.098L501.887 166.612L503.82 166.134L503.94 166.62L505.874 166.142L505.754 165.657L507.687 165.179L507.807 165.664L509.74 165.186L509.62 164.701L511.553 164.223L511.673 164.708L513.607 164.231L513.487 163.745L515.42 163.267L515.54 163.753L516.506 163.514C516.699 163.466 516.872 163.461 517.021 163.486L517.101 162.992C517.596 163.072 517.99 163.381 518.187 163.843L517.727 164.039C517.786 164.178 517.823 164.348 517.823 164.546V165.536H518.323V167.517H517.823V169.498H518.323V171.479H517.823V173.46H518.323V175.44H517.823V177.421H518.323V179.402H517.823V181.383H518.323V183.364H517.823V185.345H518.323V187.325H517.823V189.306H518.323V191.287H517.823V193.268H518.323V195.249H517.823V197.23H518.323V199.21H517.823V201.191H518.323V203.172H517.823V205.153H518.323V207.134H517.823V209.115H518.323V211.095H517.823V213.076H518.323V215.057H517.823V217.038H518.323V219.019H517.823V221H518.323V222.98H517.823V224.961H518.323V226.942H517.823V228.923H518.323V230.904H517.823V232.885H518.323V234.865H517.823V236.846H518.323V238.827H517.823V240.808H518.323V242.789H517.823V244.77H518.323V246.75H517.823V248.731H518.323V250.712H517.823V252.693H518.323V254.674H517.823V256.655H518.323V258.635H517.823V260.616H518.323V262.597H517.823V264.578H518.323V266.559H517.823V268.54H518.323V270.52H517.823V272.501H518.323V274.482H517.823V276.463H518.323V278.444H517.823V280.425H518.323V282.405H517.823V284.386H518.323V286.367H517.823V288.348H518.323V290.329H517.823V292.31H518.323V294.29H517.823V296.271H518.323V298.252H517.823V300.233H518.323V302.214H517.823V304.195H518.323V306.175H517.823V308.156H518.323V310.137H517.823V312.118H518.323V314.099H517.823V316.08H518.323V318.061H517.823V320.041H518.323V322.022H517.823V324.003H518.323V325.984H517.823V327.965H518.323V329.946H517.823V331.926H518.323V333.907H517.823V335.888H518.323V337.869H517.823V339.85H518.323V341.831H517.823V343.811H518.323V345.792H517.823V347.773H518.323V349.754H517.823V351.735H518.323V353.716H517.823V355.696H518.323V357.677H517.823V359.658H518.323V361.639H517.823V362.629C517.823 362.843 517.78 363.063 517.699 363.279L518.167 363.455C517.97 363.977 517.602 364.448 517.142 364.765L516.858 364.353C516.668 364.484 516.465 364.578 516.258 364.629L515.292 364.868L515.412 365.353L513.478 365.831L513.358 365.346L511.425 365.823L511.545 366.309L509.612 366.787L509.492 366.301L507.558 366.779L507.678 367.264L505.745 367.742L505.625 367.257L503.692 367.735L503.812 368.22L501.879 368.698L501.759 368.213L499.825 368.69L499.945 369.176L498.012 369.654L497.892 369.168L495.959 369.646L496.079 370.131L494.146 370.609L494.026 370.124L492.092 370.602L492.212 371.087L490.279 371.565L490.159 371.08L488.226 371.557L488.346 372.043L486.412 372.521L486.292 372.035L484.359 372.513L484.479 372.998L482.546 373.476L482.426 372.991L480.493 373.469L480.613 373.954L478.679 374.432L478.559 373.947L476.626 374.424L476.746 374.91L474.813 375.388L474.693 374.902L472.76 375.38L472.879 375.865L470.946 376.343L470.826 375.858L468.893 376.336L469.013 376.821L467.08 377.299L466.96 376.814L465.026 377.291L465.146 377.777L463.213 378.255L463.093 377.769L461.16 378.247L461.28 378.732L459.347 379.21L459.227 378.725L457.293 379.203L457.413 379.688L455.48 380.166L455.36 379.68L453.427 380.158L453.547 380.644L451.613 381.122L451.493 380.636L449.56 381.114L449.68 381.599L447.747 382.077L447.627 381.592L445.694 382.07L445.814 382.555L443.88 383.033L443.76 382.547L441.827 383.025L441.947 383.511L440.014 383.989L439.894 383.503L437.961 383.981L438.081 384.466L436.147 384.944L436.027 384.459L434.094 384.937L434.214 385.422L432.281 385.9L432.161 385.414L430.227 385.892L430.347 386.378L428.414 386.855L428.294 386.37L426.361 386.848L426.481 387.333L424.548 387.811L424.428 387.326L422.494 387.804L422.614 388.289L420.681 388.767L420.561 388.281L418.628 388.759L418.748 389.245L416.815 389.722L416.695 389.237L414.761 389.715L414.881 390.2L412.948 390.678L412.828 390.193L410.895 390.671L411.015 391.156L409.081 391.634L408.962 391.148L407.028 391.626L407.148 392.112L405.215 392.589L405.095 392.104L403.162 392.582L403.282 393.067L401.348 393.545L401.228 393.06L399.295 393.538L399.415 394.023L397.482 394.501L397.362 394.015L395.429 394.493L395.549 394.979L393.615 395.456L393.495 394.971L391.562 395.449L391.682 395.934L389.749 396.412L389.629 395.927L387.695 396.405L387.815 396.89L385.882 397.368L385.762 396.882L383.829 397.36L383.949 397.846L382.016 398.323L381.896 397.838L379.962 398.316L380.082 398.801L378.149 399.279L378.029 398.794L376.096 399.271L376.216 399.757L374.282 400.235L374.163 399.749L372.229 400.227L372.349 400.713L370.416 401.19L370.296 400.705L368.363 401.183L368.483 401.668L366.549 402.146L366.429 401.661L364.496 402.138L364.616 402.624L362.683 403.102L362.563 402.616L360.63 403.094L360.75 403.58L358.816 404.057L358.696 403.572L356.763 404.05L356.883 404.535L354.95 405.013L354.83 404.528L352.896 405.005L353.016 405.491L351.083 405.969L350.963 405.483L349.03 405.961L349.15 406.447L347.217 406.924L347.097 406.439L345.163 406.917L345.283 407.402L343.35 407.88L343.23 407.395L341.297 407.872L341.417 408.358L339.483 408.836L339.363 408.35L337.43 408.828L337.55 409.314L335.617 409.791L335.497 409.306L333.564 409.784L333.684 410.269L331.75 410.747L331.63 410.262L329.697 410.739L329.817 411.225L327.884 411.703L327.764 411.217L325.831 411.695L325.951 412.18L324.017 412.658L323.897 412.173L321.964 412.651L322.084 413.136L320.151 413.614L320.031 413.129L318.097 413.606L318.217 414.092L316.284 414.57L316.164 414.084L314.231 414.562L314.351 415.047L312.418 415.525L312.298 415.04L310.364 415.518L310.484 416.003L308.551 416.481L308.431 415.996L306.498 416.473L306.618 416.959L304.684 417.437L304.564 416.951L302.631 417.429L302.751 417.914L300.818 418.392L300.698 417.907L298.765 418.385L298.885 418.87L296.951 419.348L296.831 418.863L294.898 419.34L295.018 419.826L293.085 420.304L292.965 419.818L291.031 420.296L291.151 420.781L289.218 421.259L289.098 420.774L287.165 421.252L287.285 421.737L285.352 422.215L285.232 421.73L283.298 422.207L283.418 422.693L281.485 423.171L281.365 422.685L279.432 423.163L279.552 423.648L277.618 424.126L277.499 423.641L275.565 424.119L275.685 424.604L273.752 425.082L273.632 424.597L271.699 425.074L271.819 425.56L269.885 426.038L269.765 425.552L268.799 425.791Z" stroke="#FF2C2C" stroke-dasharray="2 2"/>
<path d="M169.134 380.367L245.929 361.22C246.733 361.019 247.385 361.528 247.385 362.357V421.458C247.385 422.286 246.733 423.12 245.929 423.32L169.134 442.468C168.33 442.668 167.679 442.159 167.679 441.331V382.23C167.679 381.401 168.33 380.567 169.134 380.367Z" fill="#ABF6D6" stroke="#329168"/>
<path d="M81.8953 237.074L180.526 212.482C181.33 212.282 181.981 212.791 181.981 213.619V276.119C181.981 276.947 181.33 277.781 180.526 277.982L81.8953 302.573C81.0915 302.774 80.4399 302.265 80.4399 301.436V238.936C80.4399 238.108 81.0915 237.274 81.8953 237.074Z" fill="#ABF6D6" stroke="#329168"/>
<path d="M105.35 267.814L107.794 259.505L109.193 259.156L111.658 266.241L110.697 266.481L110.036 264.589L106.93 265.363L106.279 267.583L105.35 267.814ZM107.229 264.343L109.737 263.718L108.488 260.102L107.229 264.343ZM112.831 265.949V260.372L113.716 260.151V260.789C114.005 260.222 114.442 259.849 115.083 259.69C116.118 259.432 116.982 259.898 116.982 261.328V264.914L116.097 265.135V261.67C116.097 260.79 115.563 260.483 114.987 260.627C114.218 260.818 113.716 261.515 113.716 262.23V265.728L112.831 265.949ZM121.043 264.023C119.57 264.39 118.482 263.396 118.482 261.746C118.482 260.107 119.57 258.571 121.043 258.204C122.516 257.836 123.615 258.827 123.615 260.466C123.615 262.116 122.516 263.655 121.043 264.023ZM121.043 263.143C122.014 262.9 122.708 261.825 122.708 260.703C122.708 259.57 122.014 258.841 121.043 259.084C120.072 259.326 119.389 260.398 119.389 261.531C119.389 262.653 120.072 263.385 121.043 263.143ZM125.161 262.875V257.298L126.047 257.077V257.715C126.335 257.148 126.773 256.775 127.413 256.615C128.448 256.357 129.313 256.824 129.313 258.254V261.84L128.427 262.06V258.595C128.427 257.715 127.893 257.409 127.317 257.552C126.549 257.744 126.047 258.441 126.047 259.156V262.654L125.161 262.875ZM131.35 263.323L132.417 260.516L130.389 255.994L131.339 255.758L132.897 259.23L134.519 254.964L135.469 254.728L132.289 263.089L131.35 263.323ZM136.752 259.985V254.408L137.637 254.187V254.715C137.894 254.222 138.278 253.906 138.822 253.771C139.377 253.632 139.815 253.776 140.103 254.21C140.423 253.581 140.968 253.236 141.459 253.113C142.569 252.837 143.273 253.453 143.273 254.498V258.359L142.387 258.58V254.796C142.387 254.136 141.982 253.885 141.448 254.018C140.946 254.143 140.455 254.618 140.455 255.278V259.062L139.569 259.282V255.498C139.569 254.838 139.11 254.601 138.598 254.729C138.075 254.859 137.637 255.32 137.637 255.98V259.764L136.752 259.985ZM147.33 257.468C145.857 257.836 144.769 256.842 144.769 255.192C144.769 253.553 145.857 252.017 147.33 251.649C148.803 251.282 149.902 252.273 149.902 253.912C149.902 255.562 148.803 257.101 147.33 257.468ZM147.33 256.588C148.301 256.346 148.995 255.271 148.995 254.149C148.995 253.016 148.301 252.287 147.33 252.529C146.359 252.772 145.676 253.844 145.676 254.977C145.676 256.099 146.359 256.831 147.33 256.588ZM155.547 249.722V255.299L154.661 255.52V254.882C154.373 255.449 153.935 255.822 153.295 255.981C152.259 256.239 151.395 255.773 151.395 254.343V250.757L152.281 250.536V254.001C152.281 254.881 152.814 255.188 153.391 255.044C154.159 254.853 154.661 254.156 154.661 253.441V249.943L155.547 249.722ZM159.18 254.514C158.337 254.724 157.462 254.601 156.939 254.083L157.526 253.287C157.878 253.639 158.54 253.826 159.244 253.651C159.906 253.486 160.333 253.115 160.333 252.642C160.333 252.29 160.109 252.137 159.8 252.104L158.273 251.946C157.579 251.877 157.163 251.486 157.163 250.837C157.163 249.847 158.102 248.975 159.17 248.708C159.896 248.528 160.643 248.583 161.208 249.091L160.6 249.848C160.269 249.512 159.714 249.42 159.116 249.569C158.583 249.702 158.038 250.069 158.038 250.553C158.038 250.883 158.263 251.003 158.583 251.033L159.981 251.179C160.728 251.257 161.208 251.566 161.208 252.358C161.208 253.326 160.472 254.192 159.18 254.514Z" fill="#329168"/>
<path d="M196.321 408.036L198.765 399.726L200.163 399.378L202.629 406.463L201.668 406.702L201.007 404.81L197.901 405.585L197.25 407.804L196.321 408.036ZM198.2 404.564L200.708 403.939L199.459 400.323L198.2 404.564ZM205.927 405.762C204.55 406.105 203.376 405.254 203.376 403.505C203.376 401.69 204.731 400.252 205.969 399.943C206.578 399.791 207.047 399.828 207.304 400.061V397.597L208.189 397.377V405.077L207.304 405.297V404.813C207.079 405.232 206.556 405.605 205.927 405.762ZM205.969 404.871C206.535 404.73 207.058 404.347 207.304 403.79V401.15C207.069 400.802 206.631 400.658 205.98 400.82C205.222 401.009 204.283 401.937 204.283 403.279C204.283 404.467 205.041 405.103 205.969 404.871ZM212.285 404.177C210.908 404.52 209.734 403.669 209.734 401.92C209.734 400.105 211.089 398.667 212.327 398.358C212.936 398.206 213.405 398.265 213.662 398.575V398.135L214.548 397.914V403.491L213.662 403.712V403.228C213.438 403.647 212.915 404.02 212.285 404.177ZM212.327 403.286C212.893 403.145 213.416 402.761 213.662 402.205V399.565C213.427 399.217 212.989 399.073 212.338 399.235C211.58 399.424 210.641 400.351 210.641 401.693C210.641 402.881 211.399 403.517 212.327 403.286ZM216.466 403.013V397.436L217.351 397.215V397.743C217.608 397.25 217.992 396.935 218.536 396.799C219.091 396.66 219.529 396.804 219.817 397.239C220.137 396.609 220.681 396.264 221.172 396.142C222.282 395.865 222.987 396.481 222.987 397.526V401.387L222.101 401.608V397.824C222.101 397.164 221.695 396.913 221.162 397.046C220.66 397.171 220.169 397.646 220.169 398.306V402.09L219.283 402.311V398.527C219.283 397.867 218.824 397.629 218.312 397.757C217.789 397.887 217.351 398.348 217.351 399.008V402.792L216.466 403.013Z" fill="#329168"/>
<path d="M470.233 123.816L444.315 130.727" stroke="#329168" stroke-linecap="round"/>
<path d="M212.946 223.62L181.613 231.764" stroke="#329168" stroke-linecap="round"/>
<path d="M282.264 380.845L247.87 392.002" stroke="#329168" stroke-linecap="round"/>
<path d="M554.924 237.023L487.831 254.601" stroke="#329168" stroke-linecap="round"/>
<path d="M542.229 207.489L619.025 188.342C619.828 188.142 620.48 188.651 620.48 189.479V248.58C620.48 249.408 619.828 250.242 619.025 250.443L542.229 269.59C541.426 269.79 540.774 269.281 540.774 268.453V209.352C540.774 208.524 541.426 207.69 542.229 207.489Z" fill="#ABF6D6" stroke="#329168"/>
<path d="M571.507 235.088C570.525 235.333 569.405 235.173 568.679 234.518L569.255 233.67C569.842 234.085 570.525 234.409 571.507 234.164C572.713 233.864 573.226 233.197 573.226 232.46C573.226 232.053 572.959 231.702 572.393 231.634L570.387 231.397C569.33 231.275 568.935 230.703 568.935 229.966C568.935 228.646 570.066 227.517 571.518 227.155C572.81 226.833 573.631 227.134 574.101 227.512L573.482 228.37C573.012 228.047 572.404 227.858 571.561 228.068C570.515 228.329 569.864 228.997 569.864 229.646C569.864 230.086 570.131 230.372 570.654 230.428L572.639 230.659C573.663 230.778 574.165 231.291 574.165 232.204C574.165 233.7 572.97 234.724 571.507 235.088ZM577.942 233.484C576.565 233.827 575.391 232.976 575.391 231.227C575.391 229.412 576.747 227.974 577.985 227.665C578.593 227.514 579.063 227.573 579.319 227.883V227.443L580.205 227.222V232.799L579.319 233.02V232.536C579.095 232.955 578.572 233.327 577.942 233.484ZM577.985 232.593C578.551 232.452 579.074 232.069 579.319 231.513V228.873C579.084 228.524 578.647 228.38 577.996 228.543C577.238 228.732 576.299 229.659 576.299 231.001C576.299 232.189 577.056 232.825 577.985 232.593ZM582.123 232.321V226.744L583.009 226.523V227.359C583.201 226.838 583.777 226.287 584.525 226.101C584.951 225.994 585.24 225.989 585.539 226.123L585.112 227.11C584.951 227.028 584.727 227.029 584.45 227.098C583.788 227.263 583.169 227.814 583.009 228.822V232.1L582.123 232.321ZM588.782 230.781C587.406 231.125 586.231 230.273 586.231 228.524C586.231 226.709 587.587 225.271 588.825 224.963C589.433 224.811 589.903 224.87 590.159 225.18V224.74L591.045 224.519V230.096L590.159 230.317V229.833C589.935 230.252 589.412 230.624 588.782 230.781ZM588.825 229.891C589.391 229.75 589.914 229.366 590.159 228.81V226.17C589.924 225.822 589.487 225.678 588.836 225.84C588.078 226.029 587.139 226.956 587.139 228.298C587.139 229.486 587.896 230.122 588.825 229.891ZM595.215 223.358C596.25 223.1 597.115 223.567 597.115 224.997V228.583L596.229 228.804V225.339C596.229 224.459 595.695 224.152 595.119 224.295C594.351 224.487 593.849 225.184 593.849 225.899V229.397L592.963 229.618V221.918L593.849 221.697V224.458C594.137 223.891 594.575 223.518 595.215 223.358Z" fill="#329168"/>
</svg>
