<svg width="701" height="500" viewBox="0 0 701 500" fill="none" xmlns="http://www.w3.org/2000/svg">
<rect width="700" height="500" transform="translate(0.460022)" fill="#ECECEC"/>
<rect x="0.485148" y="0.379039" width="285.238" height="222.391" rx="1.5" transform="matrix(0.970296 -0.241922 0 1 77.5737 131.856)" fill="#FFC2C2" stroke="#FF2C2C"/>
<rect x="0.485148" y="0.379039" width="97.1778" height="163.879" rx="1.5" transform="matrix(0.970296 -0.241922 0 1 274.478 222.292)" fill="#B5DDEA" stroke="#099FCE"/>
<path d="M302.067 239.086C300.028 239.594 298.726 238.137 298.726 235.937C298.726 233.737 300.028 231.63 302.067 231.122C303.209 230.837 304.009 231.166 304.532 231.849L303.775 232.61C303.433 232.123 302.825 231.879 302.056 232.07C300.679 232.414 299.665 234.031 299.665 235.703C299.665 237.375 300.679 238.486 302.056 238.142C302.825 237.951 303.433 237.414 303.775 236.768L304.543 237.115C304.02 238.071 303.209 238.801 302.067 239.086ZM308.064 237.569C306.591 237.936 305.502 236.942 305.502 235.292C305.502 233.653 306.591 232.117 308.064 231.75C309.537 231.382 310.636 232.373 310.636 234.012C310.636 235.662 309.537 237.201 308.064 237.569ZM308.064 236.689C309.035 236.446 309.729 235.371 309.729 234.249C309.729 233.116 309.035 232.387 308.064 232.63C307.093 232.872 306.41 233.944 306.41 235.077C306.41 236.199 307.093 236.931 308.064 236.689ZM312.182 236.421V228.721L313.068 228.5V236.2L312.182 236.421ZM314.986 235.722V228.022L315.872 227.801V235.501L314.986 235.722ZM320.084 234.561C318.601 234.93 317.416 234.115 317.416 232.3C317.416 230.595 318.579 229.128 319.882 228.803C321.461 228.409 322.326 229.492 322.326 230.889V231.307L318.323 232.305C318.345 233.399 319.22 233.896 320.052 233.689C320.671 233.534 321.12 233.169 321.397 232.726L322.048 233.147C321.611 233.828 320.938 234.348 320.084 234.561ZM321.429 230.738C321.333 230.003 320.863 229.438 319.871 229.686C319.145 229.867 318.473 230.595 318.313 231.515L321.429 230.738ZM326.161 233.046C324.656 233.421 323.503 232.476 323.503 230.804C323.503 229.132 324.667 227.61 326.161 227.238C327.057 227.014 327.687 227.242 328.093 227.713L327.41 228.422C327.132 228.117 326.694 227.995 326.15 228.131C325.179 228.373 324.41 229.379 324.41 230.578C324.41 231.766 325.179 232.41 326.15 232.168C326.694 232.032 327.121 231.684 327.41 231.249L328.082 231.632C327.644 232.324 327.047 232.825 326.161 233.046ZM331.478 231.61C330.827 231.772 330.208 231.652 330.208 230.728V227.23L329.002 227.53V226.65L330.208 226.35V224.623L331.093 224.006V226.129L332.534 225.769V226.649L331.093 227.009V230.199C331.093 230.672 331.371 230.746 331.691 230.666L332.31 230.511V231.402L331.478 231.61ZM334.612 223.975C334.228 224.071 333.918 223.829 333.918 223.433C333.918 223.015 334.228 222.63 334.612 222.534C335.018 222.433 335.327 222.664 335.327 223.082C335.327 223.478 335.018 223.874 334.612 223.975ZM334.185 230.935V225.358L335.071 225.137V230.714L334.185 230.935ZM339.177 229.811C337.704 230.178 336.615 229.185 336.615 227.535C336.615 225.896 337.704 224.359 339.177 223.992C340.65 223.625 341.749 224.616 341.749 226.255C341.749 227.905 340.65 229.444 339.177 229.811ZM339.177 228.931C340.148 228.689 340.842 227.614 340.842 226.492C340.842 225.359 340.148 224.63 339.177 224.872C338.206 225.114 337.523 226.187 337.523 227.32C337.523 228.442 338.206 229.173 339.177 228.931ZM343.295 228.664V223.087L344.181 222.866V223.504C344.469 222.937 344.907 222.564 345.547 222.404C346.582 222.146 347.447 222.612 347.447 224.042V227.628L346.561 227.849V224.384C346.561 223.504 346.027 223.197 345.451 223.341C344.682 223.533 344.181 224.23 344.181 224.945V228.443L343.295 228.664Z" fill="#099FCE"/>
<path d="M196.172 130.226V122.526L197.303 122.244L199.256 124.914L201.21 121.27L202.298 120.999V128.699L201.38 128.927V122.712L199.288 126.523L199.192 126.547L197.09 123.727V129.997L196.172 130.226ZM204.859 121.207C204.475 121.303 204.165 121.061 204.165 120.665C204.165 120.247 204.475 119.862 204.859 119.766C205.265 119.665 205.574 119.896 205.574 120.314C205.574 120.71 205.265 121.106 204.859 121.207ZM204.432 128.166V122.589L205.318 122.369V127.946L204.432 128.166ZM209.52 127.008C208.015 127.383 206.863 126.439 206.863 124.767C206.863 123.095 208.026 121.572 209.52 121.2C210.417 120.976 211.046 121.204 211.452 121.675L210.769 122.385C210.491 122.08 210.054 121.958 209.51 122.094C208.538 122.336 207.77 123.341 207.77 124.54C207.77 125.728 208.538 126.373 209.51 126.131C210.054 125.995 210.481 125.646 210.769 125.212L211.441 125.594C211.004 126.286 210.406 126.787 209.52 127.008ZM212.948 126.043V120.466L213.834 120.245V121.081C214.026 120.56 214.602 120.01 215.349 119.823C215.776 119.717 216.065 119.711 216.363 119.846L215.936 120.832C215.776 120.751 215.552 120.752 215.275 120.821C214.613 120.986 213.994 121.536 213.834 122.544V125.822L212.948 126.043ZM219.618 124.501C218.145 124.868 217.056 123.875 217.056 122.225C217.056 120.586 218.145 119.049 219.618 118.682C221.091 118.315 222.19 119.306 222.19 120.945C222.19 122.595 221.091 124.134 219.618 124.501ZM219.618 123.621C220.589 123.379 221.283 122.304 221.283 121.182C221.283 120.049 220.589 119.32 219.618 119.562C218.647 119.804 217.964 120.877 217.964 122.01C217.964 123.132 218.647 123.863 219.618 123.621ZM226.02 122.894C224.515 123.269 223.362 122.325 223.362 120.653C223.362 118.981 224.526 117.459 226.02 117.086C226.917 116.862 227.546 117.09 227.952 117.561L227.269 118.271C226.991 117.966 226.554 117.844 226.009 117.98C225.038 118.222 224.27 119.227 224.27 120.426C224.27 121.614 225.038 122.259 226.009 122.017C226.554 121.881 226.981 121.533 227.269 121.098L227.941 121.48C227.504 122.172 226.906 122.673 226.02 122.894ZM231.532 121.531C230.059 121.898 228.97 120.905 228.97 119.255C228.97 117.616 230.059 116.079 231.532 115.712C233.004 115.345 234.104 116.336 234.104 117.975C234.104 119.625 233.004 121.164 231.532 121.531ZM231.532 120.651C232.503 120.409 233.197 119.334 233.197 118.212C233.197 117.079 232.503 116.35 231.532 116.592C230.56 116.834 229.877 117.906 229.877 119.039C229.877 120.161 230.56 120.893 231.532 120.651ZM237.357 120.078C236.514 120.289 235.639 120.166 235.116 119.647L235.703 118.852C236.055 119.204 236.717 119.391 237.421 119.215C238.083 119.05 238.51 118.68 238.51 118.207C238.51 117.855 238.286 117.702 237.976 117.669L236.45 117.511C235.756 117.442 235.34 117.05 235.34 116.401C235.34 115.411 236.279 114.539 237.347 114.273C238.072 114.092 238.819 114.148 239.385 114.656L238.777 115.412C238.446 115.077 237.891 114.984 237.293 115.133C236.759 115.266 236.215 115.633 236.215 116.117C236.215 116.447 236.439 116.567 236.759 116.597L238.158 116.744C238.905 116.821 239.385 117.131 239.385 117.923C239.385 118.891 238.649 119.756 237.357 120.078ZM240.934 119.066V113.489L241.82 113.268V113.796C242.076 113.303 242.46 112.987 243.005 112.851C243.56 112.713 243.997 112.857 244.285 113.291C244.606 112.661 245.15 112.316 245.641 112.194C246.751 111.917 247.455 112.534 247.455 113.579V117.44L246.569 117.66V113.876C246.569 113.216 246.164 112.966 245.63 113.099C245.129 113.224 244.638 113.698 244.638 114.358V118.142L243.752 118.363V114.579C243.752 113.919 243.293 113.681 242.78 113.809C242.257 113.94 241.82 114.401 241.82 115.061V118.845L240.934 119.066Z" fill="#FF2C2C"/>
<path d="M79.0411 132.306L194.551 214.194" stroke="#FF2C2C" stroke-dasharray="2 2"/>
<path d="M79.0411 355.018L194.551 436.906" stroke="#FF2C2C" stroke-dasharray="2 2"/>
<path d="M353.617 284.097L469.128 365.985" stroke="#FF2C2C" stroke-dasharray="2 2"/>
<path d="M353.617 62.4915L469.128 144.379" stroke="#FF2C2C" stroke-dasharray="2 2"/>
<path d="M195.573 435.942C195.381 435.99 195.208 435.995 195.058 435.97L194.978 436.464C194.483 436.384 194.089 436.075 193.893 435.613L194.353 435.418C194.293 435.278 194.257 435.109 194.257 434.91V433.913H193.757V431.919H194.257V429.924H193.757V427.93H194.257V425.935H193.757V423.941H194.257V421.946H193.757V419.952H194.257V417.957H193.757V415.963H194.257V413.969H193.757V411.974H194.257V409.98H193.757V407.985H194.257V405.991H193.757V403.996H194.257V402.002H193.757V400.007H194.257V398.013H193.757V396.018H194.257V394.024H193.757V392.029H194.257V390.035H193.757V388.041H194.257V386.046H193.757V384.052H194.257V382.057H193.757V380.063H194.257V378.068H193.757V376.074H194.257V374.079H193.757V372.085H194.257V370.09H193.757V368.096H194.257V366.101H193.757V364.107H194.257V362.113H193.757V360.118H194.257V358.124H193.757V356.129H194.257V354.135H193.757V352.14H194.257V350.146H193.757V348.151H194.257V346.157H193.757V344.162H194.257V342.168H193.757V340.173H194.257V338.179H193.757V336.185H194.257V334.19H193.757V332.196H194.257V330.201H193.757V328.207H194.257V326.212H193.757V324.218H194.257V322.223H193.757V320.229H194.257V318.234H193.757V316.24H194.257V314.245H193.757V312.251H194.257V310.257H193.757V308.262H194.257V306.268H193.757V304.273H194.257V302.279H193.757V300.284H194.257V298.29H193.757V296.295H194.257V294.301H193.757V292.306H194.257V290.312H193.757V288.317H194.257V286.323H193.757V284.329H194.257V282.334H193.757V280.34H194.257V278.345H193.757V276.351H194.257V274.356H193.757V272.362H194.257V270.367H193.757V268.373H194.257V266.378H193.757V264.384H194.257V262.389H193.757V260.395H194.257V258.401H193.757V256.406H194.257V254.412H193.757V252.417H194.257V250.423H193.757V248.428H194.257V246.434H193.757V244.439H194.257V242.445H193.757V240.45H194.257V238.456H193.757V236.461H194.257V234.467H193.757V232.473H194.257V230.478H193.757V228.484H194.257V226.489H193.757V224.495H194.257V222.5H193.757V220.506H194.257V218.511H193.757V216.517H194.257V215.52C194.257 215.306 194.299 215.086 194.38 214.87L193.912 214.694C194.109 214.172 194.478 213.7 194.938 213.384L195.221 213.796C195.411 213.665 195.615 213.571 195.821 213.52L196.786 213.282L196.666 212.796L198.595 212.319L198.715 212.805L200.645 212.328L200.525 211.843L202.454 211.366L202.574 211.851L204.503 211.374L204.383 210.889L206.313 210.412L206.432 210.897L208.362 210.421L208.242 209.935L210.171 209.458L210.291 209.944L212.22 209.467L212.1 208.981L214.03 208.505L214.15 208.99L216.079 208.513L215.959 208.028L217.888 207.551L218.008 208.036L219.938 207.559L219.818 207.074L221.747 206.597L221.867 207.083L223.796 206.606L223.676 206.12L225.605 205.644L225.725 206.129L227.655 205.652L227.535 205.167L229.464 204.69L229.584 205.175L231.513 204.698L231.393 204.213L233.323 203.736L233.443 204.222L235.372 203.745L235.252 203.259L237.181 202.782L237.301 203.268L239.23 202.791L239.111 202.306L241.04 201.829L241.16 202.314L243.089 201.837L242.969 201.352L244.898 200.875L245.018 201.36L246.948 200.884L246.828 200.398L248.757 199.921L248.877 200.407L250.806 199.93L250.686 199.445L252.616 198.968L252.736 199.453L254.665 198.976L254.545 198.491L256.474 198.014L256.594 198.499L258.523 198.023L258.403 197.537L260.333 197.06L260.453 197.546L262.382 197.069L262.262 196.583L264.191 196.107L264.311 196.592L266.241 196.115L266.121 195.63L268.05 195.153L268.17 195.638L270.099 195.161L269.979 194.676L271.909 194.199L272.029 194.685L273.958 194.208L273.838 193.722L275.767 193.246L275.887 193.731L277.816 193.254L277.696 192.769L279.626 192.292L279.746 192.777L281.675 192.3L281.555 191.815L283.484 191.338L283.604 191.824L285.534 191.347L285.414 190.861L287.343 190.384L287.463 190.87L289.392 190.393L289.272 189.908L291.201 189.431L291.321 189.916L293.251 189.439L293.131 188.954L295.06 188.477L295.18 188.962L297.109 188.486L296.989 188L298.919 187.523L299.039 188.009L300.968 187.532L300.848 187.047L302.777 186.57L302.897 187.055L304.827 186.578L304.707 186.093L306.636 185.616L306.756 186.101L308.685 185.625L308.565 185.139L310.494 184.662L310.614 185.148L312.544 184.671L312.424 184.185L314.353 183.709L314.473 184.194L316.402 183.717L316.282 183.232L318.212 182.755L318.332 183.24L320.261 182.763L320.141 182.278L322.07 181.801L322.19 182.287L324.119 181.81L324 181.324L325.929 180.848L326.049 181.333L327.978 180.856L327.858 180.371L329.787 179.894L329.907 180.379L331.837 179.902L331.717 179.417L333.646 178.94L333.766 179.426L335.695 178.949L335.575 178.463L337.505 177.986L337.625 178.472L339.554 177.995L339.434 177.51L341.363 177.033L341.483 177.518L343.412 177.041L343.292 176.556L345.222 176.079L345.342 176.564L347.271 176.088L347.151 175.602L349.08 175.125L349.2 175.611L351.13 175.134L351.01 174.649L352.939 174.172L353.059 174.657L354.988 174.18L354.868 173.695L356.798 173.218L356.917 173.703L358.847 173.227L358.727 172.741L360.656 172.264L360.776 172.75L362.705 172.273L362.585 171.787L364.515 171.311L364.635 171.796L366.564 171.319L366.444 170.834L368.373 170.357L368.493 170.842L370.423 170.365L370.303 169.88L372.232 169.403L372.352 169.889L374.281 169.412L374.161 168.926L376.09 168.45L376.21 168.935L378.14 168.458L378.02 167.973L379.949 167.496L380.069 167.981L381.998 167.504L381.878 167.019L383.808 166.542L383.928 167.028L385.857 166.551L385.737 166.065L387.666 165.588L387.786 166.074L389.716 165.597L389.596 165.112L391.525 164.635L391.645 165.12L393.574 164.643L393.454 164.158L395.383 163.681L395.503 164.166L397.433 163.69L397.313 163.204L399.242 162.727L399.362 163.213L401.291 162.736L401.171 162.251L403.101 161.774L403.221 162.259L405.15 161.782L405.03 161.297L406.959 160.82L407.079 161.305L409.008 160.829L408.889 160.343L410.818 159.866L410.938 160.352L412.867 159.875L412.747 159.389L414.676 158.913L414.796 159.398L416.726 158.921L416.606 158.436L418.535 157.959L418.655 158.444L420.584 157.967L420.464 157.482L422.394 157.005L422.514 157.491L424.443 157.014L424.323 156.528L426.252 156.052L426.372 156.537L428.301 156.06L428.181 155.575L430.111 155.098L430.231 155.583L432.16 155.106L432.04 154.621L433.969 154.144L434.089 154.63L436.019 154.153L435.899 153.667L437.828 153.19L437.948 153.676L439.877 153.199L439.757 152.714L441.687 152.237L441.806 152.722L443.736 152.245L443.616 151.76L445.545 151.283L445.665 151.768L447.594 151.292L447.474 150.806L449.404 150.329L449.524 150.815L451.453 150.338L451.333 149.853L453.262 149.376L453.382 149.861L455.312 149.384L455.192 148.899L457.121 148.422L457.241 148.907L459.17 148.431L459.05 147.945L460.98 147.468L461.1 147.954L463.029 147.477L462.909 146.991L464.838 146.515L464.958 147L466.887 146.523L466.767 146.038L468.697 145.561L468.817 146.046L469.781 145.808C469.974 145.76 470.147 145.755 470.296 145.78L470.376 145.286C470.871 145.366 471.265 145.675 471.462 146.137L471.002 146.332C471.061 146.472 471.098 146.641 471.098 146.84V147.837H471.598V149.831H471.098V151.826H471.598V153.82H471.098V155.815H471.598V157.809H471.098V159.804H471.598V161.798H471.098V163.793H471.598V165.787H471.098V167.782H471.598V169.776H471.098V171.77H471.598V173.765H471.098V175.759H471.598V177.754H471.098V179.748H471.598V181.743H471.098V183.737H471.598V185.732H471.098V187.726H471.598V189.721H471.098V191.715H471.598V193.71H471.098V195.704H471.598V197.698H471.098V199.693H471.598V201.687H471.098V203.682H471.598V205.676H471.098V207.671H471.598V209.665H471.098V211.66H471.598V213.654H471.098V215.649H471.598V217.643H471.098V219.638H471.598V221.632H471.098V223.626H471.598V225.621H471.098V227.615H471.598V229.61H471.098V231.604H471.598V233.599H471.098V235.593H471.598V237.588H471.098V239.582H471.598V241.577H471.098V243.571H471.598V245.566H471.098V247.56H471.598V249.554H471.098V251.549H471.598V253.543H471.098V255.538H471.598V257.532H471.098V259.527H471.598V261.521H471.098V263.516H471.598V265.51H471.098V267.505H471.598V269.499H471.098V271.494H471.598V273.488H471.098V275.482H471.598V277.477H471.098V279.471H471.598V281.466H471.098V283.46H471.598V285.455H471.098V287.449H471.598V289.444H471.098V291.438H471.598V293.433H471.098V295.427H471.598V297.422H471.098V299.416H471.598V301.41H471.098V303.405H471.598V305.399H471.098V307.394H471.598V309.388H471.098V311.383H471.598V313.377H471.098V315.372H471.598V317.366H471.098V319.361H471.598V321.355H471.098V323.35H471.598V325.344H471.098V327.338H471.598V329.333H471.098V331.327H471.598V333.322H471.098V335.316H471.598V337.311H471.098V339.305H471.598V341.3H471.098V343.294H471.598V345.289H471.098V347.283H471.598V349.278H471.098V351.272H471.598V353.266H471.098V355.261H471.598V357.255H471.098V359.25H471.598V361.244H471.098V363.239H471.598V365.233H471.098V366.231C471.098 366.444 471.055 366.664 470.974 366.88L471.442 367.056C471.245 367.578 470.877 368.05 470.417 368.366L470.133 367.954C469.943 368.085 469.74 368.179 469.533 368.23L468.568 368.468L468.688 368.954L466.759 369.431L466.639 368.945L464.71 369.422L464.83 369.908L462.901 370.384L462.781 369.899L460.851 370.376L460.971 370.861L459.042 371.338L458.922 370.853L456.993 371.329L457.113 371.815L455.183 372.292L455.063 371.806L453.134 372.283L453.254 372.769L451.325 373.245L451.205 372.76L449.276 373.237L449.396 373.722L447.466 374.199L447.346 373.714L445.417 374.191L445.537 374.676L443.608 375.153L443.488 374.667L441.558 375.144L441.678 375.63L439.749 376.106L439.629 375.621L437.7 376.098L437.82 376.583L435.89 377.06L435.77 376.575L433.841 377.052L433.961 377.537L432.032 378.014L431.912 377.528L429.983 378.005L430.103 378.491L428.173 378.968L428.053 378.482L426.124 378.959L426.244 379.444L424.315 379.921L424.195 379.436L422.265 379.913L422.385 380.398L420.456 380.875L420.336 380.39L418.407 380.866L418.527 381.352L416.598 381.829L416.478 381.343L414.548 381.82L414.668 382.305L412.739 382.782L412.619 382.297L410.69 382.774L410.81 383.259L408.88 383.736L408.76 383.251L406.831 383.727L406.951 384.213L405.022 384.69L404.902 384.204L402.972 384.681L403.092 385.167L401.163 385.643L401.043 385.158L399.114 385.635L399.234 386.12L397.305 386.597L397.185 386.112L395.255 386.589L395.375 387.074L393.446 387.551L393.326 387.065L391.397 387.542L391.517 388.028L389.587 388.504L389.467 388.019L387.538 388.496L387.658 388.981L385.729 389.458L385.609 388.973L383.68 389.45L383.799 389.935L381.87 390.412L381.75 389.926L379.821 390.403L379.941 390.889L378.012 391.366L377.892 390.88L375.962 391.357L376.082 391.842L374.153 392.319L374.033 391.834L372.104 392.311L372.224 392.796L370.294 393.273L370.174 392.788L368.245 393.264L368.365 393.75L366.436 394.227L366.316 393.741L364.387 394.218L364.507 394.703L362.577 395.18L362.457 394.695L360.528 395.172L360.648 395.657L358.719 396.134L358.599 395.649L356.669 396.125L356.789 396.611L354.86 397.088L354.74 396.602L352.811 397.079L352.931 397.565L351.001 398.041L350.882 397.556L348.952 398.033L349.072 398.518L347.143 398.995L347.023 398.51L345.094 398.987L345.214 399.472L343.284 399.949L343.164 399.463L341.235 399.94L341.355 400.426L339.426 400.902L339.306 400.417L337.376 400.894L337.496 401.379L335.567 401.856L335.447 401.371L333.518 401.848L333.638 402.333L331.708 402.81L331.589 402.324L329.659 402.801L329.779 403.287L327.85 403.764L327.73 403.278L325.801 403.755L325.921 404.24L323.991 404.717L323.871 404.232L321.942 404.709L322.062 405.194L320.133 405.671L320.013 405.186L318.083 405.662L318.203 406.148L316.274 406.625L316.154 406.139L314.225 406.616L314.345 407.102L312.416 407.578L312.296 407.093L310.366 407.57L310.486 408.055L308.557 408.532L308.437 408.047L306.508 408.523L306.628 409.009L304.698 409.486L304.578 409L302.649 409.477L302.769 409.963L300.84 410.439L300.72 409.954L298.791 410.431L298.91 410.916L296.981 411.393L296.861 410.908L294.932 411.385L295.052 411.87L293.123 412.347L293.003 411.861L291.073 412.338L291.193 412.824L289.264 413.3L289.144 412.815L287.215 413.292L287.335 413.777L285.405 414.254L285.285 413.769L283.356 414.246L283.476 414.731L281.547 415.208L281.427 414.722L279.498 415.199L279.618 415.685L277.688 416.162L277.568 415.676L275.639 416.153L275.759 416.638L273.83 417.115L273.71 416.63L271.78 417.107L271.9 417.592L269.971 418.069L269.851 417.584L267.922 418.06L268.042 418.546L266.112 419.023L265.993 418.537L264.063 419.014L264.183 419.499L262.254 419.976L262.134 419.491L260.205 419.968L260.325 420.453L258.395 420.93L258.275 420.445L256.346 420.921L256.466 421.407L254.537 421.884L254.417 421.398L252.487 421.875L252.607 422.361L250.678 422.837L250.558 422.352L248.629 422.829L248.749 423.314L246.82 423.791L246.7 423.306L244.77 423.783L244.89 424.268L242.961 424.745L242.841 424.259L240.912 424.736L241.032 425.222L239.102 425.698L238.982 425.213L237.053 425.69L237.173 426.175L235.244 426.652L235.124 426.167L233.194 426.644L233.314 427.129L231.385 427.606L231.265 427.12L229.336 427.597L229.456 428.083L227.527 428.56L227.407 428.074L225.477 428.551L225.597 429.036L223.668 429.513L223.548 429.028L221.619 429.505L221.739 429.99L219.809 430.467L219.689 429.982L217.76 430.458L217.88 430.944L215.951 431.421L215.831 430.935L213.902 431.412L214.021 431.897L212.092 432.374L211.972 431.889L210.043 432.366L210.163 432.851L208.234 433.328L208.114 432.843L206.184 433.319L206.304 433.805L204.375 434.282L204.255 433.796L202.326 434.273L202.446 434.759L200.516 435.235L200.396 434.75L198.467 435.227L198.587 435.712L196.658 436.189L196.538 435.704L195.573 435.942Z" stroke="#FF2C2C" stroke-dasharray="2 2"/>
<rect x="0.485148" y="0.379039" width="86.635" height="65.0827" rx="1.5" transform="matrix(0.970296 -0.241922 0 1 299.031 261.774)" fill="#E0F397" stroke="#7A950E"/>
<rect x="0.485148" y="0.379039" width="86.635" height="65.0827" rx="1.5" transform="matrix(0.970296 -0.241922 0 1 312.704 274.05)" fill="#E0F397" stroke="#7A950E"/>
<path d="M345.441 302.443V294.743L346.594 294.456L349.924 299.863V293.626L350.842 293.397V301.097L349.678 301.387L346.359 295.988V302.214L345.441 302.443ZM355.16 300.141C353.687 300.508 352.598 299.515 352.598 297.865C352.598 296.226 353.687 294.689 355.16 294.322C356.633 293.955 357.732 294.946 357.732 296.585C357.732 298.235 356.633 299.774 355.16 300.141ZM355.16 299.261C356.131 299.019 356.825 297.944 356.825 296.822C356.825 295.689 356.131 294.96 355.16 295.202C354.189 295.444 353.506 296.517 353.506 297.65C353.506 298.772 354.189 299.503 355.16 299.261ZM361.455 298.571C360.078 298.915 358.904 298.063 358.904 296.314C358.904 294.499 360.26 293.061 361.498 292.753C362.106 292.601 362.576 292.638 362.832 292.871V290.407L363.718 290.186V297.886L362.832 298.107V297.623C362.608 298.042 362.085 298.414 361.455 298.571ZM361.498 297.681C362.064 297.54 362.587 297.156 362.832 296.6V293.96C362.597 293.612 362.16 293.468 361.509 293.63C360.751 293.819 359.812 294.746 359.812 296.088C359.812 297.276 360.569 297.912 361.498 297.681ZM367.931 296.946C366.447 297.316 365.262 296.5 365.262 294.685C365.262 292.98 366.426 291.513 367.728 291.188C369.308 290.795 370.172 291.877 370.172 293.274V293.692L366.17 294.69C366.191 295.785 367.066 296.281 367.899 296.074C368.518 295.92 368.966 295.555 369.244 295.112L369.895 295.532C369.457 296.213 368.785 296.733 367.931 296.946ZM369.276 293.124C369.18 292.389 368.71 291.824 367.717 292.071C366.992 292.252 366.319 292.981 366.159 293.901L369.276 293.124Z" fill="#7A950E"/>
<path d="M536.119 144.456L621.42 123.188C622.224 122.988 622.876 123.497 622.876 124.325V190.079C622.876 190.907 622.224 191.741 621.42 191.942L536.119 213.21C535.315 213.41 534.663 212.901 534.663 212.073V146.319C534.663 145.491 535.315 144.657 536.119 144.456Z" fill="#ABF6D6" stroke="#329168"/>
<path d="M562.635 175.69V167.99L563.553 167.761V175.461L562.635 175.69ZM567.861 174.508C566.484 174.851 565.31 174 565.31 172.251C565.31 170.436 566.666 168.998 567.904 168.689C568.512 168.538 568.982 168.575 569.238 168.808V166.344L570.124 166.123V173.823L569.238 174.044V173.56C569.014 173.979 568.491 174.351 567.861 174.508ZM567.904 173.617C568.47 173.476 568.992 173.093 569.238 172.537V169.897C569.003 169.548 568.566 169.405 567.914 169.567C567.157 169.756 566.217 170.683 566.217 172.025C566.217 173.213 566.975 173.849 567.904 173.617ZM574.337 172.883C572.853 173.253 571.668 172.437 571.668 170.622C571.668 168.917 572.832 167.45 574.134 167.125C575.713 166.731 576.578 167.814 576.578 169.211V169.629L572.576 170.627C572.597 171.721 573.472 172.218 574.305 172.011C574.924 171.856 575.372 171.491 575.649 171.048L576.301 171.469C575.863 172.15 575.19 172.67 574.337 172.883ZM575.681 169.06C575.585 168.325 575.116 167.76 574.123 168.008C573.397 168.189 572.725 168.917 572.565 169.837L575.681 169.06ZM578.129 171.827V166.25L579.015 166.029V166.667C579.303 166.1 579.741 165.727 580.381 165.568C581.416 165.309 582.281 165.776 582.281 167.206V170.792L581.395 171.013V167.548C581.395 166.668 580.861 166.361 580.285 166.505C579.516 166.696 579.015 167.393 579.015 168.108V171.606L578.129 171.827ZM585.855 169.901C585.204 170.063 584.585 169.942 584.585 169.018V165.52L583.379 165.821V164.941L584.585 164.64V162.913L585.471 162.297V164.42L586.912 164.06V164.94L585.471 165.3V168.49C585.471 168.963 585.748 169.036 586.069 168.957L586.688 168.802V169.693L585.855 169.901ZM588.989 162.266C588.605 162.362 588.296 162.12 588.296 161.724C588.296 161.306 588.605 160.921 588.989 160.825C589.395 160.724 589.705 160.955 589.705 161.373C589.705 161.769 589.395 162.165 588.989 162.266ZM588.562 169.226V163.649L589.448 163.428V169.005L588.562 169.226ZM593.255 168.056C592.604 168.218 591.985 168.097 591.985 167.173V163.675L590.779 163.976V163.096L591.985 162.795V161.068L592.871 160.451V162.574L594.312 162.215V163.095L592.871 163.454V166.644C592.871 167.117 593.149 167.191 593.469 167.111L594.088 166.957V167.848L593.255 168.056ZM596.283 169.292L597.35 166.485L595.322 161.963L596.272 161.726L597.831 165.199L599.453 160.933L600.403 160.697L597.222 169.058L596.283 169.292Z" fill="#329168"/>
<path d="M369.605 218.383L534.178 177.57" stroke="#329168" stroke-linecap="round"/>
</svg>
