<svg width="700" height="500" viewBox="0 0 700 500" fill="none" xmlns="http://www.w3.org/2000/svg">
<g clip-path="url(#clip0_239_1737)">
<rect width="700" height="500" fill="#ECECEC"/>
<g opacity="0.3">
<rect x="0.485148" y="0.379039" width="238.805" height="211.238" rx="1.5" transform="matrix(0.970296 -0.241922 0 1 559.901 395.466)" fill="#FFC2C2" stroke="#FF2C2C"/>
<path d="M568.861 409.977V402.277L569.993 401.995L571.946 404.665L573.899 401.021L574.988 400.75V408.45L574.07 408.678V402.463L571.978 406.274L571.882 406.298L569.779 403.478V409.748L568.861 409.977ZM577.549 400.958C577.165 401.054 576.855 400.812 576.855 400.416C576.855 399.998 577.165 399.613 577.549 399.517C577.954 399.416 578.264 399.647 578.264 400.065C578.264 400.461 577.954 400.857 577.549 400.958ZM577.122 407.917V402.34L578.008 402.12V407.697L577.122 407.917ZM582.21 406.759C580.705 407.134 579.552 406.19 579.552 404.518C579.552 402.846 580.715 401.323 582.21 400.951C583.106 400.727 583.736 400.955 584.142 401.426L583.458 402.136C583.181 401.831 582.743 401.709 582.199 401.845C581.228 402.087 580.459 403.092 580.459 404.291C580.459 405.479 581.228 406.124 582.199 405.882C582.743 405.746 583.17 405.397 583.458 404.963L584.131 405.345C583.693 406.037 583.096 406.538 582.21 406.759ZM585.637 405.794V400.217L586.523 399.996V400.832C586.715 400.312 587.292 399.761 588.039 399.575C588.466 399.468 588.754 399.462 589.053 399.597L588.626 400.583C588.466 400.502 588.242 400.503 587.964 400.572C587.303 400.737 586.683 401.287 586.523 402.295V405.573L585.637 405.794ZM592.307 404.252C590.835 404.62 589.746 403.626 589.746 401.976C589.746 400.337 590.835 398.801 592.307 398.433C593.78 398.066 594.88 399.057 594.88 400.696C594.88 402.346 593.78 403.885 592.307 404.252ZM592.307 403.372C593.279 403.13 593.972 402.055 593.972 400.933C593.972 399.8 593.279 399.071 592.307 399.313C591.336 399.555 590.653 400.628 590.653 401.761C590.653 402.883 591.336 403.614 592.307 403.372ZM598.709 402.645C597.205 403.02 596.052 402.076 596.052 400.404C596.052 398.732 597.215 397.21 598.709 396.837C599.606 396.614 600.236 396.842 600.641 397.312L599.958 398.022C599.681 397.717 599.243 397.595 598.699 397.731C597.728 397.973 596.959 398.978 596.959 400.177C596.959 401.365 597.728 402.01 598.699 401.768C599.243 401.632 599.67 401.284 599.958 400.849L600.631 401.231C600.193 401.923 599.595 402.424 598.709 402.645ZM604.221 401.282C602.748 401.649 601.659 400.656 601.659 399.006C601.659 397.367 602.748 395.83 604.221 395.463C605.694 395.096 606.793 396.087 606.793 397.726C606.793 399.376 605.694 400.915 604.221 401.282ZM604.221 400.402C605.192 400.16 605.886 399.085 605.886 397.963C605.886 396.83 605.192 396.101 604.221 396.343C603.25 396.585 602.567 397.657 602.567 398.79C602.567 399.912 603.25 400.644 604.221 400.402ZM610.047 399.829C609.204 400.04 608.328 399.917 607.805 399.398L608.392 398.603C608.745 398.955 609.406 399.142 610.111 398.966C610.773 398.801 611.199 398.431 611.199 397.958C611.199 397.606 610.975 397.453 610.666 397.42L609.139 397.262C608.446 397.193 608.029 396.801 608.029 396.152C608.029 395.162 608.969 394.29 610.036 394.024C610.762 393.843 611.509 393.899 612.075 394.407L611.466 395.163C611.135 394.828 610.58 394.735 609.983 394.884C609.449 395.017 608.905 395.384 608.905 395.868C608.905 396.198 609.129 396.318 609.449 396.348L610.847 396.495C611.594 396.573 612.075 396.882 612.075 397.674C612.075 398.642 611.338 399.507 610.047 399.829ZM613.624 398.817V393.24L614.509 393.019V393.547C614.766 393.054 615.15 392.738 615.694 392.602C616.249 392.464 616.687 392.608 616.975 393.042C617.295 392.412 617.839 392.067 618.33 391.945C619.44 391.668 620.145 392.285 620.145 393.33V397.191L619.259 397.411V393.627C619.259 392.967 618.853 392.717 618.32 392.85C617.818 392.975 617.327 393.449 617.327 394.109V397.893L616.441 398.114V394.33C616.441 393.67 615.982 393.432 615.47 393.56C614.947 393.691 614.509 394.152 614.509 394.812V398.596L613.624 398.817Z" fill="#FF2C2C"/>
<rect x="0.485148" y="0.379039" width="189.043" height="147.317" rx="1.5" transform="matrix(0.970296 -0.241922 0 1 73.3554 150.696)" fill="#FFC2C2" stroke="#FF2C2C"/>
<rect x="0.485148" y="0.379039" width="189.043" height="147.317" rx="1.5" transform="matrix(0.970296 -0.241922 0 1 -151.579 75.0532)" fill="#FFC2C2" stroke="#FF2C2C"/>
<path d="M111.23 54.3784L-25.1994 140.589" stroke="#329168" stroke-width="1.5" stroke-linecap="round" stroke-dasharray="0.1 3"/>
<rect x="0.485148" y="0.379039" width="220.147" height="194.459" rx="1.5" transform="matrix(0.970296 -0.241922 0 1 142.268 314.56)" fill="#FFC2C2" stroke="#FF2C2C"/>
<rect x="0.485148" y="0.379039" width="238.805" height="211.238" rx="1.5" transform="matrix(0.970296 -0.241922 0 1 442.275 121.706)" fill="#FFC2C2" stroke="#FF2C2C"/>
<path d="M155.097 330.645V322.945L156.229 322.662L158.182 325.332L160.135 321.688L161.224 321.417V329.117L160.306 329.346V323.131L158.214 326.941L158.118 326.965L156.015 324.146V330.416L155.097 330.645ZM163.785 321.626C163.4 321.721 163.091 321.479 163.091 321.083C163.091 320.665 163.4 320.28 163.785 320.185C164.19 320.083 164.5 320.314 164.5 320.732C164.5 321.128 164.19 321.524 163.785 321.626ZM163.358 328.585V323.008L164.244 322.787V328.364L163.358 328.585ZM168.446 327.426C166.941 327.802 165.788 326.857 165.788 325.185C165.788 323.513 166.951 321.991 168.446 321.618C169.342 321.395 169.972 321.623 170.378 322.094L169.694 322.803C169.417 322.498 168.979 322.376 168.435 322.512C167.464 322.754 166.695 323.76 166.695 324.959C166.695 326.147 167.464 326.791 168.435 326.549C168.979 326.413 169.406 326.065 169.694 325.63L170.367 326.012C169.929 326.705 169.332 327.206 168.446 327.426ZM171.873 326.462V320.885L172.759 320.664V321.5C172.951 320.979 173.528 320.428 174.275 320.242C174.702 320.136 174.99 320.13 175.289 320.264L174.862 321.251C174.702 321.17 174.478 321.17 174.2 321.24C173.538 321.405 172.919 321.955 172.759 322.963V326.241L171.873 326.462ZM178.543 324.92C177.071 325.287 175.982 324.293 175.982 322.643C175.982 321.004 177.071 319.468 178.543 319.101C180.016 318.734 181.116 319.724 181.116 321.363C181.116 323.013 180.016 324.553 178.543 324.92ZM178.543 324.04C179.515 323.798 180.208 322.723 180.208 321.601C180.208 320.468 179.515 319.739 178.543 319.981C177.572 320.223 176.889 321.295 176.889 322.428C176.889 323.55 177.572 324.282 178.543 324.04ZM184.945 323.313C183.441 323.688 182.288 322.743 182.288 321.071C182.288 319.399 183.451 317.877 184.945 317.505C185.842 317.281 186.472 317.509 186.877 317.98L186.194 318.689C185.917 318.384 185.479 318.262 184.935 318.398C183.964 318.64 183.195 319.646 183.195 320.845C183.195 322.033 183.964 322.677 184.935 322.435C185.479 322.299 185.906 321.951 186.194 321.516L186.867 321.899C186.429 322.591 185.831 323.092 184.945 323.313ZM190.457 321.949C188.984 322.317 187.895 321.323 187.895 319.673C187.895 318.034 188.984 316.498 190.457 316.13C191.93 315.763 193.029 316.754 193.029 318.393C193.029 320.043 191.93 321.582 190.457 321.949ZM190.457 321.069C191.428 320.827 192.122 319.752 192.122 318.63C192.122 317.497 191.428 316.768 190.457 317.01C189.486 317.253 188.803 318.325 188.803 319.458C188.803 320.58 189.486 321.312 190.457 321.069ZM196.283 320.497C195.44 320.707 194.564 320.584 194.041 320.066L194.628 319.27C194.981 319.623 195.642 319.81 196.347 319.634C197.008 319.469 197.435 319.098 197.435 318.625C197.435 318.273 197.211 318.12 196.902 318.088L195.375 317.929C194.682 317.86 194.265 317.469 194.265 316.82C194.265 315.83 195.205 314.958 196.272 314.692C196.998 314.511 197.745 314.566 198.311 315.074L197.702 315.831C197.371 315.495 196.816 315.403 196.219 315.552C195.685 315.685 195.141 316.052 195.141 316.536C195.141 316.866 195.365 316.986 195.685 317.016L197.083 317.162C197.83 317.24 198.311 317.549 198.311 318.341C198.311 319.309 197.574 320.175 196.283 320.497ZM199.859 319.484V313.907L200.745 313.686V314.214C201.002 313.721 201.386 313.406 201.93 313.27C202.485 313.131 202.923 313.275 203.211 313.709C203.531 313.08 204.075 312.735 204.566 312.612C205.676 312.336 206.381 312.952 206.381 313.997V317.858L205.495 318.079V314.295C205.495 313.635 205.089 313.384 204.556 313.517C204.054 313.642 203.563 314.117 203.563 314.777V318.561L202.677 318.782V314.998C202.677 314.338 202.218 314.1 201.706 314.228C201.183 314.358 200.745 314.819 200.745 315.479V319.263L199.859 319.484Z" fill="#FF2C2C"/>
<path d="M83.3159 166.996V159.296L84.4473 159.014L86.4005 161.684L88.3537 158.04L89.4424 157.768V165.468L88.5245 165.697V159.482L86.4325 163.293L86.3364 163.317L84.2338 160.497V166.767L83.3159 166.996ZM92.0033 157.977C91.6191 158.073 91.3096 157.831 91.3096 157.435C91.3096 157.017 91.6191 156.632 92.0033 156.536C92.4089 156.435 92.7185 156.666 92.7185 157.084C92.7185 157.48 92.4089 157.876 92.0033 157.977ZM91.5764 164.936V159.359L92.4623 159.138V164.715L91.5764 164.936ZM96.6643 163.778C95.1594 164.153 94.0067 163.208 94.0067 161.536C94.0067 159.864 95.1701 158.342 96.6643 157.97C97.5609 157.746 98.1906 157.974 98.5962 158.445L97.9131 159.154C97.6356 158.85 97.198 158.728 96.6536 158.863C95.6824 159.106 94.9139 160.111 94.9139 161.31C94.9139 162.498 95.6824 163.143 96.6536 162.9C97.198 162.765 97.6249 162.416 97.9131 161.981L98.5855 162.364C98.1479 163.056 97.5502 163.557 96.6643 163.778ZM100.092 162.813V157.236L100.978 157.015V157.851C101.17 157.33 101.746 156.78 102.494 156.593C102.921 156.487 103.209 156.481 103.508 156.616L103.081 157.602C102.921 157.521 102.696 157.522 102.419 157.591C101.757 157.756 101.138 158.306 100.978 159.314V162.592L100.092 162.813ZM106.762 161.271C105.289 161.638 104.2 160.645 104.2 158.995C104.2 157.356 105.289 155.819 106.762 155.452C108.235 155.085 109.334 156.076 109.334 157.715C109.334 159.365 108.235 160.904 106.762 161.271ZM106.762 160.391C107.733 160.149 108.427 159.074 108.427 157.952C108.427 156.819 107.733 156.09 106.762 156.332C105.791 156.574 105.108 157.647 105.108 158.78C105.108 159.902 105.791 160.633 106.762 160.391ZM113.164 159.664C111.659 160.039 110.506 159.094 110.506 157.422C110.506 155.75 111.67 154.228 113.164 153.856C114.061 153.632 114.69 153.86 115.096 154.331L114.413 155.041C114.135 154.736 113.698 154.614 113.153 154.75C112.182 154.992 111.414 155.997 111.414 157.196C111.414 158.384 112.182 159.029 113.153 158.787C113.698 158.651 114.125 158.302 114.413 157.868L115.085 158.25C114.648 158.942 114.05 159.443 113.164 159.664ZM118.676 158.301C117.203 158.668 116.114 157.674 116.114 156.024C116.114 154.385 117.203 152.849 118.676 152.482C120.149 152.114 121.248 153.105 121.248 154.744C121.248 156.394 120.149 157.933 118.676 158.301ZM118.676 157.421C119.647 157.179 120.341 156.104 120.341 154.982C120.341 153.849 119.647 153.12 118.676 153.362C117.704 153.604 117.021 154.676 117.021 155.809C117.021 156.931 117.704 157.663 118.676 157.421ZM124.501 156.848C123.658 157.058 122.783 156.936 122.26 156.417L122.847 155.622C123.199 155.974 123.861 156.161 124.565 155.985C125.227 155.82 125.654 155.45 125.654 154.977C125.654 154.625 125.43 154.472 125.12 154.439L123.594 154.28C122.9 154.211 122.484 153.82 122.484 153.171C122.484 152.181 123.423 151.309 124.491 151.043C125.216 150.862 125.964 150.918 126.529 151.426L125.921 152.182C125.59 151.847 125.035 151.754 124.437 151.903C123.904 152.036 123.359 152.403 123.359 152.887C123.359 153.217 123.583 153.337 123.904 153.367L125.302 153.514C126.049 153.591 126.529 153.901 126.529 154.693C126.529 155.661 125.793 156.526 124.501 156.848ZM128.078 155.835V150.258L128.964 150.038V150.566C129.22 150.073 129.604 149.757 130.149 149.621C130.704 149.483 131.141 149.627 131.43 150.061C131.75 149.431 132.294 149.086 132.785 148.964C133.895 148.687 134.599 149.303 134.599 150.348V154.209L133.714 154.43V150.646C133.714 149.986 133.308 149.735 132.774 149.868C132.273 149.994 131.782 150.468 131.782 151.128V154.912L130.896 155.133V151.349C130.896 150.689 130.437 150.451 129.925 150.579C129.402 150.709 128.964 151.171 128.964 151.831V155.615L128.078 155.835Z" fill="#FF2C2C"/>
<path d="M451.236 136.218V128.518L452.367 128.235L454.32 130.905L456.274 127.261L457.362 126.99V134.69L456.444 134.919V128.704L454.352 132.514L454.256 132.538L452.154 129.719V135.989L451.236 136.218ZM459.923 127.199C459.539 127.294 459.23 127.052 459.23 126.656C459.23 126.238 459.539 125.853 459.923 125.758C460.329 125.656 460.638 125.887 460.638 126.305C460.638 126.701 460.329 127.097 459.923 127.199ZM459.496 134.158V128.581L460.382 128.36V133.937L459.496 134.158ZM464.584 132.999C463.079 133.375 461.927 132.43 461.927 130.758C461.927 129.086 463.09 127.564 464.584 127.191C465.481 126.968 466.111 127.196 466.516 127.667L465.833 128.376C465.555 128.071 465.118 127.949 464.574 128.085C463.602 128.327 462.834 129.333 462.834 130.532C462.834 131.72 463.602 132.364 464.574 132.122C465.118 131.986 465.545 131.638 465.833 131.203L466.505 131.585C466.068 132.277 465.47 132.779 464.584 132.999ZM468.012 132.035V126.458L468.898 126.237V127.073C469.09 126.552 469.666 126.001 470.413 125.815C470.84 125.709 471.129 125.703 471.427 125.837L471.001 126.824C470.84 126.743 470.616 126.743 470.339 126.813C469.677 126.978 469.058 127.528 468.898 128.536V131.814L468.012 132.035ZM474.682 130.493C473.209 130.86 472.12 129.866 472.12 128.216C472.12 126.577 473.209 125.041 474.682 124.674C476.155 124.307 477.254 125.297 477.254 126.936C477.254 128.586 476.155 130.126 474.682 130.493ZM474.682 129.613C475.653 129.371 476.347 128.296 476.347 127.174C476.347 126.041 475.653 125.312 474.682 125.554C473.711 125.796 473.028 126.868 473.028 128.001C473.028 129.123 473.711 129.855 474.682 129.613ZM481.084 128.886C479.579 129.261 478.426 128.316 478.426 126.644C478.426 124.972 479.59 123.45 481.084 123.078C481.981 122.854 482.61 123.082 483.016 123.553L482.333 124.262C482.055 123.957 481.618 123.835 481.073 123.971C480.102 124.213 479.334 125.219 479.334 126.418C479.334 127.606 480.102 128.25 481.073 128.008C481.618 127.872 482.045 127.524 482.333 127.089L483.005 127.472C482.568 128.164 481.97 128.665 481.084 128.886ZM486.596 127.522C485.123 127.89 484.034 126.896 484.034 125.246C484.034 123.607 485.123 122.071 486.596 121.703C488.068 121.336 489.168 122.327 489.168 123.966C489.168 125.616 488.068 127.155 486.596 127.522ZM486.596 126.642C487.567 126.4 488.261 125.325 488.261 124.203C488.261 123.07 487.567 122.341 486.596 122.583C485.624 122.826 484.941 123.898 484.941 125.031C484.941 126.153 485.624 126.885 486.596 126.642ZM492.421 126.07C491.578 126.28 490.703 126.157 490.18 125.639L490.767 124.843C491.119 125.196 491.781 125.383 492.485 125.207C493.147 125.042 493.574 124.671 493.574 124.198C493.574 123.846 493.35 123.693 493.04 123.661L491.514 123.502C490.82 123.433 490.404 123.042 490.404 122.393C490.404 121.403 491.343 120.531 492.411 120.265C493.136 120.084 493.883 120.139 494.449 120.647L493.841 121.404C493.51 121.068 492.955 120.976 492.357 121.125C491.824 121.258 491.279 121.625 491.279 122.109C491.279 122.439 491.503 122.559 491.824 122.589L493.222 122.735C493.969 122.813 494.449 123.122 494.449 123.914C494.449 124.882 493.713 125.748 492.421 126.07ZM495.998 125.057V119.48L496.884 119.259V119.787C497.14 119.294 497.524 118.979 498.069 118.843C498.624 118.704 499.061 118.848 499.349 119.282C499.67 118.653 500.214 118.308 500.705 118.185C501.815 117.909 502.519 118.525 502.519 119.57V123.431L501.634 123.652V119.868C501.634 119.208 501.228 118.957 500.694 119.09C500.193 119.215 499.702 119.69 499.702 120.35V124.134L498.816 124.355V120.571C498.816 119.911 498.357 119.673 497.845 119.801C497.322 119.931 496.884 120.392 496.884 121.052V124.836L495.998 125.057Z" fill="#FF2C2C"/>
<path d="M71.8918 344.815L121.678 231.39" stroke="#329168" stroke-width="1.5" stroke-linecap="round" stroke-dasharray="0.1 3"/>
<path d="M80.2103 349.42L-29.3167 303.683" stroke="#329168" stroke-width="1.5" stroke-linecap="round" stroke-dasharray="0.1 3"/>
<path d="M42.0529 327.855L97.3832 314.059C98.187 313.859 98.8387 314.368 98.8387 315.196V357.508C98.8387 358.337 98.187 359.171 97.3832 359.371L42.0529 373.166C41.2491 373.367 40.5975 372.858 40.5975 372.029V329.717C40.5975 328.889 41.2491 328.055 42.0529 327.855Z" fill="#ABF6D6" stroke="#329168"/>
<path d="M59.0642 351.119C58.0823 351.364 56.9616 351.204 56.2358 350.548L56.8122 349.701C57.3992 350.115 58.0823 350.44 59.0642 350.195C60.2703 349.895 60.7826 349.228 60.7826 348.491C60.7826 348.084 60.5158 347.732 59.9501 347.664L57.9436 347.428C56.8869 347.306 56.492 346.734 56.492 345.997C56.492 344.677 57.6234 343.548 59.0749 343.186C60.3664 342.864 61.1882 343.165 61.6578 343.543L61.0388 344.401C60.5692 344.078 59.9608 343.889 59.1176 344.099C58.0716 344.36 57.4206 345.028 57.4206 345.677C57.4206 346.117 57.6874 346.403 58.2104 346.459L60.1956 346.69C61.2202 346.809 61.7219 347.322 61.7219 348.235C61.7219 349.731 60.5265 350.755 59.0642 351.119ZM65.4992 349.515C64.1224 349.858 62.9483 349.007 62.9483 347.258C62.9483 345.443 64.3038 344.005 65.5419 343.696C66.1503 343.545 66.6199 343.603 66.8761 343.914V343.474L67.7619 343.253V348.83L66.8761 349.051V348.567C66.6519 348.985 66.1289 349.358 65.4992 349.515ZM65.5419 348.624C66.1076 348.483 66.6306 348.1 66.8761 347.544V344.904C66.6413 344.555 66.2036 344.411 65.5526 344.574C64.7948 344.763 63.8555 345.69 63.8555 347.032C63.8555 348.22 64.6133 348.856 65.5419 348.624ZM69.68 348.351V342.774L70.5658 342.554V343.39C70.758 342.869 71.3343 342.318 72.0814 342.132C72.5084 342.025 72.7966 342.019 73.0954 342.154L72.6685 343.14C72.5084 343.059 72.2842 343.06 72.0067 343.129C71.345 343.294 70.7259 343.845 70.5658 344.853V348.131L69.68 348.351ZM76.3392 346.812C74.9624 347.155 73.7883 346.304 73.7883 344.555C73.7883 342.74 75.1438 341.302 76.3819 340.994C76.9903 340.842 77.4599 340.901 77.7161 341.211V340.771L78.602 340.55V346.127L77.7161 346.348V345.864C77.4919 346.283 76.969 346.655 76.3392 346.812ZM76.3819 345.922C76.9476 345.78 77.4706 345.397 77.7161 344.841V342.201C77.4813 341.852 77.0437 341.709 76.3926 341.871C75.6348 342.06 74.6956 342.987 74.6956 344.329C74.6956 345.517 75.4534 346.153 76.3819 345.922ZM82.772 339.389C83.8073 339.131 84.6719 339.598 84.6719 341.028V344.614L83.786 344.834V341.369C83.786 340.489 83.2523 340.183 82.676 340.326C81.9075 340.518 81.4059 341.215 81.4059 341.93V345.428L80.52 345.649V337.949L81.4059 337.728V340.489C81.694 339.922 82.1316 339.549 82.772 339.389Z" fill="#329168"/>
<path d="M469.66 421.212L634.396 245.009" stroke="#329168" stroke-width="1.5" stroke-linecap="round" stroke-dasharray="0.1 3"/>
<path d="M467.906 428.477L445.587 530.31" stroke="#329168" stroke-width="1.5" stroke-linecap="round" stroke-dasharray="0.1 3"/>
<rect x="0.485148" y="0.379039" width="64.1836" height="65.8698" rx="1.5" transform="matrix(0.970296 -0.241922 0 1 602.2 221.919)" fill="#B5DDEA" stroke="#099FCE"/>
<path d="M613.456 236.424C611.418 236.932 610.115 235.475 610.115 233.275C610.115 231.075 611.418 228.968 613.456 228.46C614.598 228.175 615.399 228.503 615.922 229.187L615.164 229.948C614.822 229.461 614.214 229.217 613.446 229.408C612.069 229.752 611.055 231.368 611.055 233.04C611.055 234.712 612.069 235.824 613.446 235.48C614.214 235.289 614.822 234.752 615.164 234.106L615.932 234.453C615.409 235.409 614.598 236.139 613.456 236.424ZM619.453 234.906C617.98 235.274 616.892 234.28 616.892 232.63C616.892 230.991 617.98 229.455 619.453 229.087C620.926 228.72 622.026 229.711 622.026 231.35C622.026 233 620.926 234.539 619.453 234.906ZM619.453 234.026C620.425 233.784 621.118 232.709 621.118 231.587C621.118 230.454 620.425 229.725 619.453 229.967C618.482 230.21 617.799 231.282 617.799 232.415C617.799 233.537 618.482 234.269 619.453 234.026ZM623.571 233.759V226.059L624.457 225.838V233.538L623.571 233.759ZM626.375 233.06V225.36L627.261 225.139V232.839L626.375 233.06ZM631.474 231.898C629.99 232.268 628.805 231.453 628.805 229.638C628.805 227.933 629.969 226.466 631.271 226.141C632.85 225.747 633.715 226.829 633.715 228.226V228.644L629.713 229.642C629.734 230.737 630.609 231.234 631.442 231.026C632.061 230.872 632.509 230.507 632.786 230.064L633.438 230.485C633 231.166 632.327 231.685 631.474 231.898ZM632.818 228.076C632.722 227.341 632.253 226.776 631.26 227.024C630.534 227.205 629.862 227.933 629.702 228.853L632.818 228.076ZM637.55 230.383C636.045 230.759 634.892 229.814 634.892 228.142C634.892 226.47 636.056 224.948 637.55 224.575C638.447 224.352 639.076 224.58 639.482 225.051L638.799 225.76C638.521 225.455 638.084 225.333 637.539 225.469C636.568 225.711 635.8 226.717 635.8 227.916C635.8 229.104 636.568 229.748 637.539 229.506C638.084 229.37 638.511 229.022 638.799 228.587L639.471 228.969C639.034 229.661 638.436 230.162 637.55 230.383ZM642.867 228.948C642.216 229.11 641.597 228.989 641.597 228.065V224.567L640.391 224.868V223.988L641.597 223.687V221.96L642.483 221.343V223.466L643.924 223.107V223.987L642.483 224.346V227.536C642.483 228.009 642.76 228.083 643.08 228.003L643.7 227.849V228.74L642.867 228.948ZM646.001 221.313C645.617 221.409 645.308 221.167 645.308 220.771C645.308 220.353 645.617 219.968 646.001 219.872C646.407 219.771 646.716 220.002 646.716 220.42C646.716 220.816 646.407 221.212 646.001 221.313ZM645.574 228.273V222.696L646.46 222.475V228.052L645.574 228.273ZM650.566 227.149C649.093 227.516 648.005 226.523 648.005 224.873C648.005 223.234 649.093 221.697 650.566 221.33C652.039 220.963 653.138 221.954 653.138 223.593C653.138 225.243 652.039 226.782 650.566 227.149ZM650.566 226.269C651.538 226.027 652.231 224.952 652.231 223.83C652.231 222.697 651.538 221.968 650.566 222.21C649.595 222.452 648.912 223.524 648.912 224.657C648.912 225.779 649.595 226.511 650.566 226.269ZM654.684 226.001V220.424L655.57 220.203V220.841C655.858 220.275 656.296 219.901 656.936 219.742C657.972 219.484 658.836 219.95 658.836 221.38V224.966L657.95 225.187V221.722C657.95 220.842 657.417 220.535 656.84 220.679C656.072 220.87 655.57 221.567 655.57 222.282V225.78L654.684 226.001Z" fill="#099FCE"/>
<rect x="0.485148" y="0.379039" width="57.1839" height="42.8746" rx="1.5" transform="matrix(0.970296 -0.241922 0 1 618.502 248.133)" fill="#E0F397" stroke="#7A950E"/>
<path d="M637.439 269.994V262.294L638.592 262.006L641.922 267.413V261.176L642.84 260.947V268.647L641.676 268.937L638.357 263.539V269.765L637.439 269.994ZM647.158 267.692C645.685 268.059 644.596 267.065 644.596 265.415C644.596 263.776 645.685 262.24 647.158 261.873C648.631 261.505 649.73 262.496 649.73 264.135C649.73 265.785 648.631 267.324 647.158 267.692ZM647.158 266.812C648.129 266.57 648.823 265.495 648.823 264.373C648.823 263.24 648.129 262.511 647.158 262.753C646.187 262.995 645.504 264.067 645.504 265.2C645.504 266.322 646.187 267.054 647.158 266.812ZM653.453 266.122C652.076 266.465 650.902 265.614 650.902 263.865C650.902 262.05 652.258 260.612 653.496 260.303C654.104 260.152 654.574 260.189 654.83 260.422V257.958L655.716 257.737V265.437L654.83 265.658V265.174C654.606 265.593 654.083 265.965 653.453 266.122ZM653.496 265.231C654.062 265.09 654.585 264.707 654.83 264.151V261.511C654.595 261.162 654.158 261.018 653.507 261.181C652.749 261.37 651.809 262.297 651.809 263.639C651.809 264.827 652.567 265.463 653.496 265.231ZM659.929 264.497C658.445 264.866 657.26 264.051 657.26 262.236C657.26 260.531 658.424 259.064 659.726 258.739C661.306 258.345 662.17 259.428 662.17 260.825V261.243L658.168 262.241C658.189 263.335 659.064 263.832 659.897 263.625C660.516 263.47 660.964 263.105 661.241 262.662L661.893 263.083C661.455 263.764 660.783 264.284 659.929 264.497ZM661.273 260.674C661.177 259.939 660.708 259.374 659.715 259.622C658.989 259.803 658.317 260.531 658.157 261.451L661.273 260.674Z" fill="#7A950E"/>
<rect x="0.485148" y="0.379039" width="57.1839" height="42.8746" rx="1.5" transform="matrix(0.970296 -0.241922 0 1 626.674 254.44)" fill="#E0F397" stroke="#7A950E"/>
<path d="M645.611 276.301V268.601L646.763 268.314L650.093 273.721V267.484L651.011 267.255V274.955L649.848 275.245L646.528 269.846V276.072L645.611 276.301ZM655.329 273.999C653.857 274.366 652.768 273.373 652.768 271.723C652.768 270.084 653.857 268.547 655.329 268.18C656.802 267.813 657.902 268.804 657.902 270.443C657.902 272.093 656.802 273.632 655.329 273.999ZM655.329 273.119C656.301 272.877 656.995 271.802 656.995 270.68C656.995 269.547 656.301 268.818 655.329 269.06C654.358 269.302 653.675 270.375 653.675 271.508C653.675 272.63 654.358 273.361 655.329 273.119ZM661.625 272.429C660.248 272.773 659.074 271.921 659.074 270.172C659.074 268.357 660.429 266.92 661.667 266.611C662.276 266.459 662.745 266.496 663.002 266.729V264.265L663.888 264.044V271.744L663.002 271.965V271.481C662.778 271.9 662.255 272.272 661.625 272.429ZM661.667 271.539C662.233 271.398 662.756 271.014 663.002 270.458V267.818C662.767 267.47 662.329 267.326 661.678 267.488C660.92 267.677 659.981 268.604 659.981 269.946C659.981 271.134 660.739 271.77 661.667 271.539ZM668.1 270.804C666.617 271.174 665.432 270.358 665.432 268.543C665.432 266.838 666.595 265.371 667.897 265.047C669.477 264.653 670.342 265.735 670.342 267.132V267.55L666.339 268.548C666.361 269.643 667.236 270.14 668.068 269.932C668.687 269.778 669.136 269.413 669.413 268.97L670.064 269.39C669.627 270.071 668.954 270.591 668.1 270.804ZM669.445 266.982C669.349 266.247 668.879 265.682 667.887 265.929C667.161 266.11 666.489 266.839 666.329 267.759L669.445 266.982Z" fill="#7A950E"/>
<path d="M654.216 282.407V274.707L655.369 274.419L658.699 279.826V273.589L659.617 273.36V281.06L658.454 281.35L655.134 275.952V282.178L654.216 282.407ZM663.935 280.105C662.462 280.472 661.374 279.478 661.374 277.828C661.374 276.189 662.462 274.653 663.935 274.286C665.408 273.918 666.507 274.909 666.507 276.548C666.507 278.198 665.408 279.737 663.935 280.105ZM663.935 279.225C664.906 278.982 665.6 277.907 665.6 276.785C665.6 275.652 664.906 274.923 663.935 275.166C662.964 275.408 662.281 276.48 662.281 277.613C662.281 278.735 662.964 279.467 663.935 279.225ZM670.231 278.535C668.854 278.878 667.68 278.027 667.68 276.278C667.68 274.463 669.035 273.025 670.273 272.716C670.882 272.565 671.351 272.602 671.607 272.835V270.371L672.493 270.15V277.85L671.607 278.071V277.587C671.383 278.006 670.86 278.378 670.231 278.535ZM670.273 277.644C670.839 277.503 671.362 277.12 671.607 276.564V273.924C671.373 273.575 670.935 273.431 670.284 273.594C669.526 273.783 668.587 274.71 668.587 276.052C668.587 277.24 669.345 277.876 670.273 277.644ZM676.706 276.909C675.222 277.279 674.038 276.464 674.038 274.649C674.038 272.944 675.201 271.477 676.503 271.152C678.083 270.758 678.947 271.841 678.947 273.238V273.656L674.945 274.654C674.966 275.748 675.841 276.245 676.674 276.037C677.293 275.883 677.741 275.518 678.019 275.075L678.67 275.496C678.232 276.177 677.56 276.697 676.706 276.909ZM678.051 273.087C677.955 272.352 677.485 271.787 676.493 272.035C675.767 272.216 675.094 272.944 674.934 273.864L678.051 273.087Z" fill="#7A950E"/>
<path d="M472.091 422.199L294.93 427.082" stroke="#329168" stroke-width="1.5" stroke-linecap="round" stroke-dasharray="0.1 3"/>
<rect x="0.485148" y="0.379039" width="64.1836" height="65.8698" rx="1.5" transform="matrix(0.970296 -0.241922 0 1 252.54 401.435)" fill="#B5DDEA" stroke="#099FCE"/>
<path d="M263.796 415.939C261.757 416.447 260.455 414.99 260.455 412.79C260.455 410.59 261.757 408.483 263.796 407.975C264.938 407.69 265.738 408.019 266.261 408.702L265.503 409.463C265.162 408.977 264.554 408.732 263.785 408.924C262.408 409.267 261.394 410.884 261.394 412.556C261.394 414.228 262.408 415.339 263.785 414.996C264.554 414.804 265.162 414.268 265.503 413.621L266.272 413.969C265.749 414.924 264.938 415.654 263.796 415.939ZM269.793 414.422C268.32 414.789 267.231 413.796 267.231 412.146C267.231 410.507 268.32 408.97 269.793 408.603C271.266 408.236 272.365 409.227 272.365 410.866C272.365 412.516 271.266 414.055 269.793 414.422ZM269.793 413.542C270.764 413.3 271.458 412.225 271.458 411.103C271.458 409.97 270.764 409.241 269.793 409.483C268.822 409.725 268.139 410.797 268.139 411.93C268.139 413.052 268.822 413.784 269.793 413.542ZM273.911 413.274V405.574L274.797 405.353V413.053L273.911 413.274ZM276.715 412.575V404.875L277.601 404.654V412.354L276.715 412.575ZM281.813 411.414C280.33 411.784 279.145 410.968 279.145 409.153C279.145 407.448 280.308 405.981 281.61 405.657C283.19 405.263 284.055 406.345 284.055 407.742V408.16L280.052 409.158C280.073 410.253 280.949 410.75 281.781 410.542C282.4 410.388 282.849 410.023 283.126 409.58L283.777 410C283.34 410.681 282.667 411.201 281.813 411.414ZM283.158 407.592C283.062 406.857 282.592 406.292 281.6 406.539C280.874 406.72 280.202 407.449 280.041 408.369L283.158 407.592ZM287.89 409.899C286.385 410.274 285.232 409.33 285.232 407.658C285.232 405.986 286.395 404.463 287.89 404.091C288.786 403.867 289.416 404.095 289.822 404.566L289.138 405.276C288.861 404.971 288.423 404.849 287.879 404.985C286.908 405.227 286.139 406.232 286.139 407.431C286.139 408.619 286.908 409.264 287.879 409.022C288.423 408.886 288.85 408.537 289.138 408.103L289.811 408.485C289.373 409.177 288.776 409.678 287.89 409.899ZM293.207 408.463C292.556 408.626 291.936 408.505 291.936 407.581V404.083L290.73 404.384V403.504L291.936 403.203V401.476L292.822 400.859V402.982L294.263 402.623V403.503L292.822 403.862V407.052C292.822 407.525 293.1 407.599 293.42 407.519L294.039 407.365V408.256L293.207 408.463ZM296.341 400.829C295.957 400.925 295.647 400.683 295.647 400.287C295.647 399.869 295.957 399.484 296.341 399.388C296.747 399.287 297.056 399.517 297.056 399.935C297.056 400.331 296.747 400.728 296.341 400.829ZM295.914 407.788V402.211L296.8 401.99V407.567L295.914 407.788ZM300.906 406.665C299.433 407.032 298.344 406.038 298.344 404.388C298.344 402.749 299.433 401.213 300.906 400.846C302.379 400.478 303.478 401.469 303.478 403.108C303.478 404.758 302.379 406.297 300.906 406.665ZM300.906 405.785C301.877 405.542 302.571 404.467 302.571 403.345C302.571 402.212 301.877 401.483 300.906 401.726C299.935 401.968 299.251 403.04 299.251 404.173C299.251 405.295 299.935 406.027 300.906 405.785ZM305.024 405.517V399.94L305.91 399.719V400.357C306.198 399.79 306.635 399.417 307.276 399.257C308.311 398.999 309.176 399.466 309.176 400.896V404.482L308.29 404.703V401.238C308.29 400.358 307.756 400.051 307.18 400.194C306.411 400.386 305.91 401.083 305.91 401.798V405.296L305.024 405.517Z" fill="#099FCE"/>
<rect x="0.485148" y="0.379039" width="57.1839" height="42.8746" rx="1.5" transform="matrix(0.970296 -0.241922 0 1 268.841 427.648)" fill="#E0F397" stroke="#7A950E"/>
<path d="M287.779 449.51V441.81L288.931 441.522L292.261 446.929V440.692L293.179 440.463V448.163L292.016 448.453L288.696 443.055V449.281L287.779 449.51ZM297.497 447.207C296.025 447.575 294.936 446.581 294.936 444.931C294.936 443.292 296.025 441.756 297.497 441.388C298.97 441.021 300.07 442.012 300.07 443.651C300.07 445.301 298.97 446.84 297.497 447.207ZM297.497 446.327C298.469 446.085 299.162 445.01 299.162 443.888C299.162 442.755 298.469 442.026 297.497 442.268C296.526 442.51 295.843 443.583 295.843 444.716C295.843 445.838 296.526 446.569 297.497 446.327ZM303.793 445.638C302.416 445.981 301.242 445.13 301.242 443.381C301.242 441.566 302.597 440.128 303.835 439.819C304.444 439.667 304.913 439.704 305.17 439.937V437.473L306.055 437.253V444.953L305.17 445.173V444.689C304.945 445.108 304.422 445.481 303.793 445.638ZM303.835 444.747C304.401 444.606 304.924 444.223 305.17 443.666V441.026C304.935 440.678 304.497 440.534 303.846 440.696C303.088 440.885 302.149 441.813 302.149 443.155C302.149 444.343 302.907 444.979 303.835 444.747ZM310.268 444.012C308.785 444.382 307.6 443.566 307.6 441.751C307.6 440.046 308.763 438.579 310.065 438.255C311.645 437.861 312.51 438.943 312.51 440.34V440.758L308.507 441.756C308.529 442.851 309.404 443.348 310.236 443.14C310.855 442.986 311.304 442.621 311.581 442.178L312.232 442.599C311.795 443.28 311.122 443.799 310.268 444.012ZM311.613 440.19C311.517 439.455 311.047 438.89 310.055 439.137C309.329 439.318 308.657 440.047 308.497 440.967L311.613 440.19Z" fill="#7A950E"/>
<rect x="0.485148" y="0.379039" width="64.1836" height="65.8698" rx="1.5" transform="matrix(0.970296 -0.241922 0 1 85.9899 204.925)" fill="#B5DDEA" stroke="#099FCE"/>
<path d="M97.2459 219.43C95.2073 219.938 93.9051 218.481 93.9051 216.281C93.9051 214.081 95.2073 211.974 97.2459 211.466C98.3879 211.181 99.1884 211.509 99.7114 212.193L98.9536 212.954C98.612 212.467 98.0037 212.223 97.2352 212.414C95.8583 212.758 94.8444 214.374 94.8444 216.046C94.8444 217.718 95.8583 218.83 97.2352 218.486C98.0037 218.295 98.612 217.758 98.9536 217.112L99.722 217.459C99.1991 218.415 98.3879 219.145 97.2459 219.43ZM103.243 217.912C101.77 218.28 100.681 217.286 100.681 215.636C100.681 213.997 101.77 212.461 103.243 212.093C104.716 211.726 105.815 212.717 105.815 214.356C105.815 216.006 104.716 217.545 103.243 217.912ZM103.243 217.032C104.214 216.79 104.908 215.715 104.908 214.593C104.908 213.46 104.214 212.731 103.243 212.973C102.272 213.216 101.589 214.288 101.589 215.421C101.589 216.543 102.272 217.275 103.243 217.032ZM107.361 216.765V209.065L108.247 208.844V216.544L107.361 216.765ZM110.165 216.066V208.366L111.051 208.145V215.845L110.165 216.066ZM115.263 214.904C113.78 215.274 112.595 214.459 112.595 212.644C112.595 210.939 113.758 209.472 115.061 209.147C116.64 208.753 117.505 209.836 117.505 211.233V211.651L113.502 212.649C113.524 213.743 114.399 214.24 115.231 214.032C115.85 213.878 116.299 213.513 116.576 213.07L117.227 213.491C116.79 214.172 116.117 214.692 115.263 214.904ZM116.608 211.082C116.512 210.347 116.042 209.782 115.05 210.03C114.324 210.211 113.652 210.939 113.492 211.859L116.608 211.082ZM121.34 213.389C119.835 213.765 118.682 212.82 118.682 211.148C118.682 209.476 119.845 207.954 121.34 207.581C122.236 207.358 122.866 207.586 123.272 208.057L122.588 208.766C122.311 208.461 121.873 208.339 121.329 208.475C120.358 208.717 119.589 209.723 119.589 210.922C119.589 212.11 120.358 212.754 121.329 212.512C121.873 212.376 122.3 212.028 122.588 211.593L123.261 211.975C122.823 212.668 122.226 213.169 121.34 213.389ZM126.657 211.954C126.006 212.116 125.387 211.995 125.387 211.071V207.573L124.18 207.874V206.994L125.387 206.693V204.966L126.272 204.35V206.473L127.713 206.113V206.993L126.272 207.353V210.543C126.272 211.016 126.55 211.089 126.87 211.01L127.489 210.855V211.746L126.657 211.954ZM129.791 204.319C129.407 204.415 129.097 204.173 129.097 203.777C129.097 203.359 129.407 202.974 129.791 202.878C130.197 202.777 130.506 203.008 130.506 203.426C130.506 203.822 130.197 204.218 129.791 204.319ZM129.364 211.279V205.702L130.25 205.481V211.058L129.364 211.279ZM134.356 210.155C132.883 210.522 131.794 209.529 131.794 207.879C131.794 206.24 132.883 204.703 134.356 204.336C135.829 203.969 136.928 204.96 136.928 206.599C136.928 208.249 135.829 209.788 134.356 210.155ZM134.356 209.275C135.327 209.033 136.021 207.958 136.021 206.836C136.021 205.703 135.327 204.974 134.356 205.216C133.385 205.458 132.702 206.531 132.702 207.664C132.702 208.786 133.385 209.517 134.356 209.275ZM138.474 209.007V203.43L139.36 203.21V203.848C139.648 203.281 140.086 202.908 140.726 202.748C141.761 202.49 142.626 202.956 142.626 204.386V207.972L141.74 208.193V204.728C141.74 203.848 141.206 203.541 140.63 203.685C139.861 203.876 139.36 204.574 139.36 205.289V208.787L138.474 209.007Z" fill="#099FCE"/>
<rect x="0.485148" y="0.379039" width="57.1839" height="42.8746" rx="1.5" transform="matrix(0.970296 -0.241922 0 1 102.292 231.139)" fill="#E0F397" stroke="#7A950E"/>
<path d="M121.229 253V245.3L122.381 245.013L125.711 250.419V244.182L126.629 243.953V251.653L125.466 251.944L122.147 246.545V252.771L121.229 253ZM130.948 250.698C129.475 251.065 128.386 250.071 128.386 248.421C128.386 246.782 129.475 245.246 130.948 244.879C132.42 244.512 133.52 245.502 133.52 247.141C133.52 248.791 132.42 250.331 130.948 250.698ZM130.948 249.818C131.919 249.576 132.613 248.501 132.613 247.379C132.613 246.246 131.919 245.517 130.948 245.759C129.976 246.001 129.293 247.073 129.293 248.206C129.293 249.328 129.976 250.06 130.948 249.818ZM137.243 249.128C135.866 249.471 134.692 248.62 134.692 246.871C134.692 245.056 136.047 243.618 137.286 243.31C137.894 243.158 138.364 243.195 138.62 243.428V240.964L139.506 240.743V248.443L138.62 248.664V248.18C138.396 248.599 137.873 248.971 137.243 249.128ZM137.286 248.238C137.851 248.097 138.374 247.713 138.62 247.157V244.517C138.385 244.168 137.947 244.025 137.296 244.187C136.538 244.376 135.599 245.303 135.599 246.645C135.599 247.833 136.357 248.469 137.286 248.238ZM143.718 247.503C142.235 247.873 141.05 247.057 141.05 245.242C141.05 243.537 142.213 242.07 143.516 241.745C145.095 241.351 145.96 242.434 145.96 243.831V244.249L141.957 245.247C141.979 246.341 142.854 246.838 143.686 246.631C144.305 246.476 144.754 246.112 145.031 245.668L145.682 246.089C145.245 246.77 144.572 247.29 143.718 247.503ZM145.063 243.68C144.967 242.945 144.497 242.38 143.505 242.628C142.779 242.809 142.107 243.538 141.947 244.457L145.063 243.68Z" fill="#7A950E"/>
<path d="M470.781 418.744L616.347 459.872" stroke="#329168" stroke-width="1.5" stroke-linecap="round" stroke-dasharray="0.1 3"/>
<rect x="0.485148" y="0.379039" width="64.1836" height="65.8698" rx="1.5" transform="matrix(0.970296 -0.241922 0 1 603.485 423.306)" fill="#B5DDEA" stroke="#099FCE"/>
<path d="M614.741 437.811C612.702 438.319 611.4 436.862 611.4 434.662C611.4 432.462 612.702 430.355 614.741 429.847C615.883 429.562 616.683 429.891 617.206 430.574L616.448 431.335C616.107 430.848 615.498 430.604 614.73 430.796C613.353 431.139 612.339 432.756 612.339 434.428C612.339 436.1 613.353 437.211 614.73 436.868C615.498 436.676 616.107 436.139 616.448 435.493L617.217 435.841C616.694 436.796 615.883 437.526 614.741 437.811ZM620.738 436.294C619.265 436.661 618.176 435.667 618.176 434.017C618.176 432.378 619.265 430.842 620.738 430.475C622.211 430.108 623.31 431.098 623.31 432.737C623.31 434.387 622.211 435.927 620.738 436.294ZM620.738 435.414C621.709 435.172 622.403 434.097 622.403 432.975C622.403 431.842 621.709 431.113 620.738 431.355C619.766 431.597 619.083 432.669 619.083 433.802C619.083 434.924 619.766 435.656 620.738 435.414ZM624.856 435.146V427.446L625.742 427.225V434.925L624.856 435.146ZM627.659 434.447V426.747L628.545 426.526V434.226L627.659 434.447ZM632.758 433.286C631.274 433.656 630.09 432.84 630.09 431.025C630.09 429.32 631.253 427.853 632.555 427.528C634.135 427.134 634.999 428.217 634.999 429.614V430.032L630.997 431.03C631.018 432.125 631.894 432.621 632.726 432.414C633.345 432.259 633.793 431.895 634.071 431.451L634.722 431.872C634.284 432.553 633.612 433.073 632.758 433.286ZM634.103 429.463C634.007 428.728 633.537 428.164 632.545 428.411C631.819 428.592 631.146 429.321 630.986 430.241L634.103 429.463ZM638.834 431.771C637.33 432.146 636.177 431.201 636.177 429.529C636.177 427.857 637.34 426.335 638.834 425.963C639.731 425.739 640.361 425.967 640.766 426.438L640.083 427.147C639.806 426.843 639.368 426.721 638.824 426.856C637.853 427.099 637.084 428.104 637.084 429.303C637.084 430.491 637.853 431.136 638.824 430.893C639.368 430.758 639.795 430.409 640.083 429.974L640.756 430.357C640.318 431.049 639.72 431.55 638.834 431.771ZM644.151 430.335C643.5 430.497 642.881 430.377 642.881 429.453V425.955L641.675 426.255V425.375L642.881 425.075V423.348L643.767 422.731V424.854L645.208 424.495V425.375L643.767 425.734V428.924C643.767 429.397 644.045 429.471 644.365 429.391L644.984 429.237V430.128L644.151 430.335ZM647.286 422.701C646.902 422.796 646.592 422.555 646.592 422.159C646.592 421.741 646.902 421.355 647.286 421.26C647.691 421.158 648.001 421.389 648.001 421.807C648.001 422.203 647.691 422.599 647.286 422.701ZM646.859 429.66V424.083L647.745 423.862V429.439L646.859 429.66ZM651.851 428.536C650.378 428.904 649.289 427.91 649.289 426.26C649.289 424.621 650.378 423.085 651.851 422.717C653.324 422.35 654.423 423.341 654.423 424.98C654.423 426.63 653.324 428.169 651.851 428.536ZM651.851 427.656C652.822 427.414 653.516 426.339 653.516 425.217C653.516 424.084 652.822 423.355 651.851 423.597C650.879 423.84 650.196 424.912 650.196 426.045C650.196 427.167 650.879 427.899 651.851 427.656ZM655.969 427.389V421.812L656.855 421.591V422.229C657.143 421.662 657.58 421.289 658.221 421.129C659.256 420.871 660.121 421.338 660.121 422.768V426.354L659.235 426.574V423.109C659.235 422.229 658.701 421.922 658.125 422.066C657.356 422.258 656.855 422.955 656.855 423.67V427.168L655.969 427.389Z" fill="#099FCE"/>
<rect x="0.485148" y="0.379039" width="57.1839" height="42.8746" rx="1.5" transform="matrix(0.970296 -0.241922 0 1 619.786 449.52)" fill="#E0F397" stroke="#7A950E"/>
<path d="M638.723 471.381V463.681L639.876 463.394L643.206 468.801V462.564L644.124 462.335V470.035L642.961 470.325L639.641 464.926V471.152L638.723 471.381ZM648.442 469.079C646.969 469.446 645.881 468.453 645.881 466.803C645.881 465.164 646.969 463.627 648.442 463.26C649.915 462.893 651.015 463.884 651.015 465.523C651.015 467.173 649.915 468.712 648.442 469.079ZM648.442 468.199C649.414 467.957 650.107 466.882 650.107 465.76C650.107 464.627 649.414 463.898 648.442 464.14C647.471 464.382 646.788 465.455 646.788 466.588C646.788 467.71 647.471 468.441 648.442 468.199ZM654.738 467.51C653.361 467.853 652.187 467.002 652.187 465.253C652.187 463.438 653.542 462 654.78 461.691C655.389 461.539 655.858 461.576 656.114 461.809V459.345L657 459.124V466.824L656.114 467.045V466.561C655.89 466.98 655.367 467.353 654.738 467.51ZM654.78 466.619C655.346 466.478 655.869 466.094 656.114 465.538V462.898C655.88 462.55 655.442 462.406 654.791 462.568C654.033 462.757 653.094 463.684 653.094 465.026C653.094 466.214 653.852 466.85 654.78 466.619ZM661.213 465.884C659.73 466.254 658.545 465.438 658.545 463.623C658.545 461.918 659.708 460.451 661.01 460.127C662.59 459.733 663.454 460.815 663.454 462.212V462.63L659.452 463.628C659.473 464.723 660.349 465.22 661.181 465.012C661.8 464.858 662.248 464.493 662.526 464.05L663.177 464.47C662.739 465.151 662.067 465.671 661.213 465.884ZM662.558 462.062C662.462 461.327 661.992 460.762 661 461.009C660.274 461.19 659.601 461.919 659.441 462.839L662.558 462.062Z" fill="#7A950E"/>
<rect x="0.485148" y="0.379039" width="57.1839" height="42.8746" rx="1.5" transform="matrix(0.970296 -0.241922 0 1 635.279 260.545)" fill="#E0F397" stroke="#7A950E"/>
<path d="M440.571 402.771L495.902 388.976C496.706 388.775 497.357 389.285 497.357 390.113V432.425C497.357 433.253 496.706 434.087 495.902 434.288L440.571 448.083C439.768 448.284 439.116 447.775 439.116 446.946V404.634C439.116 403.806 439.768 402.972 440.571 402.771Z" fill="#ABF6D6" stroke="#329168"/>
<path d="M454.774 425.89V418.19L455.692 417.961V424.715L458.851 423.927V424.873L454.774 425.89ZM462.158 424.17C460.685 424.537 459.597 423.543 459.597 421.893C459.597 420.254 460.685 418.718 462.158 418.351C463.631 417.984 464.731 418.974 464.731 420.613C464.731 422.263 463.631 423.803 462.158 424.17ZM462.158 423.29C463.13 423.048 463.823 421.973 463.823 420.851C463.823 419.718 463.13 418.989 462.158 419.231C461.187 419.473 460.504 420.545 460.504 421.678C460.504 422.8 461.187 423.532 462.158 423.29ZM470.375 416.423V422L469.489 422.221V421.583C469.201 422.15 468.763 422.523 468.123 422.683C467.087 422.941 466.223 422.474 466.223 421.044V417.458L467.109 417.238V420.703C467.109 421.583 467.642 421.889 468.219 421.746C468.987 421.554 469.489 420.857 469.489 420.142V416.644L470.375 416.423ZM472.728 414.561C472.343 414.656 472.034 414.415 472.034 414.019C472.034 413.601 472.343 413.215 472.728 413.12C473.133 413.018 473.443 413.249 473.443 413.667C473.443 414.063 473.133 414.459 472.728 414.561ZM472.301 421.52V415.943L473.187 415.722V421.299L472.301 421.52ZM476.812 420.516C475.969 420.726 475.094 420.604 474.571 420.085L475.158 419.29C475.51 419.642 476.172 419.829 476.876 419.653C477.538 419.488 477.965 419.118 477.965 418.645C477.965 418.293 477.741 418.14 477.431 418.107L475.905 417.948C475.211 417.879 474.795 417.488 474.795 416.839C474.795 415.849 475.734 414.977 476.802 414.711C477.527 414.53 478.275 414.586 478.84 415.094L478.232 415.85C477.901 415.515 477.346 415.422 476.748 415.571C476.215 415.704 475.67 416.071 475.67 416.555C475.67 416.885 475.894 417.005 476.215 417.035L477.613 417.182C478.36 417.259 478.84 417.569 478.84 418.361C478.84 419.329 478.104 420.194 476.812 420.516ZM482.684 419.041C481.2 419.411 480.016 418.596 480.016 416.781C480.016 415.076 481.179 413.608 482.481 413.284C484.061 412.89 484.925 413.972 484.925 415.369V415.787L480.923 416.785C480.944 417.88 481.819 418.377 482.652 418.169C483.271 418.015 483.719 417.65 483.997 417.207L484.648 417.628C484.21 418.309 483.538 418.828 482.684 419.041ZM484.029 415.219C483.933 414.484 483.463 413.919 482.47 414.166C481.745 414.347 481.072 415.076 480.912 415.996L484.029 415.219Z" fill="#329168"/>
<path d="M185.284 372.542L32.8049 521.536" stroke="#329168" stroke-width="1.5" stroke-linecap="round" stroke-dasharray="0.1 3"/>
<rect x="0.485148" y="0.379039" width="64.1836" height="79.3529" rx="1.5" transform="matrix(0.970296 -0.241922 0 1 164.154 340.408)" fill="#B5DDEA" stroke="#099FCE"/>
<path d="M175.41 354.913C173.371 355.421 172.069 353.964 172.069 351.764C172.069 349.564 173.371 347.457 175.41 346.949C176.552 346.664 177.352 346.992 177.875 347.676L177.117 348.437C176.776 347.95 176.167 347.706 175.399 347.897C174.022 348.241 173.008 349.857 173.008 351.529C173.008 353.201 174.022 354.313 175.399 353.969C176.167 353.778 176.776 353.241 177.117 352.595L177.886 352.942C177.363 353.898 176.552 354.628 175.41 354.913ZM181.407 353.395C179.934 353.763 178.845 352.769 178.845 351.119C178.845 349.48 179.934 347.944 181.407 347.576C182.88 347.209 183.979 348.2 183.979 349.839C183.979 351.489 182.88 353.028 181.407 353.395ZM181.407 352.515C182.378 352.273 183.072 351.198 183.072 350.076C183.072 348.943 182.378 348.214 181.407 348.456C180.436 348.699 179.752 349.771 179.752 350.904C179.752 352.026 180.436 352.758 181.407 352.515ZM185.525 352.248V344.548L186.411 344.327V352.027L185.525 352.248ZM188.329 351.549V343.849L189.214 343.628V351.328L188.329 351.549ZM193.427 350.387C191.944 350.757 190.759 349.942 190.759 348.127C190.759 346.422 191.922 344.955 193.224 344.63C194.804 344.236 195.669 345.319 195.669 346.716V347.134L191.666 348.131C191.687 349.226 192.563 349.723 193.395 349.515C194.014 349.361 194.462 348.996 194.74 348.553L195.391 348.974C194.953 349.655 194.281 350.174 193.427 350.387ZM194.772 346.565C194.676 345.83 194.206 345.265 193.214 345.513C192.488 345.694 191.815 346.422 191.655 347.342L194.772 346.565ZM199.504 348.872C197.999 349.248 196.846 348.303 196.846 346.631C196.846 344.959 198.009 343.437 199.504 343.064C200.4 342.841 201.03 343.069 201.435 343.54L200.752 344.249C200.475 343.944 200.037 343.822 199.493 343.958C198.522 344.2 197.753 345.206 197.753 346.405C197.753 347.593 198.522 348.237 199.493 347.995C200.037 347.859 200.464 347.511 200.752 347.076L201.425 347.458C200.987 348.15 200.389 348.651 199.504 348.872ZM204.82 347.437C204.169 347.599 203.55 347.478 203.55 346.554V343.056L202.344 343.357V342.477L203.55 342.176V340.449L204.436 339.832V341.955L205.877 341.596V342.476L204.436 342.835V346.025C204.436 346.498 204.714 346.572 205.034 346.492L205.653 346.338V347.229L204.82 347.437ZM207.955 339.802C207.571 339.898 207.261 339.656 207.261 339.26C207.261 338.842 207.571 338.457 207.955 338.361C208.36 338.26 208.67 338.491 208.67 338.909C208.67 339.305 208.36 339.701 207.955 339.802ZM207.528 346.762V341.185L208.414 340.964V346.541L207.528 346.762ZM212.52 345.638C211.047 346.005 209.958 345.012 209.958 343.362C209.958 341.723 211.047 340.186 212.52 339.819C213.993 339.452 215.092 340.443 215.092 342.082C215.092 343.732 213.993 345.271 212.52 345.638ZM212.52 344.758C213.491 344.516 214.185 343.441 214.185 342.319C214.185 341.186 213.491 340.457 212.52 340.699C211.548 340.941 210.865 342.013 210.865 343.146C210.865 344.268 211.548 345 212.52 344.758ZM216.638 344.49V338.913L217.524 338.692V339.33C217.812 338.764 218.249 338.39 218.89 338.231C219.925 337.973 220.79 338.439 220.79 339.869V343.455L219.904 343.676V340.211C219.904 339.331 219.37 339.024 218.794 339.168C218.025 339.359 217.524 340.056 217.524 340.771V344.269L216.638 344.49Z" fill="#099FCE"/>
<rect x="0.485148" y="0.379039" width="57.1839" height="42.8746" rx="1.5" transform="matrix(0.970296 -0.241922 0 1 180.455 366.622)" fill="#E0F397" stroke="#7A950E"/>
<rect x="0.485148" y="0.379039" width="57.1839" height="42.8746" rx="1.5" transform="matrix(0.970296 -0.241922 0 1 189.533 374.772)" fill="#E0F397" stroke="#7A950E"/>
<path d="M207.533 395.385V387.685L208.686 387.397L212.016 392.804V386.567L212.934 386.338V394.038L211.771 394.328L208.451 388.93V395.156L207.533 395.385ZM217.252 393.082C215.779 393.45 214.691 392.456 214.691 390.806C214.691 389.167 215.779 387.631 217.252 387.263C218.725 386.896 219.825 387.887 219.825 389.526C219.825 391.176 218.725 392.715 217.252 393.082ZM217.252 392.202C218.224 391.96 218.917 390.885 218.917 389.763C218.917 388.63 218.224 387.901 217.252 388.143C216.281 388.385 215.598 389.458 215.598 390.591C215.598 391.713 216.281 392.444 217.252 392.202ZM223.548 391.513C222.171 391.856 220.997 391.005 220.997 389.256C220.997 387.441 222.352 386.003 223.59 385.694C224.199 385.542 224.668 385.579 224.924 385.812V383.348L225.81 383.128V390.828L224.924 391.048V390.564C224.7 390.983 224.177 391.356 223.548 391.513ZM223.59 390.622C224.156 390.481 224.679 390.098 224.924 389.541V386.901C224.69 386.553 224.252 386.409 223.601 386.571C222.843 386.76 221.904 387.688 221.904 389.03C221.904 390.218 222.662 390.854 223.59 390.622ZM230.023 389.887C228.54 390.257 227.355 389.441 227.355 387.626C227.355 385.921 228.518 384.454 229.82 384.13C231.4 383.736 232.265 384.818 232.265 386.215V386.633L228.262 387.631C228.283 388.726 229.159 389.223 229.991 389.015C230.61 388.861 231.058 388.496 231.336 388.053L231.987 388.474C231.549 389.155 230.877 389.674 230.023 389.887ZM231.368 386.065C231.272 385.33 230.802 384.765 229.81 385.012C229.084 385.193 228.411 385.922 228.251 386.842L231.368 386.065Z" fill="#7A950E"/>
<path d="M654.061 281.921V274.221L655.214 273.934L658.544 279.341V273.104L659.462 272.875V280.575L658.298 280.865L654.979 275.467V281.693L654.061 281.921ZM663.78 279.619C662.307 279.986 661.218 278.993 661.218 277.343C661.218 275.704 662.307 274.167 663.78 273.8C665.253 273.433 666.352 274.424 666.352 276.063C666.352 277.713 665.253 279.252 663.78 279.619ZM663.78 278.739C664.751 278.497 665.445 277.422 665.445 276.3C665.445 275.167 664.751 274.438 663.78 274.68C662.809 274.922 662.126 275.995 662.126 277.128C662.126 278.25 662.809 278.981 663.78 278.739ZM670.075 278.05C668.698 278.393 667.524 277.542 667.524 275.793C667.524 273.978 668.88 272.54 670.118 272.231C670.726 272.079 671.196 272.116 671.452 272.349V269.885L672.338 269.664V277.364L671.452 277.585V277.101C671.228 277.52 670.705 277.893 670.075 278.05ZM670.118 277.159C670.684 277.018 671.207 276.635 671.452 276.078V273.438C671.217 273.09 670.78 272.946 670.129 273.108C669.371 273.297 668.432 274.224 668.432 275.566C668.432 276.754 669.189 277.39 670.118 277.159ZM676.551 276.424C675.067 276.794 673.882 275.978 673.882 274.163C673.882 272.458 675.046 270.991 676.348 270.667C677.928 270.273 678.792 271.355 678.792 272.752V273.17L674.79 274.168C674.811 275.263 675.686 275.76 676.519 275.552C677.138 275.398 677.586 275.033 677.864 274.59L678.515 275.01C678.077 275.692 677.405 276.211 676.551 276.424ZM677.896 272.602C677.8 271.867 677.33 271.302 676.337 271.549C675.611 271.73 674.939 272.459 674.779 273.379L677.896 272.602Z" fill="#7A950E"/>
<path d="M625.212 119.144L737.548 96.9541" stroke="#329168" stroke-linecap="round"/>
<rect x="0.485148" y="0.379039" width="64.1836" height="65.8698" rx="1.5" transform="matrix(0.970296 -0.241922 0 1 585.899 106.007)" fill="#B5DDEA" stroke="#099FCE"/>
<path d="M597.155 120.511C595.116 121.02 593.814 119.562 593.814 117.362C593.814 115.162 595.116 113.056 597.155 112.547C598.297 112.263 599.097 112.591 599.62 113.275L598.862 114.036C598.521 113.549 597.912 113.305 597.144 113.496C595.767 113.839 594.753 115.456 594.753 117.128C594.753 118.8 595.767 119.911 597.144 119.568C597.912 119.377 598.521 118.84 598.862 118.194L599.631 118.541C599.108 119.496 598.297 120.227 597.155 120.511ZM603.152 118.994C601.679 119.361 600.59 118.368 600.59 116.718C600.59 115.079 601.679 113.542 603.152 113.175C604.625 112.808 605.724 113.799 605.724 115.438C605.724 117.088 604.625 118.627 603.152 118.994ZM603.152 118.114C604.123 117.872 604.817 116.797 604.817 115.675C604.817 114.542 604.123 113.813 603.152 114.055C602.181 114.297 601.497 115.37 601.497 116.503C601.497 117.625 602.181 118.356 603.152 118.114ZM607.27 117.847V110.147L608.156 109.926V117.626L607.27 117.847ZM610.074 117.147V109.447L610.959 109.227V116.927L610.074 117.147ZM615.172 115.986C613.689 116.356 612.504 115.541 612.504 113.726C612.504 112.021 613.667 110.553 614.969 110.229C616.549 109.835 617.413 110.917 617.413 112.314V112.732L613.411 113.73C613.432 114.825 614.308 115.322 615.14 115.114C615.759 114.96 616.207 114.595 616.485 114.152L617.136 114.573C616.698 115.254 616.026 115.773 615.172 115.986ZM616.517 112.164C616.421 111.429 615.951 110.864 614.959 111.111C614.233 111.292 613.56 112.021 613.4 112.941L616.517 112.164ZM621.249 114.471C619.744 114.846 618.591 113.902 618.591 112.23C618.591 110.558 619.754 109.036 621.249 108.663C622.145 108.44 622.775 108.668 623.18 109.139L622.497 109.848C622.22 109.543 621.782 109.421 621.238 109.557C620.267 109.799 619.498 110.805 619.498 112.004C619.498 113.192 620.267 113.836 621.238 113.594C621.782 113.458 622.209 113.11 622.497 112.675L623.17 113.057C622.732 113.749 622.134 114.25 621.249 114.471ZM626.565 113.036C625.914 113.198 625.295 113.077 625.295 112.153V108.655L624.089 108.956V108.076L625.295 107.775V106.048L626.181 105.431V107.554L627.622 107.195V108.075L626.181 108.434V111.624C626.181 112.097 626.459 112.171 626.779 112.091L627.398 111.937V112.828L626.565 113.036ZM629.7 105.401C629.316 105.497 629.006 105.255 629.006 104.859C629.006 104.441 629.316 104.056 629.7 103.96C630.105 103.859 630.415 104.09 630.415 104.508C630.415 104.904 630.105 105.3 629.7 105.401ZM629.273 112.361V106.784L630.159 106.563V112.14L629.273 112.361ZM634.265 111.237C632.792 111.604 631.703 110.611 631.703 108.961C631.703 107.322 632.792 105.785 634.265 105.418C635.738 105.051 636.837 106.042 636.837 107.681C636.837 109.331 635.738 110.87 634.265 111.237ZM634.265 110.357C635.236 110.115 635.93 109.04 635.93 107.918C635.93 106.785 635.236 106.056 634.265 106.298C633.293 106.54 632.61 107.612 632.61 108.745C632.61 109.867 633.293 110.599 634.265 110.357ZM638.383 110.089V104.512L639.269 104.291V104.929C639.557 104.362 639.994 103.989 640.635 103.83C641.67 103.572 642.535 104.038 642.535 105.468V109.054L641.649 109.275V105.81C641.649 104.93 641.115 104.623 640.539 104.767C639.77 104.958 639.269 105.655 639.269 106.37V109.868L638.383 110.089Z" fill="#099FCE"/>
<rect x="0.485148" y="0.379039" width="57.1839" height="42.8746" rx="1.5" transform="matrix(0.970296 -0.241922 0 1 602.2 132.22)" fill="#E0F397" stroke="#7A950E"/>
<path d="M621.137 154.082V146.382L622.29 146.094L625.62 151.501V145.264L626.538 145.035V152.735L625.375 153.025L622.055 147.627V153.853L621.137 154.082ZM630.856 151.78C629.383 152.147 628.295 151.153 628.295 149.503C628.295 147.864 629.383 146.328 630.856 145.961C632.329 145.593 633.429 146.584 633.429 148.223C633.429 149.873 632.329 151.412 630.856 151.78ZM630.856 150.9C631.828 150.657 632.521 149.582 632.521 148.46C632.521 147.327 631.828 146.598 630.856 146.841C629.885 147.083 629.202 148.155 629.202 149.288C629.202 150.41 629.885 151.142 630.856 150.9ZM637.152 150.21C635.775 150.553 634.601 149.702 634.601 147.953C634.601 146.138 635.956 144.7 637.194 144.391C637.803 144.24 638.272 144.277 638.529 144.51V142.046L639.414 141.825V149.525L638.529 149.746V149.262C638.304 149.681 637.781 150.053 637.152 150.21ZM637.194 149.319C637.76 149.178 638.283 148.795 638.529 148.239V145.599C638.294 145.25 637.856 145.106 637.205 145.269C636.447 145.458 635.508 146.385 635.508 147.727C635.508 148.915 636.266 149.551 637.194 149.319ZM643.627 148.584C642.144 148.954 640.959 148.139 640.959 146.324C640.959 144.619 642.122 143.152 643.424 142.827C645.004 142.433 645.869 143.516 645.869 144.913V145.331L641.866 146.329C641.887 147.423 642.763 147.92 643.595 147.712C644.214 147.558 644.662 147.193 644.94 146.75L645.591 147.171C645.153 147.852 644.481 148.372 643.627 148.584ZM644.972 144.762C644.876 144.027 644.406 143.462 643.414 143.71C642.688 143.891 642.015 144.619 641.855 145.539L644.972 144.762Z" fill="#7A950E"/>
<rect x="0.485148" y="0.379039" width="189.043" height="147.317" rx="1.5" transform="matrix(0.970296 -0.241922 0 1 201.848 -69.9896)" fill="#FFC2C2" stroke="#FF2C2C"/>
<path d="M123.887 53.5054L222.419 17.1487" stroke="#329168" stroke-width="1.5" stroke-linecap="round" stroke-dasharray="0.1 3"/>
<rect x="0.485148" y="0.379039" width="64.1836" height="65.8698" rx="1.5" transform="matrix(0.970296 -0.241922 0 1 214.483 -15.7606)" fill="#B5DDEA" stroke="#099FCE"/>
<rect x="0.485148" y="0.379039" width="57.1839" height="42.8746" rx="1.5" transform="matrix(0.970296 -0.241922 0 1 230.785 10.4531)" fill="#E0F397" stroke="#7A950E"/>
<path d="M249.722 32.3145V24.6145L250.874 24.327L254.204 29.7338V23.4968L255.122 23.2679V30.9679L253.959 31.258L250.64 25.8596V32.0856L249.722 32.3145ZM259.441 30.0123C257.968 30.3795 256.879 29.3859 256.879 27.7359C256.879 26.0969 257.968 24.5605 259.441 24.1933C260.913 23.826 262.013 24.8169 262.013 26.4559C262.013 28.1059 260.913 29.645 259.441 30.0123ZM259.441 29.1323C260.412 28.8901 261.106 27.8151 261.106 26.6931C261.106 25.5601 260.412 24.8311 259.441 25.0733C258.469 25.3154 257.786 26.3877 257.786 27.5207C257.786 28.6427 258.469 29.3744 259.441 29.1323ZM265.736 28.4427C264.359 28.7859 263.185 27.9347 263.185 26.1857C263.185 24.3707 264.54 22.9327 265.779 22.624C266.387 22.4723 266.857 22.5092 267.113 22.7424V20.2784L267.999 20.0575V27.7575L267.113 27.9784V27.4944C266.889 27.9133 266.366 28.2857 265.736 28.4427ZM265.779 27.552C266.344 27.411 266.867 27.0276 267.113 26.4714V23.8314C266.878 23.4829 266.44 23.339 265.789 23.5014C265.031 23.6903 264.092 24.6175 264.092 25.9595C264.092 27.1475 264.85 27.7835 265.779 27.552ZM272.211 26.8171C270.728 27.187 269.543 26.3714 269.543 24.5564C269.543 22.8514 270.706 21.3844 272.009 21.0597C273.588 20.6659 274.453 21.7483 274.453 23.1453V23.5633L270.45 24.5612C270.472 25.6559 271.347 26.1527 272.179 25.9451C272.798 25.7908 273.247 25.426 273.524 24.9828L274.175 25.4035C273.738 26.0846 273.065 26.6042 272.211 26.8171ZM273.556 22.9948C273.46 22.2598 272.991 21.6949 271.998 21.9424C271.272 22.1233 270.6 22.852 270.44 23.7719L273.556 22.9948Z" fill="#7A950E"/>
<path d="M75.2815 40.4712L149.344 22.0055C150.147 21.8051 150.799 22.3142 150.799 23.1426V68.1055C150.799 68.934 150.148 69.768 149.344 69.9684L75.2815 88.4342C74.4777 88.6346 73.8261 88.1255 73.8261 87.2971V42.3341C73.8261 41.5057 74.4777 40.6716 75.2815 40.4712Z" fill="#ABF6D6" stroke="#329168"/>
<path d="M84.7928 64.4521L87.237 56.1427L88.6352 55.7941L91.1007 62.8794L90.1401 63.1189L89.4784 61.2269L86.3725 62.0013L85.7214 64.2206L84.7928 64.4521ZM86.6713 60.9808L89.1795 60.3554L87.9307 56.7398L86.6713 60.9808ZM92.2733 62.5871V57.0101L93.1591 56.7892V57.4272C93.4473 56.8603 93.8849 56.4872 94.5253 56.3276C95.5606 56.0694 96.4252 56.5359 96.4252 57.9659V61.5519L95.5393 61.7728V58.3078C95.5393 57.4278 95.0056 57.1208 94.4293 57.2645C93.6608 57.4561 93.1591 58.1532 93.1591 58.8682V62.3662L92.2733 62.5871ZM100.486 60.6604C99.0129 61.0277 97.9242 60.0341 97.9242 58.3841C97.9242 56.7451 99.0129 55.2087 100.486 54.8414C101.959 54.4742 103.058 55.4651 103.058 57.1041C103.058 58.7541 101.959 60.2932 100.486 60.6604ZM100.486 59.7804C101.457 59.5383 102.151 58.4633 102.151 57.3413C102.151 56.2083 101.457 55.4793 100.486 55.7214C99.5146 55.9636 98.8315 57.0359 98.8315 58.1689C98.8315 59.2909 99.5146 60.0226 100.486 59.7804ZM104.604 59.5127V53.9357L105.49 53.7148V54.3528C105.778 53.786 106.215 53.4129 106.856 53.2532C107.891 52.9951 108.756 53.4615 108.756 54.8915V58.4775L107.87 58.6984V55.2334C107.87 54.3534 107.336 54.0465 106.76 54.1902C105.991 54.3818 105.49 55.0788 105.49 55.7938V59.2918L104.604 59.5127ZM110.792 59.9608L111.86 57.1537L109.832 52.6323L110.782 52.3954L112.34 55.8679L113.962 51.6024L114.912 51.3656L111.731 59.7266L110.792 59.9608ZM116.194 56.6229V51.0459L117.08 50.825V51.353C117.336 50.8601 117.721 50.5443 118.265 50.4086C118.82 50.2702 119.257 50.4141 119.546 50.8483C119.866 50.2185 120.41 49.8737 120.901 49.7513C122.011 49.4746 122.716 50.0909 122.716 51.1359V54.9969L121.83 55.2178V51.4338C121.83 50.7738 121.424 50.5229 120.891 50.656C120.389 50.7811 119.898 51.2555 119.898 51.9155V55.6995L119.012 55.9203V52.1363C119.012 51.4763 118.553 51.2388 118.041 51.3665C117.518 51.4969 117.08 51.958 117.08 52.618V56.402L116.194 56.6229ZM126.773 54.1063C125.3 54.4736 124.211 53.48 124.211 51.83C124.211 50.191 125.3 48.6546 126.773 48.2873C128.246 47.9201 129.345 48.911 129.345 50.55C129.345 52.2 128.246 53.7391 126.773 54.1063ZM126.773 53.2263C127.744 52.9842 128.438 51.9092 128.438 50.7872C128.438 49.6542 127.744 48.9252 126.773 49.1673C125.802 49.4095 125.119 50.4818 125.119 51.6148C125.119 52.7368 125.802 53.4685 126.773 53.2263ZM134.989 46.3597V51.9367L134.103 52.1576V51.5196C133.815 52.0865 133.378 52.4596 132.737 52.6192C131.702 52.8774 130.837 52.4109 130.837 50.9809V47.3949L131.723 47.174V50.639C131.723 51.519 132.257 51.826 132.833 51.6823C133.602 51.4907 134.103 50.7936 134.103 50.0786V46.5806L134.989 46.3597ZM138.623 51.1517C137.78 51.362 136.905 51.2392 136.382 50.7206L136.969 49.9252C137.321 50.2774 137.983 50.4644 138.687 50.2888C139.349 50.1238 139.776 49.7533 139.776 49.2803C139.776 48.9283 139.552 48.7752 139.242 48.7424L137.716 48.5839C137.022 48.5149 136.606 48.1237 136.606 47.4747C136.606 46.4847 137.545 45.6125 138.612 45.3464C139.338 45.1655 140.085 45.2212 140.651 45.7291L140.043 46.4858C139.712 46.1503 139.157 46.0577 138.559 46.2067C138.025 46.3398 137.481 46.7065 137.481 47.1905C137.481 47.5205 137.705 47.6406 138.025 47.6708L139.424 47.8172C140.171 47.8949 140.651 48.2041 140.651 48.9961C140.651 49.9641 139.915 50.8297 138.623 51.1517Z" fill="#329168"/>
<rect x="0.485148" y="0.379039" width="64.1836" height="65.8698" rx="1.5" transform="matrix(0.970296 -0.241922 0 1 -50.4178 110.385)" fill="#B5DDEA" stroke="#099FCE"/>
<path d="M464.736 34.4948L362.78 -39.2412" stroke="#329168" stroke-width="1.5" stroke-linecap="round" stroke-dasharray="0.1 3"/>
<rect x="0.485148" y="0.379039" width="238.805" height="211.238" rx="1.5" transform="matrix(0.970296 -0.241922 0 1 545.525 -170.107)" fill="#FFC2C2" stroke="#FF2C2C"/>
<path d="M466.101 41.7773L575.795 -3.28345" stroke="#329168" stroke-width="1.5" stroke-linecap="round" stroke-dasharray="0.1 3"/>
<path d="M438.206 19.8489L493.537 6.05352C494.341 5.8531 494.992 6.36221 494.992 7.19064V49.5026C494.992 50.331 494.341 51.1651 493.537 51.3655L438.206 65.1609C437.403 65.3613 436.751 64.8522 436.751 64.0238V21.7118C436.751 20.8834 437.403 20.0493 438.206 19.8489Z" fill="#ABF6D6" stroke="#329168"/>
<path d="M453.617 42.2019V41.2559L454.3 41.0856C454.898 40.9366 455.346 40.3848 455.346 39.6698V34.0708L456.264 33.8419V39.6609C456.264 40.8489 455.4 41.7575 454.343 42.0209L453.617 42.2019ZM460.592 40.573C459.108 40.9429 457.923 40.1273 457.923 38.3123C457.923 36.6073 459.087 35.1402 460.389 34.8156C461.969 34.4217 462.833 35.5042 462.833 36.9012V37.3192L458.831 38.3171C458.852 39.4118 459.727 39.9086 460.56 39.701C461.179 39.5467 461.627 39.1819 461.905 38.7387L462.556 39.1594C462.118 39.8405 461.446 40.3601 460.592 40.573ZM461.937 36.7507C461.84 36.0157 461.371 35.4508 460.378 35.6982C459.652 35.8792 458.98 36.6078 458.82 37.5278L461.937 36.7507ZM464.384 39.5175V33.9405L465.27 33.7196V34.3576C465.558 33.7908 465.996 33.4176 466.636 33.258C467.671 32.9998 468.536 33.4663 468.536 34.8963V38.4823L467.65 38.7032V35.2382C467.65 34.3582 467.116 34.0512 466.54 34.1949C465.772 34.3865 465.27 35.0836 465.27 35.7986V39.2966L464.384 39.5175ZM470.409 38.0154V32.4384L471.294 32.2175V32.8555C471.583 32.2887 472.02 31.9156 472.661 31.7559C473.696 31.4978 474.56 31.9642 474.56 33.3942V36.9802L473.675 37.2011V33.7361C473.675 32.8561 473.141 32.5491 472.565 32.6928C471.796 32.8844 471.294 33.5815 471.294 34.2965V37.7945L470.409 38.0154ZM476.597 38.4634L477.664 35.6563L475.636 31.1349L476.586 30.8981L478.145 34.3706L479.767 30.1051L480.717 29.8682L477.536 38.2293L476.597 38.4634Z" fill="#329168"/>
</g>
<path d="M196.467 197.678L363.644 181.518" stroke="#329168" stroke-width="1.5" stroke-linecap="round" stroke-dasharray="0.1 3"/>
<rect x="0.485148" y="0.379039" width="64.1836" height="78.6901" rx="1.5" transform="matrix(0.970296 -0.241922 0 1 169.225 157.65)" fill="#B5DDEA" stroke="#099FCE"/>
<path d="M180.481 172.155C178.442 172.663 177.14 171.205 177.14 169.005C177.14 166.805 178.442 164.699 180.481 164.191C181.623 163.906 182.423 164.234 182.946 164.918L182.188 165.679C181.847 165.192 181.239 164.948 180.47 165.139C179.093 165.482 178.079 167.099 178.079 168.771C178.079 170.443 179.093 171.554 180.47 171.211C181.239 171.02 181.847 170.483 182.188 169.837L182.957 170.184C182.434 171.14 181.623 171.87 180.481 172.155ZM186.478 170.637C185.005 171.005 183.916 170.011 183.916 168.361C183.916 166.722 185.005 165.186 186.478 164.818C187.951 164.451 189.05 165.442 189.05 167.081C189.05 168.731 187.951 170.27 186.478 170.637ZM186.478 169.757C187.449 169.515 188.143 168.44 188.143 167.318C188.143 166.185 187.449 165.456 186.478 165.698C185.507 165.94 184.823 167.013 184.823 168.146C184.823 169.268 185.507 169.999 186.478 169.757ZM190.596 169.49V161.79L191.482 161.569V169.269L190.596 169.49ZM193.4 168.791V161.091L194.285 160.87V168.57L193.4 168.791ZM198.498 167.629C197.015 167.999 195.83 167.184 195.83 165.369C195.83 163.664 196.993 162.197 198.295 161.872C199.875 161.478 200.74 162.56 200.74 163.957V164.375L196.737 165.373C196.758 166.468 197.634 166.965 198.466 166.757C199.085 166.603 199.533 166.238 199.811 165.795L200.462 166.216C200.024 166.897 199.352 167.416 198.498 167.629ZM199.843 163.807C199.747 163.072 199.277 162.507 198.285 162.755C197.559 162.935 196.887 163.664 196.726 164.584L199.843 163.807ZM204.575 166.114C203.07 166.489 201.917 165.545 201.917 163.873C201.917 162.201 203.08 160.679 204.575 160.306C205.471 160.083 206.101 160.311 206.506 160.782L205.823 161.491C205.546 161.186 205.108 161.064 204.564 161.2C203.593 161.442 202.824 162.448 202.824 163.647C202.824 164.835 203.593 165.479 204.564 165.237C205.108 165.101 205.535 164.753 205.823 164.318L206.496 164.7C206.058 165.392 205.46 165.893 204.575 166.114ZM209.892 164.679C209.24 164.841 208.621 164.72 208.621 163.796V160.298L207.415 160.599V159.719L208.621 159.418V157.691L209.507 157.074V159.197L210.948 158.838V159.718L209.507 160.077V163.267C209.507 163.74 209.785 163.814 210.105 163.734L210.724 163.58V164.471L209.892 164.679ZM213.026 157.044C212.642 157.14 212.332 156.898 212.332 156.502C212.332 156.084 212.642 155.699 213.026 155.603C213.431 155.502 213.741 155.733 213.741 156.151C213.741 156.547 213.431 156.943 213.026 157.044ZM212.599 164.004V158.427L213.485 158.206V163.783L212.599 164.004ZM217.591 162.88C216.118 163.247 215.029 162.254 215.029 160.604C215.029 158.965 216.118 157.428 217.591 157.061C219.064 156.694 220.163 157.685 220.163 159.324C220.163 160.974 219.064 162.513 217.591 162.88ZM217.591 162C218.562 161.758 219.256 160.683 219.256 159.561C219.256 158.428 218.562 157.699 217.591 157.941C216.62 158.183 215.936 159.255 215.936 160.388C215.936 161.51 216.62 162.242 217.591 162ZM221.709 161.732V156.155L222.595 155.934V156.572C222.883 156.006 223.32 155.632 223.961 155.473C224.996 155.215 225.861 155.681 225.861 157.111V160.697L224.975 160.918V157.453C224.975 156.573 224.441 156.266 223.865 156.41C223.096 156.601 222.595 157.298 222.595 158.013V161.511L221.709 161.732Z" fill="#099FCE"/>
<rect x="0.485148" y="0.379039" width="57.1839" height="42.8746" rx="1.5" transform="matrix(0.970296 -0.241922 0 1 185.526 183.863)" fill="#E0F397" stroke="#7A950E"/>
<rect x="0.485148" y="0.379039" width="57.1839" height="42.8746" rx="1.5" transform="matrix(0.970296 -0.241922 0 1 194.604 192.014)" fill="#E0F397" stroke="#7A950E"/>
<path d="M212.604 212.626V204.926L213.757 204.639L217.087 210.046V203.809L218.005 203.58V211.28L216.842 211.57L213.522 206.172V212.398L212.604 212.626ZM222.323 210.324C220.85 210.692 219.762 209.698 219.762 208.048C219.762 206.409 220.85 204.873 222.323 204.505C223.796 204.138 224.896 205.129 224.896 206.768C224.896 208.418 223.796 209.957 222.323 210.324ZM222.323 209.444C223.295 209.202 223.988 208.127 223.988 207.005C223.988 205.872 223.295 205.143 222.323 205.385C221.352 205.627 220.669 206.7 220.669 207.833C220.669 208.955 221.352 209.686 222.323 209.444ZM228.619 208.755C227.242 209.098 226.068 208.247 226.068 206.498C226.068 204.683 227.423 203.245 228.661 202.936C229.27 202.784 229.739 202.821 229.996 203.054V200.59L230.881 200.37V208.07L229.996 208.29V207.806C229.771 208.225 229.248 208.598 228.619 208.755ZM228.661 207.864C229.227 207.723 229.75 207.34 229.996 206.783V204.143C229.761 203.795 229.323 203.651 228.672 203.813C227.914 204.002 226.975 204.929 226.975 206.271C226.975 207.459 227.733 208.096 228.661 207.864ZM235.094 207.129C233.611 207.499 232.426 206.683 232.426 204.868C232.426 203.163 233.589 201.696 234.891 201.372C236.471 200.978 237.336 202.06 237.336 203.457V203.875L233.333 204.873C233.354 205.968 234.23 206.465 235.062 206.257C235.681 206.103 236.129 205.738 236.407 205.295L237.058 205.715C236.62 206.397 235.948 206.916 235.094 207.129ZM236.439 203.307C236.343 202.572 235.873 202.007 234.881 202.254C234.155 202.435 233.483 203.164 233.322 204.084L236.439 203.307Z" fill="#7A950E"/>
<path d="M299.433 334.686L359.185 181.518" stroke="#329168" stroke-width="1.5" stroke-linecap="round" stroke-dasharray="0.1 3"/>
<path d="M542.652 229.581L363.644 181.518" stroke="#329168" stroke-width="1.5" stroke-linecap="round" stroke-dasharray="0.1 3"/>
<rect x="0.485148" y="0.379039" width="64.1836" height="108.469" rx="1.5" transform="matrix(0.970296 -0.241922 0 1 511.279 179.879)" fill="#B5DDEA" stroke="#099FCE"/>
<path d="M522.535 194.384C520.497 194.892 519.195 193.435 519.195 191.235C519.195 189.035 520.497 186.928 522.535 186.42C523.677 186.135 524.478 186.464 525.001 187.147L524.243 187.908C523.901 187.421 523.293 187.177 522.525 187.369C521.148 187.712 520.134 189.329 520.134 191.001C520.134 192.673 521.148 193.784 522.525 193.441C523.293 193.249 523.901 192.712 524.243 192.066L525.011 192.414C524.488 193.369 523.677 194.099 522.535 194.384ZM528.532 192.867C527.059 193.234 525.971 192.24 525.971 190.59C525.971 188.951 527.059 187.415 528.532 187.048C530.005 186.681 531.105 187.671 531.105 189.31C531.105 190.96 530.005 192.5 528.532 192.867ZM528.532 191.987C529.504 191.745 530.197 190.67 530.197 189.548C530.197 188.415 529.504 187.686 528.532 187.928C527.561 188.17 526.878 189.242 526.878 190.375C526.878 191.497 527.561 192.229 528.532 191.987ZM532.65 191.719V184.019L533.536 183.798V191.498L532.65 191.719ZM535.454 191.02V183.32L536.34 183.099V190.799L535.454 191.02ZM540.553 189.859C539.069 190.229 537.884 189.413 537.884 187.598C537.884 185.893 539.048 184.426 540.35 184.101C541.93 183.707 542.794 184.79 542.794 186.187V186.605L538.792 187.603C538.813 188.698 539.688 189.194 540.521 188.987C541.14 188.832 541.588 188.468 541.866 188.024L542.517 188.445C542.079 189.126 541.407 189.646 540.553 189.859ZM541.898 186.036C541.802 185.301 541.332 184.737 540.339 184.984C539.613 185.165 538.941 185.894 538.781 186.814L541.898 186.036ZM546.629 188.344C545.124 188.719 543.972 187.774 543.972 186.102C543.972 184.43 545.135 182.908 546.629 182.536C547.526 182.312 548.155 182.54 548.561 183.011L547.878 183.72C547.6 183.416 547.163 183.294 546.618 183.429C545.647 183.672 544.879 184.677 544.879 185.876C544.879 187.064 545.647 187.709 546.618 187.466C547.163 187.331 547.59 186.982 547.878 186.547L548.55 186.93C548.113 187.622 547.515 188.123 546.629 188.344ZM551.946 186.908C551.295 187.07 550.676 186.95 550.676 186.026V182.528L549.47 182.828V181.948L550.676 181.648V179.921L551.562 179.304V181.427L553.003 181.068V181.948L551.562 182.307V185.497C551.562 185.97 551.839 186.044 552.16 185.964L552.779 185.81V186.701L551.946 186.908ZM555.08 179.274C554.696 179.369 554.387 179.128 554.387 178.732C554.387 178.314 554.696 177.928 555.08 177.833C555.486 177.731 555.796 177.962 555.796 178.38C555.796 178.776 555.486 179.172 555.08 179.274ZM554.654 186.233V180.656L555.539 180.435V186.012L554.654 186.233ZM559.645 185.109C558.172 185.477 557.084 184.483 557.084 182.833C557.084 181.194 558.172 179.658 559.645 179.29C561.118 178.923 562.218 179.914 562.218 181.553C562.218 183.203 561.118 184.742 559.645 185.109ZM559.645 184.229C560.617 183.987 561.31 182.912 561.31 181.79C561.31 180.657 560.617 179.928 559.645 180.17C558.674 180.413 557.991 181.485 557.991 182.618C557.991 183.74 558.674 184.472 559.645 184.229ZM563.763 183.962V178.385L564.649 178.164V178.802C564.937 178.235 565.375 177.862 566.015 177.702C567.051 177.444 567.915 177.911 567.915 179.341V182.927L567.029 183.147V179.682C567.029 178.802 566.496 178.495 565.919 178.639C565.151 178.831 564.649 179.528 564.649 180.243V183.741L563.763 183.962Z" fill="#099FCE"/>
<rect x="0.485148" y="0.379039" width="64.1836" height="79.4372" rx="1.5" transform="matrix(0.970296 -0.241922 0 1 263.539 305.117)" fill="#B5DDEA" stroke="#099FCE"/>
<path d="M274.795 319.622C272.757 320.13 271.454 318.673 271.454 316.473C271.454 314.273 272.757 312.166 274.795 311.658C275.937 311.373 276.738 311.702 277.261 312.385L276.503 313.146C276.161 312.659 275.553 312.415 274.784 312.607C273.408 312.95 272.394 314.567 272.394 316.239C272.394 317.911 273.408 319.022 274.784 318.679C275.553 318.487 276.161 317.95 276.503 317.304L277.271 317.652C276.748 318.607 275.937 319.337 274.795 319.622ZM280.792 318.105C279.319 318.472 278.231 317.478 278.231 315.828C278.231 314.189 279.319 312.653 280.792 312.286C282.265 311.919 283.365 312.909 283.365 314.548C283.365 316.198 282.265 317.738 280.792 318.105ZM280.792 317.225C281.764 316.983 282.457 315.908 282.457 314.786C282.457 313.653 281.764 312.924 280.792 313.166C279.821 313.408 279.138 314.48 279.138 315.613C279.138 316.735 279.821 317.467 280.792 317.225ZM284.91 316.957V309.257L285.796 309.036V316.736L284.91 316.957ZM287.714 316.258V308.558L288.6 308.337V316.037L287.714 316.258ZM292.813 315.097C291.329 315.467 290.144 314.651 290.144 312.836C290.144 311.131 291.308 309.664 292.61 309.339C294.189 308.946 295.054 310.028 295.054 311.425V311.843L291.052 312.841C291.073 313.936 291.948 314.432 292.781 314.225C293.4 314.07 293.848 313.706 294.125 313.262L294.776 313.683C294.339 314.364 293.666 314.884 292.813 315.097ZM294.157 311.275C294.061 310.539 293.592 309.975 292.599 310.222C291.873 310.403 291.201 311.132 291.041 312.052L294.157 311.275ZM298.889 313.582C297.384 313.957 296.231 313.012 296.231 311.34C296.231 309.668 297.395 308.146 298.889 307.774C299.786 307.55 300.415 307.778 300.821 308.249L300.138 308.958C299.86 308.654 299.423 308.532 298.878 308.667C297.907 308.91 297.139 309.915 297.139 311.114C297.139 312.302 297.907 312.947 298.878 312.704C299.423 312.569 299.85 312.22 300.138 311.785L300.81 312.168C300.373 312.86 299.775 313.361 298.889 313.582ZM304.206 312.146C303.555 312.308 302.936 312.188 302.936 311.264V307.766L301.73 308.067V307.187L302.936 306.886V305.159L303.822 304.542V306.665L305.263 306.306V307.186L303.822 307.545V310.735C303.822 311.208 304.099 311.282 304.419 311.202L305.038 311.048V311.939L304.206 312.146ZM307.34 304.512C306.956 304.607 306.647 304.366 306.647 303.97C306.647 303.552 306.956 303.166 307.34 303.071C307.746 302.97 308.055 303.2 308.055 303.618C308.055 304.014 307.746 304.411 307.34 304.512ZM306.913 311.471V305.894L307.799 305.673V311.25L306.913 311.471ZM311.905 310.347C310.432 310.715 309.344 309.721 309.344 308.071C309.344 306.432 310.432 304.896 311.905 304.528C313.378 304.161 314.477 305.152 314.477 306.791C314.477 308.441 313.378 309.98 311.905 310.347ZM311.905 309.467C312.876 309.225 313.57 308.15 313.57 307.028C313.57 305.895 312.876 305.166 311.905 305.408C310.934 305.651 310.251 306.723 310.251 307.856C310.251 308.978 310.934 309.71 311.905 309.467ZM316.023 309.2V303.623L316.909 303.402V304.04C317.197 303.473 317.635 303.1 318.275 302.94C319.311 302.682 320.175 303.149 320.175 304.579V308.165L319.289 308.385V304.92C319.289 304.04 318.756 303.734 318.179 303.877C317.411 304.069 316.909 304.766 316.909 305.481V308.979L316.023 309.2Z" fill="#099FCE"/>
<rect x="0.485148" y="0.379039" width="57.1839" height="42.8746" rx="1.5" transform="matrix(0.970296 -0.241922 0 1 279.841 331.331)" fill="#E0F397" stroke="#7A950E"/>
<rect x="0.485148" y="0.379039" width="57.1839" height="42.8746" rx="1.5" transform="matrix(0.970296 -0.241922 0 1 288.918 339.482)" fill="#E0F397" stroke="#7A950E"/>
<path d="M306.919 360.094V352.394L308.072 352.107L311.402 357.513V351.276L312.32 351.047V358.747L311.156 359.038L307.837 353.639V359.865L306.919 360.094ZM316.638 357.792C315.165 358.159 314.076 357.165 314.076 355.515C314.076 353.876 315.165 352.34 316.638 351.973C318.111 351.606 319.21 352.596 319.21 354.235C319.21 355.885 318.111 357.425 316.638 357.792ZM316.638 356.912C317.609 356.67 318.303 355.595 318.303 354.473C318.303 353.34 317.609 352.611 316.638 352.853C315.667 353.095 314.983 354.167 314.983 355.3C314.983 356.422 315.667 357.154 316.638 356.912ZM322.933 356.222C321.556 356.565 320.382 355.714 320.382 353.965C320.382 352.15 321.738 350.712 322.976 350.404C323.584 350.252 324.054 350.289 324.31 350.522V348.058L325.196 347.837V355.537L324.31 355.758V355.274C324.086 355.693 323.563 356.065 322.933 356.222ZM322.976 355.332C323.542 355.191 324.065 354.807 324.31 354.251V351.611C324.075 351.262 323.638 351.119 322.987 351.281C322.229 351.47 321.289 352.397 321.289 353.739C321.289 354.927 322.047 355.563 322.976 355.332ZM329.409 354.597C327.925 354.967 326.74 354.151 326.74 352.336C326.74 350.631 327.904 349.164 329.206 348.839C330.785 348.445 331.65 349.528 331.65 350.925V351.343L327.648 352.341C327.669 353.435 328.544 353.932 329.377 353.725C329.996 353.57 330.444 353.206 330.721 352.762L331.373 353.183C330.935 353.864 330.263 354.384 329.409 354.597ZM330.753 350.774C330.657 350.039 330.188 349.474 329.195 349.722C328.469 349.903 327.797 350.632 327.637 351.551L330.753 350.774Z" fill="#7A950E"/>
<path d="M358 170.5L336.635 -1.5459" stroke="#329168" stroke-width="1.5" stroke-linecap="round" stroke-dasharray="0.1 3"/>
<rect x="0.485148" y="0.379039" width="64.1836" height="65.8698" rx="1.5" transform="matrix(0.970296 -0.241922 0 1 303.562 -22.8658)" fill="#B5DDEA" stroke="#099FCE"/>
<path d="M331.764 164.53L387.094 150.735C387.898 150.535 388.549 151.044 388.549 151.872V194.184C388.549 195.012 387.898 195.846 387.094 196.047L331.764 209.842C330.96 210.043 330.308 209.534 330.308 208.705V166.393C330.308 165.565 330.96 164.731 331.764 164.53Z" fill="#ABF6D6" stroke="#329168"/>
<path d="M345.573 188.472L348.017 180.163L349.415 179.814L351.881 186.9L350.92 187.139L350.259 185.247L347.153 186.022L346.502 188.241L345.573 188.472ZM347.451 185.001L349.96 184.376L348.711 180.76L347.451 185.001ZM355.179 186.198C353.802 186.542 352.628 185.69 352.628 183.941C352.628 182.126 353.983 180.688 355.221 180.38C355.83 180.228 356.299 180.265 356.555 180.498V178.034L357.441 177.813V185.513L356.555 185.734V185.25C356.331 185.669 355.808 186.041 355.179 186.198ZM355.221 185.308C355.787 185.167 356.31 184.783 356.555 184.227V181.587C356.321 181.239 355.883 181.095 355.232 181.257C354.474 181.446 353.535 182.373 353.535 183.715C353.535 184.903 354.293 185.539 355.221 185.308ZM361.537 184.613C360.16 184.956 358.986 184.105 358.986 182.356C358.986 180.541 360.341 179.103 361.579 178.795C362.188 178.643 362.657 178.702 362.914 179.012V178.572L363.799 178.351V183.928L362.914 184.149V183.665C362.689 184.084 362.166 184.456 361.537 184.613ZM361.579 183.723C362.145 183.582 362.668 183.198 362.914 182.642V180.002C362.679 179.653 362.241 179.51 361.59 179.672C360.832 179.861 359.893 180.788 359.893 182.13C359.893 183.318 360.651 183.954 361.579 183.723ZM365.717 183.45V177.873L366.603 177.652V178.18C366.86 177.687 367.244 177.371 367.788 177.236C368.343 177.097 368.781 177.241 369.069 177.675C369.389 177.045 369.933 176.701 370.424 176.578C371.534 176.301 372.239 176.918 372.239 177.963V181.824L371.353 182.045V178.261C371.353 177.601 370.947 177.35 370.414 177.483C369.912 177.608 369.421 178.082 369.421 178.742V182.526L368.535 182.747V178.963C368.535 178.303 368.076 178.066 367.564 178.193C367.041 178.324 366.603 178.785 366.603 179.445V183.229L365.717 183.45Z" fill="#329168"/>
</g>
<defs>
<clipPath id="clip0_239_1737">
<rect width="700" height="500" fill="white"/>
</clipPath>
</defs>
</svg>
