<svg width="700" height="500" viewBox="0 0 700 500" fill="none" xmlns="http://www.w3.org/2000/svg">
<rect width="700" height="500" fill="#ECECEC"/>
<rect x="0.485148" y="0.379039" width="189.043" height="147.317" rx="1.5" transform="matrix(0.970296 -0.241922 0 1 96.4334 89.1008)" fill="#FFC2C2" stroke="#FF2C2C"/>
<rect x="0.485148" y="0.379039" width="64.1836" height="108.469" rx="1.5" transform="matrix(0.970296 -0.241922 0 1 227.165 149.144)" fill="#B5DDEA" stroke="#099FCE"/>
<path d="M238.205 162.821C236.167 163.329 234.865 161.872 234.865 159.672C234.865 157.472 236.167 155.365 238.205 154.857C239.347 154.572 240.148 154.901 240.671 155.584L239.913 156.345C239.572 155.858 238.963 155.614 238.195 155.806C236.818 156.149 235.804 157.766 235.804 159.438C235.804 161.11 236.818 162.221 238.195 161.878C238.963 161.686 239.572 161.149 239.913 160.503L240.682 160.851C240.159 161.806 239.347 162.536 238.205 162.821ZM244.202 161.304C242.73 161.671 241.641 160.677 241.641 159.027C241.641 157.388 242.73 155.852 244.202 155.485C245.675 155.118 246.775 156.108 246.775 157.747C246.775 159.397 245.675 160.937 244.202 161.304ZM244.202 160.424C245.174 160.182 245.867 159.107 245.867 157.985C245.867 156.852 245.174 156.123 244.202 156.365C243.231 156.607 242.548 157.679 242.548 158.812C242.548 159.934 243.231 160.666 244.202 160.424ZM248.32 160.156V152.456L249.206 152.235V159.935L248.32 160.156ZM251.124 159.457V151.757L252.01 151.536V159.236L251.124 159.457ZM256.223 158.296C254.739 158.666 253.554 157.85 253.554 156.035C253.554 154.33 254.718 152.863 256.02 152.538C257.6 152.145 258.464 153.227 258.464 154.624V155.042L254.462 156.04C254.483 157.135 255.358 157.631 256.191 157.424C256.81 157.269 257.258 156.905 257.536 156.461L258.187 156.882C257.749 157.563 257.077 158.083 256.223 158.296ZM257.568 154.473C257.472 153.738 257.002 153.174 256.009 153.421C255.284 153.602 254.611 154.331 254.451 155.251L257.568 154.473ZM262.299 156.781C260.794 157.156 259.642 156.211 259.642 154.539C259.642 152.867 260.805 151.345 262.299 150.973C263.196 150.749 263.825 150.977 264.231 151.448L263.548 152.157C263.27 151.853 262.833 151.731 262.289 151.866C261.317 152.109 260.549 153.114 260.549 154.313C260.549 155.501 261.317 156.146 262.289 155.903C262.833 155.768 263.26 155.419 263.548 154.984L264.22 155.367C263.783 156.059 263.185 156.56 262.299 156.781ZM267.616 155.345C266.965 155.507 266.346 155.387 266.346 154.463V150.965L265.14 151.265V150.385L266.346 150.085V148.358L267.232 147.741V149.864L268.673 149.505V150.385L267.232 150.744V153.934C267.232 154.407 267.509 154.481 267.83 154.401L268.449 154.247V155.138L267.616 155.345ZM270.751 147.711C270.366 147.806 270.057 147.565 270.057 147.169C270.057 146.751 270.366 146.365 270.751 146.27C271.156 146.169 271.466 146.399 271.466 146.817C271.466 147.213 271.156 147.61 270.751 147.711ZM270.324 154.67V149.093L271.209 148.872V154.449L270.324 154.67ZM275.315 153.546C273.843 153.914 272.754 152.92 272.754 151.27C272.754 149.631 273.843 148.095 275.315 147.727C276.788 147.36 277.888 148.351 277.888 149.99C277.888 151.64 276.788 153.179 275.315 153.546ZM275.315 152.666C276.287 152.424 276.98 151.349 276.98 150.227C276.98 149.094 276.287 148.365 275.315 148.607C274.344 148.85 273.661 149.922 273.661 151.055C273.661 152.177 274.344 152.909 275.315 152.666ZM279.433 152.399V146.822L280.319 146.601V147.239C280.607 146.672 281.045 146.299 281.685 146.139C282.721 145.881 283.585 146.348 283.585 147.778V151.364L282.699 151.584V148.119C282.699 147.239 282.166 146.932 281.589 147.076C280.821 147.268 280.319 147.965 280.319 148.68V152.178L279.433 152.399Z" fill="#099FCE"/>
<path d="M166.597 90.8215V83.1215L167.729 82.8395L169.682 85.5095L171.635 81.8655L172.724 81.594V89.294L171.806 89.5229V83.3079L169.714 87.1185L169.618 87.1424L167.515 84.3227V90.5927L166.597 90.8215ZM175.285 81.8025C174.9 81.8983 174.591 81.6565 174.591 81.2605C174.591 80.8425 174.9 80.4573 175.285 80.3615C175.69 80.2604 176 80.4912 176 80.9092C176 81.3052 175.69 81.7014 175.285 81.8025ZM174.858 88.762V83.185L175.744 82.9641V88.5411L174.858 88.762ZM179.946 87.6034C178.441 87.9786 177.288 87.034 177.288 85.362C177.288 83.69 178.451 82.168 179.946 81.7954C180.842 81.5719 181.472 81.7999 181.878 82.2707L181.194 82.98C180.917 82.6752 180.479 82.5533 179.935 82.6891C178.964 82.9312 178.195 83.9368 178.195 85.1358C178.195 86.3238 178.964 86.9682 179.935 86.7261C180.479 86.5903 180.906 86.2419 181.194 85.807L181.867 86.1894C181.429 86.8815 180.832 87.3825 179.946 87.6034ZM183.373 86.6388V81.0618L184.259 80.8409V81.6769C184.451 81.156 185.028 80.6053 185.775 80.419C186.202 80.3126 186.49 80.3067 186.789 80.4412L186.362 81.4276C186.202 81.3466 185.978 81.3474 185.7 81.4166C185.038 81.5816 184.419 82.132 184.259 83.1399V86.4179L183.373 86.6388ZM190.043 85.0968C188.571 85.464 187.482 84.4704 187.482 82.8204C187.482 81.1814 188.571 79.645 190.043 79.2778C191.516 78.9105 192.616 79.9014 192.616 81.5404C192.616 83.1904 191.516 84.7295 190.043 85.0968ZM190.043 84.2168C191.015 83.9746 191.708 82.8996 191.708 81.7776C191.708 80.6446 191.015 79.9156 190.043 80.1578C189.072 80.3999 188.389 81.4722 188.389 82.6052C188.389 83.7272 189.072 84.4589 190.043 84.2168ZM196.445 83.4895C194.941 83.8648 193.788 82.9202 193.788 81.2482C193.788 79.5762 194.951 78.0541 196.445 77.6815C197.342 77.458 197.972 77.686 198.377 78.1569L197.694 78.8662C197.417 78.5614 196.979 78.4395 196.435 78.5752C195.464 78.8174 194.695 79.823 194.695 81.022C194.695 82.21 195.464 82.8544 196.435 82.6122C196.979 82.4765 197.406 82.128 197.694 81.6932L198.367 82.0755C197.929 82.7676 197.331 83.2687 196.445 83.4895ZM201.957 82.1264C200.484 82.4936 199.395 81.5 199.395 79.85C199.395 78.211 200.484 76.6746 201.957 76.3074C203.43 75.9401 204.529 76.931 204.529 78.57C204.529 80.22 203.43 81.7591 201.957 82.1264ZM201.957 81.2464C202.928 81.0042 203.622 79.9292 203.622 78.8072C203.622 77.6742 202.928 76.9452 201.957 77.1874C200.986 77.4295 200.303 78.5018 200.303 79.6348C200.303 80.7568 200.986 81.4885 201.957 81.2464ZM207.783 80.6739C206.94 80.8841 206.064 80.7613 205.541 80.2427L206.128 79.4473C206.481 79.7995 207.142 79.9865 207.847 79.8109C208.508 79.6459 208.935 79.2755 208.935 78.8025C208.935 78.4505 208.711 78.2973 208.402 78.2645L206.875 78.1061C206.182 78.037 205.765 77.6458 205.765 76.9968C205.765 76.0068 206.705 75.1346 207.772 74.8685C208.498 74.6876 209.245 74.7433 209.811 75.2512L209.202 76.0079C208.871 75.6724 208.316 75.5798 207.719 75.7288C207.185 75.8619 206.641 76.2286 206.641 76.7126C206.641 77.0426 206.865 77.1627 207.185 77.1929L208.583 77.3393C209.33 77.417 209.811 77.7262 209.811 78.5182C209.811 79.4862 209.074 80.3519 207.783 80.6739ZM211.359 79.6611V74.0841L212.245 73.8632V74.3912C212.502 73.8983 212.886 73.5825 213.43 73.4468C213.985 73.3084 214.423 73.4523 214.711 73.8865C215.031 73.2566 215.575 72.9119 216.066 72.7895C217.176 72.5127 217.881 73.1291 217.881 74.1741V78.0351L216.995 78.256V74.472C216.995 73.812 216.589 73.5611 216.056 73.6942C215.554 73.8192 215.063 74.2936 215.063 74.9536V78.7376L214.177 78.9585V75.1745C214.177 74.5145 213.718 74.2769 213.206 74.4047C212.683 74.5351 212.245 74.9962 212.245 75.6562V79.4402L211.359 79.6611Z" fill="#FF2C2C"/>
<path d="M97.4028 89.3599L174.094 143.728" stroke="#FF2C2C" stroke-dasharray="2 2"/>
<path d="M97.4028 237.226L174.094 291.594" stroke="#FF2C2C" stroke-dasharray="2 2"/>
<path d="M279.703 190.14L356.395 244.508" stroke="#FF2C2C" stroke-dasharray="2 2"/>
<path d="M279.703 43.0078L356.395 97.376" stroke="#FF2C2C" stroke-dasharray="2 2"/>
<path d="M175.383 290.631C175.191 290.678 175.018 290.683 174.868 290.659L174.788 291.153C174.293 291.073 173.899 290.764 173.703 290.302L174.163 290.106C174.103 289.967 174.067 289.797 174.067 289.599V288.597H173.567V286.593H174.067V284.588H173.567V282.584H174.067V280.579H173.567V278.575H174.067V276.571H173.567V274.566H174.067V272.562H173.567V270.557H174.067V268.553H173.567V266.549H174.067V264.544H173.567V262.54H174.067V260.535H173.567V258.531H174.067V256.527H173.567V254.522H174.067V252.518H173.567V250.513H174.067V248.509H173.567V246.505H174.067V244.5H173.567V242.496H174.067V240.491H173.567V238.487H174.067V236.482H173.567V234.478H174.067V232.474H173.567V230.469H174.067V228.465H173.567V226.46H174.067V224.456H173.567V222.452H174.067V220.447H173.567V218.443H174.067V216.438H173.567V214.434H174.067V212.43H173.567V210.425H174.067V208.421H173.567V206.416H174.067V204.412H173.567V202.408H174.067V200.403H173.567V198.399H174.067V196.394H173.567V194.39H174.067V192.386H173.567V190.381H174.067V188.377H173.567V186.372H174.067V184.368H173.567V182.364H174.067V180.359H173.567V178.355H174.067V176.35H173.567V174.346H174.067V172.342H173.567V170.337H174.067V168.333H173.567V166.328H174.067V164.324H173.567V162.32H174.067V160.315H173.567V158.311H174.067V156.306H173.567V154.302H174.067V152.298H173.567V150.293H174.067V148.289H173.567V146.284H174.067V145.282C174.067 145.069 174.109 144.849 174.19 144.633L173.722 144.457C173.919 143.935 174.288 143.463 174.748 143.147L175.031 143.559C175.221 143.428 175.424 143.334 175.631 143.283L176.592 143.045L176.472 142.56L178.393 142.085L178.513 142.571L180.434 142.096L180.314 141.61L182.235 141.135L182.355 141.621L184.276 141.146L184.156 140.661L186.077 140.186L186.197 140.671L188.119 140.196L187.999 139.711L189.92 139.236L190.04 139.722L191.961 139.247L191.841 138.761L193.762 138.286L193.882 138.772L195.803 138.297L195.683 137.812L197.604 137.337L197.724 137.822L199.645 137.347L199.525 136.862L201.447 136.387L201.567 136.873L203.488 136.398L203.368 135.912L205.289 135.438L205.409 135.923L207.33 135.448L207.21 134.963L209.131 134.488L209.251 134.973L211.172 134.498L211.052 134.013L212.973 133.538L213.093 134.024L215.015 133.549L214.895 133.063L216.816 132.589L216.936 133.074L218.857 132.599L218.737 132.114L220.658 131.639L220.778 132.124L222.699 131.649L222.579 131.164L224.5 130.689L224.62 131.175L226.541 130.7L226.421 130.214L228.343 129.74L228.463 130.225L230.384 129.75L230.264 129.265L232.185 128.79L232.305 129.275L234.226 128.8L234.106 128.315L236.027 127.84L236.147 128.326L238.068 127.851L237.948 127.365L239.869 126.891L239.989 127.376L241.911 126.901L241.791 126.416L243.712 125.941L243.832 126.426L245.753 125.951L245.633 125.466L247.554 124.991L247.674 125.477L249.595 125.002L249.475 124.516L251.396 124.042L251.516 124.527L253.437 124.052L253.317 123.567L255.239 123.092L255.359 123.577L257.28 123.102L257.16 122.617L259.081 122.142L259.201 122.628L261.122 122.153L261.002 121.667L262.923 121.193L263.043 121.678L264.964 121.203L264.844 120.718L266.765 120.243L266.885 120.728L268.806 120.254L268.687 119.768L270.608 119.293L270.728 119.779L272.649 119.304L272.529 118.818L274.45 118.344L274.57 118.829L276.491 118.354L276.371 117.869L278.292 117.394L278.412 117.879L280.333 117.405L280.213 116.919L282.135 116.444L282.254 116.93L284.176 116.455L284.056 115.969L285.977 115.495L286.097 115.98L288.018 115.505L287.898 115.02L289.819 114.545L289.939 115.03L291.86 114.556L291.74 114.07L293.661 113.595L293.781 114.081L295.702 113.606L295.582 113.12L297.504 112.646L297.624 113.131L299.545 112.656L299.425 112.171L301.346 111.696L301.466 112.181L303.387 111.707L303.267 111.221L305.188 110.746L305.308 111.232L307.229 110.757L307.109 110.272L309.03 109.797L309.15 110.282L311.072 109.807L310.952 109.322L312.873 108.847L312.993 109.332L314.914 108.858L314.794 108.372L316.715 107.897L316.835 108.383L318.756 107.908L318.636 107.423L320.557 106.948L320.677 107.433L322.598 106.958L322.478 106.473L324.4 105.998L324.519 106.483L326.441 106.009L326.321 105.523L328.242 105.048L328.362 105.534L330.283 105.059L330.163 104.574L332.084 104.099L332.204 104.584L334.125 104.109L334.005 103.624L335.926 103.149L336.046 103.634L337.967 103.16L337.847 102.674L339.769 102.199L339.889 102.685L341.81 102.21L341.69 101.725L343.611 101.25L343.731 101.735L345.652 101.26L345.532 100.775L347.453 100.3L347.573 100.786L349.494 100.311L349.374 99.8253L351.295 99.3505L351.415 99.8358L353.336 99.361L353.217 98.8756L355.138 98.4008L355.258 98.8862L356.218 98.6487C356.411 98.6012 356.584 98.5962 356.733 98.6205L356.813 98.1269C357.308 98.2071 357.702 98.5161 357.899 98.9775L357.439 99.1733C357.498 99.3129 357.535 99.4823 357.535 99.6805V100.683H358.035V102.687H357.535V104.692H358.035V106.696H357.535V108.7H358.035V110.705H357.535V112.709H358.035V114.714H357.535V116.718H358.035V118.722H357.535V120.727H358.035V122.731H357.535V124.736H358.035V126.74H357.535V128.744H358.035V130.749H357.535V132.753H358.035V134.758H357.535V136.762H358.035V138.766H357.535V140.771H358.035V142.775H357.535V144.78H358.035V146.784H357.535V148.788H358.035V150.793H357.535V152.797H358.035V154.802H357.535V156.806H358.035V158.81H357.535V160.815H358.035V162.819H357.535V164.824H358.035V166.828H357.535V168.832H358.035V170.837H357.535V172.841H358.035V174.846H357.535V176.85H358.035V178.854H357.535V180.859H358.035V182.863H357.535V184.868H358.035V186.872H357.535V188.876H358.035V190.881H357.535V192.885H358.035V194.89H357.535V196.894H358.035V198.898H357.535V200.903H358.035V202.907H357.535V204.912H358.035V206.916H357.535V208.92H358.035V210.925H357.535V212.929H358.035V214.934H357.535V216.938H358.035V218.942H357.535V220.947H358.035V222.951H357.535V224.956H358.035V226.96H357.535V228.964H358.035V230.969H357.535V232.973H358.035V234.978H357.535V236.982H358.035V238.986H357.535V240.991H358.035V242.995H357.535V243.997C357.535 244.211 357.492 244.431 357.411 244.647L357.879 244.823C357.682 245.345 357.314 245.816 356.854 246.133L356.57 245.721C356.38 245.852 356.177 245.946 355.97 245.997L355.01 246.234L355.13 246.72L353.208 247.195L353.088 246.709L351.167 247.184L351.287 247.669L349.366 248.144L349.246 247.659L347.325 248.134L347.445 248.619L345.524 249.094L345.404 248.608L343.483 249.083L343.603 249.569L341.682 250.043L341.562 249.558L339.641 250.033L339.76 250.518L337.839 250.993L337.719 250.508L335.798 250.983L335.918 251.468L333.997 251.943L333.877 251.457L331.956 251.932L332.076 252.418L330.155 252.892L330.035 252.407L328.114 252.882L328.234 253.367L326.313 253.842L326.193 253.357L324.271 253.832L324.391 254.317L322.47 254.792L322.35 254.306L320.429 254.781L320.549 255.267L318.628 255.741L318.508 255.256L316.587 255.731L316.707 256.216L314.786 256.691L314.666 256.206L312.745 256.681L312.865 257.166L310.943 257.641L310.823 257.155L308.902 257.63L309.022 258.116L307.101 258.59L306.981 258.105L305.06 258.58L305.18 259.065L303.259 259.54L303.139 259.055L301.218 259.53L301.338 260.015L299.417 260.49L299.297 260.004L297.375 260.479L297.495 260.965L295.574 261.439L295.454 260.954L293.533 261.429L293.653 261.914L291.732 262.389L291.612 261.904L289.691 262.379L289.811 262.864L287.89 263.339L287.77 262.853L285.849 263.328L285.969 263.814L284.047 264.288L283.927 263.803L282.006 264.278L282.126 264.763L280.205 265.238L280.085 264.753L278.164 265.227L278.284 265.713L276.363 266.188L276.243 265.702L274.322 266.177L274.442 266.663L272.521 267.137L272.401 266.652L270.479 267.127L270.599 267.612L268.678 268.087L268.558 267.602L266.637 268.076L266.757 268.562L264.836 269.037L264.716 268.551L262.795 269.026L262.915 269.512L260.994 269.986L260.874 269.501L258.953 269.976L259.073 270.461L257.151 270.936L257.031 270.451L255.11 270.925L255.23 271.411L253.309 271.886L253.189 271.4L251.268 271.875L251.388 272.361L249.467 272.835L249.347 272.35L247.426 272.825L247.546 273.31L245.625 273.785L245.505 273.3L243.584 273.774L243.703 274.26L241.782 274.735L241.662 274.249L239.741 274.724L239.861 275.21L237.94 275.684L237.82 275.199L235.899 275.674L236.019 276.159L234.098 276.634L233.978 276.149L232.057 276.623L232.177 277.109L230.255 277.584L230.136 277.098L228.214 277.573L228.334 278.058L226.413 278.533L226.293 278.048L224.372 278.523L224.492 279.008L222.571 279.483L222.451 278.998L220.53 279.472L220.65 279.958L218.729 280.433L218.609 279.947L216.688 280.422L216.808 280.907L214.886 281.382L214.766 280.897L212.845 281.372L212.965 281.857L211.044 282.332L210.924 281.847L209.003 282.321L209.123 282.807L207.202 283.282L207.082 282.796L205.161 283.271L205.281 283.756L203.36 284.231L203.24 283.746L201.319 284.221L201.438 284.706L199.517 285.181L199.397 284.696L197.476 285.17L197.596 285.656L195.675 286.131L195.555 285.645L193.634 286.12L193.754 286.605L191.833 287.08L191.713 286.595L189.792 287.07L189.912 287.555L187.991 288.03L187.871 287.545L185.949 288.019L186.069 288.505L184.148 288.98L184.028 288.494L182.107 288.969L182.227 289.454L180.306 289.929L180.186 289.444L178.265 289.919L178.385 290.404L176.464 290.879L176.344 290.393L175.383 290.631Z" stroke="#FF2C2C" stroke-dasharray="2 2"/>
<rect x="0.485148" y="0.379039" width="57.1839" height="42.8746" rx="1.5" transform="matrix(0.970296 -0.241922 0 1 243.467 175.358)" fill="#E0F397" stroke="#7A950E"/>
<rect x="0.485148" y="0.379039" width="57.1839" height="42.8746" rx="1.5" transform="matrix(0.970296 -0.241922 0 1 252.544 183.508)" fill="#E0F397" stroke="#7A950E"/>
<path d="M270.545 204.121V196.421L271.698 196.133L275.028 201.54V195.303L275.946 195.074V202.774L274.782 203.064L271.463 197.666V203.892L270.545 204.121ZM280.264 201.818C278.791 202.186 277.702 201.192 277.702 199.542C277.702 197.903 278.791 196.367 280.264 195.999C281.737 195.632 282.836 196.623 282.836 198.262C282.836 199.912 281.737 201.451 280.264 201.818ZM280.264 200.938C281.235 200.696 281.929 199.621 281.929 198.499C281.929 197.366 281.235 196.637 280.264 196.879C279.293 197.122 278.61 198.194 278.61 199.327C278.61 200.449 279.293 201.181 280.264 200.938ZM286.559 200.249C285.182 200.592 284.008 199.741 284.008 197.992C284.008 196.177 285.364 194.739 286.602 194.43C287.21 194.278 287.68 194.315 287.936 194.549V192.085L288.822 191.864V199.564L287.936 199.785V199.301C287.712 199.719 287.189 200.092 286.559 200.249ZM286.602 199.358C287.168 199.217 287.691 198.834 287.936 198.278V195.638C287.701 195.289 287.264 195.145 286.613 195.308C285.855 195.496 284.916 196.424 284.916 197.766C284.916 198.954 285.673 199.59 286.602 199.358ZM293.035 198.623C291.551 198.993 290.366 198.178 290.366 196.363C290.366 194.658 291.53 193.191 292.832 192.866C294.412 192.472 295.276 193.554 295.276 194.951V195.369L291.274 196.367C291.295 197.462 292.17 197.959 293.003 197.751C293.622 197.597 294.07 197.232 294.347 196.789L294.999 197.21C294.561 197.891 293.889 198.41 293.035 198.623ZM294.38 194.801C294.283 194.066 293.814 193.501 292.821 193.749C292.095 193.929 291.423 194.658 291.263 195.578L294.38 194.801Z" fill="#7A950E"/>
<path d="M214.417 455.181C214.224 455.228 214.051 455.233 213.902 455.209L213.821 455.703C213.327 455.623 212.932 455.314 212.736 454.852L213.196 454.656C213.137 454.517 213.1 454.347 213.1 454.149V453.145H212.6V451.137H213.1V449.129H212.6V447.121H213.1V445.113H212.6V443.105H213.1V441.097H212.6V439.089H213.1V437.08H212.6V435.072H213.1V433.064H212.6V431.056H213.1V429.048H212.6V427.04H213.1V425.032H212.6V423.024H213.1V421.016H212.6V419.008H213.1V417H212.6V414.992H213.1V412.983H212.6V410.975H213.1V408.967H212.6V406.959H213.1V404.951H212.6V402.943H213.1V400.935H212.6V398.927H213.1V396.919H212.6V394.911H213.1V392.903H212.6V390.895H213.1V388.886H212.6V386.878H213.1V384.87H212.6V382.862H213.1V380.854H212.6V378.846H213.1V376.838H212.6V374.83H213.1V372.822H212.6V370.814H213.1V368.806H212.6V366.798H213.1V364.79H212.6V362.781H213.1V360.773H212.6V358.765H213.1V356.757H212.6V354.749H213.1V352.741H212.6V350.733H213.1V348.725H212.6V346.717H213.1V344.709H212.6V342.701H213.1V340.693H212.6V338.684H213.1V336.676H212.6V334.668H213.1V332.66H212.6V330.652H213.1V328.644H212.6V326.636H213.1V324.628H212.6V322.62H213.1V320.612H212.6V318.604H213.1V316.596H212.6V314.587H213.1V312.579H212.6V310.571H213.1V308.563H212.6V306.555H213.1V304.547H212.6V302.539H213.1V300.531H212.6V298.523H213.1V296.515H212.6V294.507H213.1V292.499H212.6V290.49H213.1V288.482H212.6V286.474H213.1V284.466H212.6V282.458H213.1V280.45H212.6V278.442H213.1V276.434H212.6V274.426H213.1V272.418H212.6V270.41H213.1V268.401H212.6V266.393H213.1V264.385H212.6V262.377H213.1V260.369H212.6V258.361H213.1V256.353H212.6V254.345H213.1V253.341C213.1 253.128 213.143 252.908 213.224 252.692L212.756 252.516C212.953 251.993 213.321 251.522 213.781 251.205L214.065 251.617C214.255 251.487 214.458 251.393 214.665 251.341L215.633 251.102L215.513 250.617L217.448 250.138L217.568 250.624L219.504 250.145L219.384 249.66L221.319 249.182L221.439 249.667L223.374 249.189L223.255 248.703L225.19 248.225L225.31 248.71L227.245 248.232L227.126 247.747L229.061 247.268L229.181 247.754L231.116 247.275L230.997 246.79L232.932 246.311L233.052 246.797L234.987 246.318L234.868 245.833L236.803 245.355L236.923 245.84L238.858 245.362L238.739 244.876L240.674 244.398L240.794 244.883L242.729 244.405L242.61 243.92L244.545 243.441L244.665 243.927L246.6 243.448L246.481 242.963L248.416 242.484L248.536 242.97L250.471 242.491L250.352 242.006L252.287 241.528L252.407 242.013L254.342 241.535L254.222 241.049L256.158 240.571L256.278 241.056L258.213 240.578L258.093 240.093L260.029 239.614L260.149 240.1L262.084 239.621L261.964 239.136L263.9 238.657L264.02 239.143L265.955 238.664L265.835 238.179L267.771 237.701L267.891 238.186L269.826 237.708L269.706 237.222L271.642 236.744L271.762 237.229L273.697 236.751L273.577 236.265L275.513 235.787L275.633 236.272L277.568 235.794L277.448 235.309L279.384 234.83L279.504 235.316L281.439 234.837L281.319 234.352L283.255 233.874L283.375 234.359L285.31 233.881L285.19 233.395L287.126 232.917L287.246 233.402L289.181 232.924L289.061 232.438L290.997 231.96L291.117 232.445L293.052 231.967L292.932 231.482L294.868 231.003L294.988 231.489L296.923 231.01L296.803 230.525L298.739 230.047L298.859 230.532L300.794 230.054L300.674 229.568L302.61 229.09L302.73 229.575L304.665 229.097L304.546 228.611L306.481 228.133L306.601 228.618L308.536 228.14L308.416 227.655L310.352 227.176L310.472 227.662L312.407 227.183L312.288 226.698L314.223 226.219L314.343 226.705L316.278 226.227L316.159 225.741L318.094 225.263L318.214 225.748L320.149 225.27L320.03 224.784L321.965 224.306L322.085 224.791L324.02 224.313L323.901 223.828L325.836 223.349L325.956 223.835L327.891 223.356L327.772 222.871L329.707 222.392L329.827 222.878L331.762 222.399L331.643 221.914L333.578 221.436L333.698 221.921L335.633 221.443L335.514 220.957L337.449 220.479L337.569 220.964L339.504 220.486L339.385 220.001L341.32 219.522L341.44 220.008L343.376 219.529L343.256 219.044L345.191 218.565L345.311 219.051L347.247 218.572L347.127 218.087L349.062 217.609L349.182 218.094L351.118 217.616L350.998 217.13L352.933 216.652L353.053 217.137L354.989 216.659L354.869 216.174L356.804 215.695L356.924 216.181L358.86 215.702L358.74 215.217L360.675 214.738L360.795 215.224L362.731 214.745L362.611 214.26L364.546 213.782L364.666 214.267L366.602 213.789L366.482 213.303L368.417 212.825L368.537 213.31L370.473 212.832L370.353 212.346L372.288 211.868L372.408 212.353L374.344 211.875L374.224 211.39L376.159 210.911L376.279 211.397L378.215 210.918L378.095 210.433L380.03 209.955L380.15 210.44L382.086 209.962L381.966 209.476L383.901 208.998L384.021 209.483L385.957 209.005L385.837 208.519L387.772 208.041L387.892 208.526L389.828 208.048L389.708 207.563L391.643 207.084L391.763 207.57L393.699 207.091L393.579 206.606L395.514 206.128L395.634 206.613L397.57 206.135L397.45 205.649L399.385 205.171L399.505 205.656L401.441 205.178L401.321 204.692L403.256 204.214L403.376 204.699L405.312 204.221L405.192 203.736L407.127 203.257L407.247 203.743L409.183 203.264L409.063 202.779L410.998 202.3L411.118 202.786L413.054 202.308L412.934 201.822L414.869 201.344L414.989 201.829L416.925 201.351L416.805 200.865L418.74 200.387L418.86 200.872L420.796 200.394L420.676 199.909L422.611 199.43L422.731 199.916L424.667 199.437L424.547 198.952L426.482 198.473L426.602 198.959L428.538 198.48L428.418 197.995L430.353 197.517L430.473 198.002L432.409 197.524L432.289 197.038L434.224 196.56L434.344 197.045L436.28 196.567L436.16 196.082L438.095 195.603L438.215 196.089L440.151 195.61L440.031 195.125L441.966 194.646L442.086 195.132L444.022 194.653L443.902 194.168L445.837 193.69L445.957 194.175L447.893 193.697L447.773 193.211L449.708 192.733L449.828 193.218L451.764 192.74L451.644 192.255L453.579 191.776L453.699 192.262L455.635 191.783L455.515 191.298L457.45 190.819L457.57 191.305L459.506 190.826L459.386 190.341L461.321 189.863L461.441 190.348L463.377 189.87L463.257 189.384L465.192 188.906L465.312 189.391L467.248 188.913L467.128 188.427L469.063 187.949L469.183 188.434L471.119 187.956L470.999 187.471L472.934 186.992L473.054 187.478L474.99 186.999L474.87 186.514L476.805 186.036L476.925 186.521L478.861 186.043L478.741 185.557L480.676 185.079L480.796 185.564L482.732 185.086L482.612 184.6L484.547 184.122L484.667 184.607L486.603 184.129L486.483 183.644L488.418 183.165L488.538 183.651L490.474 183.172L490.354 182.687L492.289 182.209L492.409 182.694L494.345 182.216L494.225 181.73L496.16 181.252L496.28 181.737L498.216 181.259L498.096 180.773L500.031 180.295L500.151 180.78L502.087 180.302L501.967 179.817L503.902 179.338L504.022 179.824L505.958 179.345L505.838 178.86L507.773 178.381L507.893 178.867L509.829 178.389L509.709 177.903L511.644 177.425L511.764 177.91L513.7 177.432L513.58 176.946L515.515 176.468L515.635 176.953L517.571 176.475L517.451 175.99L519.386 175.511L519.506 175.997L521.442 175.518L521.322 175.033L523.257 174.554L523.377 175.04L525.313 174.561L525.193 174.076L527.128 173.598L527.248 174.083L529.184 173.605L529.064 173.119L530.999 172.641L531.119 173.126L533.055 172.648L532.935 172.163L534.87 171.684L534.99 172.17L536.926 171.691L536.806 171.206L538.741 170.727L538.861 171.213L540.797 170.734L540.677 170.249L542.612 169.771L542.732 170.256L544.668 169.778L544.548 169.292L546.483 168.814L546.603 169.299L548.539 168.821L548.419 168.336L550.354 167.857L550.474 168.343L552.41 167.864L552.29 167.379L554.225 166.9L554.345 167.386L556.281 166.907L556.161 166.422L558.096 165.944L558.216 166.429L560.152 165.951L560.032 165.465L561.967 164.987L562.087 165.472L564.023 164.994L563.903 164.508L565.838 164.03L565.958 164.515L567.894 164.037L567.774 163.552L569.709 163.073L569.829 163.559L571.765 163.08L571.645 162.595L573.58 162.117L573.7 162.602L575.636 162.124L575.516 161.638L577.451 161.16L577.571 161.645L579.507 161.167L579.387 160.681L581.322 160.203L581.442 160.688L583.378 160.21L583.258 159.725L585.193 159.246L585.313 159.732L587.249 159.253L587.129 158.768L589.064 158.29L589.184 158.775L591.12 158.297L591 157.811L592.935 157.333L593.055 157.818L594.991 157.34L594.871 156.854L596.806 156.376L596.926 156.861L598.862 156.383L598.742 155.898L600.677 155.419L600.797 155.905L601.764 155.666C601.957 155.618 602.13 155.613 602.28 155.637L602.36 155.144C602.854 155.224 603.249 155.533 603.445 155.994L602.985 156.19C603.044 156.33 603.081 156.499 603.081 156.697V157.701H603.581V159.709H603.081V161.718H603.581V163.726H603.081V165.734H603.581V167.742H603.081V169.75H603.581V171.758H603.081V173.766H603.581V175.774H603.081V177.782H603.581V179.79H603.081V181.798H603.581V183.806H603.081V185.815H603.581V187.823H603.081V189.831H603.581V191.839H603.081V193.847H603.581V195.855H603.081V197.863H603.581V199.871H603.081V201.879H603.581V203.887H603.081V205.895H603.581V207.903H603.081V209.912H603.581V211.92H603.081V213.928H603.581V215.936H603.081V217.944H603.581V219.952H603.081V221.96H603.581V223.968H603.081V225.976H603.581V227.984H603.081V229.992H603.581V232H603.081V234.009H603.581V236.017H603.081V238.025H603.581V240.033H603.081V242.041H603.581V244.049H603.081V246.057H603.581V248.065H603.081V250.073H603.581V252.081H603.081V254.089H603.581V256.097H603.081V258.105H603.581V260.114H603.081V262.122H603.581V264.13H603.081V266.138H603.581V268.146H603.081V270.154H603.581V272.162H603.081V274.17H603.581V276.178H603.081V278.186H603.581V280.194H603.081V282.202H603.581V284.211H603.081V286.219H603.581V288.227H603.081V290.235H603.581V292.243H603.081V294.251H603.581V296.259H603.081V298.267H603.581V300.275H603.081V302.283H603.581V304.291H603.081V306.299H603.581V308.308H603.081V310.316H603.581V312.324H603.081V314.332H603.581V316.34H603.081V318.348H603.581V320.356H603.081V322.364H603.581V324.372H603.081V326.38H603.581V328.388H603.081V330.397H603.581V332.405H603.081V334.413H603.581V336.421H603.081V338.429H603.581V340.437H603.081V342.445H603.581V344.453H603.081V346.461H603.581V348.469H603.081V350.477H603.581V352.485H603.081V354.494H603.581V356.502H603.081V357.506C603.081 357.719 603.038 357.939 602.957 358.155L603.425 358.331C603.229 358.853 602.86 359.325 602.4 359.641L602.117 359.229C601.927 359.36 601.723 359.454 601.516 359.505L600.549 359.744L600.669 360.23L598.733 360.708L598.613 360.223L596.678 360.701L596.798 361.186L594.862 361.665L594.742 361.179L592.807 361.658L592.927 362.143L590.991 362.622L590.871 362.136L588.936 362.615L589.056 363.1L587.12 363.578L587 363.093L585.065 363.571L585.185 364.057L583.249 364.535L583.129 364.05L581.194 364.528L581.314 365.013L579.378 365.492L579.258 365.006L577.323 365.485L577.443 365.97L575.507 366.449L575.387 365.963L573.452 366.442L573.572 366.927L571.636 367.405L571.516 366.92L569.581 367.398L569.701 367.884L567.765 368.362L567.645 367.877L565.71 368.355L565.83 368.84L563.894 369.319L563.774 368.833L561.839 369.312L561.959 369.797L560.023 370.276L559.903 369.79L557.968 370.269L558.088 370.754L556.152 371.232L556.032 370.747L554.097 371.225L554.217 371.711L552.281 372.189L552.161 371.704L550.226 372.182L550.346 372.667L548.41 373.146L548.29 372.66L546.355 373.139L546.475 373.624L544.539 374.103L544.419 373.617L542.484 374.096L542.604 374.581L540.668 375.059L540.548 374.574L538.613 375.052L538.733 375.538L536.797 376.016L536.677 375.531L534.742 376.009L534.862 376.495L532.926 376.973L532.806 376.488L530.871 376.966L530.991 377.451L529.055 377.93L528.935 377.444L527 377.923L527.12 378.408L525.184 378.886L525.064 378.401L523.129 378.879L523.249 379.365L521.313 379.843L521.193 379.358L519.258 379.836L519.378 380.322L517.442 380.8L517.322 380.315L515.387 380.793L515.507 381.278L513.571 381.757L513.451 381.271L511.516 381.75L511.636 382.235L509.7 382.713L509.58 382.228L507.645 382.706L507.765 383.192L505.829 383.67L505.709 383.185L503.774 383.663L503.894 384.149L501.958 384.627L501.838 384.142L499.903 384.62L500.023 385.105L498.087 385.584L497.967 385.098L496.032 385.577L496.152 386.062L494.216 386.541L494.096 386.055L492.161 386.534L492.281 387.019L490.345 387.497L490.225 387.012L488.29 387.49L488.41 387.976L486.474 388.454L486.354 387.969L484.419 388.447L484.539 388.932L482.603 389.411L482.483 388.925L480.548 389.404L480.668 389.889L478.732 390.368L478.612 389.882L476.677 390.361L476.797 390.846L474.861 391.324L474.741 390.839L472.806 391.317L472.926 391.803L470.99 392.281L470.87 391.796L468.935 392.274L469.055 392.759L467.119 393.238L466.999 392.752L465.064 393.231L465.184 393.716L463.248 394.195L463.128 393.709L461.193 394.188L461.313 394.673L459.377 395.151L459.257 394.666L457.322 395.144L457.442 395.63L455.506 396.108L455.386 395.623L453.451 396.101L453.571 396.587L451.635 397.065L451.515 396.579L449.58 397.058L449.7 397.543L447.764 398.022L447.644 397.536L445.709 398.015L445.829 398.5L443.893 398.978L443.773 398.493L441.838 398.971L441.958 399.457L440.022 399.935L439.902 399.45L437.967 399.928L438.087 400.414L436.151 400.892L436.031 400.407L434.096 400.885L434.216 401.37L432.28 401.849L432.16 401.363L430.225 401.842L430.345 402.327L428.409 402.805L428.289 402.32L426.354 402.798L426.474 403.284L424.538 403.762L424.418 403.277L422.483 403.755L422.603 404.241L420.667 404.719L420.547 404.234L418.612 404.712L418.731 405.197L416.796 405.676L416.676 405.19L414.741 405.669L414.861 406.154L412.925 406.632L412.805 406.147L410.87 406.625L410.99 407.111L409.054 407.589L408.934 407.104L406.999 407.582L407.118 408.068L405.183 408.546L405.063 408.061L403.128 408.539L403.247 409.024L401.312 409.503L401.192 409.017L399.257 409.496L399.376 409.981L397.441 410.46L397.321 409.974L395.386 410.453L395.505 410.938L393.57 411.416L393.45 410.931L391.515 411.409L391.634 411.895L389.699 412.373L389.579 411.888L387.644 412.366L387.763 412.851L385.828 413.33L385.708 412.844L383.773 413.323L383.892 413.808L381.957 414.287L381.837 413.801L379.902 414.28L380.021 414.765L378.086 415.243L377.966 414.758L376.03 415.236L376.15 415.722L374.215 416.2L374.095 415.715L372.16 416.193L372.279 416.678L370.344 417.157L370.224 416.671L368.288 417.15L368.408 417.635L366.473 418.114L366.353 417.628L364.417 418.107L364.537 418.592L362.602 419.07L362.482 418.585L360.546 419.063L360.666 419.549L358.731 420.027L358.611 419.542L356.675 420.02L356.795 420.506L354.86 420.984L354.74 420.499L352.804 420.977L352.924 421.462L350.989 421.941L350.869 421.455L348.933 421.934L349.053 422.419L347.118 422.897L346.998 422.412L345.062 422.89L345.182 423.376L343.247 423.854L343.127 423.369L341.191 423.847L341.311 424.333L339.376 424.811L339.256 424.326L337.32 424.804L337.44 425.289L335.505 425.768L335.385 425.282L333.449 425.761L333.569 426.246L331.634 426.724L331.514 426.239L329.578 426.717L329.698 427.203L327.763 427.681L327.643 427.196L325.707 427.674L325.827 428.16L323.892 428.638L323.772 428.153L321.836 428.631L321.956 429.116L320.021 429.595L319.901 429.109L317.965 429.588L318.085 430.073L316.15 430.551L316.03 430.066L314.094 430.544L314.214 431.03L312.279 431.508L312.159 431.023L310.223 431.501L310.343 431.987L308.408 432.465L308.288 431.98L306.352 432.458L306.472 432.943L304.537 433.422L304.417 432.936L302.481 433.415L302.601 433.9L300.666 434.379L300.546 433.893L298.61 434.372L298.73 434.857L296.795 435.335L296.675 434.85L294.739 435.328L294.859 435.814L292.924 436.292L292.804 435.807L290.868 436.285L290.988 436.77L289.053 437.249L288.933 436.763L286.997 437.242L287.117 437.727L285.182 438.206L285.062 437.72L283.126 438.199L283.246 438.684L281.311 439.162L281.191 438.677L279.255 439.155L279.375 439.641L277.44 440.119L277.32 439.634L275.384 440.112L275.504 440.597L273.569 441.076L273.449 440.59L271.513 441.069L271.633 441.554L269.698 442.033L269.578 441.547L267.642 442.026L267.762 442.511L265.827 442.989L265.707 442.504L263.771 442.982L263.891 443.468L261.956 443.946L261.836 443.461L259.9 443.939L260.02 444.424L258.085 444.903L257.965 444.418L256.029 444.896L256.149 445.381L254.214 445.86L254.094 445.374L252.158 445.853L252.278 446.338L250.343 446.816L250.223 446.331L248.287 446.809L248.407 447.295L246.472 447.773L246.352 447.288L244.416 447.766L244.536 448.252L242.601 448.73L242.481 448.245L240.545 448.723L240.665 449.208L238.73 449.687L238.61 449.201L236.674 449.68L236.794 450.165L234.859 450.643L234.739 450.158L232.803 450.636L232.923 451.122L230.988 451.6L230.868 451.115L228.932 451.593L229.052 452.079L227.117 452.557L226.997 452.072L225.061 452.55L225.181 453.035L223.246 453.514L223.126 453.028L221.19 453.507L221.31 453.992L219.375 454.47L219.255 453.985L217.319 454.463L217.439 454.949L215.504 455.427L215.384 454.942L214.417 455.181Z" fill="#ECECEC" fill-opacity="0.8" stroke="#A22CFF" stroke-dasharray="2 2"/>
<path d="M492.434 227.475C490.766 227.891 489.701 226.699 489.701 224.899C489.701 223.099 490.766 221.375 492.434 220.959C493.368 220.726 494.023 220.995 494.451 221.554L493.831 222.177C493.552 221.779 493.054 221.579 492.425 221.736C491.299 222.016 490.469 223.339 490.469 224.707C490.469 226.075 491.299 226.984 492.425 226.704C493.054 226.547 493.552 226.108 493.831 225.579L494.46 225.863C494.032 226.645 493.368 227.242 492.434 227.475ZM497.341 226.234C496.136 226.534 495.245 225.721 495.245 224.371C495.245 223.03 496.136 221.773 497.341 221.473C498.546 221.172 499.445 221.983 499.445 223.324C499.445 224.674 498.546 225.933 497.341 226.234ZM497.341 225.514C498.135 225.316 498.703 224.436 498.703 223.518C498.703 222.591 498.135 221.995 497.341 222.193C496.546 222.391 495.987 223.268 495.987 224.195C495.987 225.113 496.546 225.712 497.341 225.514ZM500.71 225.295V218.995L501.435 218.814V225.114L500.71 225.295ZM503.004 224.723V218.423L503.729 218.242V224.542L503.004 224.723ZM507.176 223.773C505.962 224.075 504.992 223.408 504.992 221.923C504.992 220.528 505.944 219.328 507.01 219.062C508.302 218.74 509.009 219.626 509.009 220.769V221.111L505.735 221.927C505.752 222.823 506.468 223.229 507.149 223.059C507.656 222.933 508.023 222.635 508.25 222.272L508.782 222.616C508.424 223.173 507.874 223.599 507.176 223.773ZM508.276 220.646C508.197 220.044 507.813 219.582 507.001 219.784C506.407 219.932 505.857 220.529 505.726 221.281L508.276 220.646ZM512.147 222.533C510.916 222.84 509.973 222.067 509.973 220.699C509.973 219.331 510.925 218.086 512.147 217.781C512.881 217.598 513.396 217.785 513.728 218.17L513.169 218.751C512.942 218.501 512.584 218.401 512.138 218.512C511.344 218.711 510.715 219.533 510.715 220.514C510.715 221.486 511.344 222.014 512.138 221.815C512.584 221.704 512.933 221.419 513.169 221.064L513.719 221.376C513.361 221.943 512.872 222.353 512.147 222.533ZM516.497 221.359C515.965 221.491 515.458 221.393 515.458 220.637V217.775L514.471 218.021V217.301L515.458 217.055V215.642L516.183 215.137V216.874L517.362 216.58V217.3L516.183 217.594V220.204C516.183 220.591 516.41 220.651 516.672 220.586L517.179 220.46V221.189L516.497 221.359Z" fill="#A22CFF"/>
<path d="M302.702 274.528C301.899 274.728 300.982 274.596 300.388 274.06L300.86 273.367C301.34 273.706 301.899 273.972 302.702 273.772C303.689 273.525 304.108 272.98 304.108 272.377C304.108 272.044 303.89 271.756 303.427 271.701L301.785 271.507C300.921 271.408 300.598 270.939 300.598 270.336C300.598 269.256 301.524 268.332 302.711 268.036C303.768 267.773 304.44 268.019 304.824 268.328L304.318 269.031C303.934 268.767 303.436 268.612 302.746 268.784C301.89 268.997 301.358 269.544 301.358 270.075C301.358 270.435 301.576 270.668 302.004 270.715L303.628 270.904C304.466 271.001 304.877 271.42 304.877 272.167C304.877 273.391 303.899 274.229 302.702 274.528ZM306.314 275.157V268.965L307.039 268.784V269.126C307.292 268.766 307.763 268.514 308.174 268.411C309.292 268.133 310.252 268.748 310.252 270.278C310.252 271.754 309.327 272.867 308.174 273.154C307.659 273.283 307.231 273.182 307.039 272.951V274.976L306.314 275.157ZM308.13 272.445C308.89 272.256 309.51 271.48 309.51 270.463C309.51 269.32 308.759 268.985 308.122 269.144C307.606 269.273 307.248 269.542 307.039 269.927V272.114C307.24 272.469 307.667 272.561 308.13 272.445ZM313.297 271.886C312.171 272.167 311.21 271.47 311.21 270.039C311.21 268.554 312.319 267.378 313.332 267.125C313.83 267.001 314.214 267.049 314.424 267.303V266.943L315.149 266.762V271.325L314.424 271.506V271.11C314.241 271.453 313.813 271.757 313.297 271.886ZM313.332 271.157C313.795 271.042 314.223 270.728 314.424 270.273V268.113C314.232 267.828 313.874 267.71 313.341 267.843C312.721 267.998 311.953 268.756 311.953 269.854C311.953 270.826 312.573 271.347 313.332 271.157ZM318.264 270.549C317.731 270.681 317.224 270.583 317.224 269.827V266.965L316.238 267.211V266.491L317.224 266.245V264.832L317.949 264.327V266.064L319.128 265.77V266.49L317.949 266.784V269.394C317.949 269.781 318.176 269.841 318.438 269.776L318.945 269.65V270.379L318.264 270.549ZM320.828 264.302C320.514 264.381 320.261 264.183 320.261 263.859C320.261 263.517 320.514 263.202 320.828 263.123C321.16 263.041 321.413 263.229 321.413 263.571C321.413 263.895 321.16 264.22 320.828 264.302ZM320.479 269.996V265.433L321.204 265.253V269.816L320.479 269.996ZM324.554 269.079C323.428 269.36 322.467 268.664 322.467 267.233C322.467 265.748 323.576 264.571 324.589 264.319C325.087 264.194 325.471 264.243 325.681 264.496V264.136L326.406 263.956V268.519L325.681 268.699V268.303C325.497 268.646 325.07 268.951 324.554 269.079ZM324.589 268.351C325.052 268.235 325.48 267.921 325.681 267.466V265.306C325.489 265.021 325.131 264.904 324.598 265.036C323.978 265.191 323.21 265.95 323.21 267.048C323.21 268.02 323.83 268.54 324.589 268.351ZM327.975 268.127V261.827L328.7 261.647V267.947L327.975 268.127Z" fill="#A22CFF"/>
<path d="M395.997 225.63L393.371 218.585L394.342 218.343L396.53 224.199L398.708 217.254L399.658 217.017L397.043 225.369L395.997 225.63ZM401.37 217.438C400.986 217.533 400.676 217.292 400.676 216.896C400.676 216.478 400.986 216.092 401.37 215.997C401.775 215.895 402.085 216.126 402.085 216.544C402.085 216.94 401.775 217.336 401.37 217.438ZM400.943 224.397V218.82L401.829 218.599V224.176L400.943 224.397ZM406.041 223.236C404.558 223.606 403.373 222.79 403.373 220.975C403.373 219.27 404.537 217.803 405.839 217.478C407.418 217.085 408.283 218.167 408.283 219.564V219.982L404.28 220.98C404.302 222.075 405.177 222.571 406.009 222.364C406.629 222.209 407.077 221.845 407.354 221.402L408.005 221.822C407.568 222.503 406.895 223.023 406.041 223.236ZM407.386 219.414C407.29 218.678 406.821 218.114 405.828 218.361C405.102 218.542 404.43 219.271 404.27 220.191L407.386 219.414ZM410.799 221.94L409.038 216.802L409.935 216.578L411.29 220.563L412.646 215.902L413.639 215.655L415.047 219.681L416.467 214.949L417.353 214.729L415.496 220.769L414.578 220.998L413.148 216.833L411.749 221.703L410.799 221.94ZM420.287 219.695C419.443 219.905 418.568 219.783 418.045 219.264L418.632 218.469C418.984 218.821 419.646 219.008 420.351 218.832C421.012 218.667 421.439 218.297 421.439 217.824C421.439 217.472 421.215 217.319 420.906 217.286L419.379 217.127C418.686 217.058 418.269 216.667 418.269 216.018C418.269 215.028 419.209 214.156 420.276 213.89C421.002 213.709 421.749 213.765 422.314 214.273L421.706 215.029C421.375 214.694 420.82 214.601 420.222 214.75C419.689 214.883 419.144 215.25 419.144 215.734C419.144 216.064 419.369 216.184 419.689 216.214L421.087 216.361C421.834 216.438 422.314 216.748 422.314 217.54C422.314 218.508 421.578 219.373 420.287 219.695Z" fill="#A22CFF"/>
<rect x="0.485148" y="0.379039" width="182.464" height="142.182" rx="1.5" transform="matrix(0.970296 -0.241922 0 1 225.733 299.595)" fill="#ECD5FF" stroke="#A22CFF"/>
<mask id="mask0_229_153" style="mask-type:alpha" maskUnits="userSpaceOnUse" x="225" y="255" width="179" height="188">
<path d="M225.719 301.408C225.719 300.342 226.558 299.268 227.592 299.01L401.86 255.56C402.894 255.302 403.733 255.958 403.733 257.024V396.344C403.733 397.411 402.894 398.484 401.86 398.742L227.592 442.192C226.558 442.45 225.719 441.795 225.719 440.728V301.408Z" fill="black"/>
</mask>
<g mask="url(#mask0_229_153)">
<rect x="0.485148" y="0.379039" width="55.1695" height="41.3555" rx="1.5" transform="matrix(0.970296 -0.241922 0 1 362.058 353.085)" fill="#E0F397" stroke="#7A950E"/>
<rect x="0.485148" y="0.379039" width="55.1695" height="41.3555" rx="1.5" transform="matrix(0.970296 -0.241922 0 1 324.746 334.61)" fill="#E0F397" stroke="#7A950E"/>
<rect x="0.485148" y="0.379039" width="38.5694" height="28.838" rx="1.5" transform="matrix(0.970296 -0.241922 0 1 250.465 389.483)" fill="#E0F397" stroke="#7A950E"/>
<rect x="0.485148" y="0.379039" width="38.5694" height="28.838" rx="1.5" transform="matrix(0.970296 -0.241922 0 1 271.812 328.728)" fill="#E0F397" stroke="#7A950E"/>
<rect x="0.485148" y="0.379039" width="38.5694" height="28.838" rx="1.5" transform="matrix(0.970296 -0.241922 0 1 340.853 264.783)" fill="#E0F397" stroke="#7A950E"/>
<rect x="0.485148" y="0.379039" width="38.5694" height="28.838" rx="1.5" transform="matrix(0.970296 -0.241922 0 1 212.071 347.128)" fill="#E0F397" stroke="#7A950E"/>
</g>
<rect x="0.485148" y="0.379039" width="182.464" height="142.182" rx="1.5" transform="matrix(0.970296 -0.241922 0 1 225.733 299.595)" stroke="#A22CFF"/>
<rect x="0.485148" y="0.379039" width="180.807" height="140.889" rx="1.5" transform="matrix(0.970296 -0.241922 0 1 415.089 253.247)" fill="#ECD5FF" stroke="#A22CFF"/>
<mask id="mask1_229_153" style="mask-type:alpha" maskUnits="userSpaceOnUse" x="415" y="209" width="177" height="186">
<path d="M415.075 255.043C415.075 253.986 415.906 252.922 416.932 252.667L589.625 209.609C590.651 209.354 591.482 210.003 591.482 211.06V349.122C591.482 350.179 590.651 351.243 589.625 351.498L416.932 394.556C415.906 394.811 415.075 394.162 415.075 393.105V255.043Z" fill="black"/>
</mask>
<g mask="url(#mask1_229_153)">
<path d="M429.88 262.722C429.88 261.614 430.754 260.499 431.829 260.236L475.925 249.429C476.993 249.167 477.857 249.845 477.857 250.947V387.169C477.857 388.276 476.984 389.391 475.909 389.655L431.813 400.462C430.744 400.724 429.88 400.045 429.88 398.944V262.722Z" fill="#7A950E" fill-opacity="0.2"/>
<path d="M480.994 250.204C480.994 249.096 481.868 247.981 482.943 247.718L527.039 236.911C528.108 236.649 528.972 237.327 528.972 238.429V374.651C528.972 375.759 528.098 376.873 527.023 377.137L482.927 387.944C481.858 388.206 480.994 387.527 480.994 386.426V250.204Z" fill="#7A950E" fill-opacity="0.2"/>
<path d="M532.108 236.872C532.108 235.764 532.982 234.649 534.057 234.386L578.153 223.579C579.222 223.317 580.086 223.995 580.086 225.097V361.319C580.086 362.427 579.212 363.541 578.137 363.805L534.041 374.612C532.972 374.874 532.108 374.195 532.108 373.094V236.872Z" fill="#7A950E" fill-opacity="0.2"/>
<rect x="0.485148" y="0.379039" width="37.6619" height="28.1536" rx="1.5" transform="matrix(0.970296 -0.241922 0 1 435.622 305.919)" fill="#E0F397" stroke="#7A950E"/>
<rect x="0.485148" y="0.379039" width="37.6619" height="28.1536" rx="1.5" transform="matrix(0.970296 -0.241922 0 1 537.639 278.27)" fill="#E0F397" stroke="#7A950E"/>
<rect x="0.485148" y="0.379039" width="37.6619" height="28.1536" rx="1.5" transform="matrix(0.970296 -0.241922 0 1 435.622 371.705)" fill="#E0F397" stroke="#7A950E"/>
<rect x="0.485148" y="0.379039" width="37.6619" height="28.1536" rx="1.5" transform="matrix(0.970296 -0.241922 0 1 435.622 273.138)" fill="#E0F397" stroke="#7A950E"/>
<rect width="27.9315" height="4.77461" rx="2" transform="matrix(0.970296 -0.241922 0 1 439.767 263.546)" fill="#7A950E"/>
<rect width="27.9315" height="4.77461" rx="2" transform="matrix(0.970296 -0.241922 0 1 542.108 236.31)" fill="#7A950E"/>
<path d="M490.609 252.586C490.609 251.488 491.467 250.382 492.531 250.106L498.119 248.659C499.198 248.38 500.078 249.059 500.078 250.171V250.945C500.078 252.042 499.22 253.149 498.156 253.424L492.568 254.872C491.489 255.151 490.609 254.472 490.609 253.36V252.586Z" fill="#7A950E"/>
<rect x="0.485148" y="0.379039" width="37.6619" height="28.1536" rx="1.5" transform="matrix(0.970296 -0.241922 0 1 486.63 259.314)" fill="#E0F397" stroke="#7A950E"/>
<rect x="0.485148" y="0.379039" width="37.6619" height="28.1536" rx="1.5" transform="matrix(0.970296 -0.241922 0 1 537.639 245.489)" fill="#E0F397" stroke="#7A950E"/>
<rect x="0.485148" y="0.379039" width="37.6619" height="28.1536" rx="1.5" transform="matrix(0.970296 -0.241922 0 1 435.622 338.924)" fill="#E0F397" stroke="#7A950E"/>
<rect x="0.485148" y="0.379039" width="37.6619" height="28.1536" rx="1.5" transform="matrix(0.970296 -0.241922 0 1 537.639 311.276)" fill="#E0F397" stroke="#7A950E"/>
</g>
<rect x="0.485148" y="0.379039" width="180.807" height="140.889" rx="1.5" transform="matrix(0.970296 -0.241922 0 1 415.089 253.247)" stroke="#A22CFF"/>
<path d="M401.525 97.4324L456.855 83.637C457.659 83.4366 458.31 83.9457 458.31 84.7741V127.086C458.31 127.915 457.659 128.749 456.855 128.949L401.525 142.744C400.721 142.945 400.069 142.436 400.069 141.607V99.2953C400.069 98.4669 400.721 97.6328 401.525 97.4324Z" fill="#ABF6D6" stroke="#329168"/>
<path d="M412.679 119.817V112.117L413.597 111.888V119.588L412.679 119.817ZM417.906 118.635C416.529 118.978 415.355 118.127 415.355 116.378C415.355 114.563 416.71 113.125 417.948 112.816C418.557 112.664 419.026 112.701 419.282 112.934V110.47L420.168 110.249V117.949L419.282 118.17V117.686C419.058 118.105 418.535 118.478 417.906 118.635ZM417.948 117.744C418.514 117.603 419.037 117.22 419.282 116.663V114.023C419.048 113.675 418.61 113.531 417.959 113.693C417.201 113.882 416.262 114.809 416.262 116.151C416.262 117.339 417.02 117.975 417.948 117.744ZM424.381 117.009C422.897 117.379 421.713 116.563 421.713 114.748C421.713 113.043 422.876 111.576 424.178 111.252C425.758 110.858 426.622 111.94 426.622 113.337V113.755L422.62 114.753C422.641 115.848 423.517 116.345 424.349 116.137C424.968 115.983 425.416 115.618 425.694 115.175L426.345 115.595C425.907 116.277 425.235 116.796 424.381 117.009ZM425.726 113.187C425.63 112.452 425.16 111.887 424.168 112.134C423.442 112.315 422.769 113.044 422.609 113.964L425.726 113.187ZM428.173 115.954V110.377L429.059 110.156V110.794C429.347 110.227 429.785 109.854 430.425 109.694C431.461 109.436 432.325 109.902 432.325 111.332V114.918L431.439 115.139V111.674C431.439 110.794 430.906 110.487 430.329 110.631C429.561 110.823 429.059 111.52 429.059 112.235V115.733L428.173 115.954ZM435.9 114.027C435.248 114.19 434.629 114.069 434.629 113.145V109.647L433.423 109.948V109.068L434.629 108.767V107.04L435.515 106.423V108.546L436.956 108.187V109.067L435.515 109.426V112.616C435.515 113.089 435.793 113.163 436.113 113.083L436.732 112.929V113.82L435.9 114.027ZM439.034 106.393C438.65 106.489 438.34 106.247 438.34 105.851C438.34 105.433 438.65 105.048 439.034 104.952C439.439 104.851 439.749 105.081 439.749 105.499C439.749 105.895 439.439 106.292 439.034 106.393ZM438.607 113.352V107.775L439.493 107.554V113.131L438.607 113.352ZM443.3 112.182C442.649 112.344 442.03 112.224 442.03 111.3V107.802L440.824 108.102V107.222L442.03 106.922V105.195L442.916 104.578V106.701L444.357 106.342V107.222L442.916 107.581V110.771C442.916 111.244 443.193 111.318 443.513 111.238L444.132 111.083V111.974L443.3 112.182ZM446.328 113.418L447.395 110.611L445.367 106.09L446.317 105.853L447.875 109.325L449.497 105.06L450.447 104.823L447.267 113.184L446.328 113.418Z" fill="#329168"/>
<path d="M292.236 146.817L399.584 119.412" stroke="#329168" stroke-linecap="round"/>
</svg>
