<svg width="700" height="500" viewBox="0 0 700 500" fill="none" xmlns="http://www.w3.org/2000/svg">
<rect width="700" height="500" fill="#ECECEC"/>
<path d="M471.138 76.68L547.933 57.5328C548.737 57.3324 549.388 57.8415 549.388 58.6699V117.771C549.388 118.599 548.737 119.433 547.933 119.633L471.138 138.781C470.334 138.981 469.682 138.472 469.682 137.643V78.5429C469.682 77.7144 470.334 76.8804 471.138 76.68Z" fill="#ABF6D6" stroke="#329168"/>
<path d="M500.658 103.755V102.809L501.341 102.638C501.939 102.489 502.387 101.937 502.387 101.222V95.6234L503.305 95.3945V101.214C503.305 102.402 502.44 103.31 501.384 103.574L500.658 103.755ZM507.525 102.163C506.053 102.53 504.964 101.537 504.964 99.8869C504.964 98.2479 506.053 96.7115 507.525 96.3442C508.998 95.977 510.098 96.9679 510.098 98.6069C510.098 100.257 508.998 101.796 507.525 102.163ZM507.525 101.283C508.497 101.041 509.19 99.9661 509.19 98.8441C509.19 97.7111 508.497 96.9821 507.525 97.2242C506.554 97.4664 505.871 98.5387 505.871 99.6717C505.871 100.794 506.554 101.525 507.525 101.283ZM513.895 94.756C514.931 94.4979 515.795 94.9643 515.795 96.3943V99.9803L514.909 100.201V96.7362C514.909 95.8562 514.376 95.5493 513.799 95.693C513.031 95.8846 512.529 96.5816 512.529 97.2966V100.795L511.643 101.016V93.3155L512.529 93.0946V95.8556C512.817 95.2888 513.255 94.9157 513.895 94.756ZM517.668 99.5134V93.9364L518.554 93.7155V94.3535C518.842 93.7867 519.28 93.4136 519.92 93.2539C520.955 92.9958 521.82 93.4622 521.82 94.8922V98.4782L520.934 98.6991V95.2341C520.934 94.3541 520.4 94.0472 519.824 94.1909C519.055 94.3825 518.554 95.0795 518.554 95.7945V99.2925L517.668 99.5134Z" fill="#329168"/>
<path d="M411.135 288.521L515.628 362.599" stroke="#FF2C2C" stroke-dasharray="2 2"/>
<rect x="0.485148" y="0.379039" width="257.937" height="201.084" rx="1.5" transform="matrix(0.970296 -0.241922 0 1 161.422 150.812)" fill="#FFC2C2" stroke="#FF2C2C"/>
<path d="M214.057 204.007L296.352 183.489C297.155 183.289 297.807 183.798 297.807 184.626V279.366C297.807 280.194 297.155 281.028 296.352 281.229L214.057 301.747C213.254 301.947 212.602 301.438 212.602 300.61V205.87C212.602 205.042 213.254 204.208 214.057 204.007Z" fill="#B5DDEA" stroke="#099FCE"/>
<path d="M235.064 220.143C233.026 220.651 231.723 219.194 231.723 216.994C231.723 214.794 233.026 212.687 235.064 212.179C236.206 211.894 237.007 212.223 237.53 212.906L236.772 213.667C236.43 213.18 235.822 212.936 235.053 213.128C233.677 213.471 232.663 215.088 232.663 216.76C232.663 218.432 233.677 219.543 235.053 219.2C235.822 219.008 236.43 218.471 236.772 217.825L237.54 218.173C237.017 219.128 236.206 219.858 235.064 220.143ZM241.061 218.626C239.588 218.993 238.5 217.999 238.5 216.349C238.5 214.71 239.588 213.174 241.061 212.807C242.534 212.44 243.634 213.43 243.634 215.069C243.634 216.719 242.534 218.259 241.061 218.626ZM241.061 217.746C242.033 217.504 242.726 216.429 242.726 215.307C242.726 214.174 242.033 213.445 241.061 213.687C240.09 213.929 239.407 215.001 239.407 216.134C239.407 217.256 240.09 217.988 241.061 217.746ZM245.179 217.478V209.778L246.065 209.557V217.257L245.179 217.478ZM247.983 216.779V209.079L248.869 208.858V216.558L247.983 216.779ZM253.082 215.618C251.598 215.988 250.413 215.172 250.413 213.357C250.413 211.652 251.577 210.185 252.879 209.86C254.458 209.466 255.323 210.549 255.323 211.946V212.364L251.321 213.362C251.342 214.457 252.217 214.953 253.05 214.746C253.669 214.591 254.117 214.227 254.394 213.783L255.045 214.204C254.608 214.885 253.935 215.405 253.082 215.618ZM254.426 211.795C254.33 211.06 253.861 210.495 252.868 210.743C252.142 210.924 251.47 211.653 251.31 212.573L254.426 211.795ZM259.158 214.103C257.653 214.478 256.5 213.533 256.5 211.861C256.5 210.189 257.664 208.667 259.158 208.295C260.055 208.071 260.684 208.299 261.09 208.77L260.407 209.479C260.129 209.175 259.692 209.053 259.147 209.188C258.176 209.431 257.408 210.436 257.408 211.635C257.408 212.823 258.176 213.468 259.147 213.225C259.692 213.09 260.119 212.741 260.407 212.306L261.079 212.689C260.642 213.381 260.044 213.882 259.158 214.103ZM264.475 212.667C263.824 212.829 263.205 212.709 263.205 211.785V208.287L261.999 208.587V207.707L263.205 207.407V205.68L264.091 205.063V207.186L265.532 206.827V207.707L264.091 208.066V211.256C264.091 211.729 264.368 211.803 264.688 211.723L265.307 211.569V212.46L264.475 212.667ZM267.609 205.033C267.225 205.128 266.916 204.887 266.916 204.491C266.916 204.073 267.225 203.687 267.609 203.592C268.015 203.49 268.324 203.721 268.324 204.139C268.324 204.535 268.015 204.931 267.609 205.033ZM267.182 211.992V206.415L268.068 206.194V211.771L267.182 211.992ZM272.174 210.868C270.701 211.236 269.613 210.242 269.613 208.592C269.613 206.953 270.701 205.417 272.174 205.049C273.647 204.682 274.746 205.673 274.746 207.312C274.746 208.962 273.647 210.501 272.174 210.868ZM272.174 209.988C273.145 209.746 273.839 208.671 273.839 207.549C273.839 206.416 273.145 205.687 272.174 205.929C271.203 206.172 270.52 207.244 270.52 208.377C270.52 209.499 271.203 210.231 272.174 209.988ZM276.292 209.721V204.144L277.178 203.923V204.561C277.466 203.994 277.904 203.621 278.544 203.461C279.58 203.203 280.444 203.67 280.444 205.1V208.686L279.558 208.906V205.441C279.558 204.561 279.025 204.254 278.448 204.398C277.68 204.59 277.178 205.287 277.178 206.002V209.5L276.292 209.721Z" fill="#099FCE"/>
<rect x="0.485148" y="0.379039" width="56.8936" height="42.6557" rx="1.5" transform="matrix(0.970296 -0.241922 0 1 229.509 238.003)" fill="#E0F397" stroke="#7A950E"/>
<path d="M242.784 257.349V249.649L243.936 249.362L247.266 254.769V248.532L248.184 248.303V256.003L247.021 256.293L243.701 250.895V257.121L242.784 257.349ZM252.502 255.047C251.03 255.414 249.941 254.421 249.941 252.771C249.941 251.132 251.03 249.595 252.502 249.228C253.975 248.861 255.075 249.852 255.075 251.491C255.075 253.141 253.975 254.68 252.502 255.047ZM252.502 254.167C253.474 253.925 254.168 252.85 254.168 251.728C254.168 250.595 253.474 249.866 252.502 250.108C251.531 250.35 250.848 251.423 250.848 252.556C250.848 253.678 251.531 254.409 252.502 254.167ZM258.798 253.478C257.421 253.821 256.247 252.97 256.247 251.221C256.247 249.406 257.602 247.968 258.84 247.659C259.449 247.507 259.918 247.544 260.175 247.777V245.313L261.061 245.092V252.792L260.175 253.013V252.529C259.951 252.948 259.428 253.321 258.798 253.478ZM258.84 252.587C259.406 252.446 259.929 252.062 260.175 251.506V248.866C259.94 248.518 259.502 248.374 258.851 248.536C258.093 248.725 257.154 249.652 257.154 250.994C257.154 252.182 257.912 252.818 258.84 252.587ZM265.273 251.852C263.79 252.222 262.605 251.406 262.605 249.591C262.605 247.886 263.768 246.419 265.07 246.095C266.65 245.701 267.515 246.783 267.515 248.18V248.598L263.512 249.596C263.534 250.691 264.409 251.188 265.241 250.98C265.86 250.826 266.309 250.461 266.586 250.018L267.237 250.438C266.8 251.12 266.127 251.639 265.273 251.852ZM266.618 248.03C266.522 247.295 266.052 246.73 265.06 246.977C264.334 247.158 263.662 247.887 263.502 248.807L266.618 248.03Z" fill="#7A950E"/>
<rect x="0.485148" y="0.379039" width="56.8936" height="42.6557" rx="1.5" transform="matrix(0.970296 -0.241922 0 1 237.684 244.815)" fill="#E0F397" stroke="#7A950E"/>
<path d="M255.219 265.85V258.15L256.372 257.863L259.702 263.27V257.033L260.62 256.804V264.504L259.457 264.794L256.137 259.396V265.622L255.219 265.85ZM264.938 263.548C263.465 263.915 262.377 262.922 262.377 261.272C262.377 259.633 263.465 258.096 264.938 257.729C266.411 257.362 267.511 258.353 267.511 259.992C267.511 261.642 266.411 263.181 264.938 263.548ZM264.938 262.668C265.91 262.426 266.603 261.351 266.603 260.229C266.603 259.096 265.91 258.367 264.938 258.609C263.967 258.851 263.284 259.924 263.284 261.057C263.284 262.179 263.967 262.91 264.938 262.668ZM271.234 261.979C269.857 262.322 268.683 261.471 268.683 259.722C268.683 257.907 270.038 256.469 271.276 256.16C271.885 256.008 272.354 256.045 272.611 256.278V253.814L273.496 253.593V261.293L272.611 261.514V261.03C272.386 261.449 271.863 261.822 271.234 261.979ZM271.276 261.088C271.842 260.947 272.365 260.564 272.611 260.007V257.367C272.376 257.019 271.938 256.875 271.287 257.037C270.529 257.226 269.59 258.153 269.59 259.495C269.59 260.683 270.348 261.32 271.276 261.088ZM277.709 260.353C276.226 260.723 275.041 259.907 275.041 258.092C275.041 256.387 276.204 254.92 277.506 254.596C279.086 254.202 279.951 255.284 279.951 256.681V257.099L275.948 258.097C275.969 259.192 276.845 259.689 277.677 259.481C278.296 259.327 278.744 258.962 279.022 258.519L279.673 258.939C279.235 259.621 278.563 260.14 277.709 260.353ZM279.054 256.531C278.958 255.796 278.488 255.231 277.496 255.478C276.77 255.659 276.098 256.388 275.937 257.308L279.054 256.531Z" fill="#7A950E"/>
<path d="M359.812 143.346L442.106 122.827C442.91 122.627 443.561 123.136 443.561 123.965V218.704C443.561 219.532 442.91 220.366 442.106 220.567L359.812 241.085C359.008 241.286 358.356 240.776 358.356 239.948V145.209C358.356 144.38 359.008 143.546 359.812 143.346Z" fill="#B5DDEA" stroke="#099FCE"/>
<path d="M380.819 159.481C378.78 159.989 377.478 158.532 377.478 156.332C377.478 154.132 378.78 152.025 380.819 151.517C381.961 151.232 382.761 151.561 383.284 152.244L382.526 153.005C382.185 152.519 381.576 152.274 380.808 152.466C379.431 152.809 378.417 154.426 378.417 156.098C378.417 157.77 379.431 158.881 380.808 158.538C381.576 158.346 382.185 157.81 382.526 157.163L383.295 157.511C382.772 158.466 381.961 159.196 380.819 159.481ZM386.816 157.964C385.343 158.331 384.254 157.338 384.254 155.688C384.254 154.049 385.343 152.512 386.816 152.145C388.289 151.778 389.388 152.769 389.388 154.408C389.388 156.058 388.289 157.597 386.816 157.964ZM386.816 157.084C387.787 156.842 388.481 155.767 388.481 154.645C388.481 153.512 387.787 152.783 386.816 153.025C385.844 153.267 385.161 154.339 385.161 155.472C385.161 156.594 385.844 157.326 386.816 157.084ZM390.934 156.816V149.116L391.819 148.895V156.595L390.934 156.816ZM393.737 156.117V148.417L394.623 148.196V155.896L393.737 156.117ZM398.836 154.956C397.352 155.326 396.168 154.51 396.168 152.695C396.168 150.99 397.331 149.523 398.633 149.198C400.213 148.805 401.077 149.887 401.077 151.284V151.702L397.075 152.7C397.096 153.795 397.971 154.291 398.804 154.084C399.423 153.93 399.871 153.565 400.149 153.122L400.8 153.542C400.362 154.223 399.69 154.743 398.836 154.956ZM400.181 151.134C400.085 150.399 399.615 149.834 398.623 150.081C397.897 150.262 397.224 150.991 397.064 151.911L400.181 151.134ZM404.912 153.441C403.407 153.816 402.255 152.871 402.255 151.199C402.255 149.527 403.418 148.005 404.912 147.633C405.809 147.409 406.439 147.637 406.844 148.108L406.161 148.818C405.884 148.513 405.446 148.391 404.902 148.527C403.93 148.769 403.162 149.774 403.162 150.973C403.162 152.161 403.93 152.806 404.902 152.564C405.446 152.428 405.873 152.079 406.161 151.645L406.834 152.027C406.396 152.719 405.798 153.22 404.912 153.441ZM410.229 152.005C409.578 152.168 408.959 152.047 408.959 151.123V147.625L407.753 147.926V147.046L408.959 146.745V145.018L409.845 144.401V146.524L411.286 146.165V147.045L409.845 147.404V150.594C409.845 151.067 410.123 151.141 410.443 151.061L411.062 150.907V151.798L410.229 152.005ZM413.364 144.371C412.979 144.467 412.67 144.225 412.67 143.829C412.67 143.411 412.979 143.026 413.364 142.93C413.769 142.829 414.079 143.059 414.079 143.477C414.079 143.873 413.769 144.27 413.364 144.371ZM412.937 151.33V145.753L413.823 145.532V151.109L412.937 151.33ZM417.929 150.207C416.456 150.574 415.367 149.58 415.367 147.93C415.367 146.291 416.456 144.755 417.929 144.388C419.402 144.02 420.501 145.011 420.501 146.65C420.501 148.3 419.402 149.839 417.929 150.207ZM417.929 149.327C418.9 149.084 419.594 148.009 419.594 146.887C419.594 145.754 418.9 145.025 417.929 145.268C416.957 145.51 416.274 146.582 416.274 147.715C416.274 148.837 416.957 149.569 417.929 149.327ZM422.047 149.059V143.482L422.932 143.261V143.899C423.221 143.332 423.658 142.959 424.299 142.799C425.334 142.541 426.198 143.008 426.198 144.438V148.024L425.313 148.245V144.78C425.313 143.9 424.779 143.593 424.203 143.736C423.434 143.928 422.932 144.625 422.932 145.34V148.838L422.047 149.059Z" fill="#099FCE"/>
<rect x="0.485148" y="0.379039" width="56.8936" height="42.6557" rx="1.5" transform="matrix(0.970296 -0.241922 0 1 375.264 177.341)" fill="#E0F397" stroke="#7A950E"/>
<path d="M388.538 196.688V188.988L389.691 188.7L393.021 194.107V187.87L393.939 187.641V195.341L392.775 195.631L389.456 190.233V196.459L388.538 196.688ZM398.257 194.386C396.784 194.753 395.695 193.759 395.695 192.109C395.695 190.47 396.784 188.934 398.257 188.567C399.73 188.199 400.829 189.19 400.829 190.829C400.829 192.479 399.73 194.018 398.257 194.386ZM398.257 193.506C399.228 193.263 399.922 192.188 399.922 191.066C399.922 189.933 399.228 189.204 398.257 189.447C397.286 189.689 396.603 190.761 396.603 191.894C396.603 193.016 397.286 193.748 398.257 193.506ZM404.552 192.816C403.175 193.159 402.001 192.308 402.001 190.559C402.001 188.744 403.357 187.306 404.595 186.997C405.203 186.846 405.673 186.883 405.929 187.116V184.652L406.815 184.431V192.131L405.929 192.352V191.868C405.705 192.287 405.182 192.659 404.552 192.816ZM404.595 191.925C405.161 191.784 405.684 191.401 405.929 190.845V188.205C405.694 187.856 405.257 187.712 404.606 187.875C403.848 188.064 402.908 188.991 402.908 190.333C402.908 191.521 403.666 192.157 404.595 191.925ZM411.028 191.19C409.544 191.56 408.359 190.745 408.359 188.93C408.359 187.225 409.523 185.758 410.825 185.433C412.405 185.039 413.269 186.122 413.269 187.519V187.937L409.267 188.935C409.288 190.029 410.163 190.526 410.996 190.318C411.615 190.164 412.063 189.799 412.34 189.356L412.992 189.777C412.554 190.458 411.882 190.978 411.028 191.19ZM412.373 187.368C412.276 186.633 411.807 186.068 410.814 186.316C410.088 186.497 409.416 187.225 409.256 188.145L412.373 187.368Z" fill="#7A950E"/>
<rect x="0.485148" y="0.379039" width="56.8936" height="42.6557" rx="1.5" transform="matrix(0.970296 -0.241922 0 1 383.439 184.154)" fill="#E0F397" stroke="#7A950E"/>
<path d="M400.974 205.189V197.489L402.127 197.201L405.457 202.608V196.371L406.375 196.142V203.842L405.211 204.132L401.892 198.734V204.96L400.974 205.189ZM410.693 202.886C409.22 203.254 408.131 202.26 408.131 200.61C408.131 198.971 409.22 197.435 410.693 197.067C412.166 196.7 413.265 197.691 413.265 199.33C413.265 200.98 412.166 202.519 410.693 202.886ZM410.693 202.006C411.664 201.764 412.358 200.689 412.358 199.567C412.358 198.434 411.664 197.705 410.693 197.947C409.721 198.19 409.038 199.262 409.038 200.395C409.038 201.517 409.721 202.249 410.693 202.006ZM416.988 201.317C415.611 201.66 414.437 200.809 414.437 199.06C414.437 197.245 415.793 195.807 417.031 195.498C417.639 195.346 418.109 195.383 418.365 195.616V193.152L419.251 192.932V200.632L418.365 200.852V200.368C418.141 200.787 417.618 201.16 416.988 201.317ZM417.031 200.426C417.596 200.285 418.119 199.902 418.365 199.345V196.705C418.13 196.357 417.692 196.213 417.041 196.375C416.284 196.564 415.344 197.492 415.344 198.834C415.344 200.022 416.102 200.658 417.031 200.426ZM423.464 199.691C421.98 200.061 420.795 199.246 420.795 197.431C420.795 195.726 421.959 194.258 423.261 193.934C424.84 193.54 425.705 194.622 425.705 196.019V196.437L421.702 197.435C421.724 198.53 422.599 199.027 423.432 198.819C424.051 198.665 424.499 198.3 424.776 197.857L425.427 198.278C424.99 198.959 424.317 199.478 423.464 199.691ZM424.808 195.869C424.712 195.134 424.243 194.569 423.25 194.816C422.524 194.997 421.852 195.726 421.692 196.646L424.808 195.869Z" fill="#7A950E"/>
<path d="M403.136 248.042L485.43 227.523C486.234 227.323 486.886 227.832 486.886 228.66V323.4C486.886 324.228 486.234 325.062 485.43 325.263L403.136 345.781C402.332 345.981 401.681 345.472 401.681 344.644V249.904C401.681 249.076 402.332 248.242 403.136 248.042Z" fill="#B5DDEA" stroke="#099FCE"/>
<path d="M424.143 264.177C422.104 264.685 420.802 263.228 420.802 261.028C420.802 258.828 422.104 256.721 424.143 256.213C425.285 255.928 426.086 256.257 426.609 256.94L425.851 257.701C425.509 257.215 424.901 256.97 424.132 257.162C422.755 257.505 421.742 259.122 421.742 260.794C421.742 262.466 422.755 263.577 424.132 263.234C424.901 263.042 425.509 262.506 425.851 261.859L426.619 262.207C426.096 263.162 425.285 263.892 424.143 264.177ZM430.14 262.66C428.667 263.027 427.579 262.034 427.579 260.384C427.579 258.745 428.667 257.208 430.14 256.841C431.613 256.474 432.712 257.465 432.712 259.104C432.712 260.754 431.613 262.293 430.14 262.66ZM430.14 261.78C431.111 261.538 431.805 260.463 431.805 259.341C431.805 258.208 431.111 257.479 430.14 257.721C429.169 257.963 428.486 259.035 428.486 260.168C428.486 261.29 429.169 262.022 430.14 261.78ZM434.258 261.512V253.812L435.144 253.591V261.291L434.258 261.512ZM437.062 260.813V253.113L437.948 252.892V260.592L437.062 260.813ZM442.16 259.652C440.677 260.022 439.492 259.206 439.492 257.391C439.492 255.686 440.656 254.219 441.958 253.894C443.537 253.501 444.402 254.583 444.402 255.98V256.398L440.399 257.396C440.421 258.491 441.296 258.987 442.128 258.78C442.747 258.626 443.196 258.261 443.473 257.818L444.124 258.238C443.687 258.919 443.014 259.439 442.16 259.652ZM443.505 255.83C443.409 255.095 442.94 254.53 441.947 254.777C441.221 254.958 440.549 255.687 440.389 256.607L443.505 255.83ZM448.237 258.137C446.732 258.512 445.579 257.568 445.579 255.896C445.579 254.224 446.743 252.701 448.237 252.329C449.133 252.105 449.763 252.333 450.169 252.804L449.486 253.514C449.208 253.209 448.771 253.087 448.226 253.223C447.255 253.465 446.486 254.47 446.486 255.669C446.486 256.857 447.255 257.502 448.226 257.26C448.771 257.124 449.197 256.775 449.486 256.341L450.158 256.723C449.72 257.415 449.123 257.916 448.237 258.137ZM453.554 256.701C452.903 256.864 452.284 256.743 452.284 255.819V252.321L451.078 252.622V251.742L452.284 251.441V249.714L453.17 249.097V251.22L454.61 250.861V251.741L453.17 252.1V255.29C453.17 255.763 453.447 255.837 453.767 255.757L454.386 255.603V256.494L453.554 256.701ZM456.688 249.067C456.304 249.163 455.994 248.921 455.994 248.525C455.994 248.107 456.304 247.722 456.688 247.626C457.094 247.525 457.403 247.755 457.403 248.173C457.403 248.569 457.094 248.966 456.688 249.067ZM456.261 256.026V250.449L457.147 250.228V255.805L456.261 256.026ZM461.253 254.903C459.78 255.27 458.691 254.276 458.691 252.626C458.691 250.987 459.78 249.451 461.253 249.084C462.726 248.716 463.825 249.707 463.825 251.346C463.825 252.996 462.726 254.535 461.253 254.903ZM461.253 254.023C462.224 253.78 462.918 252.705 462.918 251.583C462.918 250.45 462.224 249.721 461.253 249.964C460.282 250.206 459.599 251.278 459.599 252.411C459.599 253.533 460.282 254.265 461.253 254.023ZM465.371 253.755V248.178L466.257 247.957V248.595C466.545 248.028 466.983 247.655 467.623 247.495C468.658 247.237 469.523 247.704 469.523 249.134V252.72L468.637 252.941V249.476C468.637 248.596 468.103 248.289 467.527 248.432C466.759 248.624 466.257 249.321 466.257 250.036V253.534L465.371 253.755Z" fill="#099FCE"/>
<rect x="0.485148" y="0.379039" width="56.8936" height="42.6557" rx="1.5" transform="matrix(0.970296 -0.241922 0 1 418.588 282.037)" fill="#E0F397" stroke="#7A950E"/>
<path d="M431.862 301.384V293.684L433.015 293.396L436.345 298.803V292.566L437.263 292.337V300.037L436.1 300.327L432.78 294.929V301.155L431.862 301.384ZM441.581 299.081C440.108 299.449 439.02 298.455 439.02 296.805C439.02 295.166 440.108 293.63 441.581 293.262C443.054 292.895 444.154 293.886 444.154 295.525C444.154 297.175 443.054 298.714 441.581 299.081ZM441.581 298.201C442.553 297.959 443.246 296.884 443.246 295.762C443.246 294.629 442.553 293.9 441.581 294.142C440.61 294.385 439.927 295.457 439.927 296.59C439.927 297.712 440.61 298.444 441.581 298.201ZM447.877 297.512C446.5 297.855 445.326 297.004 445.326 295.255C445.326 293.44 446.681 292.002 447.919 291.693C448.528 291.541 448.997 291.578 449.253 291.811V289.347L450.139 289.127V296.827L449.253 297.047V296.563C449.029 296.982 448.506 297.355 447.877 297.512ZM447.919 296.621C448.485 296.48 449.008 296.097 449.253 295.54V292.9C449.019 292.552 448.581 292.408 447.93 292.57C447.172 292.759 446.233 293.687 446.233 295.029C446.233 296.217 446.991 296.853 447.919 296.621ZM454.352 295.886C452.869 296.256 451.684 295.441 451.684 293.626C451.684 291.921 452.847 290.453 454.149 290.129C455.729 289.735 456.593 290.817 456.593 292.214V292.632L452.591 293.63C452.612 294.725 453.488 295.222 454.32 295.014C454.939 294.86 455.387 294.495 455.665 294.052L456.316 294.473C455.878 295.154 455.206 295.673 454.352 295.886ZM455.697 292.064C455.601 291.329 455.131 290.764 454.139 291.011C453.413 291.192 452.74 291.921 452.58 292.841L455.697 292.064Z" fill="#7A950E"/>
<rect x="0.485148" y="0.379039" width="56.8936" height="42.6557" rx="1.5" transform="matrix(0.970296 -0.241922 0 1 426.763 288.85)" fill="#E0F397" stroke="#7A950E"/>
<path d="M444.298 309.885V302.185L445.451 301.897L448.781 307.304V301.067L449.699 300.838V308.538L448.536 308.828L445.216 303.43V309.656L444.298 309.885ZM454.017 307.582C452.544 307.95 451.456 306.956 451.456 305.306C451.456 303.667 452.544 302.131 454.017 301.763C455.49 301.396 456.589 302.387 456.589 304.026C456.589 305.676 455.49 307.215 454.017 307.582ZM454.017 306.702C454.988 306.46 455.682 305.385 455.682 304.263C455.682 303.13 454.988 302.401 454.017 302.643C453.046 302.886 452.363 303.958 452.363 305.091C452.363 306.213 453.046 306.945 454.017 306.702ZM460.313 306.013C458.936 306.356 457.762 305.505 457.762 303.756C457.762 301.941 459.117 300.503 460.355 300.194C460.964 300.043 461.433 300.079 461.689 300.313V297.849L462.575 297.628V305.328L461.689 305.549V305.065C461.465 305.483 460.942 305.856 460.313 306.013ZM460.355 305.122C460.921 304.981 461.444 304.598 461.689 304.042V301.402C461.455 301.053 461.017 300.909 460.366 301.072C459.608 301.26 458.669 302.188 458.669 303.53C458.669 304.718 459.427 305.354 460.355 305.122ZM466.788 304.387C465.304 304.757 464.12 303.942 464.12 302.127C464.12 300.422 465.283 298.955 466.585 298.63C468.165 298.236 469.029 299.318 469.029 300.715V301.133L465.027 302.131C465.048 303.226 465.923 303.723 466.756 303.515C467.375 303.361 467.823 302.996 468.101 302.553L468.752 302.974C468.314 303.655 467.642 304.174 466.788 304.387ZM468.133 300.565C468.037 299.83 467.567 299.265 466.575 299.513C465.849 299.693 465.176 300.422 465.016 301.342L468.133 300.565Z" fill="#7A950E"/>
<path d="M283.129 296.229L365.423 275.71C366.227 275.51 366.879 276.019 366.879 276.847V371.587C366.879 372.415 366.227 373.249 365.423 373.45L283.129 393.968C282.325 394.168 281.674 393.659 281.674 392.831V298.091C281.674 297.263 282.325 296.429 283.129 296.229Z" fill="#B5DDEA" stroke="#099FCE"/>
<path d="M304.136 312.364C302.097 312.872 300.795 311.415 300.795 309.215C300.795 307.015 302.097 304.908 304.136 304.4C305.278 304.115 306.078 304.444 306.601 305.127L305.844 305.888C305.502 305.402 304.894 305.157 304.125 305.349C302.748 305.692 301.734 307.309 301.734 308.981C301.734 310.653 302.748 311.764 304.125 311.421C304.894 311.229 305.502 310.693 305.844 310.046L306.612 310.394C306.089 311.349 305.278 312.079 304.136 312.364ZM310.133 310.847C308.66 311.214 307.571 310.221 307.571 308.571C307.571 306.932 308.66 305.395 310.133 305.028C311.606 304.661 312.705 305.652 312.705 307.291C312.705 308.941 311.606 310.48 310.133 310.847ZM310.133 309.967C311.104 309.725 311.798 308.65 311.798 307.528C311.798 306.395 311.104 305.666 310.133 305.908C309.162 306.15 308.479 307.222 308.479 308.355C308.479 309.477 309.162 310.209 310.133 309.967ZM314.251 309.699V301.999L315.137 301.778V309.478L314.251 309.699ZM317.055 309V301.3L317.941 301.079V308.779L317.055 309ZM322.153 307.839C320.67 308.209 319.485 307.393 319.485 305.578C319.485 303.873 320.648 302.406 321.951 302.082C323.53 301.688 324.395 302.77 324.395 304.167V304.585L320.392 305.583C320.414 306.678 321.289 307.174 322.121 306.967C322.74 306.813 323.189 306.448 323.466 306.005L324.117 306.425C323.68 307.106 323.007 307.626 322.153 307.839ZM323.498 304.017C323.402 303.282 322.932 302.717 321.94 302.964C321.214 303.145 320.542 303.874 320.382 304.794L323.498 304.017ZM328.23 306.324C326.725 306.699 325.572 305.755 325.572 304.083C325.572 302.411 326.735 300.888 328.23 300.516C329.126 300.292 329.756 300.52 330.162 300.991L329.478 301.701C329.201 301.396 328.763 301.274 328.219 301.41C327.248 301.652 326.479 302.657 326.479 303.856C326.479 305.044 327.248 305.689 328.219 305.447C328.763 305.311 329.19 304.962 329.478 304.528L330.151 304.91C329.713 305.602 329.116 306.103 328.23 306.324ZM333.547 304.888C332.896 305.051 332.277 304.93 332.277 304.006V300.508L331.07 300.809V299.929L332.277 299.628V297.901L333.162 297.284V299.407L334.603 299.048V299.928L333.162 300.287V303.477C333.162 303.95 333.44 304.024 333.76 303.944L334.379 303.79V304.681L333.547 304.888ZM336.681 297.254C336.297 297.35 335.987 297.108 335.987 296.712C335.987 296.294 336.297 295.909 336.681 295.813C337.087 295.712 337.396 295.942 337.396 296.36C337.396 296.756 337.087 297.153 336.681 297.254ZM336.254 304.213V298.636L337.14 298.415V303.992L336.254 304.213ZM341.246 303.09C339.773 303.457 338.684 302.463 338.684 300.813C338.684 299.174 339.773 297.638 341.246 297.271C342.719 296.903 343.818 297.894 343.818 299.533C343.818 301.183 342.719 302.722 341.246 303.09ZM341.246 302.21C342.217 301.967 342.911 300.892 342.911 299.77C342.911 298.637 342.217 297.908 341.246 298.151C340.275 298.393 339.592 299.465 339.592 300.598C339.592 301.72 340.275 302.452 341.246 302.21ZM345.364 301.942V296.365L346.25 296.144V296.782C346.538 296.215 346.976 295.842 347.616 295.682C348.651 295.424 349.516 295.891 349.516 297.321V300.907L348.63 301.128V297.663C348.63 296.783 348.096 296.476 347.52 296.619C346.751 296.811 346.25 297.508 346.25 298.223V301.721L345.364 301.942Z" fill="#099FCE"/>
<rect x="0.485148" y="0.379039" width="56.8936" height="42.6557" rx="1.5" transform="matrix(0.970296 -0.241922 0 1 298.581 330.224)" fill="#E0F397" stroke="#7A950E"/>
<path d="M311.855 349.571V341.871L313.008 341.583L316.338 346.99V340.753L317.256 340.524V348.224L316.093 348.514L312.773 343.116V349.342L311.855 349.571ZM321.574 347.268C320.101 347.636 319.013 346.642 319.013 344.992C319.013 343.353 320.101 341.817 321.574 341.449C323.047 341.082 324.146 342.073 324.146 343.712C324.146 345.362 323.047 346.901 321.574 347.268ZM321.574 346.388C322.545 346.146 323.239 345.071 323.239 343.949C323.239 342.816 322.545 342.087 321.574 342.329C320.603 342.572 319.92 343.644 319.92 344.777C319.92 345.899 320.603 346.631 321.574 346.388ZM327.869 345.699C326.493 346.042 325.319 345.191 325.319 343.442C325.319 341.627 326.674 340.189 327.912 339.88C328.521 339.728 328.99 339.765 329.246 339.998V337.534L330.132 337.314V345.014L329.246 345.234V344.75C329.022 345.169 328.499 345.542 327.869 345.699ZM327.912 344.808C328.478 344.667 329.001 344.284 329.246 343.727V341.087C329.012 340.739 328.574 340.595 327.923 340.757C327.165 340.946 326.226 341.874 326.226 343.216C326.226 344.404 326.984 345.04 327.912 344.808ZM334.345 344.073C332.861 344.443 331.677 343.628 331.677 341.813C331.677 340.108 332.84 338.64 334.142 338.316C335.722 337.922 336.586 339.004 336.586 340.401V340.819L332.584 341.817C332.605 342.912 333.48 343.409 334.313 343.201C334.932 343.047 335.38 342.682 335.658 342.239L336.309 342.66C335.871 343.341 335.199 343.86 334.345 344.073ZM335.69 340.251C335.594 339.516 335.124 338.951 334.132 339.198C333.406 339.379 332.733 340.108 332.573 341.028L335.69 340.251Z" fill="#7A950E"/>
<rect x="0.485148" y="0.379039" width="56.8936" height="42.6557" rx="1.5" transform="matrix(0.970296 -0.241922 0 1 306.756 337.036)" fill="#E0F397" stroke="#7A950E"/>
<path d="M324.291 358.071V350.371L325.444 350.084L328.774 355.491V349.254L329.692 349.025V356.725L328.528 357.015L325.209 351.617V357.843L324.291 358.071ZM334.01 355.769C332.537 356.136 331.448 355.143 331.448 353.493C331.448 351.854 332.537 350.317 334.01 349.95C335.483 349.583 336.582 350.574 336.582 352.213C336.582 353.863 335.483 355.402 334.01 355.769ZM334.01 354.889C334.981 354.647 335.675 353.572 335.675 352.45C335.675 351.317 334.981 350.588 334.01 350.83C333.039 351.072 332.356 352.145 332.356 353.278C332.356 354.4 333.039 355.131 334.01 354.889ZM340.305 354.2C338.929 354.543 337.754 353.692 337.754 351.943C337.754 350.128 339.11 348.69 340.348 348.381C340.956 348.229 341.426 348.266 341.682 348.499V346.035L342.568 345.814V353.514L341.682 353.735V353.251C341.458 353.67 340.935 354.043 340.305 354.2ZM340.348 353.309C340.914 353.168 341.437 352.785 341.682 352.228V349.588C341.447 349.24 341.01 349.096 340.359 349.258C339.601 349.447 338.662 350.374 338.662 351.716C338.662 352.904 339.419 353.54 340.348 353.309ZM346.781 352.574C345.297 352.944 344.113 352.128 344.113 350.313C344.113 348.608 345.276 347.141 346.578 346.817C348.158 346.423 349.022 347.505 349.022 348.902V349.32L345.02 350.318C345.041 351.413 345.916 351.91 346.749 351.702C347.368 351.548 347.816 351.183 348.094 350.74L348.745 351.16C348.307 351.842 347.635 352.361 346.781 352.574ZM348.126 348.752C348.03 348.017 347.56 347.452 346.567 347.699C345.842 347.88 345.169 348.609 345.009 349.529L348.126 348.752Z" fill="#7A950E"/>
<path d="M266.274 150.268V142.568L267.405 142.286L269.359 144.956L271.312 141.312L272.401 141.041V148.741L271.483 148.97V142.755L269.391 146.565L269.295 146.589L267.192 143.77V150.04L266.274 150.268ZM274.962 141.249C274.577 141.345 274.268 141.103 274.268 140.707C274.268 140.289 274.577 139.904 274.962 139.808C275.367 139.707 275.677 139.938 275.677 140.356C275.677 140.752 275.367 141.148 274.962 141.249ZM274.535 148.209V142.632L275.421 142.411V147.988L274.535 148.209ZM279.623 147.05C278.118 147.426 276.965 146.481 276.965 144.809C276.965 143.137 278.128 141.615 279.623 141.242C280.519 141.019 281.149 141.247 281.554 141.718L280.871 142.427C280.594 142.122 280.156 142 279.612 142.136C278.641 142.378 277.872 143.384 277.872 144.583C277.872 145.771 278.641 146.415 279.612 146.173C280.156 146.037 280.583 145.689 280.871 145.254L281.544 145.636C281.106 146.328 280.508 146.829 279.623 147.05ZM283.05 146.086V140.509L283.936 140.288V141.124C284.128 140.603 284.705 140.052 285.452 139.866C285.879 139.759 286.167 139.754 286.466 139.888L286.039 140.875C285.879 140.793 285.655 140.794 285.377 140.864C284.715 141.029 284.096 141.579 283.936 142.587V145.865L283.05 146.086ZM289.72 144.544C288.247 144.911 287.159 143.917 287.159 142.267C287.159 140.628 288.247 139.092 289.72 138.725C291.193 138.357 292.293 139.348 292.293 140.987C292.293 142.637 291.193 144.176 289.72 144.544ZM289.72 143.664C290.692 143.421 291.385 142.347 291.385 141.225C291.385 140.092 290.692 139.362 289.72 139.605C288.749 139.847 288.066 140.919 288.066 142.052C288.066 143.174 288.749 143.906 289.72 143.664ZM296.122 142.936C294.617 143.312 293.465 142.367 293.465 140.695C293.465 139.023 294.628 137.501 296.122 137.128C297.019 136.905 297.649 137.133 298.054 137.604L297.371 138.313C297.094 138.008 296.656 137.886 296.112 138.022C295.14 138.264 294.372 139.27 294.372 140.469C294.372 141.657 295.14 142.301 296.112 142.059C296.656 141.923 297.083 141.575 297.371 141.14L298.043 141.522C297.606 142.215 297.008 142.716 296.122 142.936ZM301.634 141.573C300.161 141.94 299.072 140.947 299.072 139.297C299.072 137.658 300.161 136.121 301.634 135.754C303.107 135.387 304.206 136.378 304.206 138.017C304.206 139.667 303.107 141.206 301.634 141.573ZM301.634 140.693C302.605 140.451 303.299 139.376 303.299 138.254C303.299 137.121 302.605 136.392 301.634 136.634C300.663 136.876 299.98 137.949 299.98 139.082C299.98 140.204 300.663 140.935 301.634 140.693ZM307.46 140.121C306.616 140.331 305.741 140.208 305.218 139.69L305.805 138.894C306.157 139.246 306.819 139.433 307.524 139.258C308.185 139.093 308.612 138.722 308.612 138.249C308.612 137.897 308.388 137.744 308.079 137.711L306.552 137.553C305.859 137.484 305.442 137.093 305.442 136.444C305.442 135.454 306.382 134.582 307.449 134.315C308.175 134.134 308.922 134.19 309.487 134.698L308.879 135.455C308.548 135.119 307.993 135.027 307.396 135.176C306.862 135.309 306.318 135.675 306.318 136.159C306.318 136.489 306.542 136.61 306.862 136.64L308.26 136.786C309.007 136.864 309.487 137.173 309.487 137.965C309.487 138.933 308.751 139.799 307.46 140.121ZM311.036 139.108V133.531L311.922 133.31V133.838C312.178 133.345 312.563 133.029 313.107 132.894C313.662 132.755 314.1 132.899 314.388 133.333C314.708 132.704 315.252 132.359 315.743 132.236C316.853 131.96 317.558 132.576 317.558 133.621V137.482L316.672 137.703V133.919C316.672 133.259 316.266 133.008 315.733 133.141C315.231 133.266 314.74 133.741 314.74 134.401V138.185L313.854 138.405V134.621C313.854 133.961 313.395 133.724 312.883 133.852C312.36 133.982 311.922 134.443 311.922 135.103V138.887L311.036 139.108Z" fill="#FF2C2C"/>
<path d="M162.748 151.208L267.241 225.285" stroke="#FF2C2C" stroke-dasharray="2 2"/>
<path d="M162.748 352.677L267.241 426.755" stroke="#FF2C2C" stroke-dasharray="2 2"/>
<path d="M411.135 88.0522L515.628 162.13" stroke="#FF2C2C" stroke-dasharray="2 2"/>
<path d="M268.339 425.791C268.147 425.839 267.974 425.844 267.824 425.819L267.744 426.313C267.249 426.233 266.855 425.924 266.659 425.462L267.119 425.267C267.059 425.127 267.023 424.957 267.023 424.759V423.769H266.523V421.788H267.023V419.807H266.523V417.826H267.023V415.846H266.523V413.865H267.023V411.884H266.523V409.903H267.023V407.922H266.523V405.941H267.023V403.96H266.523V401.98H267.023V399.999H266.523V398.018H267.023V396.037H266.523V394.056H267.023V392.075H266.523V390.095H267.023V388.114H266.523V386.133H267.023V384.152H266.523V382.171H267.023V380.19H266.523V378.21H267.023V376.229H266.523V374.248H267.023V372.267H266.523V370.286H267.023V368.305H266.523V366.325H267.023V364.344H266.523V362.363H267.023V360.382H266.523V358.401H267.023V356.42H266.523V354.44H267.023V352.459H266.523V350.478H267.023V348.497H266.523V346.516H267.023V344.535H266.523V342.555H267.023V340.574H266.523V338.593H267.023V336.612H266.523V334.631H267.023V332.65H266.523V330.67H267.023V328.689H266.523V326.708H267.023V324.727H266.523V322.746H267.023V320.765H266.523V318.785H267.023V316.804H266.523V314.823H267.023V312.842H266.523V310.861H267.023V308.88H266.523V306.9H267.023V304.919H266.523V302.938H267.023V300.957H266.523V298.976H267.023V296.995H266.523V295.015H267.023V293.034H266.523V291.053H267.023V289.072H266.523V287.091H267.023V285.11H266.523V283.13H267.023V281.149H266.523V279.168H267.023V277.187H266.523V275.206H267.023V273.225H266.523V271.245H267.023V269.264H266.523V267.283H267.023V265.302H266.523V263.321H267.023V261.34H266.523V259.36H267.023V257.379H266.523V255.398H267.023V253.417H266.523V251.436H267.023V249.455H266.523V247.475H267.023V245.494H266.523V243.513H267.023V241.532H266.523V239.551H267.023V237.57H266.523V235.59H267.023V233.609H266.523V231.628H267.023V229.647H266.523V227.666H267.023V226.676C267.023 226.462 267.065 226.242 267.146 226.026L266.678 225.85C266.875 225.328 267.244 224.857 267.703 224.54L267.987 224.952C268.177 224.821 268.38 224.727 268.587 224.676L269.554 224.437L269.434 223.952L271.367 223.474L271.487 223.959L273.42 223.482L273.3 222.996L275.234 222.518L275.354 223.004L277.287 222.526L277.167 222.041L279.1 221.563L279.22 222.048L281.153 221.57L281.033 221.085L282.967 220.607L283.087 221.092L285.02 220.615L284.9 220.129L286.833 219.651L286.953 220.137L288.887 219.659L288.767 219.174L290.7 218.696L290.82 219.181L292.753 218.703L292.633 218.218L294.566 217.74L294.686 218.225L296.62 217.748L296.5 217.262L298.433 216.784L298.553 217.27L300.486 216.792L300.366 216.307L302.299 215.829L302.419 216.314L304.353 215.836L304.233 215.351L306.166 214.873L306.286 215.358L308.219 214.881L308.099 214.395L310.033 213.917L310.153 214.403L312.086 213.925L311.966 213.44L313.899 212.962L314.019 213.447L315.952 212.969L315.832 212.484L317.766 212.006L317.886 212.492L319.819 212.014L319.699 211.528L321.632 211.05L321.752 211.536L323.686 211.058L323.566 210.573L325.499 210.095L325.619 210.58L327.552 210.102L327.432 209.617L329.365 209.139L329.485 209.625L331.419 209.147L331.299 208.661L333.232 208.183L333.352 208.669L335.285 208.191L335.165 207.706L337.098 207.228L337.218 207.713L339.152 207.235L339.032 206.75L340.965 206.272L341.085 206.758L343.018 206.28L342.898 205.794L344.832 205.317L344.952 205.802L346.885 205.324L346.765 204.839L348.698 204.361L348.818 204.846L350.751 204.368L350.631 203.883L352.565 203.405L352.685 203.891L354.618 203.413L354.498 202.927L356.431 202.45L356.551 202.935L358.484 202.457L358.364 201.972L360.298 201.494L360.418 201.979L362.351 201.501L362.231 201.016L364.164 200.538L364.284 201.024L366.218 200.546L366.098 200.06L368.031 199.583L368.151 200.068L370.084 199.59L369.964 199.105L371.897 198.627L372.017 199.112L373.951 198.634L373.831 198.149L375.764 197.671L375.884 198.157L377.817 197.679L377.697 197.193L379.63 196.716L379.75 197.201L381.684 196.723L381.564 196.238L383.497 195.76L383.617 196.245L385.55 195.767L385.43 195.282L387.364 194.804L387.484 195.29L389.417 194.812L389.297 194.326L391.23 193.849L391.35 194.334L393.283 193.856L393.163 193.371L395.097 192.893L395.217 193.378L397.15 192.901L397.03 192.415L398.963 191.937L399.083 192.423L401.016 191.945L400.896 191.459L402.83 190.982L402.95 191.467L404.883 190.989L404.763 190.504L406.696 190.026L406.816 190.511L408.75 190.034L408.63 189.548L410.563 189.07L410.683 189.556L412.616 189.078L412.496 188.592L414.429 188.115L414.549 188.6L416.483 188.122L416.363 187.637L418.296 187.159L418.416 187.644L420.349 187.167L420.229 186.681L422.163 186.203L422.283 186.689L424.216 186.211L424.096 185.725L426.029 185.248L426.149 185.733L428.082 185.255L427.962 184.77L429.896 184.292L430.016 184.777L431.949 184.3L431.829 183.814L433.762 183.336L433.882 183.822L435.815 183.344L435.696 182.859L437.629 182.381L437.749 182.866L439.682 182.388L439.562 181.903L441.495 181.425L441.615 181.91L443.549 181.433L443.429 180.947L445.362 180.469L445.482 180.955L447.415 180.477L447.295 179.992L449.228 179.514L449.348 179.999L451.282 179.521L451.162 179.036L453.095 178.558L453.215 179.043L455.148 178.566L455.028 178.08L456.962 177.602L457.082 178.088L459.015 177.61L458.895 177.125L460.828 176.647L460.948 177.132L462.881 176.654L462.761 176.169L464.695 175.691L464.815 176.176L466.748 175.699L466.628 175.213L468.561 174.735L468.681 175.221L470.615 174.743L470.495 174.258L472.428 173.78L472.548 174.265L474.481 173.787L474.361 173.302L476.294 172.824L476.414 173.309L478.348 172.832L478.228 172.346L480.161 171.868L480.281 172.354L482.214 171.876L482.094 171.391L484.028 170.913L484.147 171.398L486.081 170.92L485.961 170.435L487.894 169.957L488.014 170.442L489.947 169.965L489.827 169.479L491.761 169.001L491.881 169.487L493.814 169.009L493.694 168.524L495.627 168.046L495.747 168.531L497.68 168.053L497.56 167.568L499.494 167.09L499.614 167.575L501.547 167.098L501.427 166.612L503.36 166.134L503.48 166.62L505.414 166.142L505.294 165.657L507.227 165.179L507.347 165.664L509.28 165.186L509.16 164.701L511.093 164.223L511.213 164.708L513.147 164.231L513.027 163.745L514.96 163.267L515.08 163.753L516.046 163.514C516.239 163.466 516.412 163.461 516.561 163.486L516.642 162.992C517.136 163.072 517.531 163.381 517.727 163.843L517.267 164.039C517.326 164.178 517.363 164.348 517.363 164.546V165.536H517.863V167.517H517.363V169.498H517.863V171.479H517.363V173.46H517.863V175.44H517.363V177.421H517.863V179.402H517.363V181.383H517.863V183.364H517.363V185.345H517.863V187.325H517.363V189.306H517.863V191.287H517.363V193.268H517.863V195.249H517.363V197.23H517.863V199.21H517.363V201.191H517.863V203.172H517.363V205.153H517.863V207.134H517.363V209.115H517.863V211.095H517.363V213.076H517.863V215.057H517.363V217.038H517.863V219.019H517.363V221H517.863V222.98H517.363V224.961H517.863V226.942H517.363V228.923H517.863V230.904H517.363V232.885H517.863V234.865H517.363V236.846H517.863V238.827H517.363V240.808H517.863V242.789H517.363V244.77H517.863V246.75H517.363V248.731H517.863V250.712H517.363V252.693H517.863V254.674H517.363V256.655H517.863V258.635H517.363V260.616H517.863V262.597H517.363V264.578H517.863V266.559H517.363V268.54H517.863V270.52H517.363V272.501H517.863V274.482H517.363V276.463H517.863V278.444H517.363V280.425H517.863V282.405H517.363V284.386H517.863V286.367H517.363V288.348H517.863V290.329H517.363V292.31H517.863V294.29H517.363V296.271H517.863V298.252H517.363V300.233H517.863V302.214H517.363V304.195H517.863V306.175H517.363V308.156H517.863V310.137H517.363V312.118H517.863V314.099H517.363V316.08H517.863V318.061H517.363V320.041H517.863V322.022H517.363V324.003H517.863V325.984H517.363V327.965H517.863V329.946H517.363V331.926H517.863V333.907H517.363V335.888H517.863V337.869H517.363V339.85H517.863V341.831H517.363V343.811H517.863V345.792H517.363V347.773H517.863V349.754H517.363V351.735H517.863V353.716H517.363V355.696H517.863V357.677H517.363V359.658H517.863V361.639H517.363V362.629C517.363 362.843 517.32 363.063 517.239 363.279L517.707 363.455C517.51 363.977 517.142 364.448 516.682 364.765L516.398 364.353C516.208 364.484 516.005 364.578 515.798 364.629L514.832 364.868L514.952 365.353L513.018 365.831L512.898 365.346L510.965 365.823L511.085 366.309L509.152 366.787L509.032 366.301L507.099 366.779L507.218 367.264L505.285 367.742L505.165 367.257L503.232 367.735L503.352 368.22L501.419 368.698L501.299 368.213L499.365 368.69L499.485 369.176L497.552 369.654L497.432 369.168L495.499 369.646L495.619 370.131L493.686 370.609L493.566 370.124L491.632 370.602L491.752 371.087L489.819 371.565L489.699 371.08L487.766 371.557L487.886 372.043L485.952 372.521L485.832 372.035L483.899 372.513L484.019 372.998L482.086 373.476L481.966 372.991L480.033 373.469L480.153 373.954L478.219 374.432L478.099 373.947L476.166 374.424L476.286 374.91L474.353 375.388L474.233 374.902L472.3 375.38L472.42 375.865L470.486 376.343L470.366 375.858L468.433 376.336L468.553 376.821L466.62 377.299L466.5 376.814L464.566 377.291L464.686 377.777L462.753 378.255L462.633 377.769L460.7 378.247L460.82 378.732L458.887 379.21L458.767 378.725L456.833 379.203L456.953 379.688L455.02 380.166L454.9 379.68L452.967 380.158L453.087 380.644L451.153 381.122L451.034 380.636L449.1 381.114L449.22 381.599L447.287 382.077L447.167 381.592L445.234 382.07L445.354 382.555L443.42 383.033L443.3 382.547L441.367 383.025L441.487 383.511L439.554 383.989L439.434 383.503L437.501 383.981L437.621 384.466L435.687 384.944L435.567 384.459L433.634 384.937L433.754 385.422L431.821 385.9L431.701 385.414L429.768 385.892L429.887 386.378L427.954 386.855L427.834 386.37L425.901 386.848L426.021 387.333L424.088 387.811L423.968 387.326L422.034 387.804L422.154 388.289L420.221 388.767L420.101 388.281L418.168 388.759L418.288 389.245L416.355 389.722L416.235 389.237L414.301 389.715L414.421 390.2L412.488 390.678L412.368 390.193L410.435 390.671L410.555 391.156L408.621 391.634L408.502 391.148L406.568 391.626L406.688 392.112L404.755 392.589L404.635 392.104L402.702 392.582L402.822 393.067L400.888 393.545L400.768 393.06L398.835 393.538L398.955 394.023L397.022 394.501L396.902 394.015L394.969 394.493L395.089 394.979L393.155 395.456L393.035 394.971L391.102 395.449L391.222 395.934L389.289 396.412L389.169 395.927L387.236 396.405L387.355 396.89L385.422 397.368L385.302 396.882L383.369 397.36L383.489 397.846L381.556 398.323L381.436 397.838L379.502 398.316L379.622 398.801L377.689 399.279L377.569 398.794L375.636 399.271L375.756 399.757L373.823 400.235L373.703 399.749L371.769 400.227L371.889 400.713L369.956 401.19L369.836 400.705L367.903 401.183L368.023 401.668L366.089 402.146L365.969 401.661L364.036 402.138L364.156 402.624L362.223 403.102L362.103 402.616L360.17 403.094L360.29 403.58L358.356 404.057L358.236 403.572L356.303 404.05L356.423 404.535L354.49 405.013L354.37 404.528L352.436 405.005L352.556 405.491L350.623 405.969L350.503 405.483L348.57 405.961L348.69 406.447L346.757 406.924L346.637 406.439L344.703 406.917L344.823 407.402L342.89 407.88L342.77 407.395L340.837 407.872L340.957 408.358L339.023 408.836L338.904 408.35L336.97 408.828L337.09 409.314L335.157 409.791L335.037 409.306L333.104 409.784L333.224 410.269L331.29 410.747L331.17 410.262L329.237 410.739L329.357 411.225L327.424 411.703L327.304 411.217L325.371 411.695L325.491 412.18L323.557 412.658L323.437 412.173L321.504 412.651L321.624 413.136L319.691 413.614L319.571 413.129L317.637 413.606L317.757 414.092L315.824 414.57L315.704 414.084L313.771 414.562L313.891 415.047L311.958 415.525L311.838 415.04L309.904 415.518L310.024 416.003L308.091 416.481L307.971 415.996L306.038 416.473L306.158 416.959L304.224 417.437L304.104 416.951L302.171 417.429L302.291 417.914L300.358 418.392L300.238 417.907L298.305 418.385L298.425 418.87L296.491 419.348L296.371 418.863L294.438 419.34L294.558 419.826L292.625 420.304L292.505 419.818L290.572 420.296L290.691 420.781L288.758 421.259L288.638 420.774L286.705 421.252L286.825 421.737L284.892 422.215L284.772 421.73L282.838 422.207L282.958 422.693L281.025 423.171L280.905 422.685L278.972 423.163L279.092 423.648L277.159 424.126L277.039 423.641L275.105 424.119L275.225 424.604L273.292 425.082L273.172 424.597L271.239 425.074L271.359 425.56L269.425 426.038L269.305 425.552L268.339 425.791Z" stroke="#FF2C2C" stroke-dasharray="2 2"/>
<path d="M168.674 380.367L245.469 361.22C246.273 361.019 246.925 361.528 246.925 362.357V421.458C246.925 422.286 246.273 423.12 245.469 423.32L168.674 442.468C167.87 442.668 167.219 442.159 167.219 441.331V382.23C167.219 381.401 167.87 380.567 168.674 380.367Z" fill="#ABF6D6" stroke="#329168"/>
<path d="M81.4353 237.074L180.066 212.482C180.87 212.282 181.521 212.791 181.521 213.619V276.119C181.521 276.947 180.87 277.781 180.066 277.982L81.4353 302.573C80.6315 302.774 79.9799 302.265 79.9799 301.436V238.936C79.9799 238.108 80.6315 237.274 81.4353 237.074Z" fill="#ABF6D6" stroke="#329168"/>
<path d="M104.89 267.814L107.334 259.505L108.733 259.156L111.198 266.241L110.237 266.481L109.576 264.589L106.47 265.363L105.819 267.583L104.89 267.814ZM106.769 264.343L109.277 263.718L108.028 260.102L106.769 264.343ZM112.371 265.949V260.372L113.257 260.151V260.789C113.545 260.222 113.982 259.849 114.623 259.69C115.658 259.432 116.523 259.898 116.523 261.328V264.914L115.637 265.135V261.67C115.637 260.79 115.103 260.483 114.527 260.627C113.758 260.818 113.257 261.515 113.257 262.23V265.728L112.371 265.949ZM120.583 264.023C119.11 264.39 118.022 263.396 118.022 261.746C118.022 260.107 119.11 258.571 120.583 258.204C122.056 257.836 123.155 258.827 123.155 260.466C123.155 262.116 122.056 263.655 120.583 264.023ZM120.583 263.143C121.554 262.9 122.248 261.825 122.248 260.703C122.248 259.57 121.554 258.841 120.583 259.084C119.612 259.326 118.929 260.398 118.929 261.531C118.929 262.653 119.612 263.385 120.583 263.143ZM124.701 262.875V257.298L125.587 257.077V257.715C125.875 257.148 126.313 256.775 126.953 256.615C127.989 256.357 128.853 256.824 128.853 258.254V261.84L127.967 262.06V258.595C127.967 257.715 127.434 257.409 126.857 257.552C126.089 257.744 125.587 258.441 125.587 259.156V262.654L124.701 262.875ZM130.89 263.323L131.957 260.516L129.929 255.994L130.879 255.758L132.437 259.23L134.06 254.964L135.009 254.728L131.829 263.089L130.89 263.323ZM136.292 259.985V254.408L137.178 254.187V254.715C137.434 254.222 137.818 253.906 138.362 253.771C138.917 253.632 139.355 253.776 139.643 254.21C139.963 253.581 140.508 253.236 140.999 253.113C142.109 252.837 142.813 253.453 142.813 254.498V258.359L141.927 258.58V254.796C141.927 254.136 141.522 253.885 140.988 254.018C140.486 254.143 139.995 254.618 139.995 255.278V259.062L139.109 259.282V255.498C139.109 254.838 138.65 254.601 138.138 254.729C137.615 254.859 137.178 255.32 137.178 255.98V259.764L136.292 259.985ZM146.87 257.468C145.397 257.836 144.309 256.842 144.309 255.192C144.309 253.553 145.397 252.017 146.87 251.649C148.343 251.282 149.443 252.273 149.443 253.912C149.443 255.562 148.343 257.101 146.87 257.468ZM146.87 256.588C147.842 256.346 148.535 255.271 148.535 254.149C148.535 253.016 147.842 252.287 146.87 252.529C145.899 252.772 145.216 253.844 145.216 254.977C145.216 256.099 145.899 256.831 146.87 256.588ZM155.087 249.722V255.299L154.201 255.52V254.882C153.913 255.449 153.475 255.822 152.835 255.981C151.799 256.239 150.935 255.773 150.935 254.343V250.757L151.821 250.536V254.001C151.821 254.881 152.354 255.188 152.931 255.044C153.699 254.853 154.201 254.156 154.201 253.441V249.943L155.087 249.722ZM158.72 254.514C157.877 254.724 157.002 254.601 156.479 254.083L157.066 253.287C157.418 253.639 158.08 253.826 158.785 253.651C159.446 253.486 159.873 253.115 159.873 252.642C159.873 252.29 159.649 252.137 159.34 252.104L157.813 251.946C157.119 251.877 156.703 251.486 156.703 250.837C156.703 249.847 157.642 248.975 158.71 248.708C159.436 248.528 160.183 248.583 160.748 249.091L160.14 249.848C159.809 249.512 159.254 249.42 158.656 249.569C158.123 249.702 157.578 250.069 157.578 250.553C157.578 250.883 157.803 251.003 158.123 251.033L159.521 251.179C160.268 251.257 160.748 251.566 160.748 252.358C160.748 253.326 160.012 254.192 158.72 254.514Z" fill="#329168"/>
<path d="M195.861 408.036L198.305 399.726L199.703 399.378L202.169 406.463L201.208 406.702L200.547 404.81L197.441 405.585L196.79 407.804L195.861 408.036ZM197.74 404.564L200.248 403.939L198.999 400.323L197.74 404.564ZM205.467 405.762C204.09 406.105 202.916 405.254 202.916 403.505C202.916 401.69 204.271 400.252 205.509 399.943C206.118 399.791 206.587 399.828 206.844 400.061V397.597L207.729 397.377V405.077L206.844 405.297V404.813C206.619 405.232 206.096 405.605 205.467 405.762ZM205.509 404.871C206.075 404.73 206.598 404.347 206.844 403.79V401.15C206.609 400.802 206.171 400.658 205.52 400.82C204.762 401.009 203.823 401.937 203.823 403.279C203.823 404.467 204.581 405.103 205.509 404.871ZM211.825 404.177C210.448 404.52 209.274 403.669 209.274 401.92C209.274 400.105 210.629 398.667 211.867 398.358C212.476 398.206 212.945 398.265 213.202 398.575V398.135L214.088 397.914V403.491L213.202 403.712V403.228C212.978 403.647 212.455 404.02 211.825 404.177ZM211.867 403.286C212.433 403.145 212.956 402.761 213.202 402.205V399.565C212.967 399.217 212.529 399.073 211.878 399.235C211.12 399.424 210.181 400.351 210.181 401.693C210.181 402.881 210.939 403.517 211.867 403.286ZM216.006 403.013V397.436L216.891 397.215V397.743C217.148 397.25 217.532 396.935 218.076 396.799C218.631 396.66 219.069 396.804 219.357 397.239C219.677 396.609 220.221 396.264 220.712 396.142C221.822 395.865 222.527 396.481 222.527 397.526V401.387L221.641 401.608V397.824C221.641 397.164 221.235 396.913 220.702 397.046C220.2 397.171 219.709 397.646 219.709 398.306V402.09L218.823 402.311V398.527C218.823 397.867 218.364 397.629 217.852 397.757C217.329 397.887 216.891 398.348 216.891 399.008V402.792L216.006 403.013Z" fill="#329168"/>
<path d="M469.773 123.816L443.855 130.727" stroke="#329168" stroke-linecap="round"/>
<path d="M212.486 223.62L181.153 231.764" stroke="#329168" stroke-linecap="round"/>
<path d="M281.804 380.845L247.41 392.002" stroke="#329168" stroke-linecap="round"/>
<path d="M554.465 237.023L487.371 254.601" stroke="#329168" stroke-linecap="round"/>
<path d="M541.769 207.489L618.565 188.342C619.369 188.142 620.02 188.651 620.02 189.479V248.58C620.02 249.408 619.369 250.242 618.565 250.443L541.769 269.59C540.966 269.79 540.314 269.281 540.314 268.453V209.352C540.314 208.524 540.966 207.69 541.769 207.489Z" fill="#ABF6D6" stroke="#329168"/>
<path d="M571.047 235.088C570.065 235.333 568.945 235.173 568.219 234.518L568.795 233.67C569.382 234.085 570.065 234.409 571.047 234.164C572.253 233.864 572.766 233.197 572.766 232.46C572.766 232.053 572.499 231.702 571.933 231.634L569.927 231.397C568.87 231.275 568.475 230.703 568.475 229.966C568.475 228.646 569.607 227.517 571.058 227.155C572.35 226.833 573.171 227.134 573.641 227.512L573.022 228.37C572.552 228.047 571.944 227.858 571.101 228.068C570.055 228.329 569.404 228.997 569.404 229.646C569.404 230.086 569.671 230.372 570.194 230.428L572.179 230.659C573.203 230.778 573.705 231.291 573.705 232.204C573.705 233.7 572.51 234.724 571.047 235.088ZM577.482 233.484C576.106 233.827 574.931 232.976 574.931 231.227C574.931 229.412 576.287 227.974 577.525 227.665C578.133 227.514 578.603 227.573 578.859 227.883V227.443L579.745 227.222V232.799L578.859 233.02V232.536C578.635 232.955 578.112 233.327 577.482 233.484ZM577.525 232.593C578.091 232.452 578.614 232.069 578.859 231.513V228.873C578.624 228.524 578.187 228.38 577.536 228.543C576.778 228.732 575.839 229.659 575.839 231.001C575.839 232.189 576.596 232.825 577.525 232.593ZM581.663 232.321V226.744L582.549 226.523V227.359C582.741 226.838 583.317 226.287 584.065 226.101C584.492 225.994 584.78 225.989 585.079 226.123L584.652 227.11C584.492 227.028 584.267 227.029 583.99 227.098C583.328 227.263 582.709 227.814 582.549 228.822V232.1L581.663 232.321ZM588.322 230.781C586.946 231.125 585.771 230.273 585.771 228.524C585.771 226.709 587.127 225.271 588.365 224.963C588.973 224.811 589.443 224.87 589.699 225.18V224.74L590.585 224.519V230.096L589.699 230.317V229.833C589.475 230.252 588.952 230.624 588.322 230.781ZM588.365 229.891C588.931 229.75 589.454 229.366 589.699 228.81V226.17C589.464 225.822 589.027 225.678 588.376 225.84C587.618 226.029 586.679 226.956 586.679 228.298C586.679 229.486 587.437 230.122 588.365 229.891ZM594.755 223.358C595.791 223.1 596.655 223.567 596.655 224.997V228.583L595.769 228.804V225.339C595.769 224.459 595.235 224.152 594.659 224.295C593.891 224.487 593.389 225.184 593.389 225.899V229.397L592.503 229.618V221.918L593.389 221.697V224.458C593.677 223.891 594.115 223.518 594.755 223.358Z" fill="#329168"/>
</svg>
