<svg width="700" height="500" viewBox="0 0 700 500" fill="none" xmlns="http://www.w3.org/2000/svg">

<rect x="0.485148" y="0.379039" width="189.043" height="147.317" rx="1.5" transform="matrix(0.970296 -0.241922 0 1 73.3554 150.696)" fill="#FFC2C2" stroke="#FF2C2C"/>
<path d="M177.677 203.408L362.777 179.506" stroke="#329168" stroke-width="1.5" stroke-linecap="round" stroke-dasharray="0.1 3"/>
<rect x="0.485148" y="0.379039" width="189.043" height="147.317" rx="1.5" transform="matrix(0.970296 -0.241922 0 1 172.448 307.035)" fill="#FFC2C2" stroke="#FF2C2C"/>
<rect x="0.485148" y="0.379039" width="189.043" height="147.317" rx="1.5" transform="matrix(0.970296 -0.241922 0 1 442.275 168.896)" fill="#FFC2C2" stroke="#FF2C2C"/>
<rect x="0.485148" y="0.379039" width="64.1836" height="108.469" rx="1.5" transform="matrix(0.970296 -0.241922 0 1 142.36 161.68)" fill="#B5DDEA" stroke="#099FCE"/>
<path d="M153.615 176.184C151.577 176.693 150.275 175.235 150.275 173.035C150.275 170.835 151.577 168.729 153.615 168.22C154.758 167.936 155.558 168.264 156.081 168.948L155.323 169.709C154.982 169.222 154.373 168.977 153.605 169.169C152.228 169.512 151.214 171.129 151.214 172.801C151.214 174.473 152.228 175.584 153.605 175.241C154.373 175.049 154.982 174.513 155.323 173.867L156.092 174.214C155.569 175.169 154.758 175.9 153.615 176.184ZM159.613 174.667C158.14 175.034 157.051 174.041 157.051 172.391C157.051 170.752 158.14 169.215 159.613 168.848C161.086 168.481 162.185 169.472 162.185 171.111C162.185 172.761 161.086 174.3 159.613 174.667ZM159.613 173.787C160.584 173.545 161.278 172.47 161.278 171.348C161.278 170.215 160.584 169.486 159.613 169.728C158.641 169.97 157.958 171.043 157.958 172.176C157.958 173.298 158.641 174.029 159.613 173.787ZM163.731 173.519V165.819L164.616 165.598V173.298L163.731 173.519ZM166.534 172.82V165.12L167.42 164.899V172.599L166.534 172.82ZM171.633 171.659C170.149 172.029 168.965 171.213 168.965 169.398C168.965 167.693 170.128 166.226 171.43 165.902C173.01 165.508 173.874 166.59 173.874 167.987V168.405L169.872 169.403C169.893 170.498 170.768 170.995 171.601 170.787C172.22 170.633 172.668 170.268 172.946 169.825L173.597 170.245C173.159 170.927 172.487 171.446 171.633 171.659ZM172.978 167.837C172.882 167.102 172.412 166.537 171.419 166.784C170.694 166.965 170.021 167.694 169.861 168.614L172.978 167.837ZM177.709 170.144C176.204 170.519 175.052 169.575 175.052 167.903C175.052 166.231 176.215 164.709 177.709 164.336C178.606 164.113 179.236 164.341 179.641 164.811L178.958 165.521C178.681 165.216 178.243 165.094 177.699 165.23C176.727 165.472 175.959 166.477 175.959 167.676C175.959 168.864 176.727 169.509 177.699 169.267C178.243 169.131 178.67 168.783 178.958 168.348L179.631 168.73C179.193 169.422 178.595 169.923 177.709 170.144ZM183.026 168.708C182.375 168.871 181.756 168.75 181.756 167.826V164.328L180.55 164.629V163.749L181.756 163.448V161.721L182.642 161.104V163.227L184.083 162.868V163.748L182.642 164.107V167.297C182.642 167.77 182.92 167.844 183.24 167.764L183.859 167.61V168.501L183.026 168.708ZM186.161 161.074C185.776 161.17 185.467 160.928 185.467 160.532C185.467 160.114 185.776 159.729 186.161 159.633C186.566 159.532 186.876 159.763 186.876 160.181C186.876 160.577 186.566 160.973 186.161 161.074ZM185.734 168.033V162.456L186.62 162.235V167.812L185.734 168.033ZM190.726 166.91C189.253 167.277 188.164 166.283 188.164 164.633C188.164 162.994 189.253 161.458 190.726 161.091C192.198 160.724 193.298 161.714 193.298 163.353C193.298 165.003 192.198 166.543 190.726 166.91ZM190.726 166.03C191.697 165.788 192.391 164.713 192.391 163.591C192.391 162.458 191.697 161.729 190.726 161.971C189.754 162.213 189.071 163.285 189.071 164.418C189.071 165.54 189.754 166.272 190.726 166.03ZM194.844 165.762V160.185L195.729 159.964V160.602C196.018 160.035 196.455 159.662 197.096 159.503C198.131 159.244 198.995 159.711 198.995 161.141V164.727L198.11 164.948V161.483C198.11 160.603 197.576 160.296 196.999 160.439C196.231 160.631 195.729 161.328 195.729 162.043V165.541L194.844 165.762Z" fill="#099FCE"/>
<path d="M182.083 321.908V314.208L183.215 313.926L185.168 316.596L187.121 312.952L188.21 312.681V320.381L187.292 320.61V314.395L185.2 318.205L185.104 318.229L183.001 315.41V321.68L182.083 321.908ZM190.771 312.889C190.387 312.985 190.077 312.743 190.077 312.347C190.077 311.929 190.387 311.544 190.771 311.448C191.177 311.347 191.486 311.578 191.486 311.996C191.486 312.392 191.177 312.788 190.771 312.889ZM190.344 319.849V314.272L191.23 314.051V319.628L190.344 319.849ZM195.432 318.69C193.927 319.066 192.774 318.121 192.774 316.449C192.774 314.777 193.938 313.255 195.432 312.882C196.328 312.659 196.958 312.887 197.364 313.358L196.681 314.067C196.403 313.762 195.966 313.64 195.421 313.776C194.45 314.018 193.681 315.024 193.681 316.223C193.681 317.411 194.45 318.055 195.421 317.813C195.966 317.677 196.392 317.329 196.681 316.894L197.353 317.276C196.915 317.968 196.318 318.469 195.432 318.69ZM198.86 317.726V312.149L199.746 311.928V312.764C199.938 312.243 200.514 311.692 201.261 311.506C201.688 311.399 201.976 311.394 202.275 311.528L201.848 312.515C201.688 312.433 201.464 312.434 201.186 312.504C200.525 312.669 199.906 313.219 199.746 314.227V317.505L198.86 317.726ZM205.53 316.184C204.057 316.551 202.968 315.557 202.968 313.907C202.968 312.268 204.057 310.732 205.53 310.365C207.003 309.997 208.102 310.988 208.102 312.627C208.102 314.277 207.003 315.816 205.53 316.184ZM205.53 315.304C206.501 315.062 207.195 313.987 207.195 312.865C207.195 311.732 206.501 311.003 205.53 311.245C204.558 311.487 203.875 312.559 203.875 313.692C203.875 314.814 204.558 315.546 205.53 315.304ZM211.932 314.576C210.427 314.952 209.274 314.007 209.274 312.335C209.274 310.663 210.437 309.141 211.932 308.768C212.828 308.545 213.458 308.773 213.864 309.244L213.18 309.953C212.903 309.648 212.465 309.526 211.921 309.662C210.95 309.904 210.181 310.91 210.181 312.109C210.181 313.297 210.95 313.941 211.921 313.699C212.465 313.563 212.892 313.215 213.18 312.78L213.853 313.162C213.415 313.855 212.818 314.356 211.932 314.576ZM217.443 313.213C215.97 313.581 214.882 312.587 214.882 310.937C214.882 309.298 215.97 307.762 217.443 307.394C218.916 307.027 220.015 308.018 220.015 309.657C220.015 311.307 218.916 312.846 217.443 313.213ZM217.443 312.333C218.414 312.091 219.108 311.016 219.108 309.894C219.108 308.761 218.414 308.032 217.443 308.274C216.472 308.516 215.789 309.589 215.789 310.722C215.789 311.844 216.472 312.575 217.443 312.333ZM223.269 311.761C222.426 311.971 221.551 311.848 221.028 311.33L221.615 310.534C221.967 310.886 222.628 311.073 223.333 310.898C223.995 310.733 224.422 310.362 224.422 309.889C224.422 309.537 224.197 309.384 223.888 309.351L222.362 309.193C221.668 309.124 221.252 308.733 221.252 308.084C221.252 307.094 222.191 306.222 223.258 305.955C223.984 305.774 224.731 305.83 225.297 306.338L224.688 307.095C224.358 306.759 223.803 306.667 223.205 306.816C222.671 306.949 222.127 307.316 222.127 307.8C222.127 308.13 222.351 308.25 222.671 308.28L224.069 308.426C224.817 308.504 225.297 308.813 225.297 309.605C225.297 310.573 224.56 311.439 223.269 311.761ZM226.846 310.748V305.171L227.732 304.95V305.478C227.988 304.985 228.372 304.669 228.916 304.534C229.471 304.395 229.909 304.539 230.197 304.973C230.517 304.344 231.062 303.999 231.553 303.876C232.663 303.6 233.367 304.216 233.367 305.261V309.122L232.481 309.343V305.559C232.481 304.899 232.076 304.648 231.542 304.781C231.04 304.906 230.549 305.381 230.549 306.041V309.825L229.663 310.045V306.261C229.663 305.601 229.204 305.364 228.692 305.492C228.169 305.622 227.732 306.083 227.732 306.743V310.527L226.846 310.748Z" fill="#FF2C2C"/>
<path d="M83.3159 166.996V159.296L84.4473 159.014L86.4005 161.684L88.3537 158.04L89.4424 157.768V165.468L88.5245 165.697V159.482L86.4325 163.293L86.3364 163.317L84.2338 160.497V166.767L83.3159 166.996ZM92.0033 157.977C91.6191 158.073 91.3096 157.831 91.3096 157.435C91.3096 157.017 91.6191 156.632 92.0033 156.536C92.4089 156.435 92.7185 156.666 92.7185 157.084C92.7185 157.48 92.4089 157.876 92.0033 157.977ZM91.5764 164.936V159.359L92.4623 159.138V164.715L91.5764 164.936ZM96.6643 163.778C95.1594 164.153 94.0067 163.208 94.0067 161.536C94.0067 159.864 95.1701 158.342 96.6643 157.97C97.5609 157.746 98.1906 157.974 98.5962 158.445L97.9131 159.154C97.6356 158.85 97.198 158.728 96.6536 158.863C95.6824 159.106 94.9139 160.111 94.9139 161.31C94.9139 162.498 95.6824 163.143 96.6536 162.9C97.198 162.765 97.6249 162.416 97.9131 161.981L98.5855 162.364C98.1479 163.056 97.5502 163.557 96.6643 163.778ZM100.092 162.813V157.236L100.978 157.015V157.851C101.17 157.33 101.746 156.78 102.494 156.593C102.921 156.487 103.209 156.481 103.508 156.616L103.081 157.602C102.921 157.521 102.696 157.522 102.419 157.591C101.757 157.756 101.138 158.306 100.978 159.314V162.592L100.092 162.813ZM106.762 161.271C105.289 161.638 104.2 160.645 104.2 158.995C104.2 157.356 105.289 155.819 106.762 155.452C108.235 155.085 109.334 156.076 109.334 157.715C109.334 159.365 108.235 160.904 106.762 161.271ZM106.762 160.391C107.733 160.149 108.427 159.074 108.427 157.952C108.427 156.819 107.733 156.09 106.762 156.332C105.791 156.574 105.108 157.647 105.108 158.78C105.108 159.902 105.791 160.633 106.762 160.391ZM113.164 159.664C111.659 160.039 110.506 159.094 110.506 157.422C110.506 155.75 111.67 154.228 113.164 153.856C114.061 153.632 114.69 153.86 115.096 154.331L114.413 155.041C114.135 154.736 113.698 154.614 113.153 154.75C112.182 154.992 111.414 155.997 111.414 157.196C111.414 158.384 112.182 159.029 113.153 158.787C113.698 158.651 114.125 158.302 114.413 157.868L115.085 158.25C114.648 158.942 114.05 159.443 113.164 159.664ZM118.676 158.301C117.203 158.668 116.114 157.674 116.114 156.024C116.114 154.385 117.203 152.849 118.676 152.482C120.149 152.114 121.248 153.105 121.248 154.744C121.248 156.394 120.149 157.933 118.676 158.301ZM118.676 157.421C119.647 157.179 120.341 156.104 120.341 154.982C120.341 153.849 119.647 153.12 118.676 153.362C117.704 153.604 117.021 154.676 117.021 155.809C117.021 156.931 117.704 157.663 118.676 157.421ZM124.501 156.848C123.658 157.058 122.783 156.936 122.26 156.417L122.847 155.622C123.199 155.974 123.861 156.161 124.565 155.985C125.227 155.82 125.654 155.45 125.654 154.977C125.654 154.625 125.43 154.472 125.12 154.439L123.594 154.28C122.9 154.211 122.484 153.82 122.484 153.171C122.484 152.181 123.423 151.309 124.491 151.043C125.216 150.862 125.964 150.918 126.529 151.426L125.921 152.182C125.59 151.847 125.035 151.754 124.437 151.903C123.904 152.036 123.359 152.403 123.359 152.887C123.359 153.217 123.583 153.337 123.904 153.367L125.302 153.514C126.049 153.591 126.529 153.901 126.529 154.693C126.529 155.661 125.793 156.526 124.501 156.848ZM128.078 155.835V150.258L128.964 150.038V150.566C129.22 150.073 129.604 149.757 130.149 149.621C130.704 149.483 131.141 149.627 131.43 150.061C131.75 149.431 132.294 149.086 132.785 148.964C133.895 148.687 134.599 149.303 134.599 150.348V154.209L133.714 154.43V150.646C133.714 149.986 133.308 149.735 132.774 149.868C132.273 149.994 131.782 150.468 131.782 151.128V154.912L130.896 155.133V151.349C130.896 150.689 130.437 150.451 129.925 150.579C129.402 150.709 128.964 151.171 128.964 151.831V155.615L128.078 155.835Z" fill="#FF2C2C"/>
<path d="M451.236 183.407V175.707L452.367 175.425L454.32 178.095L456.274 174.451L457.362 174.18V181.88L456.444 182.109V175.894L454.352 179.704L454.256 179.728L452.154 176.908V183.178L451.236 183.407ZM459.923 174.388C459.539 174.484 459.23 174.242 459.23 173.846C459.23 173.428 459.539 173.043 459.923 172.947C460.329 172.846 460.638 173.077 460.638 173.495C460.638 173.891 460.329 174.287 459.923 174.388ZM459.496 181.348V175.771L460.382 175.55V181.127L459.496 181.348ZM464.584 180.189C463.079 180.564 461.927 179.62 461.927 177.948C461.927 176.276 463.09 174.754 464.584 174.381C465.481 174.158 466.111 174.386 466.516 174.856L465.833 175.566C465.555 175.261 465.118 175.139 464.574 175.275C463.602 175.517 462.834 176.523 462.834 177.722C462.834 178.91 463.602 179.554 464.574 179.312C465.118 179.176 465.545 178.828 465.833 178.393L466.505 178.775C466.068 179.467 465.47 179.968 464.584 180.189ZM468.012 179.224V173.647L468.898 173.427V174.263C469.09 173.742 469.666 173.191 470.413 173.005C470.84 172.898 471.129 172.892 471.427 173.027L471.001 174.013C470.84 173.932 470.616 173.933 470.339 174.002C469.677 174.167 469.058 174.718 468.898 175.726V179.004L468.012 179.224ZM474.682 177.682C473.209 178.05 472.12 177.056 472.12 175.406C472.12 173.767 473.209 172.231 474.682 171.863C476.155 171.496 477.254 172.487 477.254 174.126C477.254 175.776 476.155 177.315 474.682 177.682ZM474.682 176.802C475.653 176.56 476.347 175.485 476.347 174.363C476.347 173.23 475.653 172.501 474.682 172.743C473.711 172.986 473.028 174.058 473.028 175.191C473.028 176.313 473.711 177.045 474.682 176.802ZM481.084 176.075C479.579 176.45 478.426 175.506 478.426 173.834C478.426 172.162 479.59 170.64 481.084 170.267C481.981 170.044 482.61 170.272 483.016 170.743L482.333 171.452C482.055 171.147 481.618 171.025 481.073 171.161C480.102 171.403 479.334 172.409 479.334 173.608C479.334 174.796 480.102 175.44 481.073 175.198C481.618 175.062 482.045 174.714 482.333 174.279L483.005 174.661C482.568 175.353 481.97 175.854 481.084 176.075ZM486.596 174.712C485.123 175.079 484.034 174.086 484.034 172.436C484.034 170.797 485.123 169.26 486.596 168.893C488.068 168.526 489.168 169.517 489.168 171.156C489.168 172.806 488.068 174.345 486.596 174.712ZM486.596 173.832C487.567 173.59 488.261 172.515 488.261 171.393C488.261 170.26 487.567 169.531 486.596 169.773C485.624 170.015 484.941 171.088 484.941 172.221C484.941 173.343 485.624 174.074 486.596 173.832ZM492.421 173.26C491.578 173.47 490.703 173.347 490.18 172.828L490.767 172.033C491.119 172.385 491.781 172.572 492.485 172.397C493.147 172.232 493.574 171.861 493.574 171.388C493.574 171.036 493.35 170.883 493.04 170.85L491.514 170.692C490.82 170.623 490.404 170.232 490.404 169.583C490.404 168.593 491.343 167.72 492.411 167.454C493.136 167.273 493.883 167.329 494.449 167.837L493.841 168.594C493.51 168.258 492.955 168.165 492.357 168.315C491.824 168.448 491.279 168.814 491.279 169.298C491.279 169.628 491.503 169.748 491.824 169.779L493.222 169.925C493.969 170.003 494.449 170.312 494.449 171.104C494.449 172.072 493.713 172.938 492.421 173.26ZM495.998 172.247V166.67L496.884 166.449V166.977C497.14 166.484 497.524 166.168 498.069 166.032C498.624 165.894 499.061 166.038 499.349 166.472C499.67 165.842 500.214 165.498 500.705 165.375C501.815 165.098 502.519 165.715 502.519 166.76V170.621L501.634 170.842V167.058C501.634 166.398 501.228 166.147 500.694 166.28C500.193 166.405 499.702 166.879 499.702 167.539V171.323L498.816 171.544V167.76C498.816 167.1 498.357 166.863 497.845 166.99C497.322 167.121 496.884 167.582 496.884 168.242V172.026L495.998 172.247Z" fill="#FF2C2C"/>
<rect x="0.485148" y="0.379039" width="57.1839" height="42.8746" rx="1.5" transform="matrix(0.970296 -0.241922 0 1 158.661 187.893)" fill="#E0F397" stroke="#7A950E"/>
<rect x="0.485148" y="0.379039" width="57.1839" height="42.8746" rx="1.5" transform="matrix(0.970296 -0.241922 0 1 167.739 196.044)" fill="#E0F397" stroke="#7A950E"/>
<path d="M185.739 216.656V208.956L186.892 208.669L190.222 214.076V207.839L191.14 207.61V215.31L189.977 215.6L186.657 210.201V216.427L185.739 216.656ZM195.458 214.354C193.985 214.721 192.897 213.728 192.897 212.078C192.897 210.439 193.985 208.902 195.458 208.535C196.931 208.168 198.03 209.159 198.03 210.798C198.03 212.448 196.931 213.987 195.458 214.354ZM195.458 213.474C196.429 213.232 197.123 212.157 197.123 211.035C197.123 209.902 196.429 209.173 195.458 209.415C194.487 209.657 193.804 210.73 193.804 211.863C193.804 212.985 194.487 213.716 195.458 213.474ZM201.753 212.784C200.377 213.128 199.203 212.276 199.203 210.527C199.203 208.712 200.558 207.275 201.796 206.966C202.405 206.814 202.874 206.851 203.13 207.084V204.62L204.016 204.399V212.099L203.13 212.32V211.836C202.906 212.255 202.383 212.627 201.753 212.784ZM201.796 211.894C202.362 211.753 202.885 211.369 203.13 210.813V208.173C202.895 207.825 202.458 207.681 201.807 207.843C201.049 208.032 200.11 208.959 200.11 210.301C200.11 211.489 200.868 212.125 201.796 211.894ZM208.229 211.159C206.745 211.529 205.561 210.713 205.561 208.898C205.561 207.193 206.724 205.726 208.026 205.401C209.606 205.008 210.47 206.09 210.47 207.487V207.905L206.468 208.903C206.489 209.998 207.364 210.494 208.197 210.287C208.816 210.133 209.264 209.768 209.542 209.325L210.193 209.745C209.755 210.426 209.083 210.946 208.229 211.159ZM209.574 207.337C209.478 206.602 209.008 206.037 208.015 206.284C207.29 206.465 206.617 207.194 206.457 208.114L209.574 207.337Z" fill="#7A950E"/>
<path d="M279.399 366.274L359.185 181.518" stroke="#329168" stroke-width="1.5" stroke-linecap="round" stroke-dasharray="0.1 3"/>
<path d="M546.209 225.642L362.777 178.95" stroke="#329168" stroke-width="1.5" stroke-linecap="round" stroke-dasharray="0.1 3"/>
<path d="M331.764 164.53L387.094 150.735C387.898 150.535 388.549 151.044 388.549 151.872V194.184C388.549 195.012 387.898 195.846 387.094 196.047L331.764 209.842C330.96 210.043 330.308 209.534 330.308 208.705V166.393C330.308 165.565 330.96 164.731 331.764 164.53Z" fill="#ABF6D6" stroke="#329168"/>
<path d="M341.918 187.915V180.215L342.836 179.986V187.686L341.918 187.915ZM347.145 186.732C345.768 187.076 344.594 186.224 344.594 184.475C344.594 182.66 345.949 181.223 347.187 180.914C347.796 180.762 348.265 180.799 348.521 181.032V178.568L349.407 178.347V186.047L348.521 186.268V185.784C348.297 186.203 347.774 186.575 347.145 186.732ZM347.187 185.842C347.753 185.701 348.276 185.317 348.521 184.761V182.121C348.287 181.773 347.849 181.629 347.198 181.791C346.44 181.98 345.501 182.907 345.501 184.249C345.501 185.437 346.259 186.073 347.187 185.842ZM353.62 185.107C352.136 185.477 350.952 184.661 350.952 182.846C350.952 181.141 352.115 179.674 353.417 179.35C354.997 178.956 355.861 180.038 355.861 181.435V181.853L351.859 182.851C351.88 183.946 352.755 184.443 353.588 184.235C354.207 184.081 354.655 183.716 354.933 183.273L355.584 183.693C355.146 184.374 354.474 184.894 353.62 185.107ZM354.965 181.285C354.869 180.55 354.399 179.985 353.407 180.232C352.681 180.413 352.008 181.142 351.848 182.062L354.965 181.285ZM357.412 184.051V178.474L358.298 178.254V178.892C358.586 178.325 359.024 177.952 359.664 177.792C360.7 177.534 361.564 178 361.564 179.43V183.016L360.678 183.237V179.772C360.678 178.892 360.145 178.585 359.568 178.729C358.8 178.92 358.298 179.618 358.298 180.333V183.831L357.412 184.051ZM365.138 182.125C364.487 182.287 363.868 182.167 363.868 181.243V177.745L362.662 178.045V177.165L363.868 176.865V175.138L364.754 174.521V176.644L366.195 176.285V177.165L364.754 177.524V180.714C364.754 181.187 365.032 181.261 365.352 181.181L365.971 181.027V181.918L365.138 182.125ZM368.273 174.491C367.889 174.586 367.579 174.345 367.579 173.949C367.579 173.531 367.889 173.145 368.273 173.05C368.678 172.948 368.988 173.179 368.988 173.597C368.988 173.993 368.678 174.389 368.273 174.491ZM367.846 181.45V175.873L368.732 175.652V181.229L367.846 181.45ZM372.539 180.28C371.888 180.442 371.269 180.322 371.269 179.398V175.9L370.063 176.2V175.32L371.269 175.02V173.293L372.155 172.676V174.799L373.595 174.44V175.32L372.155 175.679V178.869C372.155 179.342 372.432 179.416 372.752 179.336L373.371 179.181V180.072L372.539 180.28ZM375.566 181.516L376.634 178.709L374.606 174.188L375.556 173.951L377.114 177.423L378.736 173.158L379.686 172.921L376.506 181.282L375.566 181.516Z" fill="#329168"/>
<rect x="0.485148" y="0.379039" width="64.1836" height="108.469" rx="1.5" transform="matrix(0.970296 -0.241922 0 1 511.279 179.879)" fill="#B5DDEA" stroke="#099FCE"/>
<path d="M522.535 194.384C520.497 194.892 519.195 193.435 519.195 191.235C519.195 189.035 520.497 186.928 522.535 186.42C523.677 186.135 524.478 186.464 525.001 187.147L524.243 187.908C523.901 187.421 523.293 187.177 522.525 187.369C521.148 187.712 520.134 189.329 520.134 191.001C520.134 192.673 521.148 193.784 522.525 193.441C523.293 193.249 523.901 192.712 524.243 192.066L525.011 192.414C524.488 193.369 523.677 194.099 522.535 194.384ZM528.532 192.867C527.059 193.234 525.971 192.24 525.971 190.59C525.971 188.951 527.059 187.415 528.532 187.048C530.005 186.681 531.105 187.671 531.105 189.31C531.105 190.96 530.005 192.5 528.532 192.867ZM528.532 191.987C529.504 191.745 530.197 190.67 530.197 189.548C530.197 188.415 529.504 187.686 528.532 187.928C527.561 188.17 526.878 189.242 526.878 190.375C526.878 191.497 527.561 192.229 528.532 191.987ZM532.65 191.719V184.019L533.536 183.798V191.498L532.65 191.719ZM535.454 191.02V183.32L536.34 183.099V190.799L535.454 191.02ZM540.553 189.859C539.069 190.229 537.884 189.413 537.884 187.598C537.884 185.893 539.048 184.426 540.35 184.101C541.93 183.707 542.794 184.79 542.794 186.187V186.605L538.792 187.603C538.813 188.698 539.688 189.194 540.521 188.987C541.14 188.832 541.588 188.468 541.866 188.024L542.517 188.445C542.079 189.126 541.407 189.646 540.553 189.859ZM541.898 186.036C541.802 185.301 541.332 184.737 540.339 184.984C539.613 185.165 538.941 185.894 538.781 186.814L541.898 186.036ZM546.629 188.344C545.124 188.719 543.972 187.774 543.972 186.102C543.972 184.43 545.135 182.908 546.629 182.536C547.526 182.312 548.155 182.54 548.561 183.011L547.878 183.72C547.6 183.416 547.163 183.294 546.618 183.429C545.647 183.672 544.879 184.677 544.879 185.876C544.879 187.064 545.647 187.709 546.618 187.466C547.163 187.331 547.59 186.982 547.878 186.547L548.55 186.93C548.113 187.622 547.515 188.123 546.629 188.344ZM551.946 186.908C551.295 187.07 550.676 186.95 550.676 186.026V182.528L549.47 182.828V181.948L550.676 181.648V179.921L551.562 179.304V181.427L553.003 181.068V181.948L551.562 182.307V185.497C551.562 185.97 551.839 186.044 552.16 185.964L552.779 185.81V186.701L551.946 186.908ZM555.08 179.274C554.696 179.369 554.387 179.128 554.387 178.732C554.387 178.314 554.696 177.928 555.08 177.833C555.486 177.731 555.796 177.962 555.796 178.38C555.796 178.776 555.486 179.172 555.08 179.274ZM554.654 186.233V180.656L555.539 180.435V186.012L554.654 186.233ZM559.645 185.109C558.172 185.477 557.084 184.483 557.084 182.833C557.084 181.194 558.172 179.658 559.645 179.29C561.118 178.923 562.218 179.914 562.218 181.553C562.218 183.203 561.118 184.742 559.645 185.109ZM559.645 184.229C560.617 183.987 561.31 182.912 561.31 181.79C561.31 180.657 560.617 179.928 559.645 180.17C558.674 180.413 557.991 181.485 557.991 182.618C557.991 183.74 558.674 184.472 559.645 184.229ZM563.763 183.962V178.385L564.649 178.164V178.802C564.937 178.235 565.375 177.862 566.015 177.702C567.051 177.444 567.915 177.911 567.915 179.341V182.927L567.029 183.147V179.682C567.029 178.802 566.496 178.495 565.919 178.639C565.151 178.831 564.649 179.528 564.649 180.243V183.741L563.763 183.962Z" fill="#099FCE"/>
<rect x="0.485148" y="0.379039" width="57.1839" height="42.8746" rx="1.5" transform="matrix(0.970296 -0.241922 0 1 527.581 206.093)" fill="#E0F397" stroke="#7A950E"/>
<rect x="0.485148" y="0.379039" width="57.1839" height="42.8746" rx="1.5" transform="matrix(0.970296 -0.241922 0 1 536.658 214.244)" fill="#E0F397" stroke="#7A950E"/>
<path d="M554.659 234.856V227.156L555.812 226.869L559.142 232.275V226.038L560.06 225.809V233.509L558.896 233.799L555.577 228.401V234.627L554.659 234.856ZM564.378 232.554C562.905 232.921 561.816 231.927 561.816 230.277C561.816 228.638 562.905 227.102 564.378 226.735C565.851 226.368 566.95 227.358 566.95 228.997C566.95 230.647 565.851 232.187 564.378 232.554ZM564.378 231.674C565.349 231.432 566.043 230.357 566.043 229.235C566.043 228.102 565.349 227.373 564.378 227.615C563.407 227.857 562.724 228.929 562.724 230.062C562.724 231.184 563.407 231.916 564.378 231.674ZM570.673 230.984C569.297 231.327 568.122 230.476 568.122 228.727C568.122 226.912 569.478 225.474 570.716 225.166C571.324 225.014 571.794 225.051 572.05 225.284V222.82L572.936 222.599V230.299L572.05 230.52V230.036C571.826 230.455 571.303 230.827 570.673 230.984ZM570.716 230.094C571.282 229.952 571.805 229.569 572.05 229.013V226.373C571.815 226.024 571.378 225.881 570.727 226.043C569.969 226.232 569.03 227.159 569.03 228.501C569.03 229.689 569.787 230.325 570.716 230.094ZM577.149 229.359C575.665 229.729 574.481 228.913 574.481 227.098C574.481 225.393 575.644 223.926 576.946 223.601C578.526 223.207 579.39 224.29 579.39 225.687V226.105L575.388 227.103C575.409 228.197 576.284 228.694 577.117 228.487C577.736 228.332 578.184 227.968 578.462 227.524L579.113 227.945C578.675 228.626 578.003 229.146 577.149 229.359ZM578.494 225.536C578.398 224.801 577.928 224.236 576.935 224.484C576.21 224.665 575.537 225.393 575.377 226.313L578.494 225.536Z" fill="#7A950E"/>
<rect x="0.485148" y="0.379039" width="64.1836" height="108.469" rx="1.5" transform="matrix(0.970296 -0.241922 0 1 241.452 318.018)" fill="#B5DDEA" stroke="#099FCE"/>
<path d="M252.708 332.523C250.669 333.031 249.367 331.574 249.367 329.374C249.367 327.174 250.669 325.067 252.708 324.559C253.85 324.274 254.651 324.603 255.174 325.286L254.416 326.047C254.074 325.561 253.466 325.316 252.697 325.508C251.32 325.851 250.307 327.468 250.307 329.14C250.307 330.812 251.32 331.923 252.697 331.58C253.466 331.388 254.074 330.852 254.416 330.205L255.184 330.553C254.661 331.508 253.85 332.238 252.708 332.523ZM258.705 331.006C257.232 331.373 256.144 330.38 256.144 328.73C256.144 327.091 257.232 325.554 258.705 325.187C260.178 324.82 261.277 325.811 261.277 327.45C261.277 329.1 260.178 330.639 258.705 331.006ZM258.705 330.126C259.676 329.884 260.37 328.809 260.37 327.687C260.37 326.554 259.676 325.825 258.705 326.067C257.734 326.309 257.051 327.381 257.051 328.514C257.051 329.636 257.734 330.368 258.705 330.126ZM262.823 329.858V322.158L263.709 321.937V329.637L262.823 329.858ZM265.627 329.159V321.459L266.513 321.238V328.938L265.627 329.159ZM270.725 327.998C269.242 328.368 268.057 327.552 268.057 325.737C268.057 324.032 269.221 322.565 270.523 322.241C272.102 321.847 272.967 322.929 272.967 324.326V324.744L268.964 325.742C268.986 326.837 269.861 327.333 270.693 327.126C271.312 326.972 271.761 326.607 272.038 326.164L272.689 326.584C272.252 327.265 271.579 327.785 270.725 327.998ZM272.07 324.176C271.974 323.441 271.505 322.876 270.512 323.123C269.786 323.304 269.114 324.033 268.954 324.953L272.07 324.176ZM276.802 326.483C275.297 326.858 274.144 325.914 274.144 324.242C274.144 322.57 275.308 321.047 276.802 320.675C277.698 320.451 278.328 320.679 278.734 321.15L278.051 321.86C277.773 321.555 277.336 321.433 276.791 321.569C275.82 321.811 275.051 322.816 275.051 324.015C275.051 325.203 275.82 325.848 276.791 325.606C277.336 325.47 277.762 325.121 278.051 324.687L278.723 325.069C278.285 325.761 277.688 326.262 276.802 326.483ZM282.119 325.047C281.468 325.21 280.849 325.089 280.849 324.165V320.667L279.643 320.968V320.088L280.849 319.787V318.06L281.735 317.443V319.566L283.175 319.207V320.087L281.735 320.446V323.636C281.735 324.109 282.012 324.183 282.332 324.103L282.951 323.949V324.84L282.119 325.047ZM285.253 317.413C284.869 317.509 284.559 317.267 284.559 316.871C284.559 316.453 284.869 316.068 285.253 315.972C285.659 315.871 285.968 316.101 285.968 316.519C285.968 316.915 285.659 317.312 285.253 317.413ZM284.826 324.372V318.795L285.712 318.574V324.151L284.826 324.372ZM289.818 323.249C288.345 323.616 287.256 322.622 287.256 320.972C287.256 319.333 288.345 317.797 289.818 317.43C291.291 317.062 292.39 318.053 292.39 319.692C292.39 321.342 291.291 322.881 289.818 323.249ZM289.818 322.369C290.789 322.126 291.483 321.051 291.483 319.929C291.483 318.796 290.789 318.067 289.818 318.31C288.847 318.552 288.164 319.624 288.164 320.757C288.164 321.879 288.847 322.611 289.818 322.369ZM293.936 322.101V316.524L294.822 316.303V316.941C295.11 316.374 295.548 316.001 296.188 315.841C297.223 315.583 298.088 316.05 298.088 317.48V321.066L297.202 321.287V317.822C297.202 316.942 296.668 316.635 296.092 316.778C295.324 316.97 294.822 317.667 294.822 318.382V321.88L293.936 322.101Z" fill="#099FCE"/>
<rect x="0.485148" y="0.379039" width="57.1839" height="42.8746" rx="1.5" transform="matrix(0.970296 -0.241922 0 1 257.754 344.232)" fill="#E0F397" stroke="#7A950E"/>
<rect x="0.485148" y="0.379039" width="57.1839" height="42.8746" rx="1.5" transform="matrix(0.970296 -0.241922 0 1 266.831 352.383)" fill="#E0F397" stroke="#7A950E"/>
<path d="M284.832 372.995V365.295L285.984 365.008L289.315 370.414V364.177L290.232 363.949V371.649L289.069 371.939L285.75 366.54V372.766L284.832 372.995ZM294.551 370.693C293.078 371.06 291.989 370.067 291.989 368.417C291.989 366.778 293.078 365.241 294.551 364.874C296.024 364.507 297.123 365.498 297.123 367.137C297.123 368.787 296.024 370.326 294.551 370.693ZM294.551 369.813C295.522 369.571 296.216 368.496 296.216 367.374C296.216 366.241 295.522 365.512 294.551 365.754C293.579 365.996 292.896 367.068 292.896 368.201C292.896 369.323 293.579 370.055 294.551 369.813ZM300.846 369.123C299.469 369.467 298.295 368.615 298.295 366.866C298.295 365.051 299.651 363.613 300.889 363.305C301.497 363.153 301.967 363.19 302.223 363.423V360.959L303.109 360.738V368.438L302.223 368.659V368.175C301.999 368.594 301.476 368.966 300.846 369.123ZM300.889 368.233C301.454 368.092 301.977 367.708 302.223 367.152V364.512C301.988 364.164 301.55 364.02 300.899 364.182C300.142 364.371 299.202 365.298 299.202 366.64C299.202 367.828 299.96 368.464 300.889 368.233ZM307.321 367.498C305.838 367.868 304.653 367.052 304.653 365.237C304.653 363.532 305.817 362.065 307.119 361.74C308.698 361.347 309.563 362.429 309.563 363.826V364.244L305.56 365.242C305.582 366.337 306.457 366.833 307.289 366.626C307.909 366.471 308.357 366.107 308.634 365.663L309.285 366.084C308.848 366.765 308.175 367.285 307.321 367.498ZM308.666 363.675C308.57 362.94 308.101 362.376 307.108 362.623C306.382 362.804 305.71 363.533 305.55 364.453L308.666 363.675Z" fill="#7A950E"/>
</svg>
