<svg width="701" height="500" viewBox="0 0 701 500" fill="none" xmlns="http://www.w3.org/2000/svg">
<path d="M524.119 91.4561L609.42 70.188C610.224 69.9876 610.876 70.4967 610.876 71.3251V137.079C610.876 137.907 610.224 138.741 609.42 138.942L524.119 160.21C523.315 160.41 522.663 159.901 522.663 159.073V93.319C522.663 92.4906 523.315 91.6565 524.119 91.4561Z" fill="#ABF6D6" stroke="#329168"/>
<path d="M550.635 122.69V114.99L551.553 114.761V122.461L550.635 122.69ZM555.861 121.508C554.484 121.851 553.31 121 553.31 119.251C553.31 117.436 554.666 115.998 555.904 115.689C556.512 115.538 556.982 115.575 557.238 115.808V113.344L558.124 113.123V120.823L557.238 121.044V120.56C557.014 120.979 556.491 121.351 555.861 121.508ZM555.904 120.617C556.47 120.476 556.992 120.093 557.238 119.537V116.897C557.003 116.548 556.566 116.405 555.914 116.567C555.157 116.756 554.217 117.683 554.217 119.025C554.217 120.213 554.975 120.849 555.904 120.617ZM562.337 119.883C560.853 120.253 559.668 119.437 559.668 117.622C559.668 115.917 560.832 114.45 562.134 114.125C563.713 113.731 564.578 114.814 564.578 116.211V116.629L560.576 117.627C560.597 118.721 561.472 119.218 562.305 119.011C562.924 118.856 563.372 118.491 563.649 118.048L564.301 118.469C563.863 119.15 563.19 119.67 562.337 119.883ZM563.681 116.06C563.585 115.325 563.116 114.76 562.123 115.008C561.397 115.189 560.725 115.917 560.565 116.837L563.681 116.06ZM566.129 118.827V113.25L567.015 113.029V113.667C567.303 113.1 567.741 112.727 568.381 112.568C569.416 112.309 570.281 112.776 570.281 114.206V117.792L569.395 118.013V114.548C569.395 113.668 568.861 113.361 568.285 113.505C567.516 113.696 567.015 114.393 567.015 115.108V118.606L566.129 118.827ZM573.855 116.901C573.204 117.063 572.585 116.942 572.585 116.018V112.52L571.379 112.821V111.941L572.585 111.64V109.913L573.471 109.297V111.42L574.912 111.06V111.94L573.471 112.3V115.49C573.471 115.963 573.748 116.036 574.069 115.957L574.688 115.802V116.693L573.855 116.901ZM576.989 109.266C576.605 109.362 576.296 109.12 576.296 108.724C576.296 108.306 576.605 107.921 576.989 107.825C577.395 107.724 577.705 107.955 577.705 108.373C577.705 108.769 577.395 109.165 576.989 109.266ZM576.562 116.226V110.649L577.448 110.428V116.005L576.562 116.226ZM581.255 115.056C580.604 115.218 579.985 115.097 579.985 114.173V110.675L578.779 110.976V110.096L579.985 109.795V108.068L580.871 107.451V109.574L582.312 109.215V110.095L580.871 110.454V113.644C580.871 114.117 581.149 114.191 581.469 114.111L582.088 113.957V114.848L581.255 115.056ZM584.283 116.292L585.35 113.485L583.322 108.963L584.272 108.726L585.831 112.199L587.453 107.933L588.403 107.697L585.222 116.058L584.283 116.292Z" fill="#329168"/>
<path d="M357.605 165.383L522.178 124.57" stroke="#329168" stroke-linecap="round"/>
<rect x="0.485148" y="0.379039" width="285.238" height="222.391" rx="1.5" transform="matrix(0.970296 -0.241922 0 1 77.5737 131.856)" fill="#FFC2C2" stroke="#FF2C2C"/>
<path d="M196.172 130.226V122.526L197.303 122.244L199.256 124.914L201.21 121.27L202.298 120.999V128.699L201.38 128.927V122.712L199.288 126.523L199.192 126.547L197.09 123.727V129.997L196.172 130.226ZM204.859 121.207C204.475 121.303 204.165 121.061 204.165 120.665C204.165 120.247 204.475 119.862 204.859 119.766C205.265 119.665 205.574 119.896 205.574 120.314C205.574 120.71 205.265 121.106 204.859 121.207ZM204.432 128.166V122.589L205.318 122.369V127.946L204.432 128.166ZM209.52 127.008C208.015 127.383 206.863 126.439 206.863 124.767C206.863 123.095 208.026 121.572 209.52 121.2C210.417 120.976 211.046 121.204 211.452 121.675L210.769 122.385C210.491 122.08 210.054 121.958 209.51 122.094C208.538 122.336 207.77 123.341 207.77 124.54C207.77 125.728 208.538 126.373 209.51 126.131C210.054 125.995 210.481 125.646 210.769 125.212L211.441 125.594C211.004 126.286 210.406 126.787 209.52 127.008ZM212.948 126.043V120.466L213.834 120.245V121.081C214.026 120.56 214.602 120.01 215.349 119.823C215.776 119.717 216.065 119.711 216.363 119.846L215.936 120.832C215.776 120.751 215.552 120.752 215.275 120.821C214.613 120.986 213.994 121.536 213.834 122.544V125.822L212.948 126.043ZM219.618 124.501C218.145 124.868 217.056 123.875 217.056 122.225C217.056 120.586 218.145 119.049 219.618 118.682C221.091 118.315 222.19 119.306 222.19 120.945C222.19 122.595 221.091 124.134 219.618 124.501ZM219.618 123.621C220.589 123.379 221.283 122.304 221.283 121.182C221.283 120.049 220.589 119.32 219.618 119.562C218.647 119.804 217.964 120.877 217.964 122.01C217.964 123.132 218.647 123.863 219.618 123.621ZM226.02 122.894C224.515 123.269 223.362 122.325 223.362 120.653C223.362 118.981 224.526 117.459 226.02 117.086C226.917 116.862 227.546 117.09 227.952 117.561L227.269 118.271C226.991 117.966 226.554 117.844 226.009 117.98C225.038 118.222 224.27 119.227 224.27 120.426C224.27 121.614 225.038 122.259 226.009 122.017C226.554 121.881 226.981 121.533 227.269 121.098L227.941 121.48C227.504 122.172 226.906 122.673 226.02 122.894ZM231.532 121.531C230.059 121.898 228.97 120.905 228.97 119.255C228.97 117.616 230.059 116.079 231.532 115.712C233.004 115.345 234.104 116.336 234.104 117.975C234.104 119.625 233.004 121.164 231.532 121.531ZM231.532 120.651C232.503 120.409 233.197 119.334 233.197 118.212C233.197 117.079 232.503 116.35 231.532 116.592C230.56 116.834 229.877 117.906 229.877 119.039C229.877 120.161 230.56 120.893 231.532 120.651ZM237.357 120.078C236.514 120.289 235.639 120.166 235.116 119.647L235.703 118.852C236.055 119.204 236.717 119.391 237.421 119.215C238.083 119.05 238.51 118.68 238.51 118.207C238.51 117.855 238.286 117.702 237.976 117.669L236.45 117.511C235.756 117.442 235.34 117.05 235.34 116.401C235.34 115.411 236.279 114.539 237.347 114.273C238.072 114.092 238.819 114.148 239.385 114.656L238.777 115.412C238.446 115.077 237.891 114.984 237.293 115.133C236.759 115.266 236.215 115.633 236.215 116.117C236.215 116.447 236.439 116.567 236.759 116.597L238.158 116.744C238.905 116.821 239.385 117.131 239.385 117.923C239.385 118.891 238.649 119.756 237.357 120.078ZM240.934 119.066V113.489L241.82 113.268V113.796C242.076 113.303 242.46 112.987 243.005 112.851C243.56 112.713 243.997 112.857 244.285 113.291C244.606 112.661 245.15 112.316 245.641 112.194C246.751 111.917 247.455 112.534 247.455 113.579V117.44L246.569 117.66V113.876C246.569 113.216 246.164 112.966 245.63 113.099C245.129 113.224 244.638 113.698 244.638 114.358V118.142L243.752 118.363V114.579C243.752 113.919 243.293 113.681 242.78 113.809C242.257 113.94 241.82 114.401 241.82 115.061V118.845L240.934 119.066Z" fill="#FF2C2C"/>
<path d="M79.0411 132.306L194.551 214.194" stroke="#FF2C2C" stroke-dasharray="2 2"/>
<path d="M79.0411 355.018L194.551 436.906" stroke="#FF2C2C" stroke-dasharray="2 2"/>
<path d="M353.617 284.097L469.128 365.985" stroke="#FF2C2C" stroke-dasharray="2 2"/>
<path d="M353.617 62.4915L469.128 144.379" stroke="#FF2C2C" stroke-dasharray="2 2"/>
<rect x="0.485148" y="0.379039" width="97.1778" height="163.879" rx="1.5" transform="matrix(0.970296 -0.241922 0 1 262.478 169.292)" fill="#B5DDEA" stroke="#099FCE"/>
<path d="M290.067 186.086C288.028 186.594 286.726 185.137 286.726 182.937C286.726 180.737 288.028 178.63 290.067 178.122C291.209 177.837 292.009 178.166 292.532 178.849L291.775 179.61C291.433 179.123 290.825 178.879 290.056 179.07C288.679 179.414 287.665 181.031 287.665 182.703C287.665 184.375 288.679 185.486 290.056 185.142C290.825 184.951 291.433 184.414 291.775 183.768L292.543 184.115C292.02 185.071 291.209 185.801 290.067 186.086ZM296.064 184.569C294.591 184.936 293.502 183.942 293.502 182.292C293.502 180.653 294.591 179.117 296.064 178.75C297.537 178.382 298.636 179.373 298.636 181.012C298.636 182.662 297.537 184.201 296.064 184.569ZM296.064 183.689C297.035 183.446 297.729 182.371 297.729 181.249C297.729 180.116 297.035 179.387 296.064 179.63C295.093 179.872 294.41 180.944 294.41 182.077C294.41 183.199 295.093 183.931 296.064 183.689ZM300.182 183.421V175.721L301.068 175.5V183.2L300.182 183.421ZM302.986 182.722V175.022L303.872 174.801V182.501L302.986 182.722ZM308.084 181.561C306.601 181.93 305.416 181.115 305.416 179.3C305.416 177.595 306.579 176.128 307.882 175.803C309.461 175.409 310.326 176.492 310.326 177.889V178.307L306.323 179.305C306.345 180.399 307.22 180.896 308.052 180.689C308.671 180.534 309.12 180.169 309.397 179.726L310.048 180.147C309.611 180.828 308.938 181.348 308.084 181.561ZM309.429 177.738C309.333 177.003 308.863 176.438 307.871 176.686C307.145 176.867 306.473 177.595 306.313 178.515L309.429 177.738ZM314.161 180.046C312.656 180.421 311.503 179.476 311.503 177.804C311.503 176.132 312.667 174.61 314.161 174.238C315.057 174.014 315.687 174.242 316.093 174.713L315.41 175.422C315.132 175.117 314.694 174.995 314.15 175.131C313.179 175.373 312.41 176.379 312.41 177.578C312.41 178.766 313.179 179.41 314.15 179.168C314.694 179.032 315.121 178.684 315.41 178.249L316.082 178.632C315.644 179.324 315.047 179.825 314.161 180.046ZM319.478 178.61C318.827 178.772 318.208 178.652 318.208 177.728V174.23L317.002 174.53V173.65L318.208 173.35V171.623L319.093 171.006V173.129L320.534 172.769V173.649L319.093 174.009V177.199C319.093 177.672 319.371 177.746 319.691 177.666L320.31 177.511V178.402L319.478 178.61ZM322.612 170.975C322.228 171.071 321.918 170.829 321.918 170.433C321.918 170.015 322.228 169.63 322.612 169.534C323.018 169.433 323.327 169.664 323.327 170.082C323.327 170.478 323.018 170.874 322.612 170.975ZM322.185 177.935V172.358L323.071 172.137V177.714L322.185 177.935ZM327.177 176.811C325.704 177.178 324.615 176.185 324.615 174.535C324.615 172.896 325.704 171.359 327.177 170.992C328.65 170.625 329.749 171.616 329.749 173.255C329.749 174.905 328.65 176.444 327.177 176.811ZM327.177 175.931C328.148 175.689 328.842 174.614 328.842 173.492C328.842 172.359 328.148 171.63 327.177 171.872C326.206 172.114 325.523 173.187 325.523 174.32C325.523 175.442 326.206 176.173 327.177 175.931ZM331.295 175.664V170.087L332.181 169.866V170.504C332.469 169.937 332.907 169.564 333.547 169.404C334.582 169.146 335.447 169.612 335.447 171.042V174.628L334.561 174.849V171.384C334.561 170.504 334.027 170.197 333.451 170.341C332.682 170.533 332.181 171.23 332.181 171.945V175.443L331.295 175.664Z" fill="#099FCE"/>
<rect x="0.485148" y="0.379039" width="86.635" height="65.0827" rx="1.5" transform="matrix(0.970296 -0.241922 0 1 287.031 208.774)" fill="#E0F397" stroke="#7A950E"/>
<rect x="0.485148" y="0.379039" width="86.635" height="65.0827" rx="1.5" transform="matrix(0.970296 -0.241922 0 1 300.704 221.05)" fill="#E0F397" stroke="#7A950E"/>
<path d="M333.441 249.443V241.743L334.594 241.456L337.924 246.863V240.626L338.842 240.397V248.097L337.678 248.387L334.359 242.988V249.214L333.441 249.443ZM343.16 247.141C341.687 247.508 340.598 246.515 340.598 244.865C340.598 243.226 341.687 241.689 343.16 241.322C344.633 240.955 345.732 241.946 345.732 243.585C345.732 245.235 344.633 246.774 343.16 247.141ZM343.16 246.261C344.131 246.019 344.825 244.944 344.825 243.822C344.825 242.689 344.131 241.96 343.16 242.202C342.189 242.444 341.506 243.517 341.506 244.65C341.506 245.772 342.189 246.503 343.16 246.261ZM349.455 245.571C348.078 245.915 346.904 245.063 346.904 243.314C346.904 241.499 348.26 240.061 349.498 239.753C350.106 239.601 350.576 239.638 350.832 239.871V237.407L351.718 237.186V244.886L350.832 245.107V244.623C350.608 245.042 350.085 245.414 349.455 245.571ZM349.498 244.681C350.064 244.54 350.587 244.156 350.832 243.6V240.96C350.597 240.612 350.16 240.468 349.509 240.63C348.751 240.819 347.812 241.746 347.812 243.088C347.812 244.276 348.569 244.912 349.498 244.681ZM355.931 243.946C354.447 244.316 353.262 243.5 353.262 241.685C353.262 239.98 354.426 238.513 355.728 238.188C357.308 237.795 358.172 238.877 358.172 240.274V240.692L354.17 241.69C354.191 242.785 355.066 243.281 355.899 243.074C356.518 242.92 356.966 242.555 357.244 242.112L357.895 242.532C357.457 243.213 356.785 243.733 355.931 243.946ZM357.276 240.124C357.18 239.389 356.71 238.824 355.717 239.071C354.992 239.252 354.319 239.981 354.159 240.901L357.276 240.124Z" fill="#7A950E"/>
<path d="M195.573 435.942C195.381 435.99 195.208 435.995 195.058 435.971L194.978 436.464C194.483 436.384 194.089 436.075 193.893 435.614L194.353 435.418C194.293 435.278 194.257 435.109 194.257 434.911V433.913H193.757V431.919H194.257V429.924H193.757V427.93H194.257V425.936H193.757V423.941H194.257V421.947H193.757V419.952H194.257V417.958H193.757V415.963H194.257V413.969H193.757V411.974H194.257V409.98H193.757V407.985H194.257V405.991H193.757V403.996H194.257V402.002H193.757V400.008H194.257V398.013H193.757V396.019H194.257V394.024H193.757V392.03H194.257V390.035H193.757V388.041H194.257V386.046H193.757V384.052H194.257V382.057H193.757V380.063H194.257V378.068H193.757V376.074H194.257V374.08H193.757V372.085H194.257V370.091H193.757V368.096H194.257V366.102H193.757V364.107H194.257V362.113H193.757V360.118H194.257V358.124H193.757V356.129H194.257V354.135H193.757V352.14H194.257V350.146H193.757V348.152H194.257V346.157H193.757V344.163H194.257V342.168H193.757V340.174H194.257V338.179H193.757V336.185H194.257V334.19H193.757V332.196H194.257V330.201H193.757V328.207H194.257V326.212H193.757V324.218H194.257V322.224H193.757V320.229H194.257V318.235H193.757V316.24H194.257V314.246H193.757V312.251H194.257V310.257H193.757V308.262H194.257V306.268H193.757V304.273H194.257V302.279H193.757V300.284H194.257V298.29H193.757V296.296H194.257V294.301H193.757V292.307H194.257V290.312H193.757V288.318H194.257V286.323H193.757V284.329H194.257V282.334H193.757V280.34H194.257V278.345H193.757V276.351H194.257V274.356H193.757V272.362H194.257V270.368H193.757V268.373H194.257V266.379H193.757V264.384H194.257V262.39H193.757V260.395H194.257V258.401H193.757V256.406H194.257V254.412H193.757V252.417H194.257V250.423H193.757V248.428H194.257V246.434H193.757V244.44H194.257V242.445H193.757V240.451H194.257V238.456H193.757V236.462H194.257V234.467H193.757V232.473H194.257V230.478H193.757V228.484H194.257V226.489H193.757V224.495H194.257V222.5H193.757V220.506H194.257V218.512H193.757V216.517H194.257V215.52C194.257 215.307 194.299 215.086 194.38 214.871L193.912 214.694C194.109 214.172 194.478 213.701 194.938 213.384L195.221 213.796C195.411 213.665 195.615 213.571 195.821 213.52L196.786 213.282L196.666 212.796L198.595 212.32L198.715 212.805L200.645 212.328L200.525 211.843L202.454 211.366L202.574 211.851L204.503 211.374L204.383 210.889L206.313 210.412L206.432 210.898L208.362 210.421L208.242 209.935L210.171 209.459L210.291 209.944L212.22 209.467L212.1 208.982L214.03 208.505L214.15 208.99L216.079 208.513L215.959 208.028L217.888 207.551L218.008 208.037L219.938 207.56L219.818 207.074L221.747 206.597L221.867 207.083L223.796 206.606L223.676 206.121L225.605 205.644L225.725 206.129L227.655 205.652L227.535 205.167L229.464 204.69L229.584 205.175L231.513 204.699L231.393 204.213L233.323 203.736L233.443 204.222L235.372 203.745L235.252 203.26L237.181 202.783L237.301 203.268L239.23 202.791L239.111 202.306L241.04 201.829L241.16 202.314L243.089 201.838L242.969 201.352L244.898 200.875L245.018 201.361L246.948 200.884L246.828 200.398L248.757 199.922L248.877 200.407L250.806 199.93L250.686 199.445L252.616 198.968L252.736 199.453L254.665 198.976L254.545 198.491L256.474 198.014L256.594 198.5L258.523 198.023L258.403 197.537L260.333 197.061L260.453 197.546L262.382 197.069L262.262 196.584L264.191 196.107L264.311 196.592L266.241 196.115L266.121 195.63L268.05 195.153L268.17 195.639L270.099 195.162L269.979 194.676L271.909 194.199L272.029 194.685L273.958 194.208L273.838 193.723L275.767 193.246L275.887 193.731L277.816 193.254L277.696 192.769L279.626 192.292L279.746 192.777L281.675 192.301L281.555 191.815L283.484 191.338L283.604 191.824L285.534 191.347L285.414 190.862L287.343 190.385L287.463 190.87L289.392 190.393L289.272 189.908L291.201 189.431L291.321 189.916L293.251 189.44L293.131 188.954L295.06 188.477L295.18 188.963L297.109 188.486L296.989 188L298.919 187.524L299.039 188.009L300.968 187.532L300.848 187.047L302.777 186.57L302.897 187.055L304.827 186.578L304.707 186.093L306.636 185.616L306.756 186.102L308.685 185.625L308.565 185.139L310.494 184.663L310.614 185.148L312.544 184.671L312.424 184.186L314.353 183.709L314.473 184.194L316.402 183.717L316.282 183.232L318.212 182.755L318.332 183.241L320.261 182.764L320.141 182.278L322.07 181.801L322.19 182.287L324.119 181.81L324 181.325L325.929 180.848L326.049 181.333L327.978 180.856L327.858 180.371L329.787 179.894L329.907 180.379L331.837 179.903L331.717 179.417L333.646 178.94L333.766 179.426L335.695 178.949L335.575 178.464L337.505 177.987L337.625 178.472L339.554 177.995L339.434 177.51L341.363 177.033L341.483 177.518L343.412 177.042L343.292 176.556L345.222 176.079L345.342 176.565L347.271 176.088L347.151 175.602L349.08 175.126L349.2 175.611L351.13 175.134L351.01 174.649L352.939 174.172L353.059 174.657L354.988 174.18L354.868 173.695L356.798 173.218L356.917 173.704L358.847 173.227L358.727 172.741L360.656 172.265L360.776 172.75L362.705 172.273L362.585 171.788L364.515 171.311L364.635 171.796L366.564 171.319L366.444 170.834L368.373 170.357L368.493 170.843L370.423 170.366L370.303 169.88L372.232 169.403L372.352 169.889L374.281 169.412L374.161 168.927L376.09 168.45L376.21 168.935L378.14 168.458L378.02 167.973L379.949 167.496L380.069 167.982L381.998 167.505L381.878 167.019L383.808 166.542L383.928 167.028L385.857 166.551L385.737 166.066L387.666 165.589L387.786 166.074L389.716 165.597L389.596 165.112L391.525 164.635L391.645 165.12L393.574 164.644L393.454 164.158L395.383 163.681L395.503 164.167L397.433 163.69L397.313 163.204L399.242 162.728L399.362 163.213L401.291 162.736L401.171 162.251L403.101 161.774L403.221 162.259L405.15 161.783L405.03 161.297L406.959 160.82L407.079 161.306L409.008 160.829L408.889 160.343L410.818 159.867L410.938 160.352L412.867 159.875L412.747 159.39L414.676 158.913L414.796 159.398L416.726 158.921L416.606 158.436L418.535 157.959L418.655 158.445L420.584 157.968L420.464 157.482L422.394 157.005L422.514 157.491L424.443 157.014L424.323 156.529L426.252 156.052L426.372 156.537L428.301 156.06L428.181 155.575L430.111 155.098L430.231 155.584L432.16 155.107L432.04 154.621L433.969 154.144L434.089 154.63L436.019 154.153L435.899 153.668L437.828 153.191L437.948 153.676L439.877 153.199L439.757 152.714L441.687 152.237L441.806 152.722L443.736 152.246L443.616 151.76L445.545 151.283L445.665 151.769L447.594 151.292L447.474 150.807L449.404 150.33L449.524 150.815L451.453 150.338L451.333 149.853L453.262 149.376L453.382 149.861L455.312 149.384L455.192 148.899L457.121 148.422L457.241 148.908L459.17 148.431L459.05 147.945L460.98 147.469L461.1 147.954L463.029 147.477L462.909 146.992L464.838 146.515L464.958 147L466.887 146.523L466.767 146.038L468.697 145.561L468.817 146.047L469.781 145.808C469.974 145.761 470.147 145.756 470.296 145.78L470.376 145.286C470.871 145.367 471.265 145.676 471.462 146.137L471.002 146.333C471.061 146.472 471.098 146.642 471.098 146.84V147.837H471.598V149.832H471.098V151.826H471.598V153.821H471.098V155.815H471.598V157.809H471.098V159.804H471.598V161.798H471.098V163.793H471.598V165.787H471.098V167.782H471.598V169.776H471.098V171.771H471.598V173.765H471.098V175.76H471.598V177.754H471.098V179.749H471.598V181.743H471.098V183.737H471.598V185.732H471.098V187.726H471.598V189.721H471.098V191.715H471.598V193.71H471.098V195.704H471.598V197.699H471.098V199.693H471.598V201.688H471.098V203.682H471.598V205.677H471.098V207.671H471.598V209.665H471.098V211.66H471.598V213.654H471.098V215.649H471.598V217.643H471.098V219.638H471.598V221.632H471.098V223.627H471.598V225.621H471.098V227.616H471.598V229.61H471.098V231.605H471.598V233.599H471.098V235.593H471.598V237.588H471.098V239.582H471.598V241.577H471.098V243.571H471.598V245.566H471.098V247.56H471.598V249.555H471.098V251.549H471.598V253.544H471.098V255.538H471.598V257.533H471.098V259.527H471.598V261.521H471.098V263.516H471.598V265.51H471.098V267.505H471.598V269.499H471.098V271.494H471.598V273.488H471.098V275.483H471.598V277.477H471.098V279.472H471.598V281.466H471.098V283.461H471.598V285.455H471.098V287.449H471.598V289.444H471.098V291.438H471.598V293.433H471.098V295.427H471.598V297.422H471.098V299.416H471.598V301.411H471.098V303.405H471.598V305.4H471.098V307.394H471.598V309.389H471.098V311.383H471.598V313.377H471.098V315.372H471.598V317.366H471.098V319.361H471.598V321.355H471.098V323.35H471.598V325.344H471.098V327.339H471.598V329.333H471.098V331.328H471.598V333.322H471.098V335.317H471.598V337.311H471.098V339.305H471.598V341.3H471.098V343.294H471.598V345.289H471.098V347.283H471.598V349.278H471.098V351.272H471.598V353.267H471.098V355.261H471.598V357.256H471.098V359.25H471.598V361.245H471.098V363.239H471.598V365.233H471.098V366.231C471.098 366.444 471.055 366.664 470.974 366.88L471.442 367.056C471.245 367.579 470.877 368.05 470.417 368.366L470.133 367.954C469.943 368.085 469.74 368.179 469.533 368.23L468.568 368.469L468.688 368.954L466.759 369.431L466.639 368.945L464.71 369.422L464.83 369.908L462.901 370.385L462.781 369.899L460.851 370.376L460.971 370.861L459.042 371.338L458.922 370.853L456.993 371.33L457.113 371.815L455.183 372.292L455.063 371.807L453.134 372.283L453.254 372.769L451.325 373.246L451.205 372.76L449.276 373.237L449.396 373.723L447.466 374.199L447.346 373.714L445.417 374.191L445.537 374.676L443.608 375.153L443.488 374.668L441.558 375.145L441.678 375.63L439.749 376.107L439.629 375.621L437.7 376.098L437.82 376.584L435.89 377.06L435.77 376.575L433.841 377.052L433.961 377.537L432.032 378.014L431.912 377.529L429.983 378.006L430.103 378.491L428.173 378.968L428.053 378.482L426.124 378.959L426.244 379.445L424.315 379.922L424.195 379.436L422.265 379.913L422.385 380.398L420.456 380.875L420.336 380.39L418.407 380.867L418.527 381.352L416.598 381.829L416.478 381.343L414.548 381.82L414.668 382.306L412.739 382.783L412.619 382.297L410.69 382.774L410.81 383.259L408.88 383.736L408.76 383.251L406.831 383.728L406.951 384.213L405.022 384.69L404.902 384.205L402.972 384.681L403.092 385.167L401.163 385.644L401.043 385.158L399.114 385.635L399.234 386.12L397.305 386.597L397.185 386.112L395.255 386.589L395.375 387.074L393.446 387.551L393.326 387.066L391.397 387.542L391.517 388.028L389.587 388.505L389.467 388.019L387.538 388.496L387.658 388.982L385.729 389.458L385.609 388.973L383.68 389.45L383.799 389.935L381.87 390.412L381.75 389.927L379.821 390.404L379.941 390.889L378.012 391.366L377.892 390.88L375.962 391.357L376.082 391.843L374.153 392.32L374.033 391.834L372.104 392.311L372.224 392.796L370.294 393.273L370.174 392.788L368.245 393.265L368.365 393.75L366.436 394.227L366.316 393.742L364.387 394.218L364.507 394.704L362.577 395.181L362.457 394.695L360.528 395.172L360.648 395.657L358.719 396.134L358.599 395.649L356.669 396.126L356.789 396.611L354.86 397.088L354.74 396.603L352.811 397.079L352.931 397.565L351.001 398.042L350.882 397.556L348.952 398.033L349.072 398.519L347.143 398.995L347.023 398.51L345.094 398.987L345.214 399.472L343.284 399.949L343.164 399.464L341.235 399.94L341.355 400.426L339.426 400.903L339.306 400.417L337.376 400.894L337.496 401.38L335.567 401.856L335.447 401.371L333.518 401.848L333.638 402.333L331.708 402.81L331.589 402.325L329.659 402.802L329.779 403.287L327.85 403.764L327.73 403.278L325.801 403.755L325.921 404.241L323.991 404.717L323.871 404.232L321.942 404.709L322.062 405.194L320.133 405.671L320.013 405.186L318.083 405.663L318.203 406.148L316.274 406.625L316.154 406.139L314.225 406.616L314.345 407.102L312.416 407.579L312.296 407.093L310.366 407.57L310.486 408.055L308.557 408.532L308.437 408.047L306.508 408.524L306.628 409.009L304.698 409.486L304.578 409.001L302.649 409.477L302.769 409.963L300.84 410.44L300.72 409.954L298.791 410.431L298.91 410.917L296.981 411.393L296.861 410.908L294.932 411.385L295.052 411.87L293.123 412.347L293.003 411.862L291.073 412.339L291.193 412.824L289.264 413.301L289.144 412.815L287.215 413.292L287.335 413.778L285.405 414.254L285.285 413.769L283.356 414.246L283.476 414.731L281.547 415.208L281.427 414.723L279.498 415.2L279.618 415.685L277.688 416.162L277.568 415.676L275.639 416.153L275.759 416.639L273.83 417.116L273.71 416.63L271.78 417.107L271.9 417.592L269.971 418.069L269.851 417.584L267.922 418.061L268.042 418.546L266.112 419.023L265.993 418.538L264.063 419.014L264.183 419.5L262.254 419.977L262.134 419.491L260.205 419.968L260.325 420.453L258.395 420.93L258.275 420.445L256.346 420.922L256.466 421.407L254.537 421.884L254.417 421.399L252.487 421.875L252.607 422.361L250.678 422.838L250.558 422.352L248.629 422.829L248.749 423.315L246.82 423.791L246.7 423.306L244.77 423.783L244.89 424.268L242.961 424.745L242.841 424.26L240.912 424.736L241.032 425.222L239.102 425.699L238.982 425.213L237.053 425.69L237.173 426.176L235.244 426.652L235.124 426.167L233.194 426.644L233.314 427.129L231.385 427.606L231.265 427.121L229.336 427.598L229.456 428.083L227.527 428.56L227.407 428.074L225.477 428.551L225.597 429.037L223.668 429.513L223.548 429.028L221.619 429.505L221.739 429.99L219.809 430.467L219.689 429.982L217.76 430.459L217.88 430.944L215.951 431.421L215.831 430.935L213.902 431.412L214.021 431.898L212.092 432.375L211.972 431.889L210.043 432.366L210.163 432.851L208.234 433.328L208.114 432.843L206.184 433.32L206.304 433.805L204.375 434.282L204.255 433.797L202.326 434.273L202.446 434.759L200.516 435.236L200.396 434.75L198.467 435.227L198.587 435.713L196.658 436.189L196.538 435.704L195.573 435.942Z" stroke="#FF2C2C" stroke-dasharray="2 2"/>
</svg>
