<svg width="700" height="500" viewBox="0 0 700 500" fill="none" xmlns="http://www.w3.org/2000/svg">
<rect width="700" height="500" fill="#ECECEC"/>
<path d="M345.23 250.692L222.416 250.692" stroke="#B9B9B9"/>
<path d="M371.419 284.963V335.422" stroke="#B9B9B9"/>
<path d="M371.419 165.737V216.196" stroke="#B9B9B9"/>
<rect x="259.219" y="69.6448" width="224.401" height="360.71" rx="8" stroke="#A22CFF" stroke-dasharray="2 2"/>
<rect x="112.081" y="211.692" width="115" height="78" rx="1.5" fill="#ABF6D6"/>
<rect x="112.081" y="211.692" width="115" height="78" rx="1.5" stroke="#329168"/>
<path d="M141.911 256.192V244.992H143.287V256.192H141.911ZM149.746 256.368C147.682 256.368 145.922 254.704 145.922 252.16C145.922 249.52 147.954 247.92 149.81 247.92C150.722 247.92 151.426 248.144 151.81 248.576V244.992H153.138V256.192H151.81V255.488C151.474 256.016 150.69 256.368 149.746 256.368ZM149.81 255.088C150.658 255.088 151.442 254.72 151.81 254V250.16C151.458 249.568 150.802 249.2 149.826 249.2C148.69 249.2 147.282 250.208 147.282 252.16C147.282 253.888 148.418 255.088 149.81 255.088ZM159.453 256.352C157.229 256.352 155.453 254.736 155.453 252.096C155.453 249.616 157.197 247.904 159.149 247.904C161.517 247.904 162.813 249.792 162.813 251.824V252.432H156.813C156.845 254.032 158.157 255.072 159.405 255.072C160.333 255.072 161.005 254.704 161.421 254.16L162.397 255.008C161.741 255.84 160.733 256.352 159.453 256.352ZM161.469 251.28C161.325 250.176 160.621 249.184 159.133 249.184C158.045 249.184 157.037 250 156.797 251.28H161.469ZM165.138 256.192V248.08H166.466V249.008C166.898 248.288 167.554 247.904 168.514 247.904C170.066 247.904 171.362 248.896 171.362 250.976V256.192H170.034V251.152C170.034 249.872 169.234 249.232 168.37 249.232C167.218 249.232 166.466 250.064 166.466 251.104V256.192H165.138ZM176.72 256.192C175.744 256.192 174.816 255.792 174.816 254.448V249.36H173.008V248.08H174.816V245.568L176.144 244.992V248.08H178.304V249.36H176.144V254C176.144 254.688 176.56 254.896 177.04 254.896H177.968V256.192H176.72ZM181.418 246.224C180.842 246.224 180.378 245.76 180.378 245.184C180.378 244.576 180.842 244.128 181.418 244.128C182.026 244.128 182.49 244.576 182.49 245.184C182.49 245.76 182.026 246.224 181.418 246.224ZM180.778 256.192V248.08H182.106V256.192H180.778ZM187.814 256.192C186.838 256.192 185.91 255.792 185.91 254.448V249.36H184.102V248.08H185.91V245.568L187.238 244.992V248.08H189.398V249.36H187.238V254C187.238 254.688 187.654 254.896 188.134 254.896H189.062V256.192H187.814ZM192.352 259.088L193.952 255.392L190.912 248.08H192.336L194.672 253.696L197.104 248.08H198.528L193.76 259.088H192.352Z" fill="#329168"/>
<rect x="314.419" y="92.6921" width="114" height="78" rx="1.5" fill="#FFC2C2"/>
<rect x="314.419" y="92.6921" width="114" height="78" rx="1.5" stroke="#FF2C2C"/>
<path d="M333.179 137.192V125.992H334.875L337.803 130.584L340.731 125.992H342.363V137.192H340.987V128.152L337.851 132.936H337.707L334.555 128.072V137.192H333.179ZM346.202 127.224C345.626 127.224 345.162 126.76 345.162 126.184C345.162 125.576 345.626 125.128 346.202 125.128C346.81 125.128 347.274 125.576 347.274 126.184C347.274 126.76 346.81 127.224 346.202 127.224ZM345.562 137.192V129.08H346.89V137.192H345.562ZM353.19 137.352C350.934 137.352 349.206 135.56 349.206 133.128C349.206 130.696 350.95 128.904 353.19 128.904C354.534 128.904 355.478 129.464 356.086 130.296L355.062 131.08C354.646 130.536 353.99 130.2 353.174 130.2C351.718 130.2 350.566 131.384 350.566 133.128C350.566 134.856 351.718 136.072 353.174 136.072C353.99 136.072 354.63 135.72 355.062 135.192L356.07 135.992C355.414 136.84 354.518 137.352 353.19 137.352ZM358.328 137.192V129.08H359.656V130.296C359.944 129.608 360.808 129.016 361.928 129.016C362.568 129.016 363 129.112 363.448 129.416L362.808 130.696C362.568 130.52 362.232 130.44 361.816 130.44C360.824 130.44 359.896 131.016 359.656 132.424V137.192H358.328ZM368.327 137.368C366.119 137.368 364.487 135.528 364.487 133.128C364.487 130.744 366.119 128.904 368.327 128.904C370.535 128.904 372.183 130.744 372.183 133.128C372.183 135.528 370.535 137.368 368.327 137.368ZM368.327 136.088C369.783 136.088 370.823 134.776 370.823 133.144C370.823 131.496 369.783 130.184 368.327 130.184C366.871 130.184 365.847 131.496 365.847 133.144C365.847 134.776 366.871 136.088 368.327 136.088ZM377.924 137.352C375.668 137.352 373.94 135.56 373.94 133.128C373.94 130.696 375.684 128.904 377.924 128.904C379.268 128.904 380.212 129.464 380.82 130.296L379.796 131.08C379.38 130.536 378.724 130.2 377.908 130.2C376.452 130.2 375.3 131.384 375.3 133.128C375.3 134.856 376.452 136.072 377.908 136.072C378.724 136.072 379.364 135.72 379.796 135.192L380.804 135.992C380.148 136.84 379.252 137.352 377.924 137.352ZM386.186 137.368C383.978 137.368 382.346 135.528 382.346 133.128C382.346 130.744 383.978 128.904 386.186 128.904C388.394 128.904 390.042 130.744 390.042 133.128C390.042 135.528 388.394 137.368 386.186 137.368ZM386.186 136.088C387.642 136.088 388.682 134.776 388.682 133.144C388.682 131.496 387.642 130.184 386.186 130.184C384.73 130.184 383.706 131.496 383.706 133.144C383.706 134.776 384.73 136.088 386.186 136.088ZM394.919 137.368C393.655 137.368 392.343 136.872 391.559 135.928L392.439 134.984C392.967 135.624 393.959 136.136 395.015 136.136C396.007 136.136 396.647 135.752 396.647 135.064C396.647 134.552 396.311 134.248 395.847 134.088L393.559 133.304C392.519 132.952 391.895 132.232 391.895 131.288C391.895 129.848 393.303 128.92 394.903 128.92C395.991 128.92 397.111 129.272 397.959 130.216L397.047 131.096C396.551 130.488 395.719 130.152 394.823 130.152C394.023 130.152 393.207 130.488 393.207 131.192C393.207 131.672 393.543 131.928 394.023 132.088L396.119 132.808C397.239 133.192 397.959 133.816 397.959 134.968C397.959 136.376 396.855 137.368 394.919 137.368ZM400.281 137.192V129.08H401.609V129.848C401.993 129.224 402.569 128.904 403.385 128.904C404.217 128.904 404.873 129.272 405.305 130.008C405.785 129.208 406.601 128.904 407.337 128.904C409.001 128.904 410.057 130.056 410.057 131.576V137.192H408.729V131.688C408.729 130.728 408.121 130.216 407.321 130.216C406.569 130.216 405.833 130.728 405.833 131.688V137.192H404.505V131.688C404.505 130.728 403.817 130.216 403.049 130.216C402.265 130.216 401.609 130.728 401.609 131.688V137.192H400.281Z" fill="#FF2C2C"/>
<rect x="314.419" y="211.692" width="114" height="78" rx="1.5" fill="#B5DDEA"/>
<rect x="314.419" y="211.692" width="114" height="78" rx="1.5" stroke="#099FCE"/>
<path d="M339.626 256.4C336.57 256.4 334.618 253.808 334.618 250.608C334.618 247.408 336.57 244.816 339.626 244.816C341.338 244.816 342.538 245.584 343.322 246.768L342.186 247.6C341.674 246.768 340.762 246.192 339.61 246.192C337.546 246.192 336.026 248.176 336.026 250.608C336.026 253.04 337.546 255.024 339.61 255.024C340.762 255.024 341.674 254.464 342.186 253.648L343.338 254.432C342.554 255.632 341.338 256.4 339.626 256.4ZM348.616 256.368C346.408 256.368 344.776 254.528 344.776 252.128C344.776 249.744 346.408 247.904 348.616 247.904C350.824 247.904 352.472 249.744 352.472 252.128C352.472 254.528 350.824 256.368 348.616 256.368ZM348.616 255.088C350.072 255.088 351.112 253.776 351.112 252.144C351.112 250.496 350.072 249.184 348.616 249.184C347.16 249.184 346.136 250.496 346.136 252.144C346.136 253.776 347.16 255.088 348.616 255.088ZM354.789 256.192V244.992H356.117V256.192H354.789ZM358.992 256.192V244.992H360.32V256.192H358.992ZM366.635 256.352C364.411 256.352 362.635 254.736 362.635 252.096C362.635 249.616 364.379 247.904 366.331 247.904C368.699 247.904 369.995 249.792 369.995 251.824V252.432H363.995C364.027 254.032 365.339 255.072 366.587 255.072C367.515 255.072 368.187 254.704 368.603 254.16L369.579 255.008C368.923 255.84 367.915 256.352 366.635 256.352ZM368.651 251.28C368.507 250.176 367.803 249.184 366.315 249.184C365.227 249.184 364.219 250 363.979 251.28H368.651ZM375.744 256.352C373.488 256.352 371.76 254.56 371.76 252.128C371.76 249.696 373.504 247.904 375.744 247.904C377.088 247.904 378.032 248.464 378.64 249.296L377.616 250.08C377.2 249.536 376.544 249.2 375.728 249.2C374.272 249.2 373.12 250.384 373.12 252.128C373.12 253.856 374.272 255.072 375.728 255.072C376.544 255.072 377.184 254.72 377.616 254.192L378.624 254.992C377.968 255.84 377.072 256.352 375.744 256.352ZM383.715 256.192C382.739 256.192 381.811 255.792 381.811 254.448V249.36H380.003V248.08H381.811V245.568L383.139 244.992V248.08H385.299V249.36H383.139V254C383.139 254.688 383.555 254.896 384.035 254.896H384.963V256.192H383.715ZM388.413 246.224C387.837 246.224 387.373 245.76 387.373 245.184C387.373 244.576 387.837 244.128 388.413 244.128C389.021 244.128 389.485 244.576 389.485 245.184C389.485 245.76 389.021 246.224 388.413 246.224ZM387.773 256.192V248.08H389.101V256.192H387.773ZM395.257 256.368C393.049 256.368 391.417 254.528 391.417 252.128C391.417 249.744 393.049 247.904 395.257 247.904C397.465 247.904 399.113 249.744 399.113 252.128C399.113 254.528 397.465 256.368 395.257 256.368ZM395.257 255.088C396.713 255.088 397.753 253.776 397.753 252.144C397.753 250.496 396.713 249.184 395.257 249.184C393.801 249.184 392.777 250.496 392.777 252.144C392.777 253.776 393.801 255.088 395.257 255.088ZM401.43 256.192V248.08H402.758V249.008C403.19 248.288 403.846 247.904 404.806 247.904C406.358 247.904 407.654 248.896 407.654 250.976V256.192H406.326V251.152C406.326 249.872 405.526 249.232 404.662 249.232C403.51 249.232 402.758 250.064 402.758 251.104V256.192H401.43Z" fill="#099FCE"/>
<rect x="314.419" y="330.692" width="114" height="78" rx="1.5" fill="#E0F397"/>
<rect x="314.419" y="330.692" width="114" height="78" rx="1.5" stroke="#7A950E"/>
<path d="M353.32 375.192V363.992H355.048L360.04 373.064V363.992H361.416V375.192H359.672L354.696 366.136V375.192H353.32ZM367.889 375.368C365.681 375.368 364.049 373.528 364.049 371.128C364.049 368.744 365.681 366.904 367.889 366.904C370.097 366.904 371.745 368.744 371.745 371.128C371.745 373.528 370.097 375.368 367.889 375.368ZM367.889 374.088C369.345 374.088 370.385 372.776 370.385 371.144C370.385 369.496 369.345 368.184 367.889 368.184C366.433 368.184 365.409 369.496 365.409 371.144C365.409 372.776 366.433 374.088 367.889 374.088ZM377.327 375.368C375.263 375.368 373.503 373.704 373.503 371.16C373.503 368.52 375.535 366.92 377.391 366.92C378.303 366.92 379.007 367.144 379.391 367.576V363.992H380.719V375.192H379.391V374.488C379.055 375.016 378.271 375.368 377.327 375.368ZM377.391 374.088C378.239 374.088 379.023 373.72 379.391 373V369.16C379.039 368.568 378.383 368.2 377.407 368.2C376.271 368.2 374.863 369.208 374.863 371.16C374.863 372.888 375.999 374.088 377.391 374.088ZM387.034 375.352C384.81 375.352 383.034 373.736 383.034 371.096C383.034 368.616 384.778 366.904 386.73 366.904C389.098 366.904 390.394 368.792 390.394 370.824V371.432H384.394C384.426 373.032 385.738 374.072 386.986 374.072C387.914 374.072 388.586 373.704 389.002 373.16L389.978 374.008C389.322 374.84 388.314 375.352 387.034 375.352ZM389.05 370.28C388.906 369.176 388.202 368.184 386.714 368.184C385.626 368.184 384.618 369 384.378 370.28H389.05Z" fill="#7A950E"/>
<rect x="472.919" y="211.692" width="115" height="78" rx="1.5" fill="#ECD5FF"/>
<rect x="472.919" y="211.692" width="115" height="78" rx="1.5" stroke="#A22CFF"/>
<path d="M516.343 256.192L512.407 244.992H513.863L517.143 254.304L520.407 244.992H521.831L517.911 256.192H516.343ZM524.398 246.224C523.822 246.224 523.358 245.76 523.358 245.184C523.358 244.576 523.822 244.128 524.398 244.128C525.006 244.128 525.47 244.576 525.47 245.184C525.47 245.76 525.006 246.224 524.398 246.224ZM523.758 256.192V248.08H525.086V256.192H523.758ZM531.401 256.352C529.177 256.352 527.401 254.736 527.401 252.096C527.401 249.616 529.145 247.904 531.097 247.904C533.465 247.904 534.761 249.792 534.761 251.824V252.432H528.761C528.793 254.032 530.105 255.072 531.353 255.072C532.281 255.072 532.953 254.704 533.369 254.16L534.345 255.008C533.689 255.84 532.681 256.352 531.401 256.352ZM533.417 251.28C533.273 250.176 532.569 249.184 531.081 249.184C529.993 249.184 528.985 250 528.745 251.28H533.417ZM538.533 256.192L535.893 248.08H537.237L539.269 254.368L541.301 248.08H542.789L544.901 254.448L547.029 248.08H548.357L545.573 256.192H544.197L542.053 249.616L539.957 256.192H538.533Z" fill="#A22CFF"/>
</svg>
