<svg width="700" height="500" viewBox="0 0 700 500" fill="none" xmlns="http://www.w3.org/2000/svg">
<rect width="700" height="500" fill="#ECECEC"/>
<path d="M317.161 57.7784L372.491 43.983C373.295 43.7825 373.946 44.2917 373.946 45.1201V87.432C373.946 88.2605 373.295 89.0945 372.491 89.2949L317.161 103.09C316.357 103.291 315.705 102.782 315.705 101.953V59.6412C315.705 58.8128 316.357 57.9788 317.161 57.7784Z" fill="#ABF6D6" stroke="#329168"/>
<path d="M335.105 78.9031V77.9571L335.788 77.7868C336.386 77.6377 336.834 77.086 336.834 76.371V70.772L337.752 70.5431V76.3621C337.752 77.5501 336.888 78.4587 335.831 78.7221L335.105 78.9031ZM341.973 77.3118C340.5 77.679 339.411 76.6855 339.411 75.0355C339.411 73.3965 340.5 71.86 341.973 71.4928C343.446 71.1256 344.545 72.1165 344.545 73.7555C344.545 75.4055 343.446 76.9446 341.973 77.3118ZM341.973 76.4318C342.944 76.1896 343.638 75.1147 343.638 73.9927C343.638 72.8597 342.944 72.1306 341.973 72.3728C341.002 72.615 340.318 73.6873 340.318 74.8203C340.318 75.9423 341.002 76.674 341.973 76.4318ZM348.343 69.9046C349.378 69.6464 350.243 70.1129 350.243 71.5429V75.1289L349.357 75.3498V71.8848C349.357 71.0048 348.823 70.6978 348.247 70.8415C347.478 71.0331 346.977 71.7302 346.977 72.4452V75.9432L346.091 76.1641V68.4641L346.977 68.2432V71.0042C347.265 70.4374 347.702 70.0642 348.343 69.9046ZM352.115 74.662V69.085L353.001 68.8641V69.5021C353.289 68.9353 353.727 68.5622 354.367 68.4025C355.403 68.1444 356.267 68.6108 356.267 70.0408V73.6268L355.381 73.8477V70.3827C355.381 69.5027 354.848 69.1957 354.271 69.3394C353.503 69.531 353.001 70.2281 353.001 70.9431V74.4411L352.115 74.662Z" fill="#329168"/>
<path d="M287.285 213.253L363.977 267.621" stroke="#FF2C2C" stroke-dasharray="2 2"/>
<rect x="0.485148" y="0.379039" width="189.043" height="147.317" rx="1.5" transform="matrix(0.970296 -0.241922 0 1 104.015 112.214)" fill="#FFC2C2" stroke="#FF2C2C"/>
<path d="M143.159 151.229L202.525 136.427C203.329 136.227 203.98 136.736 203.98 137.564V206.033C203.98 206.861 203.329 207.695 202.525 207.896L143.159 222.697C142.355 222.898 141.703 222.389 141.703 221.56V153.092C141.703 152.263 142.355 151.429 143.159 151.229Z" fill="#B5DDEA" stroke="#099FCE"/>
<path d="M152.273 165.007C150.234 165.515 148.932 164.058 148.932 161.858C148.932 159.658 150.234 157.551 152.273 157.043C153.415 156.758 154.215 157.087 154.738 157.77L153.98 158.531C153.639 158.044 153.03 157.8 152.262 157.992C150.885 158.335 149.871 159.952 149.871 161.624C149.871 163.296 150.885 164.407 152.262 164.064C153.03 163.872 153.639 163.335 153.98 162.689L154.749 163.036C154.226 163.992 153.415 164.722 152.273 165.007ZM158.27 163.49C156.797 163.857 155.708 162.863 155.708 161.213C155.708 159.574 156.797 158.038 158.27 157.671C159.743 157.303 160.842 158.294 160.842 159.933C160.842 161.583 159.743 163.122 158.27 163.49ZM158.27 162.61C159.241 162.367 159.935 161.292 159.935 160.17C159.935 159.037 159.241 158.308 158.27 158.551C157.298 158.793 156.615 159.865 156.615 160.998C156.615 162.12 157.298 162.852 158.27 162.61ZM162.388 162.342V154.642L163.273 154.421V162.121L162.388 162.342ZM165.191 161.643V153.943L166.077 153.722V161.422L165.191 161.643ZM170.29 160.482C168.806 160.851 167.622 160.036 167.622 158.221C167.622 156.516 168.785 155.049 170.087 154.724C171.667 154.33 172.531 155.413 172.531 156.81V157.228L168.529 158.226C168.55 159.32 169.425 159.817 170.258 159.61C170.877 159.455 171.325 159.09 171.603 158.647L172.254 159.068C171.816 159.749 171.144 160.269 170.29 160.482ZM171.635 156.659C171.539 155.924 171.069 155.359 170.077 155.607C169.351 155.788 168.678 156.516 168.518 157.436L171.635 156.659ZM176.366 158.967C174.861 159.342 173.709 158.397 173.709 156.725C173.709 155.053 174.872 153.531 176.366 153.159C177.263 152.935 177.893 153.163 178.298 153.634L177.615 154.343C177.338 154.038 176.9 153.917 176.356 154.052C175.384 154.294 174.616 155.3 174.616 156.499C174.616 157.687 175.384 158.331 176.356 158.089C176.9 157.954 177.327 157.605 177.615 157.17L178.288 157.553C177.85 158.245 177.252 158.746 176.366 158.967ZM181.683 157.531C181.032 157.693 180.413 157.573 180.413 156.649V153.151L179.207 153.451V152.571L180.413 152.271V150.544L181.299 149.927V152.05L182.74 151.69V152.57L181.299 152.93V156.12C181.299 156.593 181.577 156.667 181.897 156.587L182.516 156.432V157.323L181.683 157.531ZM184.818 149.896C184.433 149.992 184.124 149.75 184.124 149.354C184.124 148.936 184.433 148.551 184.818 148.455C185.223 148.354 185.533 148.585 185.533 149.003C185.533 149.399 185.223 149.795 184.818 149.896ZM184.391 156.856V151.279L185.277 151.058V156.635L184.391 156.856ZM189.383 155.732C187.91 156.099 186.821 155.106 186.821 153.456C186.821 151.817 187.91 150.28 189.383 149.913C190.856 149.546 191.955 150.537 191.955 152.176C191.955 153.826 190.856 155.365 189.383 155.732ZM189.383 154.852C190.354 154.61 191.048 153.535 191.048 152.413C191.048 151.28 190.354 150.551 189.383 150.793C188.411 151.035 187.728 152.108 187.728 153.241C187.728 154.363 188.411 155.094 189.383 154.852ZM193.501 154.585V149.008L194.386 148.787V149.425C194.675 148.858 195.112 148.485 195.753 148.325C196.788 148.067 197.652 148.533 197.652 149.963V153.549L196.767 153.77V150.305C196.767 149.425 196.233 149.118 195.657 149.262C194.888 149.454 194.386 150.151 194.386 150.866V154.364L193.501 154.585Z" fill="#099FCE"/>
<rect x="0.485148" y="0.379039" width="41.4903" height="31.0406" rx="1.5" transform="matrix(0.970296 -0.241922 0 1 153.987 176.206)" fill="#E0F397" stroke="#7A950E"/>
<path d="M164.038 192.957V185.257L165.191 184.97L168.521 190.376V184.139L169.439 183.91V191.61L168.275 191.901L164.956 186.502V192.728L164.038 192.957ZM173.757 190.655C172.284 191.022 171.195 190.029 171.195 188.379C171.195 186.74 172.284 185.203 173.757 184.836C175.23 184.469 176.329 185.459 176.329 187.098C176.329 188.748 175.23 190.288 173.757 190.655ZM173.757 189.775C174.728 189.533 175.422 188.458 175.422 187.336C175.422 186.203 174.728 185.474 173.757 185.716C172.785 185.958 172.102 187.03 172.102 188.163C172.102 189.285 172.785 190.017 173.757 189.775ZM180.052 189.085C178.675 189.429 177.501 188.577 177.501 186.828C177.501 185.013 178.857 183.575 180.095 183.267C180.703 183.115 181.173 183.152 181.429 183.385V180.921L182.315 180.7V188.4L181.429 188.621V188.137C181.205 188.556 180.682 188.928 180.052 189.085ZM180.095 188.195C180.66 188.054 181.183 187.67 181.429 187.114V184.474C181.194 184.125 180.756 183.982 180.105 184.144C179.348 184.333 178.408 185.26 178.408 186.602C178.408 187.79 179.166 188.426 180.095 188.195ZM186.528 187.46C185.044 187.83 183.859 187.014 183.859 185.199C183.859 183.494 185.023 182.027 186.325 181.702C187.904 181.308 188.769 182.391 188.769 183.788V184.206L184.766 185.204C184.788 186.298 185.663 186.795 186.496 186.588C187.115 186.433 187.563 186.069 187.84 185.625L188.491 186.046C188.054 186.727 187.381 187.247 186.528 187.46ZM187.872 183.637C187.776 182.902 187.307 182.337 186.314 182.585C185.588 182.766 184.916 183.495 184.756 184.414L187.872 183.637Z" fill="#7A950E"/>
<rect x="0.485148" y="0.379039" width="41.4903" height="31.0406" rx="1.5" transform="matrix(0.970296 -0.241922 0 1 159.987 181.206)" fill="#E0F397" stroke="#7A950E"/>
<path d="M170.038 197.957V190.257L171.191 189.97L174.521 195.376V189.139L175.439 188.91V196.61L174.275 196.901L170.956 191.502V197.728L170.038 197.957ZM179.757 195.655C178.284 196.022 177.195 195.029 177.195 193.379C177.195 191.74 178.284 190.203 179.757 189.836C181.23 189.469 182.329 190.459 182.329 192.098C182.329 193.748 181.23 195.288 179.757 195.655ZM179.757 194.775C180.728 194.533 181.422 193.458 181.422 192.336C181.422 191.203 180.728 190.474 179.757 190.716C178.785 190.958 178.102 192.03 178.102 193.163C178.102 194.285 178.785 195.017 179.757 194.775ZM186.052 194.085C184.675 194.429 183.501 193.577 183.501 191.828C183.501 190.013 184.857 188.575 186.095 188.267C186.703 188.115 187.173 188.152 187.429 188.385V185.921L188.315 185.7V193.4L187.429 193.621V193.137C187.205 193.556 186.682 193.928 186.052 194.085ZM186.095 193.195C186.66 193.054 187.183 192.67 187.429 192.114V189.474C187.194 189.125 186.756 188.982 186.105 189.144C185.348 189.333 184.408 190.26 184.408 191.602C184.408 192.79 185.166 193.426 186.095 193.195ZM192.528 192.46C191.044 192.83 189.859 192.014 189.859 190.199C189.859 188.494 191.023 187.027 192.325 186.702C193.904 186.308 194.769 187.391 194.769 188.788V189.206L190.766 190.204C190.788 191.298 191.663 191.795 192.496 191.588C193.115 191.433 193.563 191.069 193.84 190.625L194.491 191.046C194.054 191.727 193.381 192.247 192.528 192.46ZM193.872 188.637C193.776 187.902 193.307 187.337 192.314 187.585C191.588 187.766 190.916 188.495 190.756 189.414L193.872 188.637Z" fill="#7A950E"/>
<path d="M235.455 106.707L294.821 91.9052C295.625 91.7048 296.276 92.2139 296.276 93.0423V161.511C296.276 162.339 295.625 163.173 294.821 163.374L235.455 178.175C234.651 178.376 233.999 177.867 233.999 177.038V108.57C233.999 107.741 234.651 106.907 235.455 106.707Z" fill="#B5DDEA" stroke="#099FCE"/>
<path d="M244.568 120.485C242.53 120.993 241.228 119.536 241.228 117.336C241.228 115.136 242.53 113.029 244.568 112.521C245.711 112.236 246.511 112.565 247.034 113.248L246.276 114.009C245.935 113.522 245.326 113.278 244.558 113.47C243.181 113.813 242.167 115.43 242.167 117.102C242.167 118.774 243.181 119.885 244.558 119.542C245.326 119.35 245.935 118.813 246.276 118.167L247.045 118.514C246.522 119.47 245.711 120.2 244.568 120.485ZM250.566 118.968C249.093 119.335 248.004 118.341 248.004 116.691C248.004 115.052 249.093 113.516 250.566 113.149C252.039 112.781 253.138 113.772 253.138 115.411C253.138 117.061 252.039 118.6 250.566 118.968ZM250.566 118.088C251.537 117.845 252.231 116.77 252.231 115.648C252.231 114.515 251.537 113.786 250.566 114.029C249.594 114.271 248.911 115.343 248.911 116.476C248.911 117.598 249.594 118.33 250.566 118.088ZM254.684 117.82V110.12L255.569 109.899V117.599L254.684 117.82ZM257.487 117.121V109.421L258.373 109.2V116.9L257.487 117.121ZM262.586 115.96C261.102 116.33 259.918 115.514 259.918 113.699C259.918 111.994 261.081 110.527 262.383 110.202C263.963 109.808 264.827 110.891 264.827 112.288V112.706L260.825 113.704C260.846 114.798 261.721 115.295 262.554 115.088C263.173 114.933 263.621 114.568 263.899 114.125L264.55 114.546C264.112 115.227 263.44 115.747 262.586 115.96ZM263.931 112.137C263.835 111.402 263.365 110.837 262.372 111.085C261.647 111.266 260.974 111.994 260.814 112.914L263.931 112.137ZM268.662 114.445C267.157 114.82 266.005 113.875 266.005 112.203C266.005 110.531 267.168 109.009 268.662 108.637C269.559 108.413 270.189 108.641 270.594 109.112L269.911 109.821C269.634 109.516 269.196 109.395 268.652 109.53C267.68 109.772 266.912 110.778 266.912 111.977C266.912 113.165 267.68 113.809 268.652 113.567C269.196 113.432 269.623 113.083 269.911 112.648L270.584 113.031C270.146 113.723 269.548 114.224 268.662 114.445ZM273.979 113.009C273.328 113.171 272.709 113.051 272.709 112.127V108.629L271.503 108.929V108.049L272.709 107.749V106.022L273.595 105.405V107.528L275.036 107.168V108.048L273.595 108.408V111.598C273.595 112.071 273.873 112.145 274.193 112.065L274.812 111.91V112.801L273.979 113.009ZM277.114 105.374C276.729 105.47 276.42 105.228 276.42 104.832C276.42 104.414 276.729 104.029 277.114 103.933C277.519 103.832 277.829 104.063 277.829 104.481C277.829 104.877 277.519 105.273 277.114 105.374ZM276.687 112.334V106.757L277.573 106.536V112.113L276.687 112.334ZM281.679 111.21C280.206 111.578 279.117 110.584 279.117 108.934C279.117 107.295 280.206 105.759 281.679 105.391C283.151 105.024 284.251 106.015 284.251 107.654C284.251 109.304 283.151 110.843 281.679 111.21ZM281.679 110.33C282.65 110.088 283.344 109.013 283.344 107.891C283.344 106.758 282.65 106.029 281.679 106.271C280.707 106.513 280.024 107.586 280.024 108.719C280.024 109.841 280.707 110.572 281.679 110.33ZM285.797 110.063V104.486L286.682 104.265V104.903C286.971 104.336 287.408 103.963 288.049 103.803C289.084 103.545 289.948 104.011 289.948 105.441V109.027L289.063 109.248V105.783C289.063 104.903 288.529 104.596 287.953 104.74C287.184 104.932 286.682 105.629 286.682 106.344V109.842L285.797 110.063Z" fill="#099FCE"/>
<rect x="0.485148" y="0.379039" width="41.4903" height="31.0406" rx="1.5" transform="matrix(0.970296 -0.241922 0 1 246.283 131.684)" fill="#E0F397" stroke="#7A950E"/>
<path d="M256.334 148.435V140.735L257.486 140.448L260.817 145.854V139.617L261.734 139.389V147.089L260.571 147.379L257.252 141.98V148.206L256.334 148.435ZM266.053 146.133C264.58 146.5 263.491 145.507 263.491 143.857C263.491 142.218 264.58 140.681 266.053 140.314C267.526 139.947 268.625 140.938 268.625 142.577C268.625 144.227 267.526 145.766 266.053 146.133ZM266.053 145.253C267.024 145.011 267.718 143.936 267.718 142.814C267.718 141.681 267.024 140.952 266.053 141.194C265.081 141.436 264.398 142.508 264.398 143.641C264.398 144.763 265.081 145.495 266.053 145.253ZM272.348 144.563C270.971 144.907 269.797 144.055 269.797 142.306C269.797 140.491 271.153 139.053 272.391 138.745C272.999 138.593 273.469 138.63 273.725 138.863V136.399L274.611 136.178V143.878L273.725 144.099V143.615C273.501 144.034 272.978 144.406 272.348 144.563ZM272.391 143.673C272.956 143.532 273.479 143.148 273.725 142.592V139.952C273.49 139.604 273.052 139.46 272.401 139.622C271.644 139.811 270.704 140.738 270.704 142.08C270.704 143.268 271.462 143.904 272.391 143.673ZM278.823 142.938C277.34 143.308 276.155 142.492 276.155 140.677C276.155 138.972 277.319 137.505 278.621 137.18C280.2 136.786 281.065 137.869 281.065 139.266V139.684L277.062 140.682C277.084 141.777 277.959 142.273 278.791 142.066C279.411 141.911 279.859 141.547 280.136 141.103L280.787 141.524C280.35 142.205 279.677 142.725 278.823 142.938ZM280.168 139.115C280.072 138.38 279.603 137.815 278.61 138.063C277.884 138.244 277.212 138.973 277.052 139.892L280.168 139.115Z" fill="#7A950E"/>
<rect x="0.485148" y="0.379039" width="41.4903" height="31.0406" rx="1.5" transform="matrix(0.970296 -0.241922 0 1 252.283 136.684)" fill="#E0F397" stroke="#7A950E"/>
<path d="M262.334 153.435V145.735L263.486 145.448L266.817 150.854V144.617L267.734 144.389V152.089L266.571 152.379L263.252 146.98V153.206L262.334 153.435ZM272.053 151.133C270.58 151.5 269.491 150.507 269.491 148.857C269.491 147.218 270.58 145.681 272.053 145.314C273.526 144.947 274.625 145.938 274.625 147.577C274.625 149.227 273.526 150.766 272.053 151.133ZM272.053 150.253C273.024 150.011 273.718 148.936 273.718 147.814C273.718 146.681 273.024 145.952 272.053 146.194C271.081 146.436 270.398 147.508 270.398 148.641C270.398 149.763 271.081 150.495 272.053 150.253ZM278.348 149.563C276.971 149.907 275.797 149.055 275.797 147.306C275.797 145.491 277.153 144.053 278.391 143.745C278.999 143.593 279.469 143.63 279.725 143.863V141.399L280.611 141.178V148.878L279.725 149.099V148.615C279.501 149.034 278.978 149.406 278.348 149.563ZM278.391 148.673C278.956 148.532 279.479 148.148 279.725 147.592V144.952C279.49 144.604 279.052 144.46 278.401 144.622C277.644 144.811 276.704 145.738 276.704 147.08C276.704 148.268 277.462 148.904 278.391 148.673ZM284.823 147.938C283.34 148.308 282.155 147.492 282.155 145.677C282.155 143.972 283.319 142.505 284.621 142.18C286.2 141.786 287.065 142.869 287.065 144.266V144.684L283.062 145.682C283.084 146.777 283.959 147.273 284.791 147.066C285.411 146.911 285.859 146.547 286.136 146.103L286.787 146.524C286.35 147.205 285.677 147.725 284.823 147.938ZM286.168 144.115C286.072 143.38 285.603 142.815 284.61 143.063C283.884 143.244 283.212 143.973 283.052 144.892L286.168 144.115Z" fill="#7A950E"/>
<path d="M281.931 183.547L341.297 168.745C342.101 168.545 342.752 169.054 342.752 169.883V238.351C342.752 239.18 342.101 240.014 341.297 240.214L281.931 255.016C281.127 255.216 280.475 254.707 280.475 253.879V185.41C280.475 184.582 281.127 183.748 281.931 183.547Z" fill="#B5DDEA" stroke="#099FCE"/>
<path d="M291.045 197.325C289.006 197.833 287.704 196.376 287.704 194.176C287.704 191.976 289.006 189.869 291.045 189.361C292.187 189.076 292.987 189.405 293.51 190.088L292.752 190.849C292.411 190.363 291.803 190.118 291.034 190.31C289.657 190.653 288.643 192.27 288.643 193.942C288.643 195.614 289.657 196.725 291.034 196.382C291.803 196.19 292.411 195.654 292.752 195.007L293.521 195.355C292.998 196.31 292.187 197.04 291.045 197.325ZM297.042 195.808C295.569 196.175 294.48 195.182 294.48 193.532C294.48 191.893 295.569 190.356 297.042 189.989C298.515 189.622 299.614 190.613 299.614 192.252C299.614 193.902 298.515 195.441 297.042 195.808ZM297.042 194.928C298.013 194.686 298.707 193.611 298.707 192.489C298.707 191.356 298.013 190.627 297.042 190.869C296.071 191.111 295.387 192.183 295.387 193.316C295.387 194.438 296.071 195.17 297.042 194.928ZM301.16 194.66V186.96L302.046 186.739V194.439L301.16 194.66ZM303.964 193.961V186.261L304.849 186.04V193.74L303.964 193.961ZM309.062 192.8C307.579 193.17 306.394 192.354 306.394 190.539C306.394 188.834 307.557 187.367 308.859 187.043C310.439 186.649 311.304 187.731 311.304 189.128V189.546L307.301 190.544C307.322 191.639 308.198 192.135 309.03 191.928C309.649 191.774 310.097 191.409 310.375 190.966L311.026 191.386C310.588 192.067 309.916 192.587 309.062 192.8ZM310.407 188.978C310.311 188.243 309.841 187.678 308.849 187.925C308.123 188.106 307.45 188.835 307.29 189.755L310.407 188.978ZM315.139 191.285C313.634 191.66 312.481 190.716 312.481 189.044C312.481 187.372 313.644 185.849 315.139 185.477C316.035 185.253 316.665 185.481 317.07 185.952L316.387 186.662C316.11 186.357 315.672 186.235 315.128 186.371C314.157 186.613 313.388 187.618 313.388 188.817C313.388 190.005 314.157 190.65 315.128 190.408C315.672 190.272 316.099 189.923 316.387 189.489L317.06 189.871C316.622 190.563 316.024 191.064 315.139 191.285ZM320.456 189.849C319.804 190.012 319.185 189.891 319.185 188.967V185.469L317.979 185.77V184.89L319.185 184.589V182.862L320.071 182.245V184.368L321.512 184.009V184.889L320.071 185.248V188.438C320.071 188.911 320.349 188.985 320.669 188.905L321.288 188.751V189.642L320.456 189.849ZM323.59 182.215C323.206 182.311 322.896 182.069 322.896 181.673C322.896 181.255 323.206 180.87 323.59 180.774C323.995 180.673 324.305 180.903 324.305 181.321C324.305 181.717 323.995 182.114 323.59 182.215ZM323.163 189.174V183.597L324.049 183.376V188.953L323.163 189.174ZM328.155 188.051C326.682 188.418 325.593 187.424 325.593 185.774C325.593 184.135 326.682 182.599 328.155 182.232C329.628 181.864 330.727 182.855 330.727 184.494C330.727 186.144 329.628 187.683 328.155 188.051ZM328.155 187.171C329.126 186.928 329.82 185.853 329.82 184.731C329.82 183.598 329.126 182.869 328.155 183.112C327.184 183.354 326.5 184.426 326.5 185.559C326.5 186.681 327.184 187.413 328.155 187.171ZM332.273 186.903V181.326L333.159 181.105V181.743C333.447 181.176 333.884 180.803 334.525 180.643C335.56 180.385 336.425 180.852 336.425 182.282V185.868L335.539 186.089V182.624C335.539 181.744 335.005 181.437 334.429 181.58C333.66 181.772 333.159 182.469 333.159 183.184V186.682L332.273 186.903Z" fill="#099FCE"/>
<rect x="0.485148" y="0.379039" width="41.4903" height="31.0406" rx="1.5" transform="matrix(0.970296 -0.241922 0 1 292.759 208.525)" fill="#E0F397" stroke="#7A950E"/>
<path d="M302.81 225.275V217.575L303.963 217.288L307.293 222.695V216.458L308.211 216.229V223.929L307.047 224.219L303.728 218.821V225.047L302.81 225.275ZM312.529 222.973C311.056 223.34 309.967 222.347 309.967 220.697C309.967 219.058 311.056 217.521 312.529 217.154C314.002 216.787 315.101 217.778 315.101 219.417C315.101 221.067 314.002 222.606 312.529 222.973ZM312.529 222.093C313.5 221.851 314.194 220.776 314.194 219.654C314.194 218.521 313.5 217.792 312.529 218.034C311.558 218.276 310.875 219.349 310.875 220.482C310.875 221.604 311.558 222.335 312.529 222.093ZM318.824 221.404C317.447 221.747 316.273 220.896 316.273 219.147C316.273 217.332 317.629 215.894 318.867 215.585C319.475 215.433 319.945 215.47 320.201 215.703V213.239L321.087 213.018V220.718L320.201 220.939V220.455C319.977 220.874 319.454 221.247 318.824 221.404ZM318.867 220.513C319.433 220.372 319.956 219.989 320.201 219.432V216.792C319.966 216.444 319.529 216.3 318.878 216.462C318.12 216.651 317.181 217.578 317.181 218.92C317.181 220.108 317.938 220.744 318.867 220.513ZM325.3 219.778C323.816 220.148 322.631 219.332 322.631 217.517C322.631 215.812 323.795 214.345 325.097 214.021C326.677 213.627 327.541 214.709 327.541 216.106V216.524L323.539 217.522C323.56 218.617 324.435 219.114 325.268 218.906C325.887 218.752 326.335 218.387 326.613 217.944L327.264 218.364C326.826 219.046 326.154 219.565 325.3 219.778ZM326.645 215.956C326.548 215.221 326.079 214.656 325.086 214.903C324.36 215.084 323.688 215.813 323.528 216.733L326.645 215.956Z" fill="#7A950E"/>
<rect x="0.485148" y="0.379039" width="41.4903" height="31.0406" rx="1.5" transform="matrix(0.970296 -0.241922 0 1 298.759 213.525)" fill="#E0F397" stroke="#7A950E"/>
<path d="M308.81 230.275V222.575L309.963 222.288L313.293 227.695V221.458L314.211 221.229V228.929L313.047 229.219L309.728 223.821V230.047L308.81 230.275ZM318.529 227.973C317.056 228.34 315.967 227.347 315.967 225.697C315.967 224.058 317.056 222.521 318.529 222.154C320.002 221.787 321.101 222.778 321.101 224.417C321.101 226.067 320.002 227.606 318.529 227.973ZM318.529 227.093C319.5 226.851 320.194 225.776 320.194 224.654C320.194 223.521 319.5 222.792 318.529 223.034C317.558 223.276 316.875 224.349 316.875 225.482C316.875 226.604 317.558 227.335 318.529 227.093ZM324.824 226.404C323.447 226.747 322.273 225.896 322.273 224.147C322.273 222.332 323.629 220.894 324.867 220.585C325.475 220.433 325.945 220.47 326.201 220.703V218.239L327.087 218.018V225.718L326.201 225.939V225.455C325.977 225.874 325.454 226.247 324.824 226.404ZM324.867 225.513C325.433 225.372 325.956 224.989 326.201 224.432V221.792C325.966 221.444 325.529 221.3 324.878 221.462C324.12 221.651 323.181 222.578 323.181 223.92C323.181 225.108 323.938 225.744 324.867 225.513ZM331.3 224.778C329.816 225.148 328.631 224.332 328.631 222.517C328.631 220.812 329.795 219.345 331.097 219.021C332.677 218.627 333.541 219.709 333.541 221.106V221.524L329.539 222.522C329.56 223.617 330.435 224.114 331.268 223.906C331.887 223.752 332.335 223.387 332.613 222.944L333.264 223.364C332.826 224.046 332.154 224.565 331.3 224.778ZM332.645 220.956C332.548 220.221 332.079 219.656 331.086 219.903C330.36 220.084 329.688 220.813 329.528 221.733L332.645 220.956Z" fill="#7A950E"/>
<path d="M193.853 218.913L253.219 204.112C254.023 203.911 254.675 204.42 254.675 205.249V273.717C254.675 274.546 254.023 275.38 253.219 275.58L193.853 290.382C193.049 290.582 192.397 290.073 192.397 289.245V220.776C192.397 219.948 193.049 219.114 193.853 218.913Z" fill="#B5DDEA" stroke="#099FCE"/>
<path d="M202.967 232.691C200.928 233.2 199.626 231.742 199.626 229.542C199.626 227.342 200.928 225.236 202.967 224.727C204.109 224.443 204.909 224.771 205.432 225.455L204.675 226.216C204.333 225.729 203.725 225.484 202.956 225.676C201.579 226.019 200.565 227.636 200.565 229.308C200.565 230.98 201.579 232.091 202.956 231.748C203.725 231.556 204.333 231.02 204.675 230.374L205.443 230.721C204.92 231.676 204.109 232.407 202.967 232.691ZM208.964 231.174C207.491 231.541 206.402 230.548 206.402 228.898C206.402 227.259 207.491 225.722 208.964 225.355C210.437 224.988 211.536 225.979 211.536 227.618C211.536 229.268 210.437 230.807 208.964 231.174ZM208.964 230.294C209.935 230.052 210.629 228.977 210.629 227.855C210.629 226.722 209.935 225.993 208.964 226.235C207.993 226.477 207.31 227.55 207.31 228.683C207.31 229.805 207.993 230.536 208.964 230.294ZM213.082 230.026V222.326L213.968 222.106V229.806L213.082 230.026ZM215.886 229.327V221.627L216.772 221.406V229.106L215.886 229.327ZM220.984 228.166C219.501 228.536 218.316 227.72 218.316 225.905C218.316 224.2 219.479 222.733 220.782 222.409C222.361 222.015 223.226 223.097 223.226 224.494V224.912L219.223 225.91C219.245 227.005 220.12 227.502 220.952 227.294C221.571 227.14 222.02 226.775 222.297 226.332L222.948 226.753C222.511 227.434 221.838 227.953 220.984 228.166ZM222.329 224.344C222.233 223.609 221.763 223.044 220.771 223.291C220.045 223.472 219.373 224.201 219.213 225.121L222.329 224.344ZM227.061 226.651C225.556 227.026 224.403 226.082 224.403 224.41C224.403 222.738 225.567 221.216 227.061 220.843C227.957 220.62 228.587 220.848 228.993 221.318L228.31 222.028C228.032 221.723 227.594 221.601 227.05 221.737C226.079 221.979 225.31 222.985 225.31 224.184C225.31 225.372 226.079 226.016 227.05 225.774C227.594 225.638 228.021 225.29 228.31 224.855L228.982 225.237C228.544 225.929 227.947 226.43 227.061 226.651ZM232.378 225.215C231.727 225.378 231.108 225.257 231.108 224.333V220.835L229.902 221.136V220.256L231.108 219.955V218.228L231.993 217.611V219.734L233.434 219.375V220.255L231.993 220.614V223.804C231.993 224.277 232.271 224.351 232.591 224.271L233.21 224.117V225.008L232.378 225.215ZM235.512 217.581C235.128 217.677 234.818 217.435 234.818 217.039C234.818 216.621 235.128 216.236 235.512 216.14C235.918 216.039 236.227 216.27 236.227 216.688C236.227 217.084 235.918 217.48 235.512 217.581ZM235.085 224.54V218.963L235.971 218.743V224.32L235.085 224.54ZM240.077 223.417C238.604 223.784 237.515 222.791 237.515 221.141C237.515 219.502 238.604 217.965 240.077 217.598C241.55 217.231 242.649 218.221 242.649 219.86C242.649 221.51 241.55 223.05 240.077 223.417ZM240.077 222.537C241.048 222.295 241.742 221.22 241.742 220.098C241.742 218.965 241.048 218.236 240.077 218.478C239.106 218.72 238.423 219.792 238.423 220.925C238.423 222.047 239.106 222.779 240.077 222.537ZM244.195 222.269V216.692L245.081 216.471V217.109C245.369 216.542 245.807 216.169 246.447 216.01C247.482 215.751 248.347 216.218 248.347 217.648V221.234L247.461 221.455V217.99C247.461 217.11 246.927 216.803 246.351 216.947C245.582 217.138 245.081 217.835 245.081 218.55V222.048L244.195 222.269Z" fill="#099FCE"/>
<rect x="0.485148" y="0.379039" width="41.4903" height="31.0406" rx="1.5" transform="matrix(0.970296 -0.241922 0 1 204.681 243.891)" fill="#E0F397" stroke="#7A950E"/>
<path d="M214.732 260.642V252.942L215.885 252.654L219.215 258.061V251.824L220.133 251.595V259.295L218.969 259.585L215.65 254.187V260.413L214.732 260.642ZM224.451 258.339C222.978 258.707 221.89 257.713 221.89 256.063C221.89 254.424 222.978 252.888 224.451 252.52C225.924 252.153 227.023 253.144 227.023 254.783C227.023 256.433 225.924 257.972 224.451 258.339ZM224.451 257.459C225.422 257.217 226.116 256.142 226.116 255.02C226.116 253.887 225.422 253.158 224.451 253.4C223.48 253.643 222.797 254.715 222.797 255.848C222.797 256.97 223.48 257.702 224.451 257.459ZM230.746 256.77C229.37 257.113 228.196 256.262 228.196 254.513C228.196 252.698 229.551 251.26 230.789 250.951C231.397 250.799 231.867 250.836 232.123 251.07V248.606L233.009 248.385V256.085L232.123 256.306V255.822C231.899 256.24 231.376 256.613 230.746 256.77ZM230.789 255.879C231.355 255.738 231.878 255.355 232.123 254.799V252.159C231.888 251.81 231.451 251.666 230.8 251.829C230.042 252.017 229.103 252.945 229.103 254.287C229.103 255.475 229.861 256.111 230.789 255.879ZM237.222 255.144C235.738 255.514 234.554 254.699 234.554 252.884C234.554 251.179 235.717 249.712 237.019 249.387C238.599 248.993 239.463 250.075 239.463 251.472V251.89L235.461 252.888C235.482 253.983 236.357 254.48 237.19 254.272C237.809 254.118 238.257 253.753 238.535 253.31L239.186 253.731C238.748 254.412 238.076 254.931 237.222 255.144ZM238.567 251.322C238.471 250.587 238.001 250.022 237.008 250.27C236.283 250.45 235.61 251.179 235.45 252.099L238.567 251.322Z" fill="#7A950E"/>
<rect x="0.485148" y="0.379039" width="41.4903" height="31.0406" rx="1.5" transform="matrix(0.970296 -0.241922 0 1 210.681 248.891)" fill="#E0F397" stroke="#7A950E"/>
<path d="M220.732 265.642V257.942L221.885 257.654L225.215 263.061V256.824L226.133 256.595V264.295L224.969 264.585L221.65 259.187V265.413L220.732 265.642ZM230.451 263.339C228.978 263.707 227.89 262.713 227.89 261.063C227.89 259.424 228.978 257.888 230.451 257.52C231.924 257.153 233.023 258.144 233.023 259.783C233.023 261.433 231.924 262.972 230.451 263.339ZM230.451 262.459C231.422 262.217 232.116 261.142 232.116 260.02C232.116 258.887 231.422 258.158 230.451 258.4C229.48 258.643 228.797 259.715 228.797 260.848C228.797 261.97 229.48 262.702 230.451 262.459ZM236.746 261.77C235.37 262.113 234.196 261.262 234.196 259.513C234.196 257.698 235.551 256.26 236.789 255.951C237.397 255.799 237.867 255.836 238.123 256.07V253.606L239.009 253.385V261.085L238.123 261.306V260.822C237.899 261.24 237.376 261.613 236.746 261.77ZM236.789 260.879C237.355 260.738 237.878 260.355 238.123 259.799V257.159C237.888 256.81 237.451 256.666 236.8 256.829C236.042 257.017 235.103 257.945 235.103 259.287C235.103 260.475 235.861 261.111 236.789 260.879ZM243.222 260.144C241.738 260.514 240.554 259.699 240.554 257.884C240.554 256.179 241.717 254.712 243.019 254.387C244.599 253.993 245.463 255.075 245.463 256.472V256.89L241.461 257.888C241.482 258.983 242.357 259.48 243.19 259.272C243.809 259.118 244.257 258.753 244.535 258.31L245.186 258.731C244.748 259.412 244.076 259.931 243.222 260.144ZM244.567 256.322C244.471 255.587 244.001 255.022 243.008 255.27C242.283 255.45 241.61 256.179 241.45 257.099L244.567 256.322Z" fill="#7A950E"/>
<path d="M174.179 113.934V106.234L175.31 105.952L177.264 108.622L179.217 104.978L180.306 104.707V112.407L179.388 112.636V106.421L177.296 110.231L177.2 110.255L175.097 107.435V113.705L174.179 113.934ZM182.867 104.915C182.482 105.011 182.173 104.769 182.173 104.373C182.173 103.955 182.482 103.57 182.867 103.474C183.272 103.373 183.582 103.604 183.582 104.022C183.582 104.418 183.272 104.814 182.867 104.915ZM182.44 111.875V106.298L183.325 106.077V111.654L182.44 111.875ZM187.527 110.716C186.023 111.091 184.87 110.147 184.87 108.475C184.87 106.803 186.033 105.281 187.527 104.908C188.424 104.685 189.054 104.913 189.459 105.384L188.776 106.093C188.499 105.788 188.061 105.666 187.517 105.802C186.546 106.044 185.777 107.05 185.777 108.249C185.777 109.437 186.546 110.081 187.517 109.839C188.061 109.703 188.488 109.355 188.776 108.92L189.449 109.302C189.011 109.994 188.413 110.495 187.527 110.716ZM190.955 109.752V104.175L191.841 103.954V104.79C192.033 104.269 192.61 103.718 193.357 103.532C193.784 103.425 194.072 103.419 194.371 103.554L193.944 104.54C193.784 104.459 193.56 104.46 193.282 104.529C192.62 104.694 192.001 105.245 191.841 106.253V109.531L190.955 109.752ZM197.625 108.21C196.152 108.577 195.064 107.583 195.064 105.933C195.064 104.294 196.152 102.758 197.625 102.391C199.098 102.023 200.197 103.014 200.197 104.653C200.197 106.303 199.098 107.842 197.625 108.21ZM197.625 107.33C198.596 107.087 199.29 106.012 199.29 104.89C199.29 103.757 198.596 103.028 197.625 103.271C196.654 103.513 195.971 104.585 195.971 105.718C195.971 106.84 196.654 107.572 197.625 107.33ZM204.027 106.602C202.522 106.978 201.37 106.033 201.37 104.361C201.37 102.689 202.533 101.167 204.027 100.794C204.924 100.571 205.554 100.799 205.959 101.27L205.276 101.979C204.999 101.674 204.561 101.552 204.017 101.688C203.045 101.93 202.277 102.936 202.277 104.135C202.277 105.323 203.045 105.967 204.017 105.725C204.561 105.589 204.988 105.241 205.276 104.806L205.948 105.188C205.511 105.88 204.913 106.381 204.027 106.602ZM209.539 105.239C208.066 105.606 206.977 104.613 206.977 102.963C206.977 101.324 208.066 99.7874 209.539 99.4202C211.012 99.0529 212.111 100.044 212.111 101.683C212.111 103.333 211.012 104.872 209.539 105.239ZM209.539 104.359C210.51 104.117 211.204 103.042 211.204 101.92C211.204 100.787 210.51 100.058 209.539 100.3C208.568 100.542 207.884 101.615 207.884 102.748C207.884 103.87 208.568 104.601 209.539 104.359ZM215.365 103.787C214.521 103.997 213.646 103.874 213.123 103.355L213.71 102.56C214.062 102.912 214.724 103.099 215.429 102.924C216.09 102.759 216.517 102.388 216.517 101.915C216.517 101.563 216.293 101.41 215.984 101.377L214.457 101.219C213.764 101.15 213.347 100.759 213.347 100.11C213.347 99.1196 214.287 98.2474 215.354 97.9813C216.08 97.8004 216.827 97.8561 217.392 98.364L216.784 99.1207C216.453 98.7852 215.898 98.6926 215.3 98.8416C214.767 98.9747 214.222 99.3414 214.222 99.8254C214.222 100.155 214.447 100.276 214.767 100.306L216.165 100.452C216.912 100.53 217.392 100.839 217.392 101.631C217.392 102.599 216.656 103.465 215.365 103.787ZM218.941 102.774V97.1969L219.827 96.976V97.504C220.083 97.0111 220.468 96.6953 221.012 96.5596C221.567 96.4212 222.005 96.5651 222.293 96.9993C222.613 96.3694 223.157 96.0247 223.648 95.9023C224.758 95.6255 225.463 96.2419 225.463 97.2869V101.148L224.577 101.369V97.5848C224.577 96.9248 224.171 96.6739 223.638 96.807C223.136 96.932 222.645 97.4064 222.645 98.0664V101.85L221.759 102.071V98.2873C221.759 97.6273 221.3 97.3897 220.788 97.5175C220.265 97.6479 219.827 98.109 219.827 98.769V102.553L218.941 102.774Z" fill="#FF2C2C"/>
<path d="M104.985 112.473L181.676 166.841" stroke="#FF2C2C" stroke-dasharray="2 2"/>
<path d="M104.985 260.339L181.676 314.708" stroke="#FF2C2C" stroke-dasharray="2 2"/>
<path d="M287.285 66.1208L363.977 120.489" stroke="#FF2C2C" stroke-dasharray="2 2"/>
<path d="M182.965 313.744C182.773 313.791 182.599 313.796 182.45 313.772L182.37 314.266C181.875 314.185 181.481 313.876 181.284 313.415L181.744 313.219C181.685 313.08 181.648 312.91 181.648 312.712V311.71H181.148V309.705H181.648V307.701H181.148V305.697H181.648V303.692H181.148V301.688H181.648V299.683H181.148V297.679H181.648V295.675H181.148V293.67H181.648V291.666H181.148V289.661H181.648V287.657H181.148V285.653H181.648V283.648H181.148V281.644H181.648V279.639H181.148V277.635H181.648V275.631H181.148V273.626H181.648V271.622H181.148V269.617H181.648V267.613H181.148V265.609H181.648V263.604H181.148V261.6H181.648V259.595H181.148V257.591H181.648V255.586H181.148V253.582H181.648V251.578H181.148V249.573H181.648V247.569H181.148V245.564H181.648V243.56H181.148V241.556H181.648V239.551H181.148V237.547H181.648V235.542H181.148V233.538H181.648V231.534H181.148V229.529H181.648V227.525H181.148V225.52H181.648V223.516H181.148V221.512H181.648V219.507H181.148V217.503H181.648V215.498H181.148V213.494H181.648V211.49H181.148V209.485H181.648V207.481H181.148V205.476H181.648V203.472H181.148V201.468H181.648V199.463H181.148V197.459H181.648V195.454H181.148V193.45H181.648V191.446H181.148V189.441H181.648V187.437H181.148V185.432H181.648V183.428H181.148V181.424H181.648V179.419H181.148V177.415H181.648V175.41H181.148V173.406H181.648V171.402H181.148V169.397H181.648V168.395C181.648 168.182 181.691 167.962 181.772 167.746L181.304 167.57C181.501 167.047 181.87 166.576 182.329 166.26L182.613 166.672C182.803 166.541 183.006 166.447 183.213 166.396L184.174 166.158L184.054 165.673L185.975 165.198L186.095 165.683L188.016 165.208L187.896 164.723L189.817 164.248L189.937 164.734L191.858 164.259L191.738 163.773L193.659 163.299L193.779 163.784L195.7 163.309L195.58 162.824L197.502 162.349L197.622 162.834L199.543 162.36L199.423 161.874L201.344 161.399L201.464 161.885L203.385 161.41L203.265 160.924L205.186 160.45L205.306 160.935L207.227 160.46L207.107 159.975L209.028 159.5L209.148 159.985L211.07 159.511L210.95 159.025L212.871 158.55L212.991 159.036L214.912 158.561L214.792 158.075L216.713 157.601L216.833 158.086L218.754 157.611L218.634 157.126L220.555 156.651L220.675 157.136L222.596 156.662L222.476 156.176L224.398 155.701L224.518 156.187L226.439 155.712L226.319 155.226L228.24 154.752L228.36 155.237L230.281 154.762L230.161 154.277L232.082 153.802L232.202 154.287L234.123 153.813L234.003 153.327L235.924 152.852L236.044 153.338L237.966 152.863L237.846 152.378L239.767 151.903L239.887 152.388L241.808 151.913L241.688 151.428L243.609 150.953L243.729 151.438L245.65 150.964L245.53 150.478L247.451 150.003L247.571 150.489L249.492 150.014L249.372 149.529L251.294 149.054L251.413 149.539L253.335 149.064L253.215 148.579L255.136 148.104L255.256 148.589L257.177 148.115L257.057 147.629L258.978 147.154L259.098 147.64L261.019 147.165L260.899 146.68L262.82 146.205L262.94 146.69L264.861 146.215L264.742 145.73L266.663 145.255L266.783 145.74L268.704 145.266L268.584 144.78L270.505 144.305L270.625 144.791L272.546 144.316L272.426 143.831L274.347 143.356L274.467 143.841L276.388 143.366L276.268 142.881L278.189 142.406L278.309 142.891L280.231 142.417L280.111 141.931L282.032 141.456L282.152 141.942L284.073 141.467L283.953 140.982L285.874 140.507L285.994 140.992L287.915 140.517L287.795 140.032L289.716 139.557L289.836 140.042L291.757 139.568L291.637 139.082L293.559 138.607L293.679 139.093L295.6 138.618L295.48 138.133L297.401 137.658L297.521 138.143L299.442 137.668L299.322 137.183L301.243 136.708L301.363 137.194L303.284 136.719L303.164 136.233L305.085 135.758L305.205 136.244L307.127 135.769L307.007 135.284L308.928 134.809L309.048 135.294L310.969 134.819L310.849 134.334L312.77 133.859L312.89 134.345L314.811 133.87L314.691 133.384L316.612 132.909L316.732 133.395L318.653 132.92L318.533 132.435L320.455 131.96L320.575 132.445L322.496 131.97L322.376 131.485L324.297 131.01L324.417 131.496L326.338 131.021L326.218 130.535L328.139 130.061L328.259 130.546L330.18 130.071L330.06 129.586L331.981 129.111L332.101 129.596L334.022 129.121L333.902 128.636L335.824 128.161L335.944 128.647L337.865 128.172L337.745 127.686L339.666 127.212L339.786 127.697L341.707 127.222L341.587 126.737L343.508 126.262L343.628 126.747L345.549 126.272L345.429 125.787L347.35 125.312L347.47 125.798L349.391 125.323L349.272 124.837L351.193 124.363L351.313 124.848L353.234 124.373L353.114 123.888L355.035 123.413L355.155 123.898L357.076 123.423L356.956 122.938L358.877 122.463L358.997 122.949L360.918 122.474L360.798 121.988L362.719 121.514L362.839 121.999L363.8 121.762C363.992 121.714 364.166 121.709 364.315 121.733L364.395 121.24C364.89 121.32 365.284 121.629 365.481 122.09L365.021 122.286C365.08 122.426 365.117 122.595 365.117 122.793V123.796H365.617V125.8H365.117V127.804H365.617V129.809H365.117V131.813H365.617V133.818H365.117V135.822H365.617V137.826H365.117V139.831H365.617V141.835H365.117V143.84H365.617V145.844H365.117V147.848H365.617V149.853H365.117V151.857H365.617V153.862H365.117V155.866H365.617V157.87H365.117V159.875H365.617V161.879H365.117V163.884H365.617V165.888H365.117V167.892H365.617V169.897H365.117V171.901H365.617V173.906H365.117V175.91H365.617V177.914H365.117V179.919H365.617V181.923H365.117V183.928H365.617V185.932H365.117V187.936H365.617V189.941H365.117V191.945H365.617V193.95H365.117V195.954H365.617V197.958H365.117V199.963H365.617V201.967H365.117V203.972H365.617V205.976H365.117V207.98H365.617V209.985H365.117V211.989H365.617V213.994H365.117V215.998H365.617V218.002H365.117V220.007H365.617V222.011H365.117V224.016H365.617V226.02H365.117V228.024H365.617V230.029H365.117V232.033H365.617V234.038H365.117V236.042H365.617V238.046H365.117V240.051H365.617V242.055H365.117V244.06H365.617V246.064H365.117V248.068H365.617V250.073H365.117V252.077H365.617V254.082H365.117V256.086H365.617V258.09H365.117V260.095H365.617V262.099H365.117V264.104H365.617V266.108H365.117V267.11C365.117 267.323 365.074 267.543 364.993 267.759L365.461 267.935C365.264 268.458 364.895 268.929 364.436 269.246L364.152 268.834C363.962 268.964 363.759 269.059 363.552 269.11L362.591 269.347L362.711 269.832L360.79 270.307L360.67 269.822L358.749 270.297L358.869 270.782L356.948 271.257L356.828 270.772L354.907 271.246L355.027 271.732L353.106 272.207L352.986 271.721L351.065 272.196L351.185 272.681L349.263 273.156L349.143 272.671L347.222 273.146L347.342 273.631L345.421 274.106L345.301 273.621L343.38 274.095L343.5 274.581L341.579 275.056L341.459 274.57L339.538 275.045L339.658 275.53L337.737 276.005L337.617 275.52L335.695 275.995L335.815 276.48L333.894 276.955L333.774 276.47L331.853 276.944L331.973 277.43L330.052 277.905L329.932 277.419L328.011 277.894L328.131 278.379L326.21 278.854L326.09 278.369L324.169 278.844L324.289 279.329L322.367 279.804L322.248 279.319L320.326 279.793L320.446 280.279L318.525 280.754L318.405 280.268L316.484 280.743L316.604 281.228L314.683 281.703L314.563 281.218L312.642 281.693L312.762 282.178L310.841 282.653L310.721 282.167L308.8 282.642L308.92 283.128L306.998 283.603L306.878 283.117L304.957 283.592L305.077 284.077L303.156 284.552L303.036 284.067L301.115 284.542L301.235 285.027L299.314 285.502L299.194 285.016L297.273 285.491L297.393 285.977L295.472 286.452L295.352 285.966L293.43 286.441L293.55 286.926L291.629 287.401L291.509 286.916L289.588 287.391L289.708 287.876L287.787 288.351L287.667 287.865L285.746 288.34L285.866 288.826L283.945 289.301L283.825 288.815L281.904 289.29L282.024 289.775L280.102 290.25L279.982 289.765L278.061 290.24L278.181 290.725L276.26 291.2L276.14 290.714L274.219 291.189L274.339 291.675L272.418 292.15L272.298 291.664L270.377 292.139L270.497 292.624L268.576 293.099L268.456 292.614L266.534 293.089L266.654 293.574L264.733 294.049L264.613 293.563L262.692 294.038L262.812 294.524L260.891 294.998L260.771 294.513L258.85 294.988L258.97 295.473L257.049 295.948L256.929 295.463L255.008 295.938L255.128 296.423L253.206 296.898L253.086 296.412L251.165 296.887L251.285 297.373L249.364 297.847L249.244 297.362L247.323 297.837L247.443 298.322L245.522 298.797L245.402 298.312L243.481 298.787L243.601 299.272L241.68 299.747L241.56 299.261L239.638 299.736L239.758 300.222L237.837 300.696L237.717 300.211L235.796 300.686L235.916 301.171L233.995 301.646L233.875 301.161L231.954 301.636L232.074 302.121L230.153 302.596L230.033 302.11L228.112 302.585L228.232 303.071L226.311 303.545L226.191 303.06L224.269 303.535L224.389 304.02L222.468 304.495L222.348 304.01L220.427 304.485L220.547 304.97L218.626 305.445L218.506 304.959L216.585 305.434L216.705 305.92L214.784 306.394L214.664 305.909L212.743 306.384L212.863 306.869L210.941 307.344L210.821 306.859L208.9 307.333L209.02 307.819L207.099 308.294L206.979 307.808L205.058 308.283L205.178 308.769L203.257 309.243L203.137 308.758L201.216 309.233L201.336 309.718L199.415 310.193L199.295 309.708L197.374 310.182L197.494 310.668L195.572 311.143L195.452 310.657L193.531 311.132L193.651 311.618L191.73 312.092L191.61 311.607L189.689 312.082L189.809 312.567L187.888 313.042L187.768 312.557L185.847 313.031L185.967 313.517L184.046 313.992L183.926 313.506L182.965 313.744Z" stroke="#FF2C2C" stroke-dasharray="2 2"/>
<path d="M109.85 280.666L165.18 266.87C165.984 266.67 166.636 267.179 166.636 268.007V310.319C166.636 311.148 165.984 311.982 165.18 312.182L109.85 325.978C109.046 326.178 108.394 325.669 108.394 324.84V282.528C108.394 281.7 109.046 280.866 109.85 280.666Z" fill="#ABF6D6" stroke="#329168"/>
<path d="M45.8221 175.497L117.178 157.706C117.982 157.506 118.634 158.015 118.634 158.843V203.65C118.634 204.478 117.982 205.313 117.178 205.513L45.8221 223.304C45.0183 223.504 44.3667 222.995 44.3667 222.167V177.36C44.3667 176.532 45.0183 175.698 45.8221 175.497Z" fill="#ABF6D6" stroke="#329168"/>
<path d="M54.7458 200.452L57.1899 192.143L58.5881 191.794L61.0536 198.879L60.0931 199.119L59.4313 197.227L56.3254 198.001L55.6743 200.22L54.7458 200.452ZM56.6242 196.981L59.1325 196.355L57.8837 192.74L56.6242 196.981ZM62.2262 198.587V193.01L63.1121 192.789V193.427C63.4003 192.86 63.8379 192.487 64.4783 192.327C65.5136 192.069 66.3781 192.536 66.3781 193.966V197.552L65.4922 197.773V194.308C65.4922 193.428 64.9586 193.121 64.3822 193.264C63.6137 193.456 63.1121 194.153 63.1121 194.868V198.366L62.2262 198.587ZM70.4388 196.66C68.9659 197.027 67.8772 196.034 67.8772 194.384C67.8772 192.745 68.9659 191.208 70.4388 190.841C71.9117 190.474 73.011 191.465 73.011 193.104C73.011 194.754 71.9117 196.293 70.4388 196.66ZM70.4388 195.78C71.41 195.538 72.1038 194.463 72.1038 193.341C72.1038 192.208 71.41 191.479 70.4388 191.721C69.4675 191.963 68.7844 193.036 68.7844 194.169C68.7844 195.291 69.4675 196.022 70.4388 195.78ZM74.5567 195.512V189.935L75.4426 189.715V190.353C75.7308 189.786 76.1684 189.413 76.8088 189.253C77.8441 188.995 78.7086 189.461 78.7086 190.891V194.477L77.8227 194.698V191.233C77.8227 190.353 77.2891 190.046 76.7127 190.19C75.9442 190.382 75.4426 191.079 75.4426 191.794V195.292L74.5567 195.512ZM80.7451 195.961L81.8125 193.153L79.7845 188.632L80.7345 188.395L82.2928 191.868L83.9151 187.602L84.865 187.365L81.6844 195.726L80.7451 195.961ZM86.1472 192.623V187.046L87.0331 186.825V187.353C87.2892 186.86 87.6735 186.544 88.2178 186.408C88.7728 186.27 89.2104 186.414 89.4986 186.848C89.8188 186.218 90.3631 185.873 90.8541 185.751C91.9641 185.474 92.6686 186.091 92.6686 187.136V190.997L91.7827 191.218V187.434C91.7827 186.774 91.3771 186.523 90.8434 186.656C90.3418 186.781 89.8508 187.255 89.8508 187.915V191.699L88.965 191.92V188.136C88.965 187.476 88.506 187.239 87.9937 187.366C87.4707 187.497 87.0331 187.958 87.0331 188.618V192.402L86.1472 192.623ZM96.7258 190.106C95.2529 190.473 94.1642 189.48 94.1642 187.83C94.1642 186.191 95.2529 184.654 96.7258 184.287C98.1987 183.92 99.2981 184.911 99.2981 186.55C99.2981 188.2 98.1987 189.739 96.7258 190.106ZM96.7258 189.226C97.6971 188.984 98.3908 187.909 98.3908 186.787C98.3908 185.654 97.6971 184.925 96.7258 185.167C95.7546 185.409 95.0715 186.482 95.0715 187.615C95.0715 188.737 95.7546 189.468 96.7258 189.226ZM104.942 182.359V187.936L104.056 188.157V187.519C103.768 188.086 103.331 188.459 102.69 188.619C101.655 188.877 100.79 188.411 100.79 186.981V183.395L101.676 183.174V186.639C101.676 187.519 102.21 187.826 102.786 187.682C103.555 187.49 104.056 186.793 104.056 186.078V182.58L104.942 182.359ZM108.576 187.152C107.733 187.362 106.858 187.239 106.335 186.72L106.922 185.925C107.274 186.277 107.936 186.464 108.64 186.289C109.302 186.124 109.729 185.753 109.729 185.28C109.729 184.928 109.505 184.775 109.195 184.742L107.669 184.584C106.975 184.515 106.559 184.123 106.559 183.474C106.559 182.484 107.498 181.612 108.565 181.346C109.291 181.165 110.038 181.221 110.604 181.729L109.996 182.486C109.665 182.15 109.11 182.057 108.512 182.206C107.978 182.34 107.434 182.706 107.434 183.19C107.434 183.52 107.658 183.64 107.978 183.671L109.377 183.817C110.124 183.895 110.604 184.204 110.604 184.996C110.604 185.964 109.868 186.83 108.576 187.152Z" fill="#329168"/>
<path d="M125.472 302.378L127.916 294.069L129.314 293.72L131.78 300.806L130.819 301.045L130.158 299.153L127.052 299.928L126.401 302.147L125.472 302.378ZM127.351 298.907L129.859 298.282L128.61 294.666L127.351 298.907ZM135.078 300.104C133.701 300.448 132.527 299.596 132.527 297.847C132.527 296.032 133.882 294.595 135.12 294.286C135.729 294.134 136.198 294.171 136.455 294.404V291.94L137.34 291.719V299.419L136.455 299.64V299.156C136.23 299.575 135.707 299.947 135.078 300.104ZM135.12 299.214C135.686 299.073 136.209 298.689 136.455 298.133V295.493C136.22 295.145 135.782 295.001 135.131 295.163C134.373 295.352 133.434 296.279 133.434 297.621C133.434 298.809 134.192 299.445 135.12 299.214ZM141.436 298.519C140.059 298.862 138.885 298.011 138.885 296.262C138.885 294.447 140.24 293.009 141.479 292.701C142.087 292.549 142.556 292.608 142.813 292.918V292.478L143.699 292.257V297.834L142.813 298.055V297.571C142.589 297.99 142.066 298.362 141.436 298.519ZM141.479 297.629C142.044 297.488 142.567 297.104 142.813 296.548V293.908C142.578 293.559 142.14 293.416 141.489 293.578C140.731 293.767 139.792 294.694 139.792 296.036C139.792 297.224 140.55 297.86 141.479 297.629ZM145.617 297.356V291.779L146.502 291.558V292.086C146.759 291.593 147.143 291.277 147.687 291.142C148.242 291.003 148.68 291.147 148.968 291.581C149.288 290.951 149.832 290.607 150.323 290.484C151.433 290.208 152.138 290.824 152.138 291.869V295.73L151.252 295.951V292.167C151.252 291.507 150.846 291.256 150.313 291.389C149.811 291.514 149.32 291.988 149.32 292.648V296.432L148.434 296.653V292.869C148.434 292.209 147.975 291.972 147.463 292.099C146.94 292.23 146.502 292.691 146.502 293.351V297.135L145.617 297.356Z" fill="#329168"/>
<path d="M315.643 92.3688L296.621 97.4411" stroke="#329168" stroke-linecap="round"/>
<path d="M141.489 165.619L118.493 171.596" stroke="#329168" stroke-linecap="round"/>
<path d="M192.364 281.012L167.121 289.201" stroke="#329168" stroke-linecap="round"/>
<path d="M392.48 175.456L343.238 188.357" stroke="#329168" stroke-linecap="round"/>
<path d="M383.679 153.784L439.009 139.989C439.813 139.788 440.465 140.298 440.465 141.126V183.438C440.465 184.266 439.813 185.1 439.009 185.301L383.679 199.096C382.875 199.297 382.223 198.787 382.223 197.959V155.647C382.223 154.819 382.875 153.985 383.679 153.784Z" fill="#ABF6D6" stroke="#329168"/>
<path d="M401.505 175.311C400.523 175.556 399.403 175.396 398.677 174.741L399.253 173.893C399.84 174.308 400.523 174.632 401.505 174.387C402.711 174.087 403.224 173.42 403.224 172.683C403.224 172.276 402.957 171.925 402.391 171.857L400.385 171.62C399.328 171.498 398.933 170.926 398.933 170.189C398.933 168.869 400.064 167.74 401.516 167.378C402.807 167.056 403.629 167.357 404.099 167.735L403.48 168.593C403.01 168.27 402.402 168.081 401.559 168.291C400.513 168.552 399.862 169.22 399.862 169.869C399.862 170.309 400.128 170.595 400.651 170.651L402.637 170.882C403.661 171.001 404.163 171.514 404.163 172.427C404.163 173.923 402.967 174.947 401.505 175.311ZM407.94 173.707C406.563 174.05 405.389 173.199 405.389 171.45C405.389 169.635 406.745 168.197 407.983 167.888C408.591 167.737 409.061 167.796 409.317 168.106V167.666L410.203 167.445V173.022L409.317 173.243V172.759C409.093 173.178 408.57 173.55 407.94 173.707ZM407.983 172.816C408.549 172.675 409.072 172.292 409.317 171.736V169.096C409.082 168.747 408.645 168.603 407.994 168.766C407.236 168.955 406.297 169.882 406.297 171.224C406.297 172.412 407.054 173.048 407.983 172.816ZM412.121 172.544V166.967L413.007 166.746V167.582C413.199 167.061 413.775 166.51 414.522 166.324C414.949 166.217 415.238 166.212 415.536 166.346L415.109 167.333C414.949 167.251 414.725 167.252 414.448 167.322C413.786 167.486 413.167 168.037 413.007 169.045V172.323L412.121 172.544ZM418.78 171.004C417.403 171.348 416.229 170.496 416.229 168.747C416.229 166.932 417.585 165.494 418.823 165.186C419.431 165.034 419.901 165.093 420.157 165.403V164.963L421.043 164.742V170.319L420.157 170.54V170.056C419.933 170.475 419.41 170.847 418.78 171.004ZM418.823 170.114C419.389 169.973 419.912 169.589 420.157 169.033V166.393C419.922 166.045 419.485 165.901 418.834 166.063C418.076 166.252 417.137 167.179 417.137 168.521C417.137 169.709 417.894 170.345 418.823 170.114ZM425.213 163.581C426.248 163.323 427.113 163.79 427.113 165.22V168.806L426.227 169.027V165.562C426.227 164.682 425.693 164.375 425.117 164.518C424.348 164.71 423.847 165.407 423.847 166.122V169.62L422.961 169.841V162.141L423.847 161.92V164.681C424.135 164.114 424.573 163.741 425.213 163.581Z" fill="#329168"/>
<path d="M229.08 458.04C228.882 458.089 228.694 458.094 228.524 458.064L228.337 458.572C227.864 458.487 227.485 458.19 227.289 457.751L227.737 457.448C227.667 457.289 227.627 457.106 227.627 456.902V455.898L227.142 456.019V454.011L227.627 453.89V451.882L227.142 452.002V449.994L227.627 449.873V447.865L227.142 447.986V445.978L227.627 445.857V443.849L227.142 443.97V441.962L227.627 441.841V439.833L227.142 439.954V437.946L227.627 437.825V435.817L227.142 435.938V433.93L227.627 433.809V431.801L227.142 431.922V429.914L227.627 429.793V427.785L227.142 427.905V425.897L227.627 425.776V423.768L227.142 423.889V421.881L227.627 421.76V419.752L227.142 419.873V417.865L227.627 417.744V415.736L227.142 415.857V413.849L227.627 413.728V411.72L227.142 411.841V409.833L227.627 409.712V407.704L227.142 407.825V405.817L227.627 405.696V403.688L227.142 403.808V401.8L227.627 401.679V399.671L227.142 399.792V397.784L227.627 397.663V395.655L227.142 395.776V393.768L227.627 393.647V391.639L227.142 391.76V389.752L227.627 389.631V387.623L227.142 387.744V385.736L227.627 385.615V383.607L227.142 383.728V381.72L227.627 381.599V379.591L227.142 379.712V377.703L227.627 377.582V375.574L227.142 375.695V373.687L227.627 373.566V371.558L227.142 371.679V369.671L227.627 369.55V367.542L227.142 367.663V365.655L227.627 365.534V363.526L227.142 363.647V361.639L227.627 361.518V359.51L227.142 359.631V357.623L227.627 357.502V355.494L227.142 355.615V353.606L227.627 353.486V351.477L227.142 351.598V349.59L227.627 349.469V347.461L227.142 347.582V345.574L227.627 345.453V343.445L227.142 343.566V341.558L227.627 341.437V339.429L227.142 339.55V337.542L227.627 337.421V335.413L227.142 335.534V333.526L227.627 333.405V331.397L227.142 331.518V329.51L227.627 329.389V327.38L227.142 327.501V325.493L227.627 325.372V323.364L227.142 323.485V321.477L227.627 321.356V319.348L227.142 319.469V317.461L227.627 317.34V315.332L227.142 315.453V313.445L227.627 313.324V311.316L227.142 311.437V309.429L227.627 309.308V307.3L227.142 307.421V305.412L227.627 305.292V303.283L227.142 303.404V301.396L227.627 301.275V299.267L227.142 299.388V297.38L227.627 297.259V295.251L227.142 295.372V293.364L227.627 293.243V291.235L227.142 291.356V289.348L227.627 289.227V287.219L227.142 287.34V285.332L227.627 285.211V283.203L227.142 283.324V281.315L227.627 281.194V279.186L227.142 279.307V277.299L227.627 277.178V275.17L227.142 275.291V273.283L227.627 273.162V271.154L227.142 271.275V269.267L227.627 269.146V267.138L227.142 267.259V265.251L227.627 265.13V263.122L227.142 263.243V261.235L227.627 261.114V259.106L227.142 259.226V257.218L227.627 257.097V256.093C227.627 255.889 227.667 255.685 227.738 255.491L227.29 255.411C227.487 254.872 227.868 254.386 228.343 254.066L228.528 254.482C228.699 254.366 228.887 254.279 229.086 254.23L230.054 253.991L230.055 253.49L231.99 253.012L231.989 253.512L233.925 253.034L233.926 252.534L235.861 252.055L235.86 252.555L237.796 252.077L237.797 251.577L239.732 251.098L239.731 251.599L241.667 251.12L241.668 250.62L243.603 250.142L243.602 250.642L245.538 250.164L245.539 249.663L247.474 249.185L247.473 249.685L249.409 249.207L249.41 248.707L251.345 248.228L251.344 248.728L253.28 248.25L253.281 247.75L255.216 247.271L255.215 247.772L257.151 247.293L257.152 246.793L259.087 246.315L259.086 246.815L261.022 246.337L261.023 245.836L262.958 245.358L262.957 245.858L264.893 245.38L264.894 244.88L266.829 244.401L266.828 244.901L268.764 244.423L268.765 243.923L270.7 243.444L270.699 243.945L272.635 243.466L272.636 242.966L274.571 242.488L274.57 242.988L276.506 242.51L276.507 242.009L278.442 241.531L278.441 242.031L280.377 241.553L280.378 241.053L282.313 240.574L282.312 241.074L284.248 240.596L284.249 240.096L286.184 239.617L286.183 240.118L288.119 239.639L288.12 239.139L290.055 238.661L290.054 239.161L291.99 238.682L291.991 238.182L293.926 237.704L293.925 238.204L295.861 237.726L295.862 237.225L297.797 236.747L297.796 237.247L299.732 236.769L299.733 236.269L301.668 235.79L301.667 236.291L303.603 235.812L303.604 235.312L305.539 234.834L305.538 235.334L307.474 234.855L307.475 234.355L309.41 233.877L309.409 234.377L311.345 233.899L311.346 233.398L313.281 232.92L313.28 233.42L315.216 232.942L315.217 232.442L317.152 231.963L317.151 232.464L319.087 231.985L319.088 231.485L321.023 231.007L321.022 231.507L322.958 231.028L322.959 230.528L324.894 230.05L324.893 230.55L326.829 230.072L326.83 229.571L328.765 229.093L328.764 229.593L330.7 229.115L330.701 228.615L332.636 228.136L332.635 228.637L334.571 228.158L334.572 227.658L336.507 227.18L336.506 227.68L338.442 227.201L338.443 226.701L340.378 226.223L340.377 226.723L342.313 226.245L342.314 225.744L344.249 225.266L344.248 225.766L346.184 225.288L346.185 224.788L348.12 224.309L348.119 224.809L350.055 224.331L350.056 223.831L351.991 223.352L351.99 223.853L353.926 223.374L353.927 222.874L355.862 222.396L355.861 222.896L357.797 222.418L357.798 221.917L359.733 221.439L359.732 221.939L361.668 221.461L361.669 220.961L363.604 220.482L363.603 220.982L365.539 220.504L365.54 220.004L367.475 219.525L367.474 220.026L369.41 219.547L369.411 219.047L371.346 218.569L371.345 219.069L373.281 218.591L373.282 218.09L375.217 217.612L375.216 218.112L377.152 217.634L377.153 217.134L379.088 216.655L379.087 217.155L381.023 216.677L381.024 216.177L382.959 215.698L382.958 216.199L384.894 215.72L384.895 215.22L386.83 214.742L386.829 215.242L388.765 214.764L388.766 214.263L390.701 213.785L390.7 214.285L392.636 213.807L392.637 213.307L394.572 212.828L394.571 213.328L396.507 212.85L396.508 212.35L398.443 211.871L398.442 212.372L400.378 211.893L400.379 211.393L402.314 210.915L402.313 211.415L404.248 210.937L404.25 210.436L406.185 209.958L406.184 210.458L408.119 209.98L408.12 209.479L410.056 209.001L410.055 209.501L411.99 209.023L411.991 208.523L413.927 208.044L413.926 208.545L415.861 208.066L415.862 207.566L417.798 207.088L417.797 207.588L419.732 207.109L419.733 206.609L421.669 206.131L421.668 206.631L423.603 206.153L423.604 205.652L425.54 205.174L425.539 205.674L427.474 205.196L427.475 204.696L429.411 204.217L429.41 204.718L431.345 204.239L431.346 203.739L433.282 203.261L433.281 203.761L435.216 203.282L435.217 202.782L437.153 202.304L437.152 202.804L439.087 202.326L439.088 201.825L441.024 201.347L441.023 201.847L442.958 201.369L442.959 200.869L444.895 200.39L444.894 200.891L446.829 200.412L446.83 199.912L448.766 199.434L448.765 199.934L450.7 199.455L450.701 198.955L452.637 198.477L452.636 198.977L454.571 198.499L454.572 197.998L456.508 197.52L456.507 198.02L458.442 197.542L458.443 197.042L460.379 196.563L460.378 197.064L462.313 196.585L462.314 196.085L464.25 195.607L464.249 196.107L466.184 195.628L466.185 195.128L468.121 194.65L468.12 195.15L470.055 194.672L470.056 194.171L471.992 193.693L471.991 194.193L473.926 193.715L473.927 193.215L475.863 192.736L475.862 193.237L477.797 192.758L477.798 192.258L479.734 191.78L479.733 192.28L481.668 191.801L481.669 191.301L483.605 190.823L483.604 191.323L485.539 190.845L485.54 190.344L487.476 189.866L487.475 190.366L489.41 189.888L489.411 189.388L491.347 188.909L491.346 189.409L493.281 188.931L493.282 188.431L495.218 187.952L495.217 188.453L497.152 187.974L497.153 187.474L499.089 186.996L499.088 187.496L501.023 187.018L501.024 186.517L502.96 186.039L502.959 186.539L504.894 186.061L504.895 185.561L506.831 185.082L506.83 185.582L508.765 185.104L508.766 184.604L510.702 184.125L510.701 184.626L512.636 184.147L512.637 183.647L514.573 183.169L514.572 183.669L516.507 183.191L516.508 182.69L518.444 182.212L518.443 182.712L520.378 182.234L520.379 181.734L522.315 181.255L522.314 181.755L524.249 181.277L524.25 180.777L526.186 180.298L526.185 180.799L528.12 180.32L528.121 179.82L530.057 179.342L530.056 179.842L531.991 179.364L531.992 178.863L533.928 178.385L533.927 178.885L535.862 178.407L535.863 177.907L537.799 177.428L537.798 177.928L539.733 177.45L539.734 176.95L541.67 176.471L541.669 176.972L543.604 176.493L543.605 175.993L545.541 175.515L545.54 176.015L547.475 175.537L547.476 175.036L549.412 174.558L549.411 175.058L551.346 174.58L551.347 174.08L553.283 173.601L553.282 174.101L555.217 173.623L555.218 173.123L557.154 172.644L557.153 173.145L559.088 172.666L559.089 172.166L561.025 171.688L561.024 172.188L562.959 171.71L562.96 171.209L564.896 170.731L564.895 171.231L566.83 170.753L566.831 170.252L568.767 169.774L568.765 170.274L570.701 169.796L570.702 169.296L572.638 168.817L572.636 169.318L574.572 168.839L574.573 168.339L576.508 167.861L576.507 168.361L578.443 167.882L578.444 167.382L580.379 166.904L580.378 167.404L582.314 166.926L582.315 166.425L584.25 165.947L584.249 166.447L586.185 165.969L586.186 165.469L588.121 164.99L588.12 165.491L590.056 165.012L590.057 164.512L591.992 164.034L591.991 164.534L593.927 164.055L593.928 163.555L595.863 163.077L595.862 163.577L597.798 163.099L597.799 162.598L599.734 162.12L599.733 162.62L601.669 162.142L601.67 161.642L603.605 161.163L603.604 161.664L605.54 161.185L605.541 160.685L607.476 160.207L607.475 160.707L609.411 160.228L609.412 159.728L611.347 159.25L611.346 159.75L613.282 159.272L613.283 158.771L615.218 158.293L615.217 158.793L616.186 158.554C616.384 158.505 616.571 158.499 616.742 158.53L616.928 158.022C617.402 158.107 617.78 158.404 617.976 158.843L617.528 159.146C617.599 159.304 617.638 159.488 617.638 159.692V160.696L618.123 160.575V162.583L617.638 162.704V164.712L618.123 164.591V166.599L617.638 166.72V168.728L618.123 168.607V170.615L617.638 170.736V172.744L618.123 172.623V174.632L617.638 174.752V176.761L618.123 176.64V178.648L617.638 178.769V180.777L618.123 180.656V182.664L617.638 182.785V184.793L618.123 184.672V186.68L617.638 186.801V188.809L618.123 188.688V190.696L617.638 190.817V192.825L618.123 192.704V194.712L617.638 194.833V196.841L618.123 196.72V198.729L617.638 198.849V200.858L618.123 200.737V202.745L617.638 202.866V204.874L618.123 204.753V206.761L617.638 206.882V208.89L618.123 208.769V210.777L617.638 210.898V212.906L618.123 212.785V214.793L617.638 214.914V216.922L618.123 216.801V218.809L617.638 218.93V220.938L618.123 220.817V222.826L617.638 222.946V224.955L618.123 224.834V226.842L617.638 226.963V228.971L618.123 228.85V230.858L617.638 230.979V232.987L618.123 232.866V234.874L617.638 234.995V237.003L618.123 236.882V238.89L617.638 239.011V241.019L618.123 240.898V242.906L617.638 243.027V245.035L618.123 244.914V246.922L617.638 247.043V249.051L618.123 248.931V250.939L617.638 251.06V253.068L618.123 252.947V254.955L617.638 255.076V257.084L618.123 256.963V258.971L617.638 259.092V261.1L618.123 260.979V262.987L617.638 263.108V265.116L618.123 264.995V267.003L617.638 267.124V269.132L618.123 269.011V271.019L617.638 271.14V273.148L618.123 273.027V275.036L617.638 275.157V277.165L618.123 277.044V279.052L617.638 279.173V281.181L618.123 281.06V283.068L617.638 283.189V285.197L618.123 285.076V287.084L617.638 287.205V289.213L618.123 289.092V291.1L617.638 291.221V293.229L618.123 293.108V295.116L617.638 295.237V297.245L618.123 297.124V299.133L617.638 299.254V301.262L618.123 301.141V303.149L617.638 303.27V305.278L618.123 305.157V307.165L617.638 307.286V309.294L618.123 309.173V311.181L617.638 311.302V313.31L618.123 313.189V315.197L617.638 315.318V317.326L618.123 317.205V319.213L617.638 319.334V321.342L618.123 321.222V323.23L617.638 323.351V325.359L618.123 325.238V327.246L617.638 327.367V329.375L618.123 329.254V331.262L617.638 331.383V333.391L618.123 333.27V335.278L617.638 335.399V337.407L618.123 337.286V339.294L617.638 339.415V341.423L618.123 341.302V343.31L617.638 343.431V345.44L618.123 345.319V347.327L617.638 347.448V349.456L618.123 349.335V351.343L617.638 351.464V353.472L618.123 353.351V355.359L617.638 355.48V357.488L618.123 357.367V359.375L617.638 359.496V360.5C617.638 360.705 617.599 360.908 617.527 361.102L617.975 361.182C617.778 361.721 617.398 362.207 616.923 362.528L616.737 362.112C616.566 362.227 616.378 362.315 616.179 362.364L615.212 362.603L615.211 363.103L613.275 363.582L613.276 363.081L611.341 363.56L611.34 364.06L609.404 364.538L609.405 364.038L607.47 364.516L607.469 365.017L605.533 365.495L605.534 364.995L603.599 365.473L603.598 365.973L601.662 366.452L601.663 365.952L599.728 366.43L599.727 366.93L597.791 367.409L597.792 366.908L595.857 367.387L595.856 367.887L593.92 368.365L593.921 367.865L591.986 368.343L591.985 368.844L590.049 369.322L590.05 368.822L588.115 369.3L588.114 369.8L586.178 370.279L586.179 369.779L584.244 370.257L584.243 370.757L582.307 371.236L582.308 370.735L580.373 371.214L580.372 371.714L578.436 372.192L578.437 371.692L576.502 372.17L576.501 372.671L574.565 373.149L574.566 372.649L572.631 373.127L572.63 373.628L570.694 374.106L570.695 373.606L568.76 374.084L568.759 374.584L566.823 375.063L566.824 374.562L564.889 375.041L564.888 375.541L562.952 376.019L562.953 375.519L561.018 375.998L561.017 376.498L559.081 376.976L559.082 376.476L557.147 376.954L557.146 377.455L555.21 377.933L555.211 377.433L553.276 377.911L553.275 378.411L551.339 378.89L551.34 378.389L549.405 378.868L549.404 379.368L547.468 379.846L547.469 379.346L545.534 379.825L545.533 380.325L543.597 380.803L543.598 380.303L541.663 380.781L541.662 381.282L539.726 381.76L539.727 381.26L537.792 381.738L537.791 382.238L535.855 382.717L535.856 382.216L533.921 382.695L533.92 383.195L531.984 383.673L531.985 383.173L530.05 383.652L530.049 384.152L528.113 384.63L528.114 384.13L526.179 384.608L526.178 385.109L524.242 385.587L524.243 385.087L522.308 385.565L522.307 386.065L520.371 386.544L520.372 386.044L518.437 386.522L518.436 387.022L516.5 387.501L516.501 387L514.566 387.479L514.565 387.979L512.629 388.457L512.63 387.957L510.695 388.435L510.694 388.936L508.758 389.414L508.759 388.914L506.824 389.392L506.823 389.892L504.887 390.371L504.888 389.871L502.953 390.349L502.952 390.849L501.016 391.328L501.017 390.827L499.082 391.306L499.081 391.806L497.145 392.284L497.146 391.784L495.211 392.262L495.21 392.763L493.274 393.241L493.275 392.741L491.34 393.219L491.339 393.719L489.403 394.198L489.404 393.698L487.469 394.176L487.468 394.676L485.532 395.155L485.533 394.654L483.598 395.133L483.597 395.633L481.661 396.111L481.662 395.611L479.727 396.089L479.726 396.59L477.79 397.068L477.791 396.568L475.856 397.046L475.855 397.546L473.919 398.025L473.92 397.525L471.985 398.003L471.984 398.503L470.048 398.982L470.049 398.481L468.114 398.96L468.113 399.46L466.177 399.938L466.178 399.438L464.243 399.917L464.242 400.417L462.306 400.895L462.307 400.395L460.372 400.873L460.371 401.374L458.435 401.852L458.436 401.352L456.501 401.83L456.5 402.33L454.564 402.809L454.565 402.308L452.63 402.787L452.629 403.287L450.693 403.765L450.694 403.265L448.759 403.744L448.758 404.244L446.822 404.722L446.823 404.222L444.888 404.7L444.887 405.201L442.951 405.679L442.952 405.179L441.017 405.657L441.016 406.157L439.08 406.636L439.081 406.135L437.146 406.614L437.145 407.114L435.209 407.592L435.21 407.092L433.275 407.571L433.274 408.071L431.338 408.549L431.339 408.049L429.404 408.527L429.403 409.028L427.467 409.506L427.468 409.006L425.533 409.484L425.532 409.984L423.596 410.463L423.597 409.962L421.662 410.441L421.661 410.941L419.725 411.419L419.726 410.919L417.791 411.398L417.79 411.898L415.854 412.376L415.855 411.876L413.92 412.354L413.919 412.855L411.983 413.333L411.985 412.833L410.049 413.311L410.048 413.811L408.112 414.29L408.114 413.789L406.178 414.268L406.177 414.768L404.242 415.246L404.243 414.746L402.307 415.225L402.306 415.725L400.371 416.203L400.372 415.703L398.436 416.181L398.435 416.682L396.5 417.16L396.501 416.66L394.565 417.138L394.564 417.638L392.629 418.117L392.63 417.617L390.694 418.095L390.693 418.595L388.758 419.074L388.759 418.573L386.823 419.052L386.822 419.552L384.887 420.03L384.888 419.53L382.952 420.008L382.951 420.509L381.016 420.987L381.017 420.487L379.081 420.965L379.08 421.465L377.145 421.944L377.146 421.444L375.21 421.922L375.209 422.422L373.274 422.901L373.275 422.4L371.339 422.879L371.338 423.379L369.403 423.857L369.404 423.357L367.468 423.835L367.467 424.336L365.532 424.814L365.533 424.314L363.597 424.792L363.596 425.292L361.661 425.771L361.662 425.271L359.726 425.749L359.725 426.249L357.79 426.728L357.791 426.227L355.855 426.706L355.854 427.206L353.919 427.684L353.92 427.184L351.984 427.662L351.983 428.163L350.048 428.641L350.049 428.141L348.113 428.619L348.112 429.119L346.177 429.598L346.178 429.098L344.242 429.576L344.241 430.076L342.306 430.555L342.307 430.054L340.371 430.533L340.37 431.033L338.435 431.511L338.436 431.011L336.5 431.489L336.499 431.99L334.564 432.468L334.565 431.968L332.629 432.446L332.628 432.946L330.693 433.425L330.694 432.925L328.758 433.403L328.757 433.903L326.822 434.382L326.823 433.881L324.887 434.36L324.886 434.86L322.951 435.338L322.952 434.838L321.016 435.317L321.015 435.817L319.08 436.295L319.081 435.795L317.145 436.273L317.144 436.774L315.209 437.252L315.21 436.752L313.274 437.23L313.273 437.73L311.338 438.209L311.339 437.708L309.403 438.187L309.402 438.687L307.467 439.165L307.468 438.665L305.532 439.144L305.531 439.644L303.596 440.122L303.597 439.622L301.661 440.1L301.66 440.601L299.725 441.079L299.726 440.579L297.79 441.057L297.789 441.557L295.854 442.036L295.855 441.535L293.919 442.014L293.918 442.514L291.983 442.992L291.984 442.492L290.048 442.971L290.047 443.471L288.112 443.949L288.113 443.449L286.177 443.927L286.176 444.428L284.241 444.906L284.242 444.406L282.306 444.884L282.305 445.384L280.37 445.863L280.371 445.362L278.435 445.841L278.434 446.341L276.499 446.819L276.5 446.319L274.564 446.798L274.563 447.298L272.628 447.776L272.629 447.276L270.693 447.754L270.692 448.255L268.757 448.733L268.758 448.233L266.822 448.711L266.821 449.211L264.886 449.69L264.887 449.189L262.951 449.668L262.95 450.168L261.015 450.646L261.016 450.146L259.08 450.625L259.079 451.125L257.144 451.603L257.145 451.103L255.209 451.581L255.208 452.082L253.273 452.56L253.274 452.06L251.339 452.538L251.337 453.038L249.402 453.517L249.403 453.017L247.468 453.495L247.466 453.995L245.531 454.474L245.532 453.973L243.597 454.452L243.595 454.952L241.66 455.43L241.661 454.93L239.726 455.408L239.725 455.909L237.789 456.387L237.79 455.887L235.855 456.365L235.854 456.865L233.918 457.344L233.919 456.844L231.984 457.322L231.983 457.822L230.047 458.301L230.048 457.8L229.08 458.04Z" fill="#ECECEC" fill-opacity="0.8" stroke="#A22CFF" stroke-dasharray="2 2"/>
<path d="M506.976 230.349C505.308 230.765 504.243 229.572 504.243 227.772C504.243 225.972 505.308 224.249 506.976 223.833C507.911 223.6 508.566 223.869 508.993 224.428L508.373 225.05C508.094 224.652 507.596 224.452 506.967 224.609C505.841 224.89 505.011 226.213 505.011 227.581C505.011 228.949 505.841 229.858 506.967 229.577C507.596 229.42 508.094 228.981 508.373 228.452L509.002 228.737C508.574 229.518 507.911 230.116 506.976 230.349ZM511.883 229.107C510.678 229.408 509.787 228.595 509.787 227.245C509.787 225.904 510.678 224.647 511.883 224.346C513.088 224.046 513.988 224.857 513.988 226.198C513.988 227.548 513.088 228.807 511.883 229.107ZM511.883 228.387C512.678 228.189 513.245 227.31 513.245 226.392C513.245 225.465 512.678 224.868 511.883 225.066C511.088 225.265 510.529 226.142 510.529 227.069C510.529 227.987 511.088 228.586 511.883 228.387ZM515.252 228.168V221.868L515.977 221.688V227.988L515.252 228.168ZM517.546 227.596V221.296L518.271 221.116V227.416L517.546 227.596ZM521.718 226.646C520.504 226.949 519.535 226.282 519.535 224.797C519.535 223.402 520.486 222.201 521.552 221.936C522.844 221.614 523.552 222.499 523.552 223.642V223.984L520.277 224.801C520.294 225.696 521.01 226.103 521.692 225.933C522.198 225.807 522.565 225.508 522.792 225.146L523.325 225.49C522.967 226.047 522.416 226.472 521.718 226.646ZM522.818 223.519C522.739 222.918 522.355 222.455 521.543 222.658C520.949 222.806 520.399 223.402 520.268 224.155L522.818 223.519ZM526.689 225.407C525.458 225.714 524.515 224.941 524.515 223.573C524.515 222.205 525.467 220.96 526.689 220.655C527.423 220.472 527.938 220.658 528.27 221.044L527.711 221.624C527.484 221.375 527.126 221.275 526.681 221.386C525.886 221.584 525.257 222.407 525.257 223.388C525.257 224.36 525.886 224.887 526.681 224.689C527.126 224.578 527.475 224.293 527.711 223.937L528.261 224.25C527.903 224.816 527.414 225.226 526.689 225.407ZM531.04 224.232C530.507 224.365 530 224.266 530 223.51V220.648L529.014 220.894V220.174L530 219.928V218.515L530.725 218.011V219.748L531.904 219.454V220.174L530.725 220.468V223.078C530.725 223.465 530.952 223.525 531.214 223.46L531.721 223.333V224.062L531.04 224.232Z" fill="#A22CFF"/>
<path d="M317.245 277.401C316.441 277.602 315.524 277.47 314.93 276.934L315.402 276.241C315.882 276.58 316.441 276.846 317.245 276.645C318.231 276.399 318.651 275.854 318.651 275.251C318.651 274.918 318.432 274.63 317.969 274.575L316.328 274.381C315.463 274.281 315.14 273.813 315.14 273.21C315.14 272.13 316.066 271.206 317.253 270.91C318.31 270.647 318.982 270.893 319.367 271.202L318.86 271.904C318.476 271.64 317.978 271.485 317.288 271.657C316.432 271.871 315.9 272.418 315.9 272.949C315.9 273.309 316.118 273.542 316.546 273.588L318.17 273.777C319.009 273.874 319.419 274.294 319.419 275.041C319.419 276.265 318.441 277.103 317.245 277.401ZM320.856 278.031V271.839L321.581 271.658V272C321.834 271.64 322.306 271.387 322.716 271.285C323.834 271.006 324.794 271.622 324.794 273.152C324.794 274.628 323.869 275.741 322.716 276.028C322.201 276.157 321.773 276.056 321.581 275.825V277.85L320.856 278.031ZM322.672 275.319C323.432 275.13 324.052 274.354 324.052 273.337C324.052 272.194 323.301 271.859 322.664 272.018C322.148 272.147 321.79 272.416 321.581 272.801V274.988C321.782 275.343 322.21 275.434 322.672 275.319ZM327.84 274.76C326.713 275.041 325.752 274.344 325.752 272.913C325.752 271.428 326.861 270.252 327.874 269.999C328.372 269.875 328.756 269.923 328.966 270.177V269.817L329.691 269.636V274.199L328.966 274.38V273.984C328.783 274.327 328.355 274.631 327.84 274.76ZM327.874 274.031C328.337 273.916 328.765 273.602 328.966 273.147V270.987C328.774 270.702 328.416 270.584 327.883 270.717C327.263 270.871 326.495 271.63 326.495 272.728C326.495 273.7 327.115 274.22 327.874 274.031ZM332.806 273.422C332.273 273.555 331.767 273.457 331.767 272.701V269.839L330.78 270.085V269.365L331.767 269.119V267.706L332.491 267.201V268.938L333.67 268.644V269.364L332.491 269.658V272.268C332.491 272.655 332.719 272.715 332.98 272.65L333.487 272.524V273.253L332.806 273.422ZM335.37 267.176C335.056 267.254 334.803 267.057 334.803 266.733C334.803 266.391 335.056 266.075 335.37 265.997C335.702 265.914 335.955 266.103 335.955 266.445C335.955 266.769 335.702 267.093 335.37 267.176ZM335.021 272.87V268.307L335.746 268.126V272.689L335.021 272.87ZM339.096 271.953C337.97 272.234 337.009 271.537 337.009 270.106C337.009 268.621 338.118 267.445 339.131 267.192C339.629 267.068 340.013 267.116 340.223 267.37V267.01L340.948 266.829V271.392L340.223 271.573V271.177C340.04 271.52 339.612 271.825 339.096 271.953ZM339.131 271.224C339.594 271.109 340.022 270.795 340.223 270.34V268.18C340.031 267.895 339.673 267.777 339.14 267.91C338.52 268.065 337.752 268.823 337.752 269.921C337.752 270.893 338.372 271.414 339.131 271.224ZM342.517 271.001V264.701L343.242 264.52V270.82L342.517 271.001Z" fill="#A22CFF"/>
<path d="M410.539 228.504L407.913 221.458L408.885 221.216L411.073 227.073L413.25 220.128L414.2 219.891L411.585 228.243L410.539 228.504ZM415.912 220.311C415.528 220.407 415.218 220.165 415.218 219.769C415.218 219.351 415.528 218.966 415.912 218.87C416.318 218.769 416.627 219 416.627 219.418C416.627 219.814 416.318 220.21 415.912 220.311ZM415.485 227.271V221.694L416.371 221.473V227.05L415.485 227.271ZM420.584 226.109C419.1 226.479 417.915 225.664 417.915 223.849C417.915 222.144 419.079 220.677 420.381 220.352C421.96 219.958 422.825 221.041 422.825 222.438V222.856L418.823 223.853C418.844 224.948 419.719 225.445 420.552 225.237C421.171 225.083 421.619 224.718 421.896 224.275L422.548 224.696C422.11 225.377 421.438 225.896 420.584 226.109ZM421.928 222.287C421.832 221.552 421.363 220.987 420.37 221.235C419.644 221.416 418.972 222.144 418.812 223.064L421.928 222.287ZM425.342 224.813L423.58 219.675L424.477 219.452L425.833 223.437L427.188 218.776L428.181 218.528L429.59 222.555L431.009 217.823L431.895 217.602L430.038 223.642L429.12 223.871L427.69 219.707L426.291 224.576L425.342 224.813ZM434.829 222.569C433.985 222.779 433.11 222.656 432.587 222.138L433.174 221.342C433.527 221.694 434.188 221.881 434.893 221.706C435.554 221.541 435.981 221.17 435.981 220.697C435.981 220.345 435.757 220.192 435.448 220.159L433.921 220.001C433.228 219.932 432.811 219.541 432.811 218.892C432.811 217.902 433.751 217.029 434.818 216.763C435.544 216.582 436.291 216.638 436.857 217.146L436.248 217.903C435.917 217.567 435.362 217.475 434.765 217.624C434.231 217.757 433.687 218.123 433.687 218.607C433.687 218.937 433.911 219.058 434.231 219.088L435.629 219.234C436.376 219.312 436.857 219.621 436.857 220.413C436.857 221.381 436.12 222.247 434.829 222.569Z" fill="#A22CFF"/>
<rect x="0.485148" y="0.379039" width="182.464" height="142.182" rx="1.5" transform="matrix(0.970296 -0.241922 0 1 240.276 302.468)" fill="#ECD5FF" stroke="#A22CFF"/>
<mask id="mask0_235_547" style="mask-type:alpha" maskUnits="userSpaceOnUse" x="240" y="258" width="179" height="188">
<path d="M240.261 304.282C240.261 303.215 241.1 302.142 242.135 301.884L416.402 258.434C417.436 258.176 418.275 258.831 418.275 259.898V399.218C418.275 400.284 417.436 401.358 416.402 401.616L242.135 445.066C241.1 445.324 240.261 444.668 240.261 443.602V304.282Z" fill="black"/>
</mask>
<g mask="url(#mask0_235_547)">
<rect x="0.485148" y="0.379039" width="55.1695" height="41.3555" rx="1.5" transform="matrix(0.970296 -0.241922 0 1 376.6 355.959)" fill="#E0F397" stroke="#7A950E"/>
<rect x="0.485148" y="0.379039" width="55.1695" height="41.3555" rx="1.5" transform="matrix(0.970296 -0.241922 0 1 339.288 337.484)" fill="#E0F397" stroke="#7A950E"/>
<rect x="0.485148" y="0.379039" width="38.5694" height="28.838" rx="1.5" transform="matrix(0.970296 -0.241922 0 1 265.007 392.357)" fill="#E0F397" stroke="#7A950E"/>
<rect x="0.485148" y="0.379039" width="38.5694" height="28.838" rx="1.5" transform="matrix(0.970296 -0.241922 0 1 286.354 331.602)" fill="#E0F397" stroke="#7A950E"/>
<rect x="0.485148" y="0.379039" width="38.5694" height="28.838" rx="1.5" transform="matrix(0.970296 -0.241922 0 1 355.395 267.657)" fill="#E0F397" stroke="#7A950E"/>
<rect x="0.485148" y="0.379039" width="38.5694" height="28.838" rx="1.5" transform="matrix(0.970296 -0.241922 0 1 226.613 350.001)" fill="#E0F397" stroke="#7A950E"/>
</g>
<rect x="0.485148" y="0.379039" width="182.464" height="142.182" rx="1.5" transform="matrix(0.970296 -0.241922 0 1 240.276 302.468)" stroke="#A22CFF"/>
<rect x="0.485148" y="0.379039" width="180.807" height="140.889" rx="1.5" transform="matrix(0.970296 -0.241922 0 1 429.632 256.121)" fill="#ECD5FF" stroke="#A22CFF"/>
<mask id="mask1_235_547" style="mask-type:alpha" maskUnits="userSpaceOnUse" x="429" y="212" width="178" height="186">
<path d="M429.617 257.916C429.617 256.86 430.448 255.796 431.474 255.54L604.167 212.483C605.193 212.227 606.024 212.877 606.024 213.933V351.996C606.024 353.052 605.193 354.116 604.167 354.372L431.474 397.429C430.448 397.685 429.617 397.035 429.617 395.979V257.916Z" fill="black"/>
</mask>
<g mask="url(#mask1_235_547)">
<path d="M444.422 265.595C444.422 264.487 445.296 263.373 446.371 263.109L490.467 252.302C491.535 252.04 492.399 252.719 492.399 253.82V390.042C492.399 391.15 491.526 392.265 490.451 392.528L446.355 403.335C445.286 403.597 444.422 402.919 444.422 401.817V265.595Z" fill="#7A950E" fill-opacity="0.2"/>
<path d="M495.537 253.077C495.537 251.97 496.41 250.855 497.485 250.592L541.581 239.784C542.65 239.522 543.514 240.201 543.514 241.302V377.524C543.514 378.632 542.64 379.747 541.565 380.01L497.469 390.818C496.401 391.079 495.537 390.401 495.537 389.299V253.077Z" fill="#7A950E" fill-opacity="0.2"/>
<path d="M546.651 239.745C546.651 238.638 547.524 237.523 548.599 237.259L592.695 226.452C593.764 226.19 594.628 226.869 594.628 227.97V364.192C594.628 365.3 593.754 366.415 592.679 366.678L548.583 377.485C547.515 377.747 546.651 377.069 546.651 375.967V239.745Z" fill="#7A950E" fill-opacity="0.2"/>
<rect x="0.485148" y="0.379039" width="37.6619" height="28.1536" rx="1.5" transform="matrix(0.970296 -0.241922 0 1 450.164 308.792)" fill="#E0F397" stroke="#7A950E"/>
<rect x="0.485148" y="0.379039" width="37.6619" height="28.1536" rx="1.5" transform="matrix(0.970296 -0.241922 0 1 552.181 281.143)" fill="#E0F397" stroke="#7A950E"/>
<rect x="0.485148" y="0.379039" width="37.6619" height="28.1536" rx="1.5" transform="matrix(0.970296 -0.241922 0 1 450.164 374.579)" fill="#E0F397" stroke="#7A950E"/>
<rect x="0.485148" y="0.379039" width="37.6619" height="28.1536" rx="1.5" transform="matrix(0.970296 -0.241922 0 1 450.164 276.012)" fill="#E0F397" stroke="#7A950E"/>
<rect width="27.9315" height="4.77461" rx="2" transform="matrix(0.970296 -0.241922 0 1 454.309 266.419)" fill="#7A950E"/>
<rect width="27.9315" height="4.77461" rx="2" transform="matrix(0.970296 -0.241922 0 1 556.651 239.183)" fill="#7A950E"/>
<path d="M505.151 255.459C505.151 254.362 506.009 253.256 507.073 252.98L512.662 251.533C513.74 251.253 514.62 251.932 514.62 253.044V253.819C514.62 254.916 513.763 256.022 512.698 256.298L507.11 257.745C506.031 258.025 505.151 257.346 505.151 256.234V255.459Z" fill="#7A950E"/>
<rect x="0.485148" y="0.379039" width="37.6619" height="28.1536" rx="1.5" transform="matrix(0.970296 -0.241922 0 1 501.172 262.187)" fill="#E0F397" stroke="#7A950E"/>
<rect x="0.485148" y="0.379039" width="37.6619" height="28.1536" rx="1.5" transform="matrix(0.970296 -0.241922 0 1 552.181 248.363)" fill="#E0F397" stroke="#7A950E"/>
<rect x="0.485148" y="0.379039" width="37.6619" height="28.1536" rx="1.5" transform="matrix(0.970296 -0.241922 0 1 450.164 341.798)" fill="#E0F397" stroke="#7A950E"/>
<rect x="0.485148" y="0.379039" width="37.6619" height="28.1536" rx="1.5" transform="matrix(0.970296 -0.241922 0 1 552.181 314.149)" fill="#E0F397" stroke="#7A950E"/>
</g>
<rect x="0.485148" y="0.379039" width="180.807" height="140.889" rx="1.5" transform="matrix(0.970296 -0.241922 0 1 429.632 256.121)" stroke="#A22CFF"/>
</svg>
